<svg width="223" height="444" viewBox="0 0 223 444" fill="none" xmlns="http://www.w3.org/2000/svg">
<path fill-rule="evenodd" clip-rule="evenodd" d="M134.179 294.531C133.752 298.264 132.379 305.985 131.704 309.778C131.508 310.881 131.371 311.653 131.331 311.906C127.514 331.822 125.951 352.059 125.227 372.293C125.014 374.926 125.119 377.552 125.578 380.153C125.602 380.287 125.626 380.421 125.652 380.554C125.78 380.528 125.91 380.504 126.042 380.482C131.411 379.612 135.027 383.524 138.522 387.214C139.888 388.656 141.235 390.077 142.649 391.21C146.043 394.232 149.716 396.922 153.565 399.336C155.139 400.26 156.924 401.353 158.129 402.802C158.95 403.789 159.497 404.944 159.483 406.333L159.478 406.809L159.949 406.736C160.091 406.715 160.208 406.722 160.304 406.768C160.405 406.816 160.474 406.904 160.53 407.006C160.781 407.466 160.781 408.195 160.795 408.748C160.798 408.889 160.802 409.021 160.808 409.138C160.85 410.797 160.099 411.891 158.967 412.64C157.206 413.805 154.578 414.172 152.448 414.483C152.054 414.54 151.676 414.595 151.32 414.652C138.219 416.054 124.954 412.514 112.831 407.719C112.797 407.706 112.763 407.693 112.729 407.679C112.696 407.685 112.663 407.69 112.629 407.695C111.663 407.822 110.832 407.308 110.175 406.564C109.267 405.537 108.675 404.053 108.534 402.9C108.411 402.342 108.488 401.823 108.557 401.309C108.649 400.626 108.726 399.95 108.512 399.287C106.84 395.493 106.62 391.366 106.86 387.323C106.794 382.318 107.946 380.906 108.883 379.786C109.67 378.847 110.306 378.084 110.101 375.95C110.076 375.636 109.976 373.608 110.019 372.602L110.333 372.557C109.836 365.399 108.032 358.31 106.227 351.227C103.287 339.691 100.334 328.168 103.167 316.376C104.061 312.74 105.829 309.522 107.603 306.284C108.729 304.229 109.858 302.167 110.779 299.99C110.795 299.951 110.812 299.912 110.828 299.872C110.819 299.834 110.811 299.795 110.803 299.756C110.629 298.854 110.845 297.936 111.049 297.011C111.237 296.166 111.42 295.315 111.376 294.465C111.361 292.867 111.045 291.338 110.714 289.789C110.697 289.71 110.68 289.631 110.663 289.552C110.585 289.53 110.508 289.508 110.43 289.485C108.914 289.047 107.432 288.51 106.009 287.808L105.628 287.62L105.458 288.009C105.405 288.133 105.326 288.227 105.231 288.292C105.126 288.363 105.004 288.399 104.881 288.404C104.747 288.409 104.612 288.378 104.495 288.314C104.403 288.263 104.323 288.19 104.265 288.096C104.103 287.433 104.284 286.733 104.446 286.04C104.553 285.582 104.658 285.126 104.693 284.682C104.745 284.428 104.79 284.131 104.838 283.814C104.971 282.93 105.111 281.863 105.59 281.228C105.726 281.047 105.892 280.907 106.106 280.837C106.311 280.77 106.555 280.769 106.844 280.836C107.015 280.875 107.16 280.928 107.283 280.995C107.302 280.825 107.32 280.655 107.338 280.484C108.104 273.268 108.25 265.99 107.825 258.746C107.792 258.184 107.755 257.623 107.715 257.062C107.488 257.578 107.265 258.095 107.047 258.613C105.743 261.715 104.598 264.933 103.454 268.15C101.853 272.652 100.254 277.152 98.2128 281.323C98.1796 281.391 98.1464 281.459 98.1131 281.526C98.1526 281.569 98.1849 281.62 98.2117 281.676C98.26 281.776 98.2851 281.881 98.2654 281.986C98.2464 282.087 98.1867 282.183 98.0922 282.276C97.3344 283.009 96.9397 283.99 96.558 284.974C96.5387 285.023 96.5194 285.073 96.5001 285.123C96.213 286.027 95.7422 286.847 95.1031 287.476C94.5353 288.034 93.8339 288.44 93.0172 288.594C92.9315 288.61 92.846 288.623 92.7607 288.633C92.7396 288.723 92.7187 288.811 92.6981 288.899C92.5964 289.33 92.4905 289.786 92.38 290.261C91.0865 295.822 89.1523 304.162 85.6657 310.301C83.4342 314.23 80.5692 317.269 76.7816 317.982C76.5058 318.034 76.2301 318.072 75.9547 318.098C76.1848 318.214 76.3773 318.371 76.5109 318.589C76.9468 319.302 76.5118 320.273 76.1828 321.163C75.9885 321.689 75.8034 322.2 75.7305 322.652C75.3767 323.661 75.0806 324.698 74.7844 325.736C74.2413 327.639 73.6999 329.547 72.78 331.289C72.7454 331.354 72.7104 331.419 72.6751 331.484C72.712 331.528 72.7406 331.574 72.7624 331.628C72.7991 331.719 72.806 331.808 72.7958 331.916C72.7866 332.014 72.7671 332.092 72.7251 332.167C72.8141 332.203 72.9016 332.246 72.9872 332.299C73.3971 332.55 73.6479 332.932 73.7724 333.367C73.9234 333.895 73.8934 334.5 73.7319 335.073C73.5635 335.67 73.2508 336.235 72.8312 336.645C72.4792 336.989 72.0504 337.225 71.5674 337.253C71.5348 337.255 71.5024 337.256 71.4701 337.256C71.4441 337.274 71.4179 337.29 71.3917 337.305C71.1781 337.425 70.8807 337.49 70.6023 337.495L70.5066 338.29C70.5671 338.357 70.5761 338.392 70.5718 338.428C70.162 343.347 68.9903 348.144 67.8249 352.922C67.6086 353.809 67.3924 354.695 67.1812 355.581C66.7702 356.993 66.4664 358.448 66.1628 359.904C65.6644 362.293 65.1686 364.687 64.1739 366.89C64.1492 366.945 64.1243 366.999 64.0992 367.054C64.1237 367.106 64.1471 367.159 64.1693 367.212C64.6658 368.4 64.5644 369.773 64.3178 371.011C63.9164 371.469 63.1625 371.43 62.536 371.449C62.2955 371.456 62.0643 371.463 61.8564 371.485C61.7237 371.499 61.5828 371.52 61.4366 371.545C61.458 371.678 61.4782 371.811 61.4972 371.944C61.8012 374.076 61.7895 376.247 61.7794 378.411C61.7737 379.633 61.7681 380.854 61.8175 382.063C61.8234 382.206 61.83 382.349 61.8375 382.491C61.9681 382.472 62.1037 382.458 62.2443 382.45C63.6153 382.376 64.5677 382.938 65.2608 383.82C66.3321 385.182 66.8155 387.256 67.2405 389.023C67.3562 389.504 67.4669 389.964 67.5818 390.385C68.4552 393.304 69.573 396.118 70.6908 398.93C72.1807 402.678 73.6714 406.423 74.5617 410.4L74.6975 411.006L75.198 410.637C75.2429 410.604 75.2956 410.58 75.3541 410.578C75.4121 410.576 75.4729 410.594 75.5356 410.631C77.3245 411.703 77.344 413.914 77.4193 415.777C77.4259 415.941 77.4325 416.103 77.4399 416.263C77.4223 416.656 77.4512 417.08 77.4815 417.51C77.5543 418.541 77.7056 419.668 76.8314 420.328C70.6553 424.529 62.304 424.408 55.1655 423.305C52.3197 422.787 49.5415 421.922 46.9036 420.737C45.9066 420.4 45.1608 420.043 44.7046 419.457C44.3172 418.959 44.157 418.297 44.2198 417.378C44.0441 415.708 44.1948 414.118 44.343 412.526C44.4714 411.147 44.5986 409.765 44.5302 408.375C44.7396 403.035 45.9639 397.756 47.1674 392.557C47.2157 392.348 47.2639 392.14 47.312 391.932C47.3823 391.712 47.4533 391.487 47.5254 391.258C48.4524 388.319 49.5463 384.717 52.2089 383.07C52.2826 383.054 52.4017 383.05 52.5335 383.039C52.8849 383.01 53.2999 382.962 53.5468 382.844C53.5535 382.84 53.56 382.837 53.5665 382.834L53.4149 383.345L54.2074 383.006C54.3904 382.928 54.5819 382.869 54.7782 382.833C54.8429 382.821 54.9081 382.811 54.9736 382.803C55.0056 382.739 55.0371 382.676 55.0682 382.611C56.1462 380.387 56.6469 377.963 57.1434 375.538C57.4502 374.041 57.7562 372.543 58.2062 371.096C58.2449 370.971 58.2847 370.847 58.3255 370.723C58.2035 370.686 58.0832 370.644 57.965 370.599C56.7122 370.117 55.5756 369.155 55.2234 367.854C55.3083 367.486 55.4839 367.084 55.7494 366.783C55.9461 366.56 56.1953 366.39 56.5041 366.371L57.0605 366.336L56.8552 365.819C56.6518 365.306 56.6225 364.722 56.6848 364.172C57.7336 357.721 59.1307 351.324 60.6358 344.962C61.2086 342.596 61.8214 340.238 62.5134 337.904C62.6148 337.623 62.695 337.306 62.7767 336.98C62.9458 336.305 63.1002 335.566 63.5929 335.141C63.7099 335.04 63.8418 334.961 63.984 334.897C63.8573 334.783 63.7334 334.666 63.6124 334.547C62.5606 333.513 61.6686 332.256 61.6431 330.843C61.5938 330.25 61.8752 329.638 62.31 329.258C62.4529 329.133 62.6135 329.033 62.7867 328.972L63.4533 329.381C63.613 329.479 63.7656 329.591 63.9183 329.702C64.047 329.796 64.1758 329.89 64.3076 329.977L65.9011 331.028L64.8723 329.422C64.0631 328.158 64.4644 326.62 64.7901 325.206C64.878 324.824 64.9641 324.45 65.0296 324.089C65.1154 323.704 65.1998 323.317 65.2843 322.929C65.7955 320.586 66.3113 318.212 67.2097 316.005C67.2462 315.915 67.2835 315.825 67.3208 315.735C67.247 315.674 67.1734 315.611 67.0999 315.547C63.602 312.516 62.2332 308.776 62.0563 304.765C61.8013 298.983 63.9957 292.646 65.9394 287.004C66.4335 285.569 66.9122 284.18 67.3326 282.854C67.3614 282.763 67.3902 282.672 67.4188 282.581C67.34 282.519 67.2614 282.46 67.183 282.404C66.7068 282.062 66.1357 281.745 65.5465 281.42C64.0843 280.612 62.4234 279.771 62.2027 278.129C62.2272 277.247 62.5736 276.395 62.9049 275.558C63.0396 275.217 63.1731 274.88 63.2873 274.543C63.3757 274.148 63.6458 273.635 63.9897 273.402C64.0642 273.352 64.1426 273.311 64.2265 273.32C64.3011 273.328 64.3698 273.378 64.4406 273.453L64.9163 273.955L65.1217 273.295C65.2267 272.957 65.3322 272.62 65.4378 272.282C67.4514 265.834 69.4944 259.267 69.3105 252.457C69.3078 252.357 69.3046 252.257 69.3009 252.159C69.2016 252.126 69.1005 252.098 68.9976 252.074C68.2966 251.911 67.5843 251.975 66.8813 252.045C65.998 252.134 65.1198 252.256 64.3272 251.664C57.1068 246.152 57.8926 232.101 58.5108 223.9C58.5189 223.793 58.527 223.685 58.5352 223.578C58.4351 223.55 58.3351 223.519 58.2355 223.486C57.9002 223.374 57.5795 223.237 57.2878 223.064L57.0484 222.922L56.8298 223.094C56.724 223.099 56.662 223.036 56.5931 222.963C56.3111 222.664 56.0322 222.12 55.7546 221.454C54.7719 219.095 53.8927 215.233 53.6331 214.095C53.6266 214.067 53.6205 214.04 53.6138 214.01C48.3595 190.245 50.3697 165.739 52.3389 141.66C52.4796 139.939 52.6202 138.221 52.758 136.505C53.1819 133.333 53.3443 130.086 53.5066 126.833C53.8387 120.175 54.1636 113.486 56.7956 107.368C58.5533 102.899 63.5084 101.861 67.7165 100.921C67.832 100.895 67.947 100.87 68.0615 100.844C70.2531 100.192 72.4566 99.6895 74.6573 99.187C78.0299 98.4169 81.3955 97.6467 84.608 96.3831C84.7819 96.3147 84.9551 96.245 85.1278 96.1738C85.0045 96.0479 84.8909 95.9136 84.7885 95.7713C84.2244 94.9873 84.0034 93.9614 84.0614 92.9435C84.1216 91.8877 84.4825 90.8346 85.1015 90.0543C85.3442 89.8763 85.6296 89.8575 85.9188 89.9046C86.486 89.997 87.0776 90.3325 87.5588 90.5973C87.6064 90.6235 87.653 90.6491 87.6984 90.674L88.0597 90.8713L88.2514 90.5075C89.0082 89.0714 89.5335 87.4885 90.047 85.935C90.3435 85.0379 90.6364 84.151 90.9713 83.3103C91.9968 81.1467 93.7562 80.1094 95.7858 79.71C98.845 79.1081 102.504 79.9209 105.334 80.6257C105.435 80.6517 105.537 80.6775 105.64 80.7035C107.068 81.065 108.599 81.4413 109.785 82.3307C111.761 83.9059 112.181 86.355 112.628 88.7576C112.854 89.9739 113.081 91.1841 113.479 92.2884C113.524 92.4123 113.571 92.5359 113.62 92.6591C113.733 92.6084 113.843 92.57 113.95 92.5456C115.515 92.1884 118.95 94.2186 120.134 95.3C120.443 95.5047 120.585 95.7085 120.659 95.938C120.781 96.3203 120.742 96.7582 120.714 97.1904C120.701 97.3863 120.688 97.5817 120.686 97.7724C120.684 97.8839 120.686 97.9972 120.69 98.1112C120.798 98.1324 120.906 98.1534 121.014 98.1743C121.711 98.3093 122.422 98.4415 123.142 98.5753C128.297 99.5329 133.917 100.562 137.927 103.394C140.731 105.374 142.729 108.248 143.197 112.617C144.678 118.93 145.465 125.309 146.193 131.69C146.291 132.534 146.387 133.377 146.484 134.221C147.657 144.458 148.84 154.754 152.027 164.595C152.34 165.36 152.644 166.096 152.947 166.833C157.714 178.397 162.551 190.117 163.695 202.692C164.316 208.701 164.221 214.772 163.191 220.729C163.131 221.05 162.876 221.275 162.585 221.393C162.266 221.523 161.883 221.534 161.597 221.354L160.072 220.394L161.039 221.913C163.075 225.11 161.37 230.732 160.216 234.702C160.045 235.29 159.884 235.844 159.746 236.351C158.86 239.282 157.427 242.475 155.176 244.168C154.324 244.809 153.353 245.23 152.248 245.324C151.233 245.41 150.108 245.221 148.861 244.689C148.704 244.622 148.553 244.553 148.407 244.483C148.373 244.649 148.339 244.814 148.305 244.979C145.856 256.856 143.124 268.628 139.88 280.319L139.428 281.948L140.569 280.699C140.751 280.5 140.96 280.383 141.178 280.34C141.422 280.291 141.674 280.334 141.905 280.439C142.169 280.558 142.407 280.757 142.585 281.006C142.748 281.235 142.86 281.506 142.891 281.8C142.798 283.397 142.281 284.933 141.77 286.465C141.498 287.282 141.226 288.099 141.014 288.922C140.777 289.772 140.277 290.294 139.635 290.623C138.654 291.127 137.371 291.208 136.16 291.297C135.529 291.344 134.914 291.39 134.363 291.484C134.28 291.498 134.197 291.513 134.113 291.53C134.089 291.61 134.065 291.69 134.042 291.77C133.879 292.333 133.736 292.902 133.594 293.471C133.479 293.926 133.365 294.381 133.24 294.833L134.018 295.058C134.075 294.87 134.129 294.695 134.179 294.531V294.531ZM73.7557 223.795C73.7826 220.384 75.0008 217.168 76.208 213.957C76.7111 212.619 77.2136 211.281 77.6334 209.932C77.6583 209.852 77.683 209.772 77.7074 209.692C77.6441 209.628 77.5802 209.568 77.5157 209.51C77.2077 209.237 76.8273 208.988 76.4393 208.737C75.8978 208.386 75.3331 208.033 74.9971 207.557C74.7904 207.264 74.6833 206.919 74.7549 206.449C74.9499 202.933 75.1901 199.419 75.4779 195.911C75.5452 195.162 75.6133 194.412 75.6814 193.663C76.8818 180.449 78.091 167.084 75.7135 153.936C75.6088 153.337 75.4867 152.745 75.3645 152.152C75.2824 151.754 75.2003 151.355 75.1236 150.956C75.1126 150.897 75.1003 150.819 75.0859 150.728C75.0173 150.297 74.9029 149.61 74.6717 149.109C74.4629 148.656 74.1571 148.366 73.7908 148.302C73.6616 148.28 73.5299 148.287 73.3982 148.32C73.3745 148.414 73.351 148.509 73.3277 148.605C69.346 164.97 70.3452 181.665 71.3485 198.327C71.81 205.993 72.2714 213.652 72.2429 221.268C72.2426 221.343 72.2423 221.418 72.2419 221.493C72.2894 221.507 72.3349 221.532 72.3759 221.569C72.4793 221.663 72.5077 221.793 72.487 221.915C72.4619 222.063 72.3691 222.203 72.2267 222.278C72.177 222.305 72.124 222.321 72.0704 222.329C72.0545 222.401 72.0382 222.472 72.0214 222.544C71.9447 222.869 71.8587 223.192 71.7628 223.514C71.7393 223.592 71.7152 223.671 71.6906 223.75C71.751 223.807 71.8115 223.865 71.872 223.922C72.2788 224.308 72.6882 224.691 73.1017 225.07L73.8395 225.745L73.78 224.748C73.7609 224.429 73.7532 224.111 73.7557 223.795Z" fill="#F1F0E0"/>
<path fill-rule="evenodd" clip-rule="evenodd" d="M90.6655 83.2695C91.717 84.1198 90.6204 90.2512 89.7729 91.5025C95.5038 95.1859 101.294 98.7851 107.206 102.159L107.818 102.507H107.815C108.062 102.618 108.462 102.707 108.704 102.661L108.883 102.602C108.91 102.593 108.924 102.59 108.916 102.597C109.009 102.547 109.099 102.495 109.188 102.437L109.279 102.353C111.003 100.718 112.112 98.2828 113.437 96.2671C111.189 94.2877 112.309 90.4296 112.4 87.7942C112.825 87.7836 112.875 89.1299 112.997 89.5204L113.042 89.7684C113.21 90.6801 113.396 91.615 113.746 92.4645C114.719 91.2349 119.641 94.1399 120.563 95.0746C121.568 95.7138 121.26 96.8508 121.247 97.8503C130.588 99.6646 142.5 100.941 143.755 112.646C145.232 118.926 146.021 125.317 146.751 131.717L146.831 132.398C148.123 143.52 149.241 154.791 152.881 165.443L154.12 168.392C157.145 175.607 160.111 182.877 162.042 190.471C163.516 193.662 167.442 224.118 161.537 221.769C163.556 225.058 162.045 229.385 161.344 232.901C159.888 238.772 156.771 248.521 148.857 245.133C146.408 257.016 143.672 268.802 140.426 280.5C141.508 279.315 143.319 280.363 143.453 281.865C143.438 283.796 142.511 285.623 142.058 287.483L142.02 287.649C141.389 290.325 140.409 291.542 137.467 291.634C129.197 292.732 120.723 292.361 112.591 290.495C115.444 300.41 106.388 308.101 104.48 317.269C100.488 335.908 110.609 353.741 111.921 372.175C112.111 373.78 112.275 375.388 112.414 376.996C112.45 378.655 113.087 380.696 112.187 382.156C113.032 384.107 114.915 385.763 117.018 386.204C120.977 386.71 121.501 381.442 124.891 380.512C123.603 374.361 123.062 368.119 123.541 361.847L123.629 360.447C125.072 337.566 127.104 314.245 134.666 292.478C134.735 292.274 135.016 292.36 134.984 292.565C131.401 316.232 126.665 339.784 126.172 363.808C126.18 369.255 125.146 374.759 126.133 380.156C133.709 378.929 137.934 386.861 143.06 390.968C146.441 393.981 150.101 396.661 153.937 399.066L154.185 399.213C156.881 400.808 160.081 402.943 160.044 406.41C161.844 406.106 161.413 410.034 161.094 411.072C160.72 412.235 159.633 412.904 158.591 413.423C143.6 418.438 127.09 413.553 112.838 408.168C110.34 408.497 108.555 405.199 108.288 403.022C108.016 401.821 108.655 400.655 108.282 399.484C106.601 395.677 106.367 391.475 106.611 387.372C106.479 378.751 109.935 380.577 109.875 376.637L109.841 375.926C109.765 374.29 109.629 370.673 110.085 372.658C108.767 353.465 97.9032 334.63 103.227 315.288C104.838 309.761 108.333 305.21 110.561 299.905C110.224 298.16 111.223 296.354 111.127 294.551C111.115 292.976 110.799 291.472 110.474 289.947C108.934 289.502 107.43 288.956 105.986 288.243C105.502 289.351 103.698 288.951 103.944 287.551L104.446 284.698V284.698L104.465 284.604C104.77 283.041 104.824 279.99 107.091 280.514C107.856 273.32 107.999 266.064 107.576 258.842C104.444 266.292 102.235 274.414 98.7326 281.574C98.896 281.898 98.8797 282.301 98.5325 282.637C96.5517 284.885 96.8973 288.353 93.2482 289.064C90.7215 298.643 88.081 315.582 77.0125 318.451C77.75 319.615 76.4746 321.529 76.281 322.823C75.2561 325.731 74.7523 328.77 73.2941 331.55C73.3495 331.683 73.3738 331.844 73.3549 332.027C75.5113 333.342 74.1435 337.592 71.7469 337.729C71.4813 337.879 71.1126 337.966 70.7653 337.972C70.9881 338.045 71.1555 338.237 71.1298 338.549C70.6438 344.387 69.083 350.073 67.729 355.755C66.6395 359.489 66.303 363.592 64.699 367.129C65.2327 368.363 65.1157 369.879 64.8774 371.17C64.4116 372.088 62.9333 371.853 62.054 371.96C62.0581 371.966 62.0621 371.975 62.0648 371.983C62.0662 371.983 62.0662 371.983 62.0662 371.981C62.5317 375.311 62.2405 378.757 62.3781 382.119C66.6581 381.886 67.2754 387.231 68.1284 390.351C70.1626 397.15 73.5526 403.415 75.1128 410.385C75.3207 410.231 75.6029 410.184 75.8961 410.355C78.4484 411.979 77.8458 415.454 78.055 418.056C78.6789 422.664 69.9444 423.716 66.6175 424.197C59.1546 424.941 51.1018 423.807 44.611 419.947C43.3813 418.348 43.9651 412.531 44.3707 410.414C43.9932 404.362 45.7011 398.366 46.9211 392.482L47.0437 392.075C48.0302 388.783 49.1873 384.637 52.1965 382.772C52.5131 382.663 53.8731 382.754 53.696 382.236L53.6871 382.212C53.6074 382.02 53.9058 381.858 54.0354 382.01C54.3095 382.33 54.296 382.719 54.0219 383.045C53.6466 383.491 53.0457 383.401 52.5756 383.669C50.7941 385.493 50.1062 388.257 49.2774 390.624C49.8972 390.135 50.5195 389.668 51.1717 389.229C51.0448 389.125 50.9597 388.962 50.9368 388.796C50.254 388.107 52.0757 385.805 52.372 384.958C52.6434 384.448 53.1862 384.503 53.5035 384.81C56.4563 380.803 56.5813 375.665 57.9752 371.049L57.8951 371.017C56.5758 370.476 54.7142 369.014 55.0737 367.528C55.3327 366.851 55.8213 366.076 56.6345 366.04C56.409 365.47 56.3671 364.826 56.4386 364.193C57.4894 357.728 58.8891 351.318 60.3974 344.942C60.9784 342.536 61.6033 340.136 62.3088 337.763L62.451 337.289C62.6373 336.673 62.8547 335.377 63.4839 334.908C61.8666 333.399 60.2666 330.457 62.4267 328.851C63.2005 328.146 65.1177 329.091 63.8214 329.11C64.1192 329.292 64.3949 329.519 64.6869 329.712C63.6079 328.057 64.4626 325.866 64.7881 324.082L64.8764 323.682C65.4484 321.074 65.9871 318.39 66.9902 315.925C57.0502 307.341 63.8286 293.093 67.1023 282.805C64.9064 281.372 60.7193 279.889 62.2876 276.573C62.7545 275.647 63.3464 272.054 64.8907 273.248L65.5861 271.018C67.4589 264.993 69.2344 258.878 69.0614 252.54C67.6019 252.196 66.2749 252.914 64.8687 252.41C56.8257 247.451 57.6528 232.259 58.2628 223.942C57.8996 223.821 57.5526 223.671 57.2367 223.484C56.9572 223.692 56.5332 223.704 56.3698 223.321C55.958 222.355 55.4288 221.412 55.0707 220.429C45.7514 188.443 51.7025 154.736 53.5787 122.13C54.3099 115.431 54.3153 106.336 60.982 102.644C63.2192 101.587 65.744 101.133 68.1284 100.522C73.6002 98.8935 79.3155 98.1637 84.6153 96.0796C83.3822 94.3697 83.6754 91.876 84.703 90.1563C85.5177 88.9184 87.0819 89.8655 88.0487 90.3921C89.1646 88.1156 89.9302 85.6886 90.6655 83.2695ZM75.4057 411.854L75.4928 412.4C75.6731 413.535 75.8348 414.662 75.7702 415.818C76.097 416.025 76.2968 416.403 76.3198 416.783C76.3484 417.262 76.1086 417.726 75.5124 417.886C66.4125 420.226 56.232 420.726 47.5817 416.569C46.185 416.158 45.4793 414.989 45.077 413.674C45.1911 415.147 44.8931 417.944 45.7439 419.095C52.1024 422.397 59.5008 423.703 66.6175 422.889C69.8795 422.511 73.1887 421.632 75.9188 419.748C76.7931 419.361 76.4284 418.405 76.4468 417.654C76.2161 415.768 76.8169 413.358 75.4057 411.854ZM62.4004 388.793C57.9706 386.574 52.8889 389.376 49.0082 391.583C47.7926 398.062 44.7541 408.115 47.7161 414.132C55.4245 418.264 64.6285 417.943 72.9655 416.139C73.0735 416.032 73.1896 415.943 73.3314 415.878C73.3188 415.894 73.3785 415.85 73.3867 415.843C73.3881 415.839 73.3894 415.835 73.3894 415.832L73.4122 415.811C73.416 415.808 73.4198 415.805 73.4232 415.802C73.411 415.811 73.4016 415.817 73.3921 415.825L73.3935 415.817V415.817C73.3954 415.821 73.4388 415.781 73.4529 415.793L73.5022 415.756C73.5761 415.698 73.4798 415.756 73.3948 415.814C73.4195 415.71 73.4557 415.607 73.4704 415.501C73.4677 415.507 73.4677 415.513 73.4664 415.517C73.623 411.261 71.9996 406.981 70.6985 402.946C70.2638 401.72 69.8074 400.502 69.3538 399.283C68.2837 398.073 67.7023 396.371 67.0085 394.938L66.9599 394.839C65.8462 392.575 64.5762 390.202 62.4004 388.793ZM109.548 401.731C109.133 405.997 113.297 407.697 116.668 408.721C120.461 410.067 124.347 411.184 128.254 412.15C136.259 414.208 144.605 415.11 152.81 413.819L153.025 413.781C155.406 413.368 159.566 412.85 160.099 410.142L160.103 410.103C160.139 409.694 160.214 407.951 160.042 407.512C159.98 407.511 159.92 407.497 159.862 407.469C159.176 409.658 156.677 410.99 154.268 411.333C153.132 412.472 151.039 412.05 149.525 412.115C139.529 412.016 129.919 408.927 120.447 406.056C117.429 405.009 111.431 404.262 109.548 401.731ZM110.567 378.254C110.489 378.664 110.293 379.054 110.055 379.391C110.236 379.322 110.973 379.882 110.466 379.827C108.757 378.9 108.304 384.106 108.122 385.201C107.562 390.208 107.576 398.02 111.638 401.571C115.876 403.383 120.45 404.214 124.822 405.64L125.857 405.944C134.143 408.365 142.66 410.63 151.357 410.273C152.059 408.946 156.143 410.067 157.766 407.717C159.887 404.005 154.53 401.627 151.971 400.042C147.082 396.909 142.516 393.267 138.398 389.176C136.462 387.253 134.69 385.051 132.417 383.506L132.298 383.426C130.35 382.137 127.85 381.337 125.562 382.184C123.334 383.007 122.516 385.547 120.647 386.86C116.575 389.622 111.626 385.006 110.926 381.161C110.691 380.215 110.618 379.23 110.567 378.254ZM62.3856 382.674C62.3963 383.453 62.4179 384.232 62.4491 385.011C63.5893 385.188 64.081 386.568 64.5394 387.527C65.2836 388.499 65.7227 389.653 66.5752 390.573C66.2849 389.188 66.0729 387.789 65.7583 386.404C65.3465 384.581 64.3244 382.914 62.3856 382.674ZM54.5385 387.436C54.2347 387.47 53.931 387.497 53.6272 387.512L53.5306 387.634V387.634L53.4814 387.695C53.3895 387.81 53.295 387.923 53.2005 388.035C53.6369 387.814 54.0841 387.617 54.5385 387.436ZM58.5519 371.273C58.1751 374.456 57.9083 377.668 57.1666 380.791C56.7737 382.346 56.1648 383.82 55.3169 385.175C57.0074 385.751 58.8647 385.587 60.5893 385.295L60.5797 384.155C60.5496 380.067 60.5988 375.842 61.8841 371.956C60.7371 371.925 59.6432 371.659 58.5519 371.273ZM63.4379 368.23C63.3596 368.267 63.2786 368.299 63.1949 368.328C63.56 368.934 63.3636 369.837 63.1584 370.487C63.2948 370.466 63.4298 370.441 63.5648 370.411C63.6418 369.664 63.5581 368.962 63.4379 368.23ZM64.1095 335.475C62.9289 340.214 62.0507 345.101 60.9703 349.894C60.1235 354.011 59.2955 358.131 58.5478 362.266L58.3888 363.153C58.2619 363.87 57.8731 365.067 58.4455 365.682C58.9478 366.219 59.9969 366.473 60.6828 366.65C62.3513 367.223 63.7355 366.563 63.9599 364.755C65.9219 356.138 68.7752 347.678 69.8132 338.883L69.8517 338.548C69.8787 338.253 70.0637 338.065 70.2851 337.984C67.9997 337.941 65.8204 336.923 64.1095 335.475ZM71.5108 333.09L71.5189 333.029L71.4244 333.063V333.063L71.4676 333.077V333.077L71.5108 333.09ZM67.3428 316.197C66.9692 318.66 66.4606 321.104 66.0451 323.561L65.9293 324.258C65.5648 326.384 64.6766 328.813 66.9349 330.177C70.1196 332.956 72.2626 332.386 73.1526 328.146C74.0118 325.49 74.8196 322.817 75.5787 320.131L75.753 319.511C75.857 319.139 75.9663 318.827 76.2175 318.584C73.077 318.995 69.8811 318.074 67.3428 316.197ZM67.6214 283.094C66.6822 288.797 64.7481 294.264 63.7281 299.942C61.208 309.607 69.6469 321.276 79.8583 315.454C85.9102 310.974 87.4441 302.628 89.7492 295.885C90.3568 293.693 90.8469 291.492 91.2547 289.262C83.0282 289.183 74.8353 287.033 67.6214 283.094ZM111.449 290.215C111.82 290.84 112.094 291.522 112.289 292.228C112.372 291.659 112.065 290.927 112.278 290.421C112.001 290.355 111.724 290.287 111.449 290.215ZM107.057 280.86C106.848 280.903 106.66 281.013 106.483 281.172C106.917 283.293 106.252 285.5 106.115 287.641C116.692 290.055 127.614 291.654 138.424 289.777C140.381 289.725 140.317 286.341 140.98 284.878C141.18 283.883 141.776 282.853 141.67 281.839C141.572 281.693 141.452 281.752 141.524 281.686L141.543 281.669L141.522 281.686C140.95 282.141 140.011 281.647 140.133 280.998L140.139 280.973C140.032 281.054 139.907 281.099 139.776 281.117C140.55 281.817 139.811 283.088 138.824 282.776C129.431 286.463 116.319 285.643 107.269 281.676C107.039 281.527 106.998 281.16 107.057 280.86ZM64.7801 273.603C64.3319 273.213 64.1963 275.313 64.0779 275.647C63.9938 276.488 63.5906 277.339 63.6768 278.185C70.8406 284.367 82.3524 287.198 91.7604 287.325C92.0143 287.093 92.4031 287.069 92.7406 287.205C94.184 287.009 94.8673 285.639 95.2979 284.406L95.3991 284.151C95.6195 283.6 95.849 283.052 96.1404 282.541C85.5715 282.873 74.6711 280.851 65.4471 275.54C64.1431 275.664 64.4384 274.438 64.7801 273.603ZM70.7104 223.477C66.8579 224.81 62.6545 225.082 58.6858 224.07C59.5564 230.582 60.4308 246.009 65.9767 249.77C66.9137 249.635 67.8548 249.569 68.8012 249.664C69.3643 249.719 69.9212 249.81 70.4795 249.897C70.6893 249.926 71.107 249.947 71.3738 249.929L71.4192 249.925C71.3293 249.931 71.2645 249.928 71.4594 249.919L71.4813 249.918L71.5396 249.914C73.4626 249.741 75.1981 247.03 77.1007 248.331C77.38 247.909 77.8024 247.638 78.1268 247.262C79.5708 244.738 78.0368 241.489 79.0017 238.827C78.6372 238.33 78.7573 237.585 79.3298 237.159C80.2219 236.341 82.1079 236.95 82.6215 235.775C82.5863 235.839 82.5838 235.766 82.5975 235.727L82.6008 235.719L82.5102 235.644C78.5691 232.387 74.7582 228.746 72.1755 224.227L72.0889 224.074C71.5949 224.553 70.783 224.187 70.7104 223.477ZM160.7 221.268C157.871 222.812 154.817 223.914 151.649 224.521C151.091 230.447 150.399 236.365 149.397 242.234C150.952 242.367 152.544 243.034 153.899 241.942C157.749 238.206 159.136 230.694 160.648 225.62L160.708 225.389C161.026 224.145 161.39 222.423 160.7 221.268ZM121.238 98.2663C120.833 100.286 123.063 122.279 118.996 118.517C116.244 114.202 113.096 110.163 110.281 105.893C109.893 107.419 111.028 109.234 110.492 110.528C117.654 146.357 122.85 182.739 124.775 219.238C127.941 221.457 130.716 224.148 133.438 226.874C134.286 227.594 134.901 228.771 135.954 229.185C140.34 224.234 145.425 219.96 150.01 215.2C149.977 214.968 149.944 214.736 149.91 214.504C149.78 213.611 150.963 213.166 151.357 213.759C152.989 211.62 153.125 204.996 152.79 202.217C152.127 195.985 149.798 190.031 148.134 184.025C143.338 165.653 140.02 146.379 141.59 127.36C141.613 127.184 141.848 127.181 141.869 127.36C143.172 147.453 145.203 167.603 151.255 186.916L151.399 187.393C153.763 195.199 156.688 203.474 154.664 211.66C154.832 212.762 154.302 213.86 153.501 214.653C153.056 215.731 152.547 216.795 151.907 217.764C152.053 219.448 151.986 221.154 151.803 222.844C155.057 222.193 158.092 220.89 160.982 219.289C161.147 218.354 161.292 217.416 161.404 216.474C163.558 199.008 156.988 182.021 150.416 166.165C144.153 147.687 145.376 127.633 140.143 108.94C136.832 101.651 127.787 101.078 121.238 98.2663ZM85.7396 96.9128C84.1603 97.4584 82.5813 98.1305 80.8925 98.178C75.8333 99.8586 70.6457 101.149 65.5027 102.552L65.0052 102.688C62.8098 103.29 60.5928 103.979 59.1117 105.819C57.6913 107.584 57.0972 109.857 56.6332 112.028C54.4579 130.996 53.2255 150.155 52.1204 169.237C51.5786 185.124 51.8874 201.277 55.955 216.736C56.5294 218.854 57.2279 220.98 57.4753 223.156C57.771 223.16 58.068 223.18 58.3664 223.209C58.371 223.067 58.5873 223.091 58.5716 223.23C62.524 223.852 66.632 223.484 70.341 221.954C69.4248 194.122 63.47 163.916 76.9582 138.097C77.0135 137.999 77.1809 138.066 77.1431 138.175L76.8106 139.133C75.7408 142.219 74.6955 145.309 73.9432 148.491C75.0153 148.332 75.797 150.839 75.9997 151.453C81.8457 169.171 78.2453 188.078 77.5009 206.275C79.5059 207.722 81.5015 209.181 83.5132 210.618C91.6236 216.408 99.8056 222.111 108.19 227.5C112.941 224.418 117.197 220.376 122.078 217.581C120.683 179.988 112.999 142.793 108.822 105.664C107.273 107.586 105.695 109.486 104.119 111.386C102.093 113.869 100.134 116.417 98.1355 118.924C97.7223 119.445 96.8218 119.243 96.5274 118.718C92.5918 111.619 90.0896 103.778 85.7396 96.9128ZM73.8761 148.774C68.0697 172.636 72.894 197.21 72.8027 221.343C73.2346 221.725 73.0745 222.448 72.5705 222.71C72.4962 223.042 72.4084 223.372 72.3058 223.703C72.7109 224.087 73.1186 224.468 73.5304 224.845C73.2172 219.592 75.8662 214.819 77.4013 209.886C76.6312 209.306 75.8184 208.78 75.0683 208.177C74.5352 207.713 74.4715 207.207 74.5029 206.546L74.5052 206.5C75.2316 190.947 78.0327 175.397 76.2645 159.819C75.9883 156.887 75.4874 153.984 74.8806 151.105L74.8672 151.03C74.7698 150.453 74.5862 148.898 73.8761 148.774ZM160.961 221.126L160.914 221.151L161.019 221.24C160.997 221.204 160.978 221.165 160.961 221.126ZM126.229 212.996C124.883 211.68 126.961 209.592 128.289 210.94C129.634 212.259 127.555 214.346 126.229 212.996ZM125.342 197.34C125.044 196.562 125.871 195.327 126.746 195.844L126.773 195.861L126.785 195.845C127.612 196.332 127.307 197.343 126.821 197.945C126.283 198.499 125.612 197.841 125.342 197.34ZM124.079 179.315C121.738 176.254 126.656 174.998 125.85 178.767C125.678 179.471 124.262 180.499 124.079 179.315ZM120.616 162.261C119.373 160.745 122.044 159.441 122.603 161.25C122.923 162.457 121.414 163.201 120.616 162.261ZM133.047 124.663C133.783 124.778 137.504 124.019 136.546 125.565C138.042 133.028 142.251 142.133 136.242 148.655L136.188 148.707C135.302 149.591 133.885 151.691 132.529 150.826C129.518 148.291 125.64 146.48 123.339 143.237C122.372 140.692 123.196 137.849 122.94 135.187C122.831 131.82 122.269 128.483 122.149 125.122C122.143 124.959 122.32 124.906 122.431 124.975C125.961 124.695 129.51 124.757 133.047 124.663ZM122.551 125.21C124.148 130.398 124.184 135.946 124.141 141.324C124.166 141.878 124.264 142.418 124.554 142.841C126.837 145.528 130.09 147.212 132.8 149.443C133.897 148.728 134.765 147.814 135.543 146.777C140.305 140.557 135.99 132.728 135.995 125.803L135.385 125.804C131.111 125.81 126.796 125.754 122.551 125.21ZM118.957 144.479L118.999 144.479C120.636 144.484 120.261 147.254 118.715 146.874C117.412 146.566 117.611 144.496 118.957 144.479V144.479ZM115.744 130.34C114.609 128.41 118.353 127.664 117.959 129.893L117.968 129.801C117.969 129.784 117.971 129.768 117.973 129.754L117.944 129.963V129.963C117.808 130.949 115.858 131.655 115.744 130.34ZM113.185 114.368L113.23 114.357C114.271 114.081 115.04 115.54 114.146 116.194C112.832 117.184 111.699 114.754 113.185 114.368V114.368ZM87.7149 91.7508L87.5879 91.6336C86.23 90.3889 85.2115 89.7664 84.9106 92.3032C84.701 93.5402 84.8809 95.1004 86.0691 95.832C91.7579 101.446 93.9136 109.461 97.5791 116.366C100.889 112.365 103.969 108.2 107.171 104.118C102.761 101.435 98.3069 98.7738 93.9567 95.975C91.8774 94.5952 89.6402 93.3393 87.7149 91.7508ZM116.352 95.0596C114.641 97.847 113.061 100.862 110.88 103.329C110.602 103.608 110.313 103.829 110.014 103.997C110.441 103.874 111.006 104.193 110.953 104.66C114.128 107.82 116.724 111.495 119.205 115.215C119.679 109.062 118.775 102.884 119.125 96.7223C118.319 95.9826 117.359 95.4759 116.352 95.0596Z" fill="black"/>
<path fill-rule="evenodd" clip-rule="evenodd" d="M117.912 44.0233C109.032 36.8205 94.8019 34.4817 85.2963 41.7486C77.9104 48.5684 74.8539 67.9481 76.161 77.6863C76.5244 83.9323 81.306 91.0119 88.3251 89.0364C89.517 88.9193 90.6744 88.4633 91.8773 88.3678C93.3161 88.2025 94.7659 88.1997 96.202 88.4022C99.3311 88.8439 102.105 90.5019 105.142 91.2771C110.778 92.7153 117.065 91.7479 121.916 88.5081C137.946 77.9902 130.685 54.2032 117.912 44.0233V44.0233Z" fill="#F1F0E0"/>
<path fill-rule="evenodd" clip-rule="evenodd" d="M116.725 91.4511C116.89 91.3944 117.055 91.3353 117.218 91.2746C117.229 91.3124 117.246 91.3486 117.267 91.3838C117.29 91.4404 117.313 91.4955 117.338 91.5507C117.133 91.5522 116.928 91.5157 116.725 91.4511M116.397 21.6509C116.324 21.488 116.24 21.3317 116.146 21.1807C116.375 21.2549 116.605 21.3573 116.813 21.4894C116.672 21.5365 116.535 21.5904 116.397 21.6509M81.3211 42.9625C81.3117 42.9609 81.3023 42.9596 81.293 42.9579C81.4135 42.6379 81.628 42.3358 81.865 42.1177C81.9075 42.0785 81.9535 42.0422 81.9981 42.0048C81.7465 42.3038 81.5184 42.6227 81.3211 42.9625M145.501 76.4257C145.382 75.3019 145.231 74.1824 145.035 73.0692C144.847 72.0035 144.689 70.8636 144.145 69.9177C143.605 68.9759 143.064 68.0608 142.421 67.2323C142.513 66.8092 142.635 66.4117 142.74 66.091C143.347 64.245 143.946 61.9005 142.683 60.1852C142.39 59.7877 142.032 59.4832 141.623 59.2083C141.449 59.091 141.16 58.9846 141.026 58.8229C140.932 58.7084 140.965 58.7704 140.96 58.7138C140.937 58.4092 141.653 57.7665 141.82 57.5253C142.134 57.0792 142.367 56.5767 142.545 56.0634C143.25 54.0314 142.771 51.7933 142.347 49.7572C142.123 48.678 141.876 47.596 141.795 46.4938C141.719 45.459 141.861 44.4484 141.945 43.419C142.026 42.4029 142.004 41.3547 141.568 40.4141C141.355 39.9559 141.032 39.5517 140.639 39.2364C140.256 38.928 139.778 38.7488 139.404 38.4415C139.031 38.1355 139.138 37.722 139.235 37.2989C139.368 36.7249 139.537 36.1549 139.553 35.5621C139.583 34.5286 139.161 33.5219 138.5 32.7405C137.82 31.9334 136.848 31.3876 135.797 31.265C135.317 31.2084 134.844 31.3042 134.366 31.2705C133.894 31.2381 133.791 31.0023 133.702 30.5712C133.497 29.5835 133.58 28.6079 133.093 27.6863C132.661 26.8671 131.893 26.3118 131.043 25.9845C129.487 25.3835 127.676 25.5075 126.034 25.8617C125.065 23.0161 122.039 21.1499 119.062 21.127C118.598 20.3401 117.81 19.7526 116.913 19.4075C115.428 18.8348 113.854 19.1691 112.307 19.1691H112.301C112.145 19.1596 111.99 19.1557 111.835 19.157C111.689 19.1488 111.543 19.1367 111.397 19.1206C109.637 18.913 107.895 18.1935 106.15 18.8983C105.373 19.2123 104.754 19.696 104.363 20.3131C103.773 20.4733 103.191 20.6567 102.62 20.8696C100.145 20.9341 97.693 22.2587 96.4415 24.4053C94.6796 24.2059 92.7677 24.5441 91.6024 25.9804C91.2989 26.3542 91.0638 26.7933 90.908 27.2596C89.7199 27.643 88.6204 28.3263 87.9009 29.3555C87.2443 30.2947 87.1182 31.509 87.5623 32.5171C86.5016 33.284 85.6727 34.3817 85.2735 35.678C85.0309 36.4655 84.9948 37.2792 85.1509 38.0544C84.065 38.2948 83.0263 38.7404 82.106 39.4091C81.1416 40.1097 79.9371 41.2247 79.8737 42.508C79.8689 42.6022 79.8726 42.6964 79.8801 42.7903C77.757 42.6414 75.5922 43.0003 74.1571 44.6991C73.0795 45.9736 72.6111 47.6149 72.8987 49.1092C70.3726 49.6212 67.984 50.939 66.3179 52.8874C65.1069 54.3036 64.0308 56.1038 64.0955 58.0318C64.1158 58.6127 64.2523 59.1975 64.4885 59.7378V59.739C64.3873 59.9292 64.2832 60.1407 64.1833 60.3657C62.6184 61.4584 61.4816 63.1711 60.8416 65.0588C60.3246 66.5881 59.9993 68.5743 60.5513 70.1306C60.6352 70.3678 60.7418 70.5914 60.8661 70.7988C60.762 70.9094 60.6635 71.0199 60.5677 71.1318C59.5131 72.3618 58.4451 73.9114 58.5181 75.6051C58.5478 76.2871 58.8015 76.9729 59.2162 77.536C57.7578 79.0116 56.5833 80.8737 56.6993 82.9528C56.7992 84.7624 57.7944 86.6003 59.3537 87.4694C59.0933 88.864 59.4416 90.3355 60.5297 91.4242C61.0726 91.9685 61.7125 92.327 62.3904 92.5183C62.5416 94.1608 64.0024 95.4827 65.5537 95.8625C65.8428 95.9341 66.1317 95.9772 66.4191 95.9972C67.8152 96.6805 69.48 96.6023 70.9044 95.9757C71.3243 96.5081 71.8711 96.9419 72.5084 97.2532C72.7663 97.3799 73.0391 97.485 73.3239 97.5697C75.3356 98.1639 77.3988 97.3583 79.1579 96.4178C79.2146 96.3881 79.3186 96.3504 79.4104 96.3086C79.6535 96.5795 80.0963 96.8476 80.3272 96.9797C81.1104 97.4284 82.0677 97.6371 82.9669 97.5779C84.0214 97.5079 84.9515 97.1602 85.8129 96.6657C85.9386 96.6873 86.0654 96.6994 86.1924 96.7061C87.0025 96.7491 87.7247 96.4932 88.3743 96.089C88.8035 96.1456 89.2437 96.1402 89.6892 96.0621C90.6709 96.3112 91.6268 95.9152 92.3949 95.2859C92.7353 95.007 93.0228 94.6796 93.3307 94.367C93.6506 94.0421 93.8938 93.9668 94.2676 93.7485C95.1521 93.2324 95.2586 91.9241 94.8752 90.978C94.9481 90.8124 94.9901 90.6278 94.9901 90.423C94.9873 88.6363 94.1624 86.9978 93.1498 85.5682C92.6974 84.9309 92.2061 84.3069 91.6672 83.7411C91.2338 83.2869 90.625 82.5499 89.9837 82.3652C89.9445 82.3371 89.9039 82.3086 89.8634 82.2818C89.9877 81.8478 90.0605 81.406 90.0296 80.9546C89.9971 80.4909 89.8472 80.0517 89.607 79.6772C90.4129 78.1182 90.7533 76.4083 90.5913 74.6243C91.2473 73.6958 91.7443 72.6705 92.0007 71.5468C92.1587 70.8515 92.2493 70.1198 92.237 69.4069C92.2316 69.0648 92.106 68.6321 92.1034 68.2779C92.1223 68.3897 92.2682 67.972 92.3249 67.8681C92.9755 66.6623 93.8113 65.7218 93.9505 64.3002C94.0313 63.4687 93.8342 62.5499 93.3347 61.8681C93.6546 60.6096 93.6506 59.258 93.147 58.0576C93.012 57.7369 92.8568 57.4229 92.6786 57.1251C92.7608 56.8745 92.8366 56.6212 92.9337 56.3933C92.9716 56.3031 93.0093 56.2116 93.0471 56.1199C93.413 55.7978 93.7533 55.4462 94.0396 55.1011C94.674 54.3373 95.1589 53.4614 95.2196 52.4521C95.2493 51.9468 95.1305 51.4631 94.9833 50.9835C94.9184 50.7666 94.8792 50.5254 94.8023 50.3138C94.7592 50.1965 94.6551 50.0767 94.6188 49.9662C94.6106 49.9419 94.6038 49.9217 94.5984 49.9056C94.6038 49.8894 94.608 49.8557 94.608 49.7922C94.6092 49.3085 94.6727 48.8356 94.6755 48.3695C95.1197 48.8168 95.6544 49.1509 96.2619 49.3464C97.4864 49.7385 98.7638 49.5606 99.8478 48.9556C101.015 49.7533 102.325 50.4754 103.7 50.7652C104.517 50.9376 105.335 50.8663 106.154 50.9727C106.969 51.0792 107.756 51.4336 108.523 51.7098C110.229 52.3256 111.932 52.9574 113.644 53.5571C115.026 54.0408 116.522 54.4249 117.97 54.1527C118.376 54.7778 118.904 55.3061 119.581 55.6942C120.065 55.9704 120.597 56.1575 121.147 56.2506C121.633 56.3328 122.203 56.3005 122.597 56.6333C122.982 56.9567 123.222 57.4389 123.568 57.8029C123.952 58.2098 124.428 58.5628 124.926 58.8162C125.325 59.0196 125.733 59.1664 126.148 59.2622C126.111 60.1825 126.076 61.1014 126.065 62.0231C126.045 64.0254 126.053 66.0275 126.026 68.03C125.999 70.0254 125.936 72.0211 125.831 74.0139C125.73 75.8842 125.59 77.761 125.143 79.5856C123.661 85.6396 118.107 89.9743 111.891 90.1953C110.046 90.2613 108.219 90.0026 106.454 89.4608C104.626 88.8991 102.994 87.7428 101.12 87.3873C100.63 87.2955 100.168 87.7874 100.449 88.2603C100.932 89.0729 101.519 89.5688 102.323 90.0577C103.164 90.5686 104.101 90.9472 105.026 91.2787C106.727 91.8876 108.527 92.2407 110.332 92.3391C111.709 92.4144 113.092 92.3202 114.44 92.0615C114.535 92.3512 114.702 92.6328 114.829 92.901C114.848 92.9401 114.912 92.9131 114.9 92.8727C114.879 92.8053 114.866 92.746 114.86 92.6975C115.314 93.2877 116.015 93.6958 116.734 93.894C117.242 94.0342 117.781 94.0772 118.303 94.018C118.472 93.999 118.633 93.9708 118.792 93.9358C119.324 94.4007 120.004 94.7106 120.688 94.8655C120.57 95.577 120.923 96.3531 121.74 96.5552C122.082 96.6401 122.412 96.6415 122.741 96.6105C123.007 96.7344 123.294 96.8315 123.597 96.8975C123.993 96.9837 124.465 96.8731 124.764 96.5876C124.927 96.7021 125.08 96.7816 125.231 96.9634C125.853 97.7127 127.195 97.1158 127.255 96.2494C127.452 96.2494 127.65 96.2521 127.849 96.2588C127.896 96.2803 127.943 96.3019 127.992 96.3248C128.86 96.7276 129.759 97.0794 130.719 96.7627C130.896 96.7047 131.058 96.6307 131.205 96.5444C131.882 96.6051 132.549 96.6064 133.235 96.3855C133.64 96.2546 134.02 96.0472 134.338 95.7751C135.396 96.085 136.513 96.2251 137.566 95.8409C138.355 95.5541 138.989 95.1013 139.436 94.5043C140.119 94.5287 140.813 94.3643 141.438 94.0396C142.508 93.4871 143.257 92.4373 143.779 91.3851C144.93 89.0635 145.61 86.5694 145.878 83.9971C146.141 81.4639 145.766 78.9442 145.501 76.4257" fill="black"/>
<path fill-rule="evenodd" clip-rule="evenodd" d="M112.807 81.7805C111.899 81.411 111.089 80.7946 110.497 80.0072C110.292 79.7335 110.238 79.4444 110.281 79.1801C110.33 78.8828 110.506 78.6134 110.746 78.4327C110.988 78.2514 111.289 78.162 111.581 78.2076C111.834 78.2472 112.086 78.3856 112.286 78.6727L112.327 78.7301C112.679 79.2053 113.138 79.5952 113.661 79.8466C114.164 80.0888 114.728 80.2019 115.311 80.1361C116.421 80.0109 117.186 79.4117 118 78.5979C118.101 78.4951 118.202 78.3891 118.303 78.2815C118.367 78.1839 118.456 78.1211 118.555 78.0882C118.664 78.0517 118.788 78.0537 118.901 78.0933C119.011 78.1314 119.109 78.2036 119.174 78.2998C119.237 78.3912 119.272 78.504 119.261 78.6339C119.186 79.4773 118.744 80.23 118.117 80.821C117.42 81.4774 116.496 81.9315 115.626 82.0907C114.668 82.2662 113.691 82.1405 112.807 81.7805V81.7805ZM116.079 68.7706C117.098 69.3891 118.652 70.8312 117.555 72.3645C116.264 73.7165 114.405 72.1664 113.489 71.4653C112.64 70.922 111.685 72.3194 112.473 72.9538C119.092 77.8444 121.779 68.9323 116.594 68.0434C116.023 67.9455 115.811 68.5793 116.079 68.7706ZM104.217 63.0815C104.329 61.6861 106.459 61.3692 106.671 62.75C106.861 63.987 106.637 65.1233 106.079 66.2369C105.545 67.3009 104.205 66.8045 104.103 65.8357C103.967 64.537 104.147 63.9495 104.217 63.0815ZM120.428 62.4629C120.725 62.0749 121.153 61.81 121.667 61.9597C123.272 62.4276 122.799 64.7012 122.235 65.8078C121.929 66.4088 120.939 66.5612 120.492 66.032C119.763 65.1691 119.413 63.4459 120.34 62.5959C120.365 62.552 120.393 62.5077 120.428 62.4629ZM106.057 56.9756L106.31 56.9313C107.095 56.796 108.07 56.6659 108.624 57.2951C108.918 57.6287 109.02 58.2488 108.624 58.5681C107.929 59.13 107.16 58.9123 106.326 58.9598C105.639 58.9992 104.979 59.1126 104.317 59.3014C102.865 59.7155 101.683 60.4714 100.443 61.3014C100.28 61.4103 100.114 61.2027 100.192 61.0508C100.907 59.6518 102.294 58.5025 103.684 57.802C104.425 57.4281 105.237 57.1179 106.057 56.9756ZM118.964 56.3484L119.158 56.388C121.27 56.8284 124.013 57.7082 125.013 59.7778C125.051 60.0704 125.01 60.1331 124.978 60.1741L124.967 60.1878C124.94 60.2228 124.918 60.271 124.791 60.3108C124.756 60.3024 124.72 60.2936 124.684 60.2841C124.226 60.1643 123.863 59.9992 123.512 59.8278L123.132 59.6407C122.69 59.4246 122.245 59.2164 121.773 59.0627C120.765 58.7347 119.729 58.5037 118.676 58.3803C118.448 58.3536 118.229 58.2768 118.055 58.1451C117.891 58.0202 117.765 57.8471 117.708 57.6171C117.634 57.3195 117.655 57.0941 117.815 56.8256C117.936 56.6239 118.108 56.4841 118.305 56.4039C118.507 56.322 118.736 56.3028 118.964 56.3484Z" fill="black"/>
<path fill-rule="evenodd" clip-rule="evenodd" d="M127.888 69.4058C126.649 70.9512 121.797 72.6666 119.214 70.8044C116.632 68.9423 115.611 67.6446 115.266 65.3178C115.229 65.0697 114.78 64.9047 114.59 65.0808C113.526 66.0672 112.837 67.3234 112.155 68.5829C111.385 70.0034 110.627 71.4326 109.228 72.3942C106.751 73.7195 102.269 73.9082 100.945 73.3237C98.4087 72.2038 96.4023 69.8089 95.9461 66.5131C95.9461 66.5131 95.482 65.0512 95.0754 64.7435C94.69 64.4519 92.5632 64.1921 92.3302 64.149C88.1313 63.3715 82.8208 62.8759 79.081 65.6113C78.5749 65.9166 76.8422 67.0636 76.8166 66.7816C76.7985 65.6768 78.053 63.1763 80.9061 61.9865C84.4343 60.5151 89.6791 60.4291 92.7174 60.7538C92.8703 60.7701 93.3912 60.6424 93.428 60.6265C98.0311 58.6375 103.328 59.1658 108.253 60.0017C108.959 60.1384 115.277 61.6997 117.79 60.7538C121.946 59.0609 126.376 57.8344 130.863 58.3169C130.901 58.3209 131.467 61.7524 131.026 61.9865C130.675 62.1728 130.077 62.6501 129.865 62.9114C129.675 63.1449 129.556 63.4353 129.566 63.8375C129.652 66.1644 128.986 68.0367 127.888 69.4058ZM110.803 67.3294C111.33 66.5687 111.496 64.8601 111.276 63.6135C111.164 62.9824 110.947 62.48 110.675 62.2299C110.494 62.0636 110.288 61.9854 110.063 61.997C109.939 62.0034 109.805 62.0384 109.664 62.1146C107.748 61.0801 105.426 60.7076 103.225 60.8147C101.474 60.8144 100.224 61.227 99.3762 61.8694C98.3563 62.6423 97.8968 63.7534 97.8703 64.9584C97.8387 66.3883 98.4273 67.9526 99.3927 69.1903C100.317 70.375 101.581 71.2533 102.952 71.4559C104.509 71.7643 106.096 71.4659 107.475 70.7361C108.89 69.9875 110.085 68.7852 110.803 67.3294ZM126.166 68.1363C127.054 67.0891 127.644 65.7268 127.734 64.377C127.816 63.1486 127.486 61.9319 126.575 60.9263C125.749 60.2186 124.289 60.2069 122.753 60.601C120.767 61.1106 118.713 62.2494 118.028 62.9849C117.867 63.0693 117.717 63.2163 117.587 63.5316L117.586 63.644C117.378 64.5989 117.501 65.5679 117.86 66.4617C118.25 67.4327 118.919 68.3142 119.734 68.9868C120.817 69.8772 121.948 70.1497 123.006 70.0059C124.204 69.8431 125.319 69.1351 126.166 68.1363Z" fill="#F1F0E0"/>
<path fill-rule="evenodd" clip-rule="evenodd" d="M117.647 60.3753C121.855 58.6608 126.352 57.4251 130.906 57.9147C131.282 57.7718 131.75 57.8922 131.917 58.4237C133.539 63.3546 129.922 61.9833 129.97 63.8266C130.35 74.1619 116.43 75.9269 114.865 65.3767L114.836 65.3937V65.3937C112.584 67.4907 112.11 70.9031 109.457 72.7269C104.106 76.6324 96.5207 73.538 95.5465 66.5852L95.5252 66.4912C95.1982 65.0722 94.8072 64.7204 93.1942 64.7274L92.9394 64.6769C88.7486 63.8528 83.168 63.1124 79.308 65.9461C78.4685 66.4334 78.4291 67.686 77.7197 68.2302C76.9426 68.3808 76.4638 67.448 76.4111 66.8024C76.288 60.3667 87.8278 59.9037 92.996 60.456C93.0947 60.354 93.3055 60.3667 93.3765 60.4937C98.0505 58.4742 103.316 58.7536 108.321 59.6029C111.421 60.2019 114.483 61.5662 117.647 60.3753ZM130.488 59.1029C127.963 58.9769 125.628 59.1148 123.149 59.7205C121.843 60.035 120.841 60.4326 119.59 60.9108C111.792 64.3588 110.893 58.2299 93.4123 60.6324C93.6385 61.5991 93.6801 62.5561 93.6922 63.4643C97.2614 63.3208 96.421 66.7219 97.7582 69.1109L97.7994 69.183C99.7482 72.6685 104.347 74.2944 108.056 71.9824C111.151 70.1822 111.453 65.6165 114.535 63.8044C117.206 63.6996 116.139 67.2972 117.592 68.7759C119.638 71.5006 123.987 71.8815 126.553 69.3187C127.757 68.0855 128.396 66.5198 128.432 64.8376C128.499 63.7629 128.314 62.6708 129.128 61.9149C129.699 61.3363 130.713 61.5294 130.829 60.6548C130.903 60.1376 130.688 59.5767 130.488 59.1029ZM103.047 60.5117C105.555 60.3884 108.209 60.8231 110.363 62.0507C111.957 60.7847 112.347 65.8163 111.289 67.2716C109.765 70.3845 106.216 72.4311 102.798 71.7515C97.4669 70.9805 93.7523 60.5024 103.047 60.5117ZM110.209 62.3879L110.073 62.3681C107.762 62.0162 101.471 60.3863 99.045 62.9589C96.6902 67.2261 102.664 74.3936 108.881 68.6845C110.611 66.9265 111.282 64.7947 110.209 62.3879ZM117.531 62.9331C118.727 61.5192 124.825 58.6554 126.951 60.4931C130.83 64.832 124.678 73.6083 119.525 69.3325C117.809 67.9032 116.679 65.6261 117.174 63.421L117.174 63.3286C117.175 63.295 117.182 63.3027 117.218 63.2609C117.281 63.0942 117.396 62.9878 117.531 62.9331ZM126.897 65.5636C128.206 58.4818 122.738 61.174 118.247 63.0642C118.488 63.284 118.487 63.584 118.418 63.8306C117.944 69.0851 124.344 72.0627 126.897 65.5636ZM92.9052 60.8002C91.0321 61.4333 78.6429 60.3011 77.4983 66.097C78.7065 64.1436 81.2086 63.3684 83.458 62.9478C86.5176 62.3755 89.5604 62.7069 92.5771 63.309L92.6394 62.686C92.7063 62.0251 92.7768 61.4068 92.9052 60.8002Z" fill="black"/>
</svg>
