<svg width="223" height="444" viewBox="0 0 223 444" fill="none" xmlns="http://www.w3.org/2000/svg">
<path fill-rule="evenodd" clip-rule="evenodd" d="M89.0048 294.393C89.4311 298.126 90.8051 305.847 91.4797 309.64C91.6757 310.742 91.813 311.514 91.8526 311.768C95.6699 331.683 97.2323 351.92 97.9569 372.154C98.1699 374.787 98.0642 377.413 97.6055 380.015C97.582 380.148 97.5575 380.282 97.5321 380.415C97.4038 380.389 97.2737 380.365 97.1416 380.344C91.7729 379.473 88.1567 383.386 84.662 387.075C83.2956 388.517 81.9482 389.938 80.5344 391.071C77.1406 394.094 73.4672 396.783 69.6182 399.197C68.0448 400.122 66.2597 401.214 65.0546 402.664C64.2341 403.65 63.6866 404.806 63.7009 406.194L63.7058 406.67L63.2341 406.598C63.0928 406.576 62.9752 406.584 62.8799 406.629C62.7788 406.677 62.7091 406.765 62.6531 406.867C62.4021 407.327 62.403 408.056 62.389 408.609C62.3854 408.751 62.382 408.882 62.376 408.999C62.3336 410.658 63.0851 411.752 64.2164 412.501C65.9777 413.667 68.6052 414.034 70.7352 414.344C71.1293 414.401 71.5072 414.456 71.8631 414.513C84.965 415.915 98.2297 412.375 110.352 407.581C110.386 407.567 110.421 407.554 110.455 407.54C110.488 407.546 110.521 407.551 110.555 407.556C111.521 407.683 112.352 407.169 113.009 406.426C113.917 405.399 114.508 403.914 114.65 402.762C114.773 402.204 114.695 401.685 114.626 401.171C114.535 400.487 114.458 399.811 114.671 399.149C116.344 395.354 116.563 391.227 116.324 387.184C116.39 382.179 115.238 380.767 114.3 379.648C113.514 378.708 112.878 377.945 113.082 375.812C113.108 375.497 113.208 373.47 113.164 372.463L112.851 372.418C113.348 365.261 115.152 358.172 116.957 351.088C119.897 339.552 122.849 328.029 120.017 316.237C119.123 312.602 117.355 309.383 115.58 306.145C114.455 304.09 113.326 302.028 112.405 299.851C112.388 299.812 112.372 299.773 112.356 299.734C112.365 299.695 112.373 299.656 112.38 299.617C112.555 298.715 112.339 297.797 112.134 296.872C111.947 296.027 111.764 295.176 111.807 294.326C111.823 292.729 112.138 291.199 112.47 289.651C112.487 289.571 112.504 289.492 112.521 289.413C112.598 289.391 112.676 289.369 112.753 289.347C114.269 288.909 115.751 288.372 117.174 287.669L117.555 287.481L117.725 287.87C117.779 287.994 117.858 288.088 117.953 288.153C118.057 288.225 118.18 288.26 118.303 288.265C118.436 288.27 118.571 288.24 118.688 288.175C118.78 288.124 118.861 288.051 118.919 287.957C119.081 287.295 118.9 286.594 118.738 285.901C118.631 285.444 118.526 284.988 118.491 284.543C118.438 284.289 118.393 283.992 118.345 283.676C118.212 282.792 118.073 281.724 117.594 281.089C117.458 280.909 117.292 280.768 117.078 280.698C116.872 280.631 116.628 280.63 116.339 280.697C116.169 280.736 116.023 280.79 115.9 280.857C115.882 280.686 115.863 280.516 115.845 280.345C115.08 273.129 114.934 265.851 115.359 258.607C115.392 258.046 115.428 257.484 115.468 256.924C115.696 257.44 115.919 257.957 116.137 258.474C117.441 261.576 118.586 264.794 119.73 268.011C121.331 272.513 122.93 277.013 124.971 281.185C125.004 281.252 125.037 281.32 125.07 281.388C125.031 281.431 124.999 281.481 124.972 281.537C124.924 281.637 124.899 281.742 124.918 281.847C124.937 281.948 124.997 282.044 125.091 282.138C125.849 282.871 126.244 283.852 126.626 284.835C126.645 284.885 126.664 284.934 126.684 284.984C126.971 285.888 127.441 286.708 128.081 287.337C128.648 287.895 129.35 288.301 130.166 288.455C130.252 288.471 130.338 288.484 130.423 288.495C130.444 288.584 130.465 288.672 130.486 288.76C130.587 289.192 130.693 289.647 130.804 290.122C132.097 295.683 134.031 304.024 137.518 310.163C139.749 314.092 142.614 317.13 146.402 317.843C146.678 317.895 146.954 317.934 147.229 317.959C146.999 318.075 146.806 318.232 146.673 318.451C146.237 319.164 146.672 320.134 147.001 321.025C147.195 321.55 147.38 322.061 147.453 322.513C147.807 323.523 148.103 324.559 148.399 325.597C148.942 327.5 149.484 329.408 150.404 331.15C150.438 331.216 150.473 331.281 150.508 331.345C150.472 331.389 150.443 331.435 150.421 331.489C150.384 331.581 150.378 331.669 150.388 331.778C150.397 331.875 150.417 331.954 150.458 332.028C150.369 332.064 150.282 332.108 150.196 332.16C149.787 332.411 149.536 332.793 149.411 333.228C149.26 333.756 149.29 334.361 149.452 334.934C149.62 335.531 149.933 336.096 150.352 336.507C150.704 336.851 151.133 337.086 151.616 337.114C151.649 337.116 151.681 337.117 151.713 337.117C151.739 337.135 151.766 337.151 151.792 337.166C152.005 337.286 152.303 337.351 152.581 337.356L152.677 338.151C152.616 338.218 152.608 338.253 152.612 338.289C153.022 343.209 154.193 348.005 155.359 352.783C155.575 353.67 155.791 354.556 156.002 355.442C156.413 356.854 156.717 358.309 157.021 359.765C157.519 362.155 158.015 364.548 159.01 366.752C159.034 366.806 159.059 366.861 159.084 366.915C159.06 366.967 159.037 367.02 159.014 367.073C158.518 368.261 158.619 369.635 158.866 370.872C159.267 371.33 160.021 371.291 160.648 371.31C160.888 371.317 161.119 371.325 161.327 371.346C161.46 371.36 161.601 371.381 161.747 371.406C161.726 371.539 161.705 371.672 161.686 371.805C161.382 373.937 161.394 376.109 161.404 378.272C161.41 379.495 161.415 380.715 161.366 381.924C161.36 382.067 161.354 382.21 161.346 382.353C161.215 382.333 161.08 382.319 160.939 382.312C159.568 382.237 158.616 382.8 157.923 383.681C156.852 385.043 156.368 387.117 155.943 388.884C155.827 389.366 155.717 389.826 155.602 390.246C154.728 393.166 153.611 395.979 152.493 398.791C151.003 402.539 149.512 406.284 148.622 410.261L148.486 410.868L147.986 410.498C147.941 410.465 147.888 410.441 147.829 410.439C147.772 410.437 147.711 410.456 147.648 410.492C145.859 411.565 145.84 413.776 145.764 415.638C145.758 415.802 145.751 415.965 145.744 416.124C145.761 416.517 145.732 416.941 145.702 417.371C145.629 418.402 145.478 419.529 146.352 420.189C152.528 424.39 160.88 424.269 168.018 423.166C170.864 422.648 173.642 421.783 176.28 420.599C177.277 420.261 178.023 419.904 178.479 419.318C178.866 418.82 179.027 418.158 178.964 417.24C179.14 415.569 178.989 413.98 178.841 412.388C178.712 411.008 178.585 409.627 178.653 408.236C178.444 402.896 177.22 397.618 176.016 392.418C175.968 392.21 175.92 392.001 175.872 391.793C175.801 391.573 175.73 391.348 175.658 391.12C174.731 388.18 173.637 384.578 170.975 382.932C170.901 382.915 170.782 382.911 170.65 382.9C170.299 382.871 169.884 382.824 169.637 382.705C169.63 382.702 169.624 382.698 169.617 382.695L169.769 383.206L168.976 382.868C168.793 382.789 168.602 382.731 168.405 382.694C168.341 382.682 168.276 382.672 168.21 382.664C168.178 382.601 168.146 382.537 168.115 382.473C167.037 380.248 166.537 377.824 166.04 375.4C165.733 373.902 165.427 372.404 164.977 370.957C164.939 370.833 164.899 370.709 164.858 370.585C164.98 370.547 165.1 370.506 165.219 370.46C166.471 369.978 167.608 369.016 167.96 367.715C167.875 367.347 167.7 366.945 167.434 366.644C167.237 366.421 166.988 366.252 166.679 366.232L166.123 366.197L166.328 365.68C166.532 365.167 166.561 364.583 166.499 364.033C165.45 357.582 164.053 351.186 162.548 344.823C161.975 342.457 161.362 340.099 160.67 337.765C160.569 337.484 160.489 337.167 160.407 336.841C160.238 336.166 160.083 335.427 159.591 335.002C159.474 334.901 159.342 334.822 159.2 334.758C159.326 334.644 159.45 334.528 159.571 334.409C160.623 333.374 161.515 332.117 161.541 330.705C161.59 330.111 161.308 329.499 160.874 329.119C160.731 328.995 160.57 328.894 160.397 328.833L159.73 329.243C159.571 329.341 159.418 329.452 159.265 329.564C159.137 329.657 159.008 329.751 158.876 329.838L157.283 330.889L158.311 329.283C159.121 328.019 158.719 326.481 158.393 325.067C158.306 324.686 158.219 324.311 158.154 323.95C158.068 323.565 157.984 323.178 157.899 322.791C157.388 320.447 156.872 318.073 155.974 315.866C155.937 315.776 155.9 315.686 155.863 315.597C155.937 315.535 156.01 315.472 156.084 315.409C159.582 312.378 160.95 308.637 161.127 304.626C161.382 298.844 159.188 292.507 157.244 286.865C156.75 285.431 156.271 284.041 155.851 282.716C155.822 282.625 155.793 282.534 155.765 282.442C155.844 282.381 155.922 282.322 156.001 282.265C156.477 281.924 157.048 281.607 157.637 281.281C159.099 280.473 160.76 279.633 160.981 277.99C160.956 277.108 160.61 276.256 160.279 275.419C160.144 275.079 160.011 274.741 159.896 274.405C159.808 274.009 159.538 273.496 159.194 273.263C159.119 273.213 159.041 273.172 158.957 273.181C158.882 273.19 158.814 273.239 158.743 273.314L158.267 273.816L158.062 273.156C157.957 272.819 157.851 272.481 157.746 272.143C155.732 265.695 153.689 259.128 153.873 252.318C153.876 252.218 153.879 252.119 153.883 252.02C153.982 251.988 154.083 251.959 154.186 251.935C154.887 251.772 155.599 251.836 156.302 251.907C157.186 251.995 158.064 252.117 158.856 251.525C166.077 246.013 165.291 231.963 164.673 223.761C164.665 223.654 164.657 223.547 164.648 223.439C164.749 223.411 164.848 223.381 164.948 223.347C165.283 223.235 165.604 223.098 165.896 222.925L166.135 222.783L166.354 222.955C166.46 222.96 166.522 222.897 166.591 222.824C166.873 222.525 167.151 221.982 167.429 221.315C168.412 218.956 169.291 215.094 169.55 213.957C169.557 213.928 169.563 213.901 169.57 213.872C174.824 190.106 172.814 165.601 170.845 141.521C170.704 139.801 170.563 138.082 170.426 136.366C170.002 133.195 169.839 129.948 169.677 126.694C169.345 120.036 169.02 113.347 166.388 107.229C164.63 102.76 159.675 101.722 155.467 100.782C155.352 100.757 155.237 100.731 155.122 100.705C152.931 100.054 150.727 99.5509 148.526 99.0483C145.154 98.2782 141.788 97.5081 138.576 96.2445C138.402 96.1761 138.228 96.1063 138.056 96.0351C138.179 95.9092 138.293 95.775 138.395 95.6326C138.959 94.8486 139.18 93.8227 139.122 92.8049C139.062 91.749 138.701 90.6959 138.082 89.9156C137.839 89.7376 137.554 89.7188 137.265 89.7659C136.698 89.8584 136.106 90.1938 135.625 90.4586C135.577 90.4848 135.531 90.5105 135.485 90.5353L135.124 90.7327L134.932 90.3689C134.175 88.9327 133.65 87.3498 133.137 85.7963C132.84 84.8992 132.547 84.0123 132.212 83.1716C131.187 81.0081 129.427 79.9707 127.398 79.5714C124.339 78.9695 120.68 79.7822 117.85 80.4871C117.748 80.513 117.646 80.5389 117.543 80.5649C116.116 80.9264 114.585 81.3027 113.398 82.1921C111.422 83.7672 111.002 86.2163 110.556 88.619C110.33 89.8352 110.103 91.0455 109.705 92.1497C109.66 92.2736 109.613 92.3972 109.563 92.5204C109.451 92.4697 109.341 92.4313 109.233 92.4069C107.668 92.0497 104.234 94.0799 103.05 95.1614C102.74 95.366 102.599 95.5698 102.525 95.7994C102.402 96.1816 102.442 96.6195 102.47 97.0517C102.483 97.2477 102.495 97.443 102.498 97.6337C102.499 97.7453 102.497 97.8585 102.494 97.9725C102.385 97.9937 102.278 98.0148 102.17 98.0356C101.473 98.1707 100.762 98.3028 100.041 98.4366C94.8869 99.3942 89.2664 100.424 85.2566 103.256C82.453 105.236 80.4543 108.11 79.987 112.478C78.5053 118.791 77.7191 125.17 76.9906 131.552C76.8928 132.395 76.7962 133.239 76.6994 134.083C75.5263 144.32 74.3438 154.615 71.1562 164.456C70.8433 165.221 70.5399 165.958 70.2361 166.695C65.47 178.259 60.6329 189.979 59.4888 202.553C58.8681 208.562 58.9627 214.633 59.9929 220.59C60.053 220.911 60.3079 221.136 60.5986 221.254C60.9176 221.384 61.3003 221.396 61.5865 221.215L63.1116 220.255L62.1445 221.774C60.1089 224.971 61.8138 230.594 62.9674 234.564C63.1383 235.152 63.2991 235.705 63.4376 236.212C64.3235 239.144 65.7567 242.336 68.0077 244.03C68.8596 244.671 69.8303 245.092 70.9356 245.185C71.9508 245.271 73.0759 245.082 74.3228 244.55C74.4792 244.484 74.6303 244.415 74.7767 244.345C74.8106 244.51 74.8447 244.675 74.8787 244.84C77.3275 256.717 80.0601 268.49 83.304 280.18L83.756 281.809L82.6144 280.561C82.4322 280.361 82.2235 280.244 82.0056 280.201C81.7615 280.153 81.5099 280.196 81.2787 280.3C81.0146 280.419 80.7761 280.618 80.5984 280.868C80.4359 281.096 80.324 281.367 80.2926 281.662C80.3859 283.259 80.9026 284.794 81.4132 286.326C81.6856 287.144 81.9573 287.96 82.1694 288.784C82.4065 289.633 82.9067 290.155 83.5483 290.485C84.5298 290.988 85.813 291.07 87.0234 291.159C87.6551 291.205 88.2693 291.251 88.8207 291.345C88.9032 291.359 88.9867 291.375 89.071 291.391C89.0949 291.471 89.1184 291.551 89.1416 291.631C89.3044 292.194 89.4473 292.763 89.5901 293.332C89.7044 293.787 89.8186 294.242 89.9434 294.695L89.1653 294.919C89.1083 294.732 89.0549 294.556 89.0048 294.393V294.393ZM149.428 223.657C149.401 220.246 148.183 217.029 146.976 213.818C146.472 212.48 145.97 211.143 145.55 209.794C145.525 209.713 145.501 209.633 145.476 209.553C145.539 209.489 145.603 209.429 145.668 209.372C145.976 209.098 146.356 208.85 146.744 208.598C147.286 208.247 147.851 207.895 148.186 207.418C148.393 207.125 148.5 206.78 148.429 206.31C148.234 202.795 147.993 199.281 147.706 195.772C147.638 195.023 147.57 194.274 147.502 193.524C146.302 180.311 145.093 166.946 147.47 153.797C147.575 153.199 147.697 152.606 147.819 152.014C147.901 151.615 147.983 151.217 148.06 150.817C148.071 150.758 148.083 150.68 148.098 150.59C148.166 150.158 148.281 149.471 148.512 148.97C148.721 148.517 149.026 148.227 149.393 148.164C149.522 148.141 149.654 148.148 149.785 148.181C149.809 148.275 149.833 148.371 149.856 148.467C153.838 164.831 152.838 181.526 151.835 198.188C151.374 205.854 150.912 213.513 150.941 221.129C150.941 221.204 150.941 221.279 150.942 221.354C150.894 221.369 150.849 221.393 150.808 221.43C150.704 221.524 150.676 221.655 150.697 221.776C150.722 221.924 150.814 222.065 150.957 222.14C151.007 222.166 151.06 222.183 151.113 222.191C151.129 222.262 151.145 222.334 151.162 222.405C151.239 222.73 151.325 223.054 151.421 223.375C151.444 223.454 151.468 223.532 151.493 223.611C151.433 223.668 151.372 223.726 151.312 223.783C150.905 224.169 150.495 224.552 150.082 224.931L149.344 225.607L149.404 224.609C149.423 224.29 149.43 223.972 149.428 223.657Z" fill="#F1F0E0"/>
<path fill-rule="evenodd" clip-rule="evenodd" d="M62.5354 225.62C64.0473 230.694 65.4348 238.206 69.2848 241.942C70.6394 243.034 72.2314 242.367 73.7863 242.234C72.7842 236.365 72.0928 230.447 71.5342 224.521C68.3667 223.914 65.3126 222.812 62.4841 221.268C61.7496 222.497 62.2086 224.366 62.5354 225.62M75.16 240.681C76.6194 249.065 78.6092 257.344 80.5348 265.611C81.5546 270.651 83.7272 275.848 84.1953 280.821C94.0223 284.735 104.654 283.214 114.818 281.616C114.662 281.485 114.542 281.282 114.525 281.035C114.273 280.921 114.066 280.693 114.028 280.352C113.456 272.882 112.41 264.756 114.178 257.528C113.01 256.477 111.965 255.255 110.992 254.023C110.106 252.856 111.949 251.313 112.985 252.162C111.551 248.589 110.072 245.034 108.521 241.508C108.107 240.564 109.503 239.74 109.921 240.692C115.697 253.883 120.57 267.385 125.607 280.878C125.888 280.322 127.015 280.388 126.607 281.178C136.927 282.039 147.7 279.411 157.196 275.136C154.927 267.863 152.342 260.454 152.493 252.758C150.271 252.861 147.267 251.598 146.091 249.689C144.915 250.601 143.473 249.481 142.853 248.418C141.421 245.629 142.214 242.225 143.042 239.367C140.119 239.826 136.458 237.12 138.458 234.097C141.549 231.391 145.076 229.086 148.107 226.235C148.366 220.888 146.29 215.898 144.404 210.882C134.878 217.583 125.538 224.793 115.534 230.708C113.814 230.882 112.425 229.583 111.134 228.635C107.449 225.906 103.731 223.214 100.1 220.411C99.7019 220.558 99.2442 220.522 98.9053 220.295C96.5868 222.774 94.1364 225.062 91.8426 227.553C90.4647 228.824 89.4695 230.807 87.5464 231.295C86.6472 231.459 86.0747 231.087 85.4982 230.465C81.9996 226.77 78.2356 223.339 74.6104 219.771C74.1442 220.377 73.2454 220.172 72.7972 219.592C73.1613 226.654 74.0891 233.693 75.16 240.681M81.6393 281.668C81.75 281.762 81.619 281.682 81.5137 281.839C81.4073 282.853 82.0038 283.883 82.2035 284.878C82.8666 286.341 82.8025 289.725 84.7594 289.777C95.5692 291.654 106.491 290.055 117.069 287.641C116.931 285.5 116.267 283.293 116.7 281.172C116.523 281.013 116.336 280.903 116.127 280.86C116.185 281.16 116.145 281.527 115.915 281.676C106.864 285.643 93.753 286.463 84.3599 282.776C83.372 283.088 82.634 281.817 83.408 281.117C83.277 281.099 83.1515 281.054 83.0448 280.973C83.1987 281.643 82.2158 282.16 81.6393 281.668M111.735 290.215C111.459 290.287 111.182 290.355 110.906 290.421C111.118 290.927 110.812 291.658 110.895 292.228C111.089 291.522 111.363 290.84 111.735 290.215M127.886 284.406C128.316 285.639 129 287.009 130.443 287.205C130.78 287.069 131.169 287.093 131.423 287.325C140.831 287.198 152.343 284.367 159.507 278.185C159.593 277.34 159.19 276.488 159.106 275.647C158.987 275.313 158.852 273.213 158.403 273.603C158.745 274.438 159.04 275.664 157.737 275.54C148.512 280.851 137.612 282.873 127.043 282.541C127.379 283.13 127.633 283.769 127.886 284.406M147.431 319.511C148.24 322.406 149.106 325.286 150.031 328.146C150.921 332.386 153.064 332.956 156.249 330.177C158.553 328.785 157.581 326.284 157.233 324.129C156.802 321.48 156.243 318.849 155.841 316.197C153.302 318.074 150.107 318.995 146.966 318.584C147.217 318.827 147.327 319.139 147.431 319.511M151.673 333.09C151.701 333.082 151.731 333.072 151.759 333.063C151.727 333.052 151.696 333.04 151.665 333.029C151.667 333.049 151.67 333.069 151.673 333.09M153.332 338.548C154.336 347.464 157.237 356.029 159.224 364.755C159.448 366.563 160.832 367.223 162.501 366.65C163.187 366.473 164.236 366.219 164.738 365.682C165.311 365.067 164.922 363.87 164.795 363.153C164.006 358.72 163.121 354.305 162.213 349.894C161.133 345.101 160.255 340.214 159.074 335.475C157.363 336.923 155.184 337.941 152.898 337.984C153.12 338.065 153.305 338.253 153.332 338.548M159.619 370.412C159.754 370.441 159.889 370.466 160.025 370.487C159.82 369.838 159.624 368.934 159.989 368.328C159.905 368.299 159.824 368.266 159.746 368.23C159.626 368.962 159.542 369.664 159.619 370.412M160.783 388.793C158.607 390.202 157.337 392.575 156.224 394.839C155.508 396.292 154.925 398.044 153.83 399.283C153.376 400.502 152.92 401.72 152.485 402.946C151.184 406.981 149.561 411.261 149.717 415.517C149.716 415.513 149.716 415.507 149.713 415.501C149.728 415.607 149.764 415.71 149.789 415.814C149.69 415.746 149.576 415.68 149.731 415.793C149.745 415.781 149.788 415.821 149.79 415.817C149.79 415.82 149.791 415.823 149.791 415.825C149.782 415.817 149.773 415.811 149.76 415.802C149.771 415.81 149.784 415.823 149.794 415.832C149.794 415.835 149.796 415.839 149.797 415.843C149.805 415.85 149.865 415.894 149.852 415.878C149.994 415.942 150.11 416.032 150.218 416.139C158.555 417.943 167.759 418.264 175.468 414.132C178.43 408.115 175.391 398.063 174.175 391.583C170.295 389.376 165.213 386.574 160.783 388.793M157.425 386.405C157.111 387.79 156.899 389.189 156.608 390.574C157.461 389.654 157.9 388.5 158.644 387.528C159.103 386.569 159.594 385.189 160.735 385.012C160.766 384.233 160.787 383.454 160.798 382.675C158.859 382.915 157.837 384.582 157.425 386.405M146.864 416.783C146.887 416.403 147.087 416.025 147.413 415.818C147.338 414.477 147.568 413.175 147.778 411.854C146.367 413.358 146.968 415.768 146.737 417.654C146.755 418.405 146.39 419.361 147.265 419.748C149.995 421.632 153.304 422.511 156.566 422.889C163.683 423.703 171.081 422.397 177.44 419.095C178.291 417.944 177.993 415.147 178.107 413.674C177.704 414.989 176.998 416.158 175.602 416.569C166.952 420.726 156.771 420.226 147.671 417.886C147.075 417.726 146.835 417.262 146.864 416.783M169.702 387.695C169.652 387.634 169.605 387.574 169.556 387.512C169.253 387.497 168.949 387.47 168.645 387.436C169.1 387.617 169.547 387.814 169.983 388.035C169.889 387.923 169.794 387.81 169.702 387.695M166.017 380.791C165.275 377.668 165.009 374.456 164.632 371.273C163.54 371.659 162.446 371.925 161.299 371.956C162.705 376.205 162.632 380.858 162.594 385.295C164.319 385.587 166.176 385.751 167.867 385.175C167.019 383.82 166.41 382.346 166.017 380.791M154.382 249.663C155.329 249.569 156.27 249.635 157.207 249.77C162.753 246.008 163.627 230.582 164.498 224.07C160.529 225.082 156.326 224.81 152.473 223.477C152.401 224.187 151.589 224.553 151.095 224.074C148.482 228.715 144.573 232.432 140.54 235.754C140.588 235.599 140.621 235.883 140.562 235.775C141.076 236.95 142.962 236.341 143.854 237.159C144.426 237.585 144.546 238.33 144.182 238.827C145.147 241.489 143.613 244.738 145.057 247.262C145.381 247.638 145.803 247.909 146.083 248.331C148.005 247.017 149.756 249.796 151.702 249.918C151.689 249.918 151.675 249.918 151.66 249.917C151.96 249.95 152.441 249.934 152.704 249.897C153.262 249.81 153.819 249.719 154.382 249.663M150.807 156.676C150.399 154.023 149.924 151.386 149.307 148.774C148.563 148.904 148.397 150.604 148.302 151.105C145.117 165.488 146.497 180.289 147.861 194.806C148.192 198.698 148.464 202.598 148.678 206.5C148.953 208.295 146.885 208.903 145.782 209.886C147.317 214.819 149.966 219.592 149.653 224.845C150.064 224.468 150.472 224.087 150.877 223.703C150.775 223.373 150.687 223.042 150.613 222.71C150.108 222.448 149.948 221.725 150.38 221.343C150.214 199.832 154.259 178.136 150.807 156.676M110.556 114.801C109.791 113.442 107.763 115.207 109.037 116.194C109.923 116.91 111.152 115.734 110.556 114.801M107.483 129.116C106.862 127.978 104.847 128.543 105.224 129.892C105.219 129.834 105.215 129.788 105.21 129.753C105.157 130.852 107.291 131.744 107.44 130.339C107.672 129.974 107.727 129.496 107.483 129.116M104.636 144.58C103.099 143.976 102.533 146.242 103.835 146.846C105.235 147.342 106.007 145.08 104.636 144.58M102.842 161.182C102.463 159.899 100.524 160.238 100.538 161.556C100.587 163.336 103.226 162.799 102.842 161.182M99.6652 177.285C99.1261 175.675 97.0548 176.508 97.2283 178.068C97.0023 178.969 98.7521 180.787 99.1062 179.315C99.5788 178.746 99.8015 178.016 99.6652 177.285M96.411 195.86C96.407 195.855 96.4029 195.849 96.3989 195.844C95.2465 196.385 96.2439 198.849 97.3548 197.945C98.4326 197.288 97.6867 195.206 96.411 195.86M94.8942 210.94C93.5499 212.259 95.6287 214.346 96.9547 212.996C98.3004 211.68 96.2228 209.592 94.8942 210.94M62.2228 221.126C62.2053 221.165 62.1864 221.204 62.1648 221.24C62.1999 221.211 62.235 221.181 62.2701 221.151C62.2552 221.143 62.239 221.135 62.2228 221.126M112.614 378.254C112.564 379.23 112.491 380.215 112.255 381.161C111.555 385.006 106.606 389.622 102.534 386.86C100.665 385.547 99.8472 383.007 97.6194 382.184C95.285 381.32 92.7291 382.171 90.7646 383.506C88.4909 385.051 86.7195 387.253 84.7834 389.176C80.6655 393.267 76.099 396.909 71.2102 400.042C68.6516 401.627 63.2941 404.005 65.415 407.717C67.0379 410.067 71.1219 408.946 71.8245 410.273C80.8836 410.645 89.7477 408.172 98.3593 405.64C102.731 404.214 107.305 403.383 111.544 401.571C115.605 398.021 115.619 390.208 115.06 385.201C114.877 384.106 114.424 378.9 112.716 379.827C112.208 379.882 112.945 379.322 113.126 379.391C112.888 379.054 112.693 378.664 112.614 378.254M63.322 407.469C63.264 407.497 63.2032 407.51 63.1411 407.512C62.9629 407.967 63.0506 409.823 63.0844 410.142C63.6335 412.934 68.0384 413.398 70.3738 413.819C78.579 415.11 86.9244 414.208 94.9294 412.15C98.8367 411.184 102.723 410.067 106.515 408.721C109.887 407.697 114.05 405.997 113.636 401.731C111.753 404.262 105.754 405.009 102.736 406.056C93.2645 408.927 83.6548 412.016 73.6589 412.115C72.1445 412.05 70.0518 412.472 68.9158 411.333C66.5071 410.99 64.0079 409.658 63.322 407.469M61.1418 190.471C63.3358 181.842 66.8661 173.63 70.3026 165.443C74.0167 154.573 75.1053 143.06 76.4324 131.717C77.1623 125.317 77.9515 118.926 79.4284 112.646C80.6836 100.941 92.5956 99.6646 101.937 97.8503C101.924 96.8508 101.616 95.7138 102.62 95.0746C103.542 94.1399 108.465 91.2349 109.437 92.4646C109.819 91.5378 110.006 90.5095 110.186 89.5203C110.308 89.1299 110.358 87.7836 110.783 87.7942C110.874 90.4296 111.994 94.2877 109.746 96.2671C111.096 98.3196 112.221 100.807 113.999 102.441C113.998 102.44 113.997 102.438 113.995 102.437C114.084 102.495 114.175 102.547 114.268 102.597C114.246 102.58 114.375 102.627 114.48 102.661C114.722 102.707 115.121 102.618 115.368 102.507H115.366C121.49 99.0332 127.482 95.3129 133.411 91.5024C132.563 90.2513 131.467 84.1195 132.518 83.2695C133.253 85.6886 134.019 88.1157 135.135 90.3921C136.102 89.8655 137.666 88.9185 138.481 90.1563C139.508 91.876 139.801 94.3697 138.568 96.0796C143.868 98.1638 149.583 98.8936 155.055 100.522C157.44 101.133 159.964 101.587 162.202 102.644C168.868 106.336 168.874 115.431 169.605 122.13C171.481 154.736 177.432 188.443 168.113 220.429C167.755 221.412 167.225 222.355 166.814 223.321C166.65 223.704 166.226 223.692 165.947 223.484C165.631 223.671 165.284 223.821 164.921 223.942C165.531 232.259 166.358 247.451 158.315 252.41C156.909 252.914 155.582 252.196 154.122 252.54C153.928 259.662 156.193 266.501 158.293 273.248C159.837 272.054 160.429 275.647 160.896 276.573C162.464 279.889 158.277 281.372 156.081 282.805C159.355 293.093 166.133 307.341 156.193 315.925C157.248 318.517 157.789 321.35 158.395 324.082C158.721 325.866 159.575 328.057 158.497 329.712C158.789 329.519 159.064 329.292 159.362 329.11C158.066 329.091 159.983 328.146 160.757 328.851C162.917 330.457 161.317 333.399 159.7 334.908C160.329 335.377 160.546 336.673 160.733 337.289C161.497 339.817 162.166 342.375 162.786 344.942C164.294 351.318 165.694 357.728 166.745 364.193C166.816 364.826 166.775 365.47 166.549 366.04C167.362 366.076 167.851 366.851 168.11 367.528C168.477 369.044 166.531 370.535 165.208 371.049C166.602 375.665 166.727 380.803 169.68 384.81C169.997 384.503 170.54 384.448 170.812 384.958C171.108 385.805 172.93 388.107 172.247 388.796C172.224 388.962 172.139 389.125 172.012 389.229C172.664 389.668 173.286 390.135 173.906 390.624C173.077 388.257 172.389 385.493 170.608 383.669C170.138 383.401 169.537 383.491 169.162 383.045C168.888 382.719 168.874 382.33 169.148 382.01C169.278 381.858 169.576 382.02 169.496 382.212C169.27 382.757 170.666 382.661 170.987 382.772C174.122 384.715 175.247 389.133 176.262 392.482C177.482 398.366 179.19 404.362 178.813 410.414C179.218 412.531 179.802 418.348 178.573 419.947C172.082 423.807 164.029 424.941 156.566 424.197C153.239 423.716 144.505 422.664 145.129 418.056C145.338 415.454 144.735 411.979 147.287 410.355C147.581 410.184 147.863 410.231 148.071 410.385C149.631 403.415 153.021 397.151 155.055 390.351C155.908 387.231 156.525 381.886 160.805 382.119C160.943 378.757 160.652 375.311 161.117 371.981C161.117 371.983 161.117 371.983 161.119 371.983C161.121 371.975 161.125 371.966 161.13 371.96C160.25 371.853 158.772 372.088 158.306 371.17C158.068 369.879 157.951 368.363 158.485 367.129C156.881 363.592 156.544 359.489 155.454 355.755C154.101 350.073 152.54 344.387 152.054 338.549C152.028 338.237 152.195 338.045 152.418 337.972C152.071 337.966 151.702 337.879 151.437 337.729C149.04 337.592 147.672 333.343 149.829 332.027C149.81 331.844 149.834 331.683 149.889 331.55C148.431 328.769 147.927 325.731 146.903 322.823C146.709 321.528 145.434 319.616 146.171 318.451C135.103 315.582 132.462 298.643 129.935 289.064C126.286 288.353 126.632 284.885 124.651 282.636C124.304 282.301 124.288 281.898 124.451 281.574C120.948 274.414 118.74 266.292 115.607 258.842C115.184 266.064 115.327 273.32 116.092 280.514C118.405 279.979 118.414 283.168 118.737 284.698C118.904 285.65 119.072 286.6 119.239 287.551C119.485 288.951 117.681 289.351 117.198 288.243C115.753 288.956 114.249 289.502 112.71 289.946C112.385 291.472 112.069 292.976 112.056 294.551C111.96 296.354 112.96 298.16 112.622 299.905C114.85 305.21 118.345 309.761 119.956 315.288C125.28 334.63 114.417 353.465 113.099 372.658C113.654 370.238 113.33 376.148 113.308 376.637C113.248 380.577 116.705 378.751 116.572 387.372C116.816 391.475 116.582 395.677 114.901 399.484C114.529 400.655 115.168 401.821 114.896 403.022C114.629 405.199 112.844 408.497 110.346 408.168C96.0939 413.553 79.5831 418.438 64.5928 413.422C63.5505 412.904 62.4636 412.235 62.0896 411.072C61.7702 410.034 61.3392 406.106 63.14 406.41C63.1014 402.836 66.5034 400.677 69.2468 399.066C73.0822 396.661 76.7426 393.981 80.1237 390.968C85.2499 386.861 89.4743 378.929 97.0507 380.156C98.0374 374.759 97.0039 369.255 97.0117 363.808C96.5181 339.784 91.7829 316.232 88.1997 292.565C88.168 292.36 88.4488 292.274 88.5177 292.478C96.2338 314.689 98.192 338.518 99.6422 361.847C100.122 368.119 99.5804 374.361 98.2929 380.512C101.682 381.442 102.207 386.71 106.166 386.204C108.268 385.763 110.152 384.107 110.997 382.156C110.097 380.696 110.733 378.655 110.769 376.996C110.909 375.388 111.072 373.78 111.263 372.175C112.575 353.741 122.695 335.908 118.704 317.269C116.796 308.101 107.74 300.41 110.593 290.495C102.461 292.362 93.9867 292.732 85.7161 291.634C82.7143 291.54 81.7553 290.275 81.1257 287.483C80.6724 285.623 79.7458 283.796 79.7307 281.865C79.8645 280.363 81.6751 279.315 82.7579 280.5C79.5118 268.802 76.7759 257.016 74.3261 245.133C66.4126 248.521 63.2954 238.772 61.84 232.901C61.1381 229.385 59.6277 225.058 61.6467 221.769C55.7419 224.118 59.6675 193.662 61.1418 190.471" fill="black"/>
<path fill-rule="evenodd" clip-rule="evenodd" d="M96.4835 61.3016C97.4103 50.0269 100.232 40.041 113.491 39.6152C119.475 39.6686 125.583 40.9372 131.086 43.2844C144.46 49.9766 148.703 74.4301 136.92 84.2737C136.99 84.3134 137.007 84.4283 136.924 84.4839C134.49 86.1183 131.784 87.463 129.074 88.593C121.855 91.6388 113.357 92.9617 105.995 89.6579C94.76 84.8869 94.5915 71.6112 96.4835 61.3016V61.3016Z" fill="#F1F0E0"/>
<path fill-rule="evenodd" clip-rule="evenodd" d="M74.3675 56.0452C73.9057 55.6302 73.5614 55.0858 73.3873 54.4754C73.228 53.9189 73.2172 53.3112 73.3859 52.7561C73.5668 52.1605 73.957 51.6862 73.8693 51.0664C73.8598 51.0058 73.8477 50.9424 73.8288 50.8791C73.4912 49.7122 72.6609 48.8701 72.9579 47.5765C73.0416 47.2114 73.1996 46.8826 73.4197 46.6239C73.3954 46.3436 73.3738 46.0607 73.3562 45.7777C72.8688 44.6391 72.8864 43.2863 73.4062 42.1652C73.4696 41.5912 73.5655 41.0226 73.7005 40.4634C73.6384 39.9689 73.7248 39.4245 73.8841 38.992C74.164 38.231 74.5099 37.481 74.8853 36.7434C74.8411 36.5417 74.861 36.3285 74.9725 36.1389C75.1753 35.7944 75.4433 35.4915 75.7173 35.1954C75.911 34.8501 76.1061 34.5076 76.2996 34.1695C76.3892 34.0141 76.4882 33.8418 76.5973 33.6592C76.3 33.1087 76.1412 32.5721 76.4557 31.9247C76.5738 31.6815 76.8987 31.5021 77.1661 31.518C77.4584 31.5354 77.7534 31.5485 78.0501 31.5596C78.6044 30.8916 79.2327 30.2918 79.9059 29.9466C80.5877 29.3699 81.279 28.804 81.9514 28.226C82.1417 28.0616 82.3335 27.8972 82.5238 27.7328C82.5252 27.7287 82.5265 27.7234 82.5279 27.7193C82.6683 27.2086 82.8263 26.7047 82.9842 26.1981C83.0828 25.8841 83.1125 25.5553 83.419 25.3842C84.059 25.0271 85.0432 24.9705 85.7777 24.9099C85.8506 24.8452 85.9235 24.7819 85.9965 24.7172C85.663 23.8306 85.7224 22.8887 86.1423 22.0008C86.2854 21.699 86.7822 21.5629 87.055 21.7623C87.6842 22.2231 88.4308 22.3862 89.1693 22.3188C90.2549 21.4861 94.6335 17.7205 95.31 17.323C95.3184 17.3087 95.3251 17.2945 95.3341 17.2803C95.7144 16.6742 96.1763 16.1875 96.6956 15.7973C96.7697 15.7201 96.8438 15.6428 96.9179 15.5654C96.8527 15.1034 96.6811 14.6572 96.4049 14.284C96.3752 14.2409 96.3414 14.1991 96.3077 14.1587C95.8243 13.5847 96.4143 12.8463 97.0894 13.1468C97.138 13.1683 97.1866 13.1899 97.2352 13.2128C97.7542 13.4437 98.3284 13.6948 98.9264 13.9066C99.1453 13.8248 99.3683 13.7507 99.5718 13.669L101.75 12.7949C102.109 12.651 102.488 12.5291 102.835 12.36C102.956 11.5571 103.762 11.0305 104.6 11.058C104.551 10.9038 104.479 10.7541 104.378 10.6122C104.348 10.5705 104.315 10.53 104.282 10.491C103.851 9.99106 104.426 9.06403 105.042 9.50868C105.085 9.53967 105.13 9.57066 105.173 9.60165C105.344 9.72144 105.519 9.83382 105.696 9.94269C105.979 9.81927 106.299 9.7911 106.633 9.92167C107.372 10.2107 108.054 10.5046 108.705 10.9576C108.732 10.976 108.759 10.9915 108.786 11.0089C109.109 10.6192 109.622 10.3586 110.084 10.3615C110.094 10.3615 110.101 10.3613 110.11 10.3612C110.455 9.83584 111.088 9.53051 111.7 9.60475C111.659 8.85086 112.415 8.17808 113.103 8.0963C113.908 8.0009 114.633 8.46698 114.874 9.25011C114.942 9.46812 115.009 9.68627 115.076 9.90442C115.7 9.5898 116.36 9.34874 117.048 9.22841C118.616 8.95434 120.149 9.2462 121.66 9.68061C121.811 9.724 121.962 9.7686 122.113 9.81307C122.328 9.56393 122.53 9.30886 122.724 9.07076C123.057 8.65979 123.858 8.98857 123.804 9.51677C123.766 9.88125 123.915 10.1435 124.153 10.3298C124.416 10.3681 124.669 10.3797 125.052 10.372C125.557 10.3617 125.787 10.346 126.315 10.1404C126.562 10.0447 126.868 9.79312 127.012 9.56729C127.562 8.7013 128.96 8.46805 129.625 9.29376C130.326 8.98776 131.21 9.40978 131.599 10.0048C131.802 10.3159 132.227 10.4899 132.761 10.6395C133.162 10.7516 133.573 10.8364 133.985 10.9107C134.168 10.6621 134.555 10.4954 134.839 10.7039C135.031 10.8455 135.217 10.9909 135.401 11.1399C136.82 11.335 138.232 11.342 139.585 10.7898C140.73 10.3223 141.782 11.5992 141.593 12.6713C141.925 12.8436 142.285 12.9583 142.613 13.1388C143.328 13.5331 143.915 14.1563 144.272 14.8885C144.336 15.0196 144.394 15.1527 144.45 15.2865C144.717 15.5036 144.981 15.7264 145.239 15.9616C145.668 15.7419 146.096 15.5223 146.526 15.3027C146.847 15.1383 147.388 15.2528 147.452 15.6786C147.556 16.3793 147.808 16.96 148.169 17.4464C149.341 18.0609 150.468 18.7508 151.547 19.5175C152.788 19.9055 154.107 20.1319 155.191 20.3866C155.562 20.4741 155.765 20.9579 155.556 21.2799C155.334 21.6208 155.113 21.9617 154.893 22.3026C155.51 22.9036 156.089 23.5315 156.636 24.1809C158.157 25.9865 159.431 27.9659 160.57 30.0625C161.021 30.2444 161.472 30.425 161.923 30.6069C162.358 30.782 162.553 31.286 162.201 31.6565C162.034 31.833 161.884 32.019 161.755 32.2144C162.394 33.2694 163.146 34.2315 164.198 34.8621C164.518 35.0534 164.758 35.3539 164.887 35.6948C164.996 35.7676 165.104 35.8457 165.211 35.9252C165.508 36.1489 165.687 36.6367 165.339 36.9264C165.094 37.1312 164.865 37.3737 164.671 37.6419C164.629 37.7941 164.585 37.9477 164.542 38.1C165.52 38.9974 166.333 40.0403 166.943 41.2099C167.087 41.187 167.236 41.2018 167.356 41.2907C168.447 42.0951 168.479 43.3766 168.041 44.5219C168.305 46.2479 168.135 48.0171 167.625 49.6893C168.296 50.3576 168.699 51.3224 168.864 52.2521C169.154 53.8852 169.175 56.3969 169.25 58.0636C169.982 58.7683 170.503 59.6806 170.793 60.6615C171.038 60.7828 171.282 60.904 171.527 61.0253C171.744 61.1331 171.903 61.4174 171.89 61.6573C171.828 62.8174 171.348 63.7337 170.712 64.5637C170.487 65.2037 170.154 65.7939 169.716 66.3598C169.414 66.7479 169.118 67.1198 168.857 67.5388C168.83 67.5806 168.814 67.6197 168.802 67.6466C168.905 67.7571 168.99 67.9404 169.064 68.0711C169.688 69.1679 169.697 70.4533 168.811 71.4087C169.145 71.6809 169.156 72.2306 168.861 72.5675C166.946 74.7517 165.348 77.4075 162.69 78.5676C162.678 78.5878 162.667 78.608 162.657 78.6282C163.196 79.9218 163.269 80.5942 162.829 81.9308C162.826 81.9429 162.822 81.9537 162.818 81.9658C162.583 82.6665 162.151 83.7889 161.372 84.0072C161.126 84.0759 160.885 84.1069 160.646 84.1056C160.027 84.6998 159.41 85.2954 158.793 85.8909C158.739 86.186 158.705 86.4838 158.695 86.7843C158.677 87.2869 158.203 87.6938 157.693 87.5456C157.513 87.493 156.52 86.5296 156.337 86.535C156.245 86.6266 156.156 86.7183 156.067 86.8112C155.739 87.1548 155.284 87.6965 155.246 88.0563C155.173 88.734 154.728 89.5102 154.008 89.6476C153.738 89.9211 153.306 90.0033 152.975 89.6462C152.954 89.6233 152.932 89.6004 152.909 89.5802C152.874 89.5762 152.84 89.5721 152.805 89.5681C152.646 90.0424 152.487 90.5167 152.326 90.9896C152.011 91.9221 150.81 92.5217 149.956 91.9773C149.819 92.0595 149.684 92.1471 149.549 92.2347C149.343 92.3654 149.136 92.4988 148.922 92.6241C148.91 92.6591 148.898 92.6942 148.887 92.7278C148.749 93.1469 148.177 93.3719 147.825 93.1307C147.715 93.1658 147.603 93.1941 147.49 93.217C146.894 93.3342 146.295 93.3019 145.72 93.1038C145.308 92.9636 144.915 92.6955 144.472 92.6591C144.444 92.6568 144.416 92.6587 144.388 92.6579C144.026 93.3966 143.201 94.0331 142.55 94.2494C141.698 94.5327 140.826 94.4314 140.05 94.0844C139.84 94.5023 139.577 94.8979 139.263 95.2637C139.089 95.4658 138.774 95.4227 138.595 95.2637C138.254 94.962 137.915 94.6589 137.576 94.3553C137.332 94.2611 137.084 94.148 136.826 94.0429C136.02 93.7142 135.136 93.5779 134.39 93.1028C134.036 92.8773 133.702 92.5895 133.428 92.256C132.911 91.9582 132.436 91.5872 132.009 91.1621C131.795 91.1635 131.573 91.1136 131.357 91.0045C130.453 90.5463 129.978 89.6139 129.936 88.6599C129.204 86.9419 128.772 85.1094 128.654 83.2338C128.616 82.618 128.609 81.9968 128.656 81.3811C128.689 80.9472 128.798 80.6575 128.963 80.2654C129.018 80.1374 129.068 80.0202 129.107 79.8908C129.098 79.4758 129.092 79.0608 129.087 78.6471C128.975 78.2981 128.775 77.9734 128.497 77.6999C128.066 77.2768 127.869 76.3982 128.261 75.8754C128.516 75.5372 128.77 75.199 129.025 74.8608C128.953 73.4096 128.605 71.1001 129.377 70.8576C129.346 70.642 129.28 70.4291 129.242 70.2148C129.061 69.1854 129.169 68.2651 129.717 67.365C129.832 67.1777 129.929 67.012 130.009 66.8503C130.059 66.5538 130.109 66.2574 130.159 65.961C130.236 65.5042 130.312 65.0434 130.376 64.5798C130.41 63.9897 130.441 63.3995 130.475 62.808C130.506 62.2636 130.541 61.7192 130.578 61.1735C130.563 60.9296 130.541 60.6857 130.51 60.4419C130.325 58.988 129.73 58.4503 128.698 57.4398C128.536 57.4142 128.375 57.3859 128.217 57.3535C127.482 57.2013 126.712 56.9655 125.955 57.0504C125.132 57.142 124.396 57.4964 123.597 57.0436C123.362 56.9089 122.845 56.537 122.801 56.2419C122.798 56.223 122.794 56.2069 122.788 56.1947C122.733 56.1867 122.662 56.1799 122.617 56.1786C121.982 56.157 121.376 56.4063 120.736 56.3376C119.979 56.2567 119.301 55.9212 118.855 55.424C118.284 55.5641 117.701 55.6275 117.108 55.5493C116.611 55.4846 116.166 55.3229 115.726 55.0831C115.406 54.9106 115.507 54.8608 115.159 55.0009C114.366 55.3216 113.649 55.7447 112.757 55.5251C112.294 55.4119 111.894 55.1626 111.558 54.8271C111.478 54.7489 111.343 54.6317 111.253 54.5212C110.829 54.7355 109.762 55.2192 109.587 55.2623C109.09 55.3836 108.563 55.3647 108.08 55.203C107.725 55.0844 107.29 54.7611 106.978 54.695C106.574 54.6088 105.678 55.1693 105.196 55.362C104.351 55.7002 103.455 55.7838 102.599 55.4348C102.305 55.3149 101.733 54.8365 101.513 54.8406C101.155 55.2812 100.156 57.6917 99.8559 58.5716C98.6421 62.1289 98.3275 73.2358 98.8878 76.0695C98.9094 76.153 98.9324 76.2352 98.9553 76.3187C99.6439 78.7832 100.361 81.2894 101.513 83.5855C102.599 85.7495 104.102 87.6979 106.258 88.8796C108.494 90.1057 111.119 90.4278 113.633 90.262C115.252 90.1569 116.844 89.8322 118.41 89.4253C119.228 89.2137 120.039 88.9779 120.847 88.7327C121.199 88.6262 121.557 88.5265 121.903 88.4026C122.513 88.1829 122.833 88.1654 123.418 88.447C123.95 88.703 124.086 89.459 123.809 89.9346C123.358 90.7107 122.532 90.7646 121.734 90.991C120.921 91.2214 120.106 91.4424 119.285 91.6405C117.712 92.0177 116.113 92.3074 114.501 92.4408C111.614 92.682 108.64 92.3101 106.013 91.053C105.716 90.9101 105.429 90.7579 105.153 90.5935C105.255 90.7363 105.359 90.8792 105.464 91.0206C105.756 91.4127 105.54 92.0797 105.131 92.294C105.001 92.3613 104.872 92.426 104.741 92.4893C104.723 92.5311 104.704 92.5729 104.683 92.6147C104.309 93.3638 103.526 93.8058 102.728 93.9971C101.78 94.2235 100.719 94.0632 99.7546 94.0349C98.8608 94.0079 97.967 93.981 97.0745 93.954C96.8639 93.9486 96.6533 93.9419 96.4427 93.9351C95.3814 93.9028 94.3216 93.8718 93.2617 93.8395C92.3166 93.8112 92.3611 93.8839 91.4741 93.5067C91.0785 93.3369 90.7544 93.097 90.4817 92.7777C90.3116 92.7022 90.1469 92.616 89.9889 92.5176C89.4812 92.2023 89.0303 91.7792 88.6144 91.313C87.9083 91.5354 86.9186 91.3292 86.7809 90.4439C86.5595 89.0278 84.7152 88.4228 83.8537 87.3987C83.1584 86.5727 82.6616 85.4907 82.6872 84.4519C80.9347 83.6057 79.9815 81.3757 79.7587 79.4839C79.6547 78.6067 79.6709 77.6675 79.5211 76.7755C79.4549 76.7041 79.3955 76.6286 79.3455 76.5478C78.9054 75.8377 78.522 75.106 78.1844 74.3569C77.7254 74.0267 77.1731 73.8233 76.5953 73.7896C75.1749 73.7074 74.9076 71.7954 76.2618 71.3346C76.2685 71.3319 76.2739 71.3305 76.2807 71.3278C75.9134 70.4116 75.9445 69.3269 76.39 68.4591C76.3711 68.3648 76.3536 68.2718 76.336 68.1775C75.5759 67.3623 75.1398 66.2291 75.1884 65.1256C74.8414 64.8817 74.4526 64.693 74.0273 64.5758C73.3697 64.3952 73.3657 63.5949 73.8517 63.2364C74.0475 63.0923 74.2095 62.9238 74.3445 62.7379C74.0084 61.73 74.1407 60.5645 74.8279 59.7372C74.3918 59.1793 73.9557 58.6215 73.5196 58.0636C73.2307 57.6944 73.0781 57.0679 73.5196 56.7175C73.8018 56.4925 74.084 56.2688 74.3675 56.0452Z" fill="black"/>
<path fill-rule="evenodd" clip-rule="evenodd" d="M117.166 78.8091C117.152 77.3245 115.863 77.0685 114.638 77.2665C112.565 77.6012 110.484 77.8367 108.383 77.8791L108.021 77.8855V77.8855C107.962 77.8006 107.865 77.7362 107.732 77.722C106.568 77.5964 105.378 77.6168 104.207 77.5823C103.185 77.5524 102.135 77.4504 101.114 77.5304L101.032 77.5376C99.7838 77.6582 98.4662 78.2941 98.617 79.7564C98.7557 81.1104 100.053 82.3091 101.088 83.0615C101.298 83.2123 101.512 83.3536 101.732 83.4825C101.801 83.5704 101.902 83.6318 102.019 83.6443C103.039 84.194 104.164 84.5193 105.329 84.6276C107.799 84.857 110.67 84.6088 113.042 83.5407C113.813 83.1934 114.532 82.7598 115.168 82.2273C116.149 81.4058 117.177 80.1601 117.166 78.8091ZM107.436 81.7524C108.426 81.7226 109.415 81.8609 110.358 82.1657C110.997 82.3714 111.579 82.7672 112.191 83.0422C110.128 83.8276 107.731 83.9989 105.613 83.8559C104.685 83.7931 103.784 83.5794 102.945 83.2118C103.076 83.1176 103.208 83.0218 103.347 82.9384C103.765 82.6855 104.203 82.4703 104.66 82.2991C105.549 81.9661 106.487 81.7823 107.436 81.7524ZM107.104 68.7704C107.371 68.5791 107.159 67.9453 106.589 68.0432C101.404 68.9321 104.091 77.8442 110.71 72.9536C111.498 72.3192 110.543 70.9218 109.694 71.4651L109.392 71.6972C108.412 72.4472 106.79 73.5811 105.628 72.3644C104.531 70.8311 106.085 69.3889 107.104 68.7704ZM103.594 62.0253C102.492 61.087 101.109 61.7785 100.298 62.7289L100.155 62.8989C99.9927 63.0927 99.813 63.3186 99.705 63.5601C98.8059 62.7961 97.5867 62.2584 96.4201 62.6074C95.2886 62.9471 94.6434 64.0251 94.8377 65.1824C95.0581 66.4984 96.0559 67.383 97.128 68.067L97.4321 68.2597C98.7204 69.0794 99.926 69.9051 100.986 71.0317C101.159 71.2149 101.533 71.1906 101.647 70.9469L101.738 70.7507V70.7507L101.83 70.5546C102.582 68.954 103.388 67.3639 104.05 65.7255C104.54 64.5114 104.699 62.9658 103.594 62.0253ZM116.156 62.8755L115.988 62.6818C115.181 61.744 113.813 61.1161 112.734 62.0256C111.586 62.9944 111.811 64.5965 112.323 65.8321C112.939 67.3224 113.659 68.7798 114.35 70.2416L114.498 70.5549C114.56 70.6856 114.621 70.8163 114.681 70.947C114.795 71.1909 115.17 71.2151 115.342 71.0319C116.369 69.9405 117.531 69.1329 118.773 68.3392L119.148 68.1012C120.237 67.4113 121.268 66.5207 121.492 65.1827C121.683 64.0279 121.042 62.9432 119.909 62.6076C118.74 62.2614 117.524 62.795 116.623 63.5603C116.516 63.3127 116.331 63.0796 116.156 62.8755V62.8755ZM114.679 56.1472C114.285 56.6581 114.706 57.4931 115.282 57.6252C115.995 57.7889 116.716 57.6893 117.416 57.8924C118.057 58.0785 118.672 58.4513 119.222 58.8229C119.849 59.2466 120.427 59.7195 120.957 60.2583C121.273 60.5789 121.671 61.3383 122.158 61.3525C122.642 61.3666 121.992 59.856 121.938 59.7253C121.557 58.7949 121.021 57.9387 120.35 57.1887C119.027 55.7089 116.224 54.1473 114.679 56.1472ZM99.9027 55.7381L99.5723 55.8297C98.7549 56.0565 97.8823 56.3351 97.1811 56.8241L97.126 56.863L97.0411 56.925C96.1607 57.58 94.9155 58.887 95.539 60.0272C95.5821 60.1058 95.6733 60.1136 95.7468 60.0815C96.5763 59.7189 97.1913 58.9948 98.0737 58.6919L98.2364 58.6366C99.0909 58.3494 100.148 58.0473 101.068 58.0748C101.715 58.2846 102.588 58.1108 102.756 57.3252L102.764 57.2867L102.779 57.2053C102.876 56.6685 102.731 55.9841 102.175 55.7254C101.413 55.371 100.67 55.5287 99.9027 55.7381Z" fill="black"/>
<path fill-rule="evenodd" clip-rule="evenodd" d="M95.7298 66.7581C96.1116 67.7951 96.6927 68.8747 97.4033 69.7474C100.278 72.1771 103.072 70.8319 104.49 67.5389C105.029 65.2117 103.598 62.7049 102.082 60.993C99.8921 58.8025 96.3181 59.9521 95.3111 62.5562C95.2499 62.8936 95.2129 63.2302 95.1953 63.5657C95.2162 64.6559 95.3478 65.5876 95.7298 66.6234M123.364 64.667C119.577 60.171 112.491 59.9307 112.672 66.8504C113.486 75.6093 127.186 73.4595 123.364 64.667ZM94.5377 60.916C94.6704 60.6917 94.8177 60.4746 94.9785 60.267C95.0379 60.2317 95.0721 59.9185 95.2905 59.8954C98.2105 56.6805 103.34 58.5045 105.194 61.7079C105.532 62.113 105.808 62.5871 106.012 63.0881C107.838 62.7538 109.967 62.8188 111.666 63.5072C113.35 59.1183 118.449 58.7265 121.809 60.6017C123.899 61.6275 125.254 63.7757 127.287 64.9558C132.065 65.299 137.193 64.2306 141.885 65.4267C145.585 66.1945 142.492 68.0643 141.871 66.8165C137.448 65.5122 132.207 66.6144 127.614 66.3205C127.136 67.1267 126.221 67.7864 125.308 67.7582C124.322 76.479 111.579 75.0329 111.139 67.2807C110.641 66.4939 110.02 65.7409 109.133 65.2507C108.793 65.1805 108.465 65.0893 108.165 64.9481C107.652 64.8759 106.862 65.0928 106.39 65.5189C104.774 75.1957 95.464 74.0687 93.8002 65.5914C93.7671 65.5577 93.6747 65.4313 93.6036 65.2285C93.0341 64.4771 91.64 64.1977 91.8627 62.9291C92.0611 61.6602 93.6667 61.6753 94.5377 60.916Z" fill="black"/>
</svg>
