<svg width="223" height="444" viewBox="0 0 223 444" fill="none" xmlns="http://www.w3.org/2000/svg">
<path fill-rule="evenodd" clip-rule="evenodd" d="M52.1117 166.403C56.563 176.282 62.066 185.017 68.5828 193.74C68.1259 173.128 67.7323 152.406 67.0587 131.606C62.9318 139.643 58.5346 146.917 52.6644 154.896C48.0623 159.806 50.2081 161.844 52.1117 166.403ZM37.5199 407.543C37.0041 406.814 37.3094 405.888 38.0228 405.415C36.5038 402.146 41.0812 399.622 43.3343 397.16C48.4553 391.614 56.5228 383.664 57.2409 376.662C59.6831 360.774 61.0789 344.83 64.9897 329.129C67.3132 319.156 73.764 311.154 76.6463 301.357C81.6588 275.467 75.1835 249.504 76.303 223.355C62.1763 221.972 64.0058 223.731 65.5189 212C64.5734 211.345 63.6523 210.651 62.7915 209.952C60.5361 211.153 57.8738 214.099 55.3903 213.943C54.6042 213.759 54.0375 212.776 53.4983 211.931C49.5102 205.653 45.8029 199.516 42.1734 193.189C22.1023 161.596 26.642 154.441 45.364 124.156C53.2485 112.46 62.9331 95.4392 77.9535 94.2582C79.7668 94.2597 81.6786 94.1632 83.2406 93.0248C83.2517 91.2118 84.1797 90.6269 86.5338 90.2955C87.8594 90.1596 88.8996 89.3879 90.1936 89.7028C91.1168 86.6256 90.9317 84.1511 91.9335 81.1064C95.3652 75.9103 106.498 78.5027 110.575 80.1323C115.641 81.8909 110.822 89.7614 114.128 93.3556C114.849 93.7574 115.599 93.9499 116.56 93.9495C120.656 93.0392 122.652 97.949 124.588 101.188C130.131 101.87 134.284 102.691 136.834 104.686C139.172 106.448 140.891 109.283 143.177 115.145C147.963 125.599 151.101 135.982 152.487 145.998C153.693 152.786 157.045 158.659 159.735 164.824C166.34 180.876 169.191 191.507 167.61 205.635C165.933 205.335 164.242 204.726 162.477 204.499L161.764 206.185C161.719 206.151 161.7 206.113 161.697 206.102C159.626 220.243 165.307 249.038 146.771 245.249C145.136 260.811 139.919 274.645 133.643 287.657C131.104 292.553 128.552 297.727 128.594 303.475L129.549 303.496C129.712 303.5 129.764 303.533 129.765 303.533C129.946 303.578 129.735 304.994 129.531 305.795C126.533 316.371 123.94 326.945 121.611 337.649C121.12 339.091 120.908 342.974 119.77 343.632C119.82 344.162 118.251 345.201 118.13 345.168C118.403 347.21 117.413 348.124 117.447 350.197C117.441 350.148 118.838 350.221 118.777 350.179C119.611 350.179 120.555 351.946 120.567 353.143C120.643 354.586 119.422 355.942 118.995 357.357C118.333 360.463 118.436 363.611 118.142 366.737C120.921 367.366 120.297 370.315 117.86 370.461C117.86 370.461 117.416 374.582 117.504 376.636C119.176 376.836 119.919 378.324 120.471 379.478C122.527 379.501 124.452 380.435 126.362 381.408C130.813 383.586 135.185 385.867 139.15 388.177C142.649 390.499 150.274 393.052 146.315 397.936C146.375 398.062 145.465 400.328 144.238 400.122C138.184 400.709 115.162 395.718 109.836 394.611C108.029 394.182 100.118 393.153 103.403 390.488C102.179 387.075 102.125 380.598 105.818 379.808C106.177 376.601 108.881 375.475 111.578 376.662C111.561 374.355 111.705 372.358 111.729 370.05C110.431 369.879 108.993 369.398 108.618 368.415C108.262 367.873 108.4 366.026 109.737 366.012C109.776 366.009 110.742 366.055 110.781 366.055C110.626 362.321 110.952 359.152 110.392 355.411C110.092 354.17 109.109 353.967 108.466 353.328C107.863 351.47 109.719 349.97 111.307 349.657C111.712 347.768 110.858 345.767 111.307 343.914C110.272 343.88 109.463 343.827 108.791 343.199C108.499 342.913 108.02 343 107.649 342.974C107.289 339.075 104.852 335.744 104.311 331.993C103.55 327.552 104.985 322.919 105.499 318.393C105.916 314.629 105.252 310.778 104.92 307.081C91.2728 328.824 72.8441 349.778 69.5447 376.245C69.1934 378.282 68.9803 380.562 70.8625 382.557L70.9432 382.58C71.4217 383.539 71.7224 385.367 72.0656 386.356C73.843 387.758 72.2116 390.45 70.9277 391.663C70.5383 392.106 70.2063 392.619 69.8507 393.084C63.1441 401.08 62.3855 410.115 49.5115 409.505C46.3466 409.307 38.9407 409.408 37.5199 407.543Z" fill="#F1F0E0"/>
<path fill-rule="evenodd" clip-rule="evenodd" d="M91.4066 82.3304C92.4934 81.5948 90.9461 87.9769 90.9434 88.5907C90.6774 89.9192 90.2062 91.5078 89.0707 92.3703C89.5769 96.5071 90.207 100.631 90.9825 104.725L91.4387 104.785C98.2058 105.68 105.017 106.912 111.898 106.27C115.606 106.3 118.058 103.766 119.555 100.625L119.246 99.5185V99.5185C114.541 96.6337 110.974 90.7939 113.096 85.2773C113.233 84.919 113.807 85.0645 113.682 85.439C112.791 87.9288 113.165 90.7345 114.429 93.0196C115.219 93.4387 116.06 93.4104 116.907 93.3835C120.991 92.7871 123.334 97.4167 125.093 100.301L126.632 100.529C132.518 101.402 138.194 102.436 141.101 108.457L141.367 109.021C145.478 117.763 149.321 126.752 151.56 136.171C152.676 141.129 153.079 146.237 154.715 151.071C158.113 160.049 162.9 168.486 165.495 177.78C167.106 181.134 171.639 206.378 167.167 206.57C165.559 206.089 163.921 205.699 162.266 205.423C162.521 205.617 162.614 205.947 162.566 206.284C161.988 210.33 161.944 214.429 161.947 218.51C162.184 228.304 162.151 249.01 147.541 246.373C146.344 258.351 142.254 269.939 137.707 281.028C135.006 288.175 129.767 294.694 129.504 302.545C131.313 302.572 130.613 304.871 130.39 305.98C129.781 308.693 128.989 311.364 128.188 314.028C125.363 323.575 123.677 333.442 121.259 343.099C121.128 343.564 120.908 343.88 120.627 344.095C120.58 345.097 119.057 345.678 118.199 345.341C118.32 346.558 118.287 347.787 118.303 349.008L118.307 349.237L118.57 349.234C119.717 348.939 120.876 350.792 121.199 351.744C122.287 354.406 119.764 356.359 119.576 358.894C119.405 361.303 119.178 363.688 119.074 366.104C122.222 367.331 120.827 371.437 117.745 371.395C117.89 372.892 117.909 374.403 117.972 375.902C119.314 376.254 120.318 377.383 120.978 378.561C123.688 378.744 126.161 380.345 128.575 381.478C132.308 383.317 135.981 385.283 139.583 387.368C143.089 389.702 150.896 392.345 147.484 397.739C148.343 398.478 147.743 399.927 146.96 400.532L146.933 400.552C146.156 401.16 145.127 401.16 144.171 401.06C133.066 401.338 121.366 397.895 110.324 395.646L109.21 395.447C106.881 395.027 104.516 394.534 102.451 393.404C101.543 392.664 101.32 390.862 102.25 390.135C101.297 386.692 102.156 380.645 105.928 379.314C106.376 376.759 108.442 374.93 111.074 375.707C111.087 374.072 111.22 372.456 111.25 370.821C109.946 370.576 108.743 370.069 108.114 368.832C107.422 367.601 108.172 365.533 109.743 365.601C109.796 363.053 109.652 360.549 109.631 358.006L109.629 357.852C109.62 357.029 109.654 356.12 109.304 355.365C108.945 354.584 107.989 354.508 107.565 353.767C106.635 351.774 108.497 349.437 110.415 348.901C110.656 347.567 110.532 346.154 110.773 344.808C109.751 344.748 108.88 344.511 108.14 343.932C107.629 343.854 106.724 344.082 106.666 343.347C106.458 340.351 104.945 337.682 103.992 334.889C102.023 329.453 103.809 323.776 104.494 318.278C104.816 315.472 104.476 312.656 104.188 309.847C91.1988 330.161 74.5393 349.804 70.6896 374.312C70.4761 377.07 69.3478 379.341 71.3296 381.719C71.9968 381.917 72.5613 385.027 72.8188 385.817C74.8493 387.692 73.0787 391.039 71.3134 392.491C70.4676 393.948 69.3366 395.226 68.2783 396.53L67.9375 397.101C65.696 400.846 63.3019 404.601 60.2624 407.739C55.1481 411.521 46.5805 410.446 40.5593 409.765L40.0849 409.688C38.8156 409.478 37.3946 409.18 36.6614 408.048C36.0349 407.082 36.1186 405.829 36.8977 405.104C36.1246 402.881 37.886 400.695 39.5427 399.33C45.963 393.645 51.4978 386.96 55.8094 379.55C57.4618 367.566 59.1584 355.587 60.9955 343.63C62.4782 333.739 64.7366 323.832 69.5055 314.958L69.9309 314.149C72.1661 309.91 74.406 305.746 75.6732 301.083C78.2992 291.316 77.6702 281.094 77.3066 271.096C76.8386 255.493 75.7252 239.882 75.8702 224.267C72.9298 223.959 64.9534 224.146 63.6983 221.129C63.2869 218.253 64.2513 215.325 64.4694 212.453C63.8483 212.019 63.2421 211.562 62.6521 211.093C61.5584 211.908 60.4297 212.676 59.2699 213.393C56.4957 215.388 54.35 215.706 52.6338 212.427C47.6654 204.586 42.8736 196.63 38.3517 188.524C34.1573 180.747 28.9589 172.986 27.8941 164.032C26.3463 147.921 45.2764 122.126 54.7548 109.035C60.6382 101.927 68.2655 94.3512 78.0304 93.936L78.1551 93.9306C79.4395 93.8805 81.2307 93.9865 82.2726 93.1423C82.4748 90.2339 85.4652 90.2466 87.6868 89.7669C88.1468 89.4152 88.8451 89.3312 89.4339 89.3615C90.2309 87.0737 90.4129 84.5433 91.4066 82.3304ZM63.9658 381.624C61.5283 380.356 58.6203 380.256 56.0552 381.258C52.8754 387.144 48.8036 392.517 44.1776 397.341C42.4895 399.696 36.1448 402.801 39.3091 405.978L39.9517 406.095C44.7391 406.961 49.5979 407.63 54.4741 407.238C57.7072 406.343 60.3175 403.951 62.3741 401.364C64.9279 398.059 67.0363 394.421 69.3717 390.959C71.4686 387.41 72.5743 387.362 70.9299 383.146C70.9272 383.228 70.907 383.313 70.8651 383.396C70.2845 384.566 68.5023 384.459 67.4965 384.019C66.1854 383.443 65.2322 382.29 63.9658 381.624ZM40.9338 407.069C40.9824 407.092 41.0324 407.115 41.0824 407.137C41.1188 407.137 41.1553 407.138 41.1917 407.139L40.9338 407.069V407.069ZM133.366 385.882C129.752 384.266 123.122 379.556 119.43 380.274C116.702 381.106 114.187 382.6 111.279 382.813L111.154 382.818C109.079 382.908 105.39 383.597 104.609 381.161C103.576 383.132 103.237 385.571 103.252 387.801C103.209 389.7 104.08 391.206 106.102 391.357L107.974 391.828C119.837 394.803 131.811 397.642 144.036 398.521C147.245 396.522 147.325 393.888 143.922 392.062C140.486 389.868 136.949 387.823 133.366 385.882ZM63.4979 339.98C61.3733 353.257 59.9466 366.612 57.8894 379.895C65.0643 378.099 67.1857 384.536 69.8532 382.738C67.9821 380.282 68.2079 378.426 68.7609 375.569C69.8586 365.934 73.451 356.766 77.9055 348.211C78.4132 347.233 78.9344 346.262 79.4623 345.294C73.7349 345.814 67.5695 344.183 63.4979 339.98ZM107.737 377.843C107.244 378.604 107.051 379.525 106.894 380.406C106.813 380.861 106.857 381.532 106.695 382.043C109.776 382.133 112.876 381.419 115.652 380.097C113.447 379.939 108.594 380.313 107.737 377.843ZM105.821 379.806C105.521 380.019 105.262 380.265 105.038 380.539C104.962 380.963 105.182 381.427 105.539 381.69C105.61 381.068 105.697 380.424 105.821 379.806ZM111.84 370.915C111.849 372.836 111.966 374.732 111.945 376.651C111.942 377.318 112.14 378.159 111.732 378.725L112.38 378.793C114.006 378.96 115.663 379.102 117.288 378.916C117.34 376.417 117.342 373.907 117.506 371.408C115.503 371.396 113.812 371.06 111.84 370.915ZM118.046 378.569C118.043 378.647 118.042 378.727 118.045 378.804C118.278 378.759 118.51 378.708 118.74 378.646C118.552 378.628 118.358 378.66 118.173 378.595C118.13 378.59 118.087 378.584 118.046 378.569ZM111.05 378.271C110.844 378.503 110.444 378.546 110.191 378.39C110.14 378.401 110.088 378.408 110.034 378.41L109.988 378.409V378.409L110.164 378.454C110.531 378.545 110.815 378.601 111.191 378.656C111.125 378.537 111.081 378.408 111.05 378.271ZM119.481 378.26C119.434 378.348 119.369 378.422 119.289 378.482C119.379 378.452 119.471 378.422 119.56 378.388C119.536 378.345 119.509 378.302 119.481 378.26ZM108.858 377.733C108.893 377.812 108.969 377.934 109.055 377.999C108.978 377.918 108.911 377.829 108.858 377.733ZM117.995 376.495C117.996 376.542 117.997 376.588 118 376.634C118.025 376.61 118.053 376.583 118.089 376.569C118.057 376.545 118.024 376.52 117.995 376.495ZM109.733 366.022C108.223 366.512 108.752 368.405 109.895 369.025C111.139 369.844 113.017 369.716 114.444 369.84C115.978 369.948 120 370.785 119.29 368.11C119.182 367.918 119.037 367.795 118.878 367.697C118.864 367.73 118.85 367.761 118.835 367.792C118.773 369.661 112.534 368.649 111.458 367.938L111.39 367.908C110.483 367.518 109.624 367.358 109.733 366.022ZM111.581 344.121C111.908 345.585 111.801 347.108 112.007 348.577C112.137 349.002 111.971 349.287 111.705 349.432L111.896 349.488C113.549 349.961 115.217 350.184 116.938 349.799C116.747 348.26 117.176 346.517 117.392 344.96C117.427 344.782 117.442 344.606 117.481 344.444L111.581 344.121V344.121ZM118.132 344.478C118.161 344.698 118.157 344.937 118.182 345.165C118.187 345.157 118.193 345.149 118.201 345.144C118.417 344.956 118.613 344.715 118.819 344.508C118.593 344.504 118.36 344.491 118.132 344.478ZM108.609 179.723L108.467 179.751C110.936 192.098 112.879 204.602 113.552 217.195L113.561 217.38C113.628 218.618 113.795 219.989 112.97 221.019C112.099 222.107 110.742 222.244 109.455 222.442C98.5691 224.094 87.5279 224.653 76.5234 224.295C77.7947 241.223 78.2655 258.201 79.0725 275.157L79.1087 276.045C79.4911 285.632 79.5811 295.478 76.4083 304.647C71.3374 316.018 65.02 326.834 63.5834 339.496C68.2335 343.011 74.4727 345.171 80.2269 343.906C87.0668 331.12 96.2502 319.843 103.852 307.555C118.107 282.84 116.699 252.948 116.337 225.543C116.286 225.352 116.478 225.286 116.467 225.509C116.614 225.496 116.768 225.564 116.796 225.733C117.664 231.477 117.354 237.323 117.318 243.112C117.304 247.43 117.603 251.916 117.285 256.155C116.834 270.72 115.012 285.483 109.575 299.101C116.301 300.603 120.449 307.592 127.839 302.937C127.84 294.437 133.492 287.386 136.426 279.708C140.387 270.451 143.354 260.785 145.473 250.949L145.698 249.897C145.974 248.612 146.276 247.279 146.745 246.044C146.185 245.363 146.667 244.049 146.652 242.88C145.852 242.88 144.825 242.548 144.728 241.627L144.724 241.584C144.136 235.111 144.086 228.458 145.301 222.055L145.129 222.066C142.091 222.244 127.559 222.852 127.164 220.411C126.623 216.319 127.931 212.262 128.198 208.2C128.678 199.02 128.562 189.805 128.499 180.614C125.583 181 122.784 180.444 119.899 180.351C116.237 180.08 112.467 180.327 108.85 179.762L108.609 179.723ZM154.051 204.843C153.905 205.014 153.746 205.118 153.584 205.171C153.585 209.061 152.799 212.886 150.646 216.255C149.701 217.505 149.193 218.945 148.74 220.429C148.87 220.832 148.706 221.297 148.402 221.527C146.412 227.571 146.207 234.042 146.941 240.32C149.179 237.04 150.067 233.125 150.693 229.266C150.727 229.072 151.048 229.074 151.083 229.266C151.826 233.392 150.567 237.513 148.942 241.285C148.04 242.045 148.235 243.775 148.129 244.851C164.627 247.254 158.89 215.602 161.003 205.854C161.042 205.586 161.27 205.39 161.53 205.308C159.055 204.931 156.548 204.903 154.051 204.843ZM87.2992 90.4605L87.0136 90.5326C84.0045 91.2851 83.2048 91.3014 83.0135 94.8369C82.2642 99.8286 79.4981 104.183 78.2546 109.009C77.7572 110.714 78.2835 113.855 80.6416 113.394C81.4058 113.159 82.0012 114.189 81.4233 114.735C79.7154 116.349 78.0574 118.013 76.3899 119.666C83.0856 142.249 91.7837 164.246 102.379 185.29C102.799 186.126 101.539 186.86 101.122 186.025C90.5889 164.913 81.8284 142.924 75.029 120.335L74.8236 119.65C74.5232 118.818 78.363 115.838 79.0619 114.865C72.0603 111.495 81.8112 99.7002 82.0957 94.0284C80.0686 94.824 77.8204 94.5494 75.704 94.8948C71.6373 95.6075 68.068 97.9551 64.8954 100.489C52.0082 111.86 43.7726 127.603 35.5346 142.442C29.9242 152.124 27.2199 163.959 32.8496 174.258C39.3823 187.462 46.9603 200.19 54.9723 212.545C55.8524 213.687 57.2053 212.376 58.133 211.894C63.4617 208.694 68.0823 204.341 71.636 199.251C62.3181 187.578 53.6495 174.826 48.8193 160.623C48.4333 157.168 53.2806 153.164 55.0492 150.161C58.9552 144.78 62.6041 139.21 66.0882 133.55C65.9785 132.991 66.2102 132.375 66.8037 132.393L67.1476 131.819C69.8011 127.409 70.0997 127.243 67.464 132.634C68.8046 152.578 68.5814 172.908 69.1611 192.978C70.7287 195.051 72.3421 197.09 73.9934 199.096C79.3497 195.408 85.6508 193.002 92.1222 192.257L92.3692 192.232C95.0962 191.956 99.8215 191.324 100.19 194.965C99.7438 199.352 90.6711 196.886 87.7704 199.374C92.5254 201.289 97.9743 201.829 102.34 204.715C103.74 205.532 106.486 208.133 103.804 209.128C102.633 209.228 101.425 208.774 100.255 208.674C101.571 209.117 102.782 209.868 103.553 211.044C104.107 211.851 104.512 213.526 103.187 213.871C100.164 213.957 97.1541 212.972 94.177 212.482L94.4414 212.589C96.6117 213.477 99.9851 215.072 97.0623 217.423C94.1359 218.937 90.5934 216.362 87.6788 215.675C79.8277 213.849 74.0202 218.852 65.972 213.436C65.746 215.821 65.0237 218.275 65.2455 220.662C67.179 222.471 73.2097 222.411 75.9038 222.651L75.9064 222.632C75.9337 222.371 75.8035 221.127 76.2063 221.663C76.2441 221.999 76.2846 222.333 76.3264 222.668C86.1234 222.951 95.9585 222.622 105.683 221.359L106.094 221.305C107.587 221.105 109.148 220.975 110.614 220.619C112.113 220.417 112.116 218.82 111.957 217.644C109.898 174.216 92.2425 133.38 87.2992 90.4605ZM115.05 94.0482C115.397 94.5643 115.781 95.0559 116.197 95.5209C116.836 94.5303 118.397 93.9708 118.838 95.4467C119.337 96.9651 120.051 98.5263 120.072 100.135C130.277 133.395 130.536 168.762 130.337 203.261C130.643 208.733 128.945 214.089 129.102 219.531C134.692 220.335 140.362 220.404 145.975 219.809C146.141 219.373 146.329 218.945 146.542 218.524C154.943 208.283 150.488 195.45 146.442 184.357C143.996 184.461 141.535 184.306 139.087 184.336C139.843 186.677 140.038 189.154 140.441 191.574C140.715 193.299 141.065 195.011 141.467 196.71L141.575 197.162C141.726 197.789 141.927 198.465 141.707 199.086C141.491 199.699 140.746 199.947 140.252 199.47C139.361 198.455 139.456 196.942 139.169 195.683L139.098 195.154C138.61 191.58 137.991 187.878 138.876 184.335C137.996 184.146 135.591 184.839 135.465 183.657C135.502 181.704 134.085 177.473 135.663 176.187C136.601 175.471 138.214 175.698 139.315 175.653C140.587 175.602 141.857 175.555 143.128 175.563C132.917 150.893 135.757 143.3 136.793 118.748L136.824 117.999C136.821 117.837 137.082 117.797 137.11 117.96C138.671 128.016 136.59 138.198 137.576 148.287C139.327 167.454 151.476 183.911 153.506 202.987C157.887 202.479 162.318 203.102 166.564 204.201C166.653 203.427 166.722 202.649 166.77 201.872C167.576 187.633 162.579 173.805 156.748 161.034C153.254 154.256 151.094 147.021 150.19 139.457C148.435 129.604 144.496 120.323 140.57 111.17C138.088 104.327 132.723 102.713 126.07 101.918C128.314 105.638 130.544 109.365 132.771 113.094C133.267 114.222 131.744 115.027 131.08 115.722C139.253 120.178 134.481 133.94 134.65 141.65C134.043 148.736 133.814 155.862 132.745 162.898C132.667 163.386 131.919 163.243 131.912 162.786C132.01 152.243 133.268 141.743 133.82 131.217L133.9 130.292C134.325 125.315 134.675 118.262 128.744 116.909C127.936 116.777 127.873 115.575 128.523 115.214C129.387 114.733 130.144 114.145 130.822 113.446C127.403 107.957 124.421 102.174 120.823 96.8052C118.265 93.5293 118.505 94.6845 115.05 94.0482ZM98.532 194.699C97.8707 192.752 91.4538 194.02 89.741 194.232C83.4249 195.424 77.0683 198.219 72.2577 202.522C71.9607 202.788 71.6096 202.784 71.3328 202.639C69.1781 205.391 66.6899 207.886 63.9609 210.077C64.4605 210.471 64.9736 210.852 65.5015 211.217C65.754 211.244 65.9821 211.375 66.0847 211.609C73.5931 217.049 79.1167 212.806 86.9164 213.786C89.8287 214.373 92.5104 216.225 95.5114 216.303C97.7138 215.802 95.7747 214.881 94.746 214.525C92.2617 213.34 89.7257 212.266 87.1872 211.201L85.7593 210.603C84.8237 210.211 85.145 208.797 86.19 209.044C88.0195 209.475 89.8544 209.885 91.6906 210.288C95.2217 211.008 98.8373 211.932 102.405 212.282C101.612 210.078 93.1963 207.697 90.7494 206.821C89.8252 206.384 87.1894 206.467 87.4902 205.035C87.7333 203.702 90.538 205.229 91.4732 205.337C95.2904 206.305 99.1868 206.892 103.077 207.482C98.8986 203.291 92.4224 202.93 87.0865 200.967L86.94 200.934C85.9909 200.713 84.6912 200.297 85.4626 199.219C88.2041 195.177 98.9908 197.222 98.532 194.699ZM90.6385 172.198C92.5846 170.602 93.6269 173.881 93.5035 175.405C93.5953 176.67 93.6939 177.935 93.7764 179.201C93.6557 180.19 94.7103 183.796 93.2996 183.829C87.1343 183.516 80.9793 183.595 74.8118 183.224C74.8037 184.468 74.743 185.71 74.8066 186.955C74.773 188.512 75.3141 190.067 74.9982 191.606C74.8051 192.314 73.8424 192.409 73.4668 191.806C72.3401 189.156 73.1146 185.738 73.9126 183.058C69.2781 181.906 71.488 178.106 71.4999 174.848C71.4931 174.762 71.5796 174.718 71.6499 174.734C72.8047 176.346 71.3007 178.498 71.9603 180.25C72.6213 182.109 75.3629 182 77.0194 182.021L77.2205 182.025C82.3127 182.112 87.4015 182.322 92.4936 182.421C92.2762 180.707 92.2168 178.95 92.086 177.237C91.9211 176.006 92.1589 174.546 91.5323 173.443C88.701 174.363 85.7529 174.73 82.7765 174.672C79.228 174.768 75.4985 175.087 72.0292 174.664C77.0018 173.895 82.4963 174.008 87.5641 173.033C88.5714 172.773 89.5997 172.247 90.6385 172.198ZM66.159 135.197C63.0908 141.05 59.564 146.619 55.8073 152.041C55.0026 153.198 54.1763 154.341 53.3368 155.476L53.2333 155.608C51.54 157.768 49.7448 159.543 51.3464 162.399C55.5002 172.485 61.0616 181.957 67.5051 190.748C67.0967 172.23 66.7361 153.708 66.159 135.197ZM143.24 175.859C135.537 177.473 135.393 174.45 136.678 183.004C139.768 183.026 142.856 182.956 145.946 183.006C145.063 180.617 144.147 178.238 143.24 175.859ZM117.569 95.605C117.247 95.6002 116.753 95.7896 116.424 95.7694C117.057 96.444 117.753 97.0571 118.486 97.5977L118.615 97.6922L118.557 97.5798C118.246 96.9733 117.989 96.2752 117.636 95.7095L117.569 95.605Z" fill="black"/>
<path fill-rule="evenodd" clip-rule="evenodd" d="M125.174 47.6572C120.722 41.3639 109.535 40.655 102.464 40.6949C88.5006 40.5788 85.5768 56.5965 84.8476 67.8206C83.3582 68.0734 81.9098 68.5916 80.9271 69.7597C79.7303 71.1821 79.3169 73.6235 80.4389 75.2143C81.1841 76.2706 82.3608 76.6236 83.5916 76.6824C87.6678 76.2942 88.5037 79.9202 90.5113 82.6392C95.6629 89.5846 104.587 91.8377 112.773 91.8722C115.553 91.946 118.902 92.1543 120.683 89.5437C126.307 79.8156 126.429 66.9138 126.776 55.8896C126.823 53.0673 126.811 50.0795 125.174 47.6572V47.6572Z" fill="#F1F0E0"/>
<path d="M100.526 21.2658C101.03 20.5067 102.134 20.2125 102.9 20.7756C103.537 20.3818 104.339 20.4648 104.912 20.9435C105.605 20.5349 106.465 20.6999 107.009 21.2697C107.88 20.7949 109.029 21.1454 109.495 22.0451C110.374 21.9478 111.202 22.5219 111.437 23.3527C111.478 23.3862 111.519 23.4208 111.56 23.4552C112.086 23.4805 112.586 23.6864 112.881 24.175C113.028 24.419 113.097 24.7056 113.087 24.9865C113.402 25.1563 113.656 25.4352 113.765 25.7961C113.867 26.1344 113.829 26.4693 113.694 26.7609C114.132 27.2261 114.248 27.9511 113.938 28.5353C114.066 28.7551 114.133 29.0153 114.122 29.2853C114.107 29.6854 113.921 30.0081 113.668 30.2834C113.986 30.856 113.862 31.5908 113.345 31.9924C113.048 33.0426 112.297 33.7414 111.146 34.1701C110.567 34.3854 109.962 34.5512 109.346 34.673C111.813 35.0044 114.241 35.587 116.572 36.4552C116.699 36.5025 116.807 36.484 116.889 36.4289C116.94 36.4558 116.992 36.4813 117.043 36.509C117.686 36.8606 118.315 37.2414 118.928 37.6496C118.928 37.5823 118.929 37.5151 118.932 37.4465C118.92 36.892 118.979 36.3459 119.126 35.8195C118.933 35.5569 118.788 35.257 118.709 34.9484C118.513 34.1786 118.887 33.0836 119.557 32.8205C119.792 32.1703 120.326 31.699 120.981 31.5138C121.032 31.4672 121.088 31.4222 121.15 31.3801C121.287 31.2855 121.439 31.2202 121.594 31.1828C121.675 30.8308 121.871 30.5069 122.197 30.2795C122.658 29.9581 123.205 29.9225 123.684 30.0978C123.775 30.0673 123.867 30.0407 123.96 30.0177C124.731 29.3626 125.934 29.4114 126.612 30.1779C127.078 29.9655 127.627 29.9556 128.104 30.2414C128.485 30.4702 128.723 30.8394 128.816 31.2443C129.538 31.2664 130.199 31.7444 130.407 32.4582C131.073 32.5335 131.617 33.0539 131.733 33.7082C132.157 33.7672 132.55 33.9665 132.788 34.3625C132.898 34.5455 132.958 34.7459 132.974 34.9465C133.188 35.0493 133.381 35.2051 133.526 35.4084C133.781 35.7646 133.83 36.1802 133.736 36.5715C133.758 36.6148 133.781 36.6574 133.802 36.7013C133.871 36.8484 133.927 37.006 133.977 37.1662C134.2 37.4882 134.304 37.8821 134.283 38.2775C134.331 38.4448 134.377 38.6129 134.415 38.7814C134.566 39.443 134.623 40.1478 134.519 40.8215C134.467 41.1475 134.393 41.4683 134.288 41.7795C134.277 41.8387 134.26 41.894 134.239 41.9465C134.181 42.1917 134.107 42.4333 134.013 42.6691C133.786 42.9696 133.549 43.2622 133.299 43.5451C133.088 43.8604 132.848 44.1514 132.576 44.4181C132.381 44.6108 132.166 44.7897 131.938 44.9513C131.485 45.3137 130.977 45.5967 130.437 45.7804C130.34 45.7603 130.244 45.7441 130.147 45.7287C129.533 46.0661 128.566 46.104 127.975 46.1017C127.324 46.0992 126.728 45.9351 126.233 45.6252C126.29 45.7392 126.347 45.8535 126.404 45.9679C126.39 45.9761 126.375 45.9838 126.362 45.9933C126.255 45.8162 126.135 45.6592 125.994 45.5461C125.802 45.3913 125.492 45.377 125.359 45.6271C125.356 45.6314 125.354 45.6364 125.352 45.6408C125.281 45.7743 125.291 45.9024 125.345 46.007C125.365 46.0354 125.384 46.0644 125.403 46.0929C125.41 46.101 125.417 46.1098 125.425 46.1174H125.422C125.606 46.2655 125.787 46.6282 125.959 46.9806C126.075 47.1867 126.186 47.3959 126.29 47.6086C126.351 47.6978 126.459 47.7762 126.573 47.799C126.551 47.9687 126.629 48.1436 126.758 48.2306C126.792 48.1629 126.832 48.0932 126.885 48.0217C127.465 47.2351 128.605 46.8957 129.464 47.2551C129.635 47.2262 129.807 47.2023 129.981 47.1886C130.547 47.1513 131.122 47.1966 131.682 47.3136C131.856 47.4177 132.022 47.5346 132.177 47.6681C132.308 47.7813 132.429 47.9001 132.542 48.0226C132.63 48.0882 132.716 48.1573 132.801 48.2297C133.144 48.4139 133.397 48.7676 133.609 49.1193C133.776 49.3563 133.923 49.6085 134.05 49.8752C134.639 50.8803 135.318 52.1281 134.787 53.1164C134.844 53.2228 134.885 53.3407 134.908 53.4689C134.982 53.8765 134.831 54.1888 134.634 54.4914C134.66 54.7023 134.674 54.9072 134.686 55.0871C134.748 56.097 134.516 57.4814 133.624 57.8937C133.61 57.9104 133.596 57.927 133.581 57.9435C133.512 58.0554 133.407 58.1522 133.269 58.2228C133.235 58.2465 133.2 58.269 133.165 58.2883C133.149 58.3018 133.132 58.3134 133.115 58.3263C133.134 58.3069 133.152 58.2865 133.17 58.2668C132.676 58.4632 132.199 58.5032 131.691 58.4435C131.376 58.5569 131.061 58.6416 130.795 58.7072C129.965 58.9119 128.894 59.0757 128.084 58.7267C127.848 58.6251 127.652 58.4907 127.505 58.3302C127.517 58.9555 127.535 59.581 127.563 60.2062C127.618 61.7866 127.616 63.3657 127.604 64.9474C127.59 66.7274 127.54 68.5087 127.444 70.2873C127.4 71.1806 127.328 72.0728 127.233 72.9621C127.152 73.8285 127.057 74.6935 126.947 75.5558C126.69 77.3291 126.265 79.1163 125.746 80.8302C125.521 81.5739 125.273 82.3271 124.992 83.0627C124.874 83.4008 124.748 83.7352 124.611 84.0666C123.892 85.8033 122.995 87.4799 121.784 88.9269C121.123 89.7164 120.393 90.4268 119.577 91.0236C118.922 91.5329 118.213 91.9634 117.434 92.3029C115.76 93.0331 113.892 93.198 112.081 93.1711C111.377 93.1616 110.628 93.035 109.932 92.9191C109.397 92.8315 108.855 92.7138 108.319 92.5763C107.844 92.4659 107.374 92.3382 106.911 92.1886C106.354 92.0418 105.819 91.8303 105.31 91.5568L104.407 91.2189C104.031 91.0775 103.665 90.9086 103.31 90.716L102.33 90.259C101.924 90.0636 101.528 89.8493 101.142 89.6135C101.101 89.592 101.056 89.556 101.038 89.5158C100.938 89.4606 100.836 89.4074 100.736 89.3508C100.721 89.3423 100.733 89.2956 100.754 89.2502C100.736 89.2138 100.74 89.1733 100.788 89.1369C100.825 89.1087 100.883 89.1161 100.943 89.1349C100.938 89.1309 100.934 89.1272 100.93 89.1232C100.862 89.0868 100.796 89.0522 100.73 89.0158C100.662 88.9794 100.652 88.885 100.715 88.8351C100.733 88.8217 100.753 88.815 100.774 88.8136C100.772 88.8136 100.77 88.8117 100.769 88.8117C100.757 88.803 100.767 88.766 100.784 88.7248C100.751 88.6817 100.74 88.629 100.799 88.5832C100.887 88.5145 101.092 88.641 101.166 88.6828C101.251 88.7299 101.338 88.7747 101.423 88.8205C101.428 88.8084 101.439 88.7971 101.456 88.7863C101.331 88.7203 101.206 88.6534 101.082 88.5861C101.005 88.5457 100.906 88.4605 101.007 88.381C101.088 88.3165 101.297 88.427 101.397 88.4836C101.409 88.4742 101.422 88.4697 101.439 88.467C101.396 88.4428 101.35 88.4202 101.307 88.3947C101.185 88.3274 101.267 88.1169 101.393 88.1867C101.408 88.1961 101.423 88.2046 101.438 88.214C101.528 88.2061 101.655 88.2794 101.713 88.3117C102.136 88.5771 102.576 88.8095 103.032 89.009C103.34 89.1544 103.649 89.2986 103.959 89.4386C104.264 89.5895 104.579 89.7198 104.901 89.8302C105.713 90.1455 106.533 90.4399 107.36 90.7121C108.52 91.0287 109.721 91.2833 110.925 91.383C111.081 91.3951 111.238 91.4059 111.395 91.4113C111.737 91.4086 112.081 91.4072 112.422 91.4045C113.088 91.3357 113.754 91.2687 114.418 91.2013C114.65 91.169 114.877 91.1283 115.101 91.0812C115.218 91.0529 115.336 91.0231 115.452 90.9894C115.493 90.984 115.533 90.9756 115.573 90.9689C115.858 90.8935 116.138 90.8035 116.417 90.6984C116.593 90.627 116.767 90.5513 116.94 90.4719C117.511 90.2064 118.072 89.8558 118.602 89.4543C119.265 88.7954 119.928 88.1385 120.591 87.4797L121.197 86.6545C121.98 85.5375 122.6 84.2922 123.114 83.0217C123.387 82.2376 123.66 81.4532 123.933 80.6691C124.018 80.3863 124.099 80.1036 124.176 79.8195C124.331 79.1835 124.486 78.5469 124.642 77.9123C124.693 77.6793 124.743 77.4476 124.791 77.216C125.089 75.773 125.254 74.3084 125.396 72.8439C125.655 70.1788 125.725 67.5052 125.744 64.8293C125.756 63.23 125.743 61.6303 125.711 60.0324C125.692 59.1054 125.679 58.1781 125.665 57.2511C125.648 56.2676 125.628 55.2825 125.603 54.299C125.601 54.2775 125.609 54.2585 125.62 54.2424C125.618 54.1265 125.616 54.01 125.614 53.8927C125.613 53.8162 125.644 53.7823 125.687 53.7756C125.679 53.0738 125.673 52.3734 125.672 51.673C125.672 51.6272 125.693 51.5968 125.722 51.5793V51.4015C125.604 50.914 125.445 50.4359 125.238 49.9806C125.168 49.8163 125.089 49.6555 125.003 49.4992C124.896 49.2647 124.757 49.052 124.587 48.8566C124.445 48.6181 124.271 48.4066 124.068 48.2179C123.986 48.1587 123.903 48.0994 123.82 48.0402C123.752 48.0039 123.651 47.94 123.562 47.8674C123.401 47.769 123.241 47.6688 123.08 47.5705C122.988 47.5218 123.048 47.4017 123.114 47.3693V47.3644C123.1 47.3577 123.083 47.3499 123.066 47.3351C122.871 47.1519 122.669 46.9792 122.458 46.8176C122.42 46.8324 122.376 46.8273 122.342 46.799C122.218 46.6831 122.091 46.5709 121.961 46.4631C121.671 46.2731 121.367 46.099 121.05 45.9455C120.541 45.7057 120.02 45.4995 119.485 45.3244C119.37 45.2865 119.253 45.253 119.138 45.2189C118.974 45.2111 118.81 45.2026 118.646 45.1955C112.528 44.9276 106.393 45.04 100.289 45.5314C98.7855 45.6525 97.2836 45.7968 95.7843 45.964C94.4649 46.1113 92.8829 46.106 91.67 46.7092C91.6189 46.7347 91.5701 46.7614 91.5226 46.7892C91.6172 47.3948 91.8646 47.9869 92.0802 48.5578C92.4127 49.4383 92.7103 50.3357 92.6808 51.2892C92.66 51.9543 92.517 52.594 92.3107 53.2189C92.2049 54.11 91.9264 54.9711 91.631 55.8166C90.1774 59.9765 89.3866 64.2357 89.4679 68.6515C89.47 68.7698 89.4426 68.8733 89.3956 68.9611C89.4222 69.1541 89.4483 69.3477 89.4796 69.5402C89.6004 70.2841 88.6177 70.6535 88.2784 70.1603C88.2557 70.1827 88.2245 70.1988 88.1954 70.2013C88.109 70.2094 87.9664 70.0678 87.9259 70.0031C87.8733 69.9062 87.8182 69.812 87.7589 69.7219C87.7508 69.7178 87.7441 69.7148 87.7374 69.7121C87.7738 69.7874 87.8117 69.864 87.8468 69.9367C87.9062 70.0553 87.678 70.1132 87.6105 70.0041C87.5498 69.9085 87.4886 69.8172 87.4279 69.7297C87.3928 69.7551 87.3538 69.7616 87.3282 69.7199C87.1109 69.3616 86.8595 69.0545 86.5841 68.7931C86.1507 68.4402 85.6765 68.2261 85.1378 68.1008C84.714 68.0402 84.2793 68.0376 83.8595 68.0861C83.3775 68.1427 82.8698 68.262 82.4337 68.4816C82.0788 68.7254 81.7226 68.9693 81.3663 69.2131C81.2787 69.3046 81.1946 69.4006 81.1163 69.5002C80.8692 69.8195 80.6703 70.1611 80.507 70.5236C80.5002 70.5464 80.4932 70.5696 80.4864 70.591C80.3866 70.8954 80.3224 71.208 80.2941 71.5285C80.29 71.9339 80.2874 72.3379 80.2833 72.7433C80.3373 73.2701 80.4723 73.7824 80.6788 74.2687C80.776 74.5557 80.9284 74.8119 81.1349 75.0383C81.2456 75.2296 81.3714 75.4039 81.5118 75.5656C81.7966 75.7541 82.107 75.9146 82.4376 76.0412C82.5186 76.0627 82.6004 76.0846 82.6827 76.1008C83.1079 76.2637 83.5482 76.3513 84.003 76.3635C84.578 76.4025 85.1408 76.3518 85.6915 76.2131C86.0317 76.1524 86.3612 76.0542 86.6798 75.9181C86.9849 75.7646 87.2725 75.58 87.5411 75.3644C87.5708 75.3456 87.6156 75.3568 87.6642 75.381C87.7236 75.3379 87.7829 75.2954 87.8409 75.2482C87.8678 75.2295 87.8922 75.2525 87.9044 75.2765C87.9098 75.2725 87.9156 75.2689 87.921 75.2648C88.0277 75.1922 88.3208 75.4201 88.1886 75.5549C88.245 75.5897 88.3016 75.6311 88.3527 75.674C88.5876 75.6834 89.0619 76.1154 88.9728 76.1828C88.8405 76.2973 88.7014 76.4024 88.5597 76.5021C88.6852 76.5951 88.8495 76.7391 88.7726 76.797C88.635 76.9276 88.4854 77.0409 88.3263 77.1379C88.2184 77.22 88.1073 77.2979 87.9913 77.3693C87.8658 77.4434 87.7369 77.5073 87.6046 77.5666C87.8354 78.0124 88.0557 78.4621 88.2609 78.9201C88.3972 79.2447 88.5553 79.5588 88.7374 79.8605C88.9696 80.32 89.248 80.752 89.5734 81.1535C89.838 81.5981 90.149 82.0059 90.504 82.3791C90.9428 82.8776 91.4142 83.3466 91.9152 83.7804C92.1149 83.9219 92.3185 84.0601 92.5304 84.1867C93.0717 84.5936 93.6483 84.9426 94.2599 85.2336C94.3313 85.2726 94.3882 85.3586 94.3048 85.426C94.3021 85.4273 94.2987 85.4272 94.296 85.4299C94.4958 85.543 94.6971 85.6553 94.8995 85.7658C94.9792 85.8089 95.1429 85.8921 95.0216 85.9904C94.9433 86.0551 94.7012 85.9389 94.5568 85.8635C94.5769 85.8742 94.5987 85.8865 94.6202 85.8986C94.6648 85.9229 94.9216 86.0527 94.7638 86.1349C94.6841 86.1484 94.6082 86.1349 94.5353 86.0959C94.4597 86.0676 94.3839 86.0364 94.3097 86.0041C94.3123 86.0283 94.2989 86.0507 94.2599 86.0695C94.2288 86.0749 94.1988 86.0751 94.1691 86.0724C94.3338 86.1654 94.4991 86.2575 94.6652 86.3478C94.7143 86.3737 94.943 86.5003 94.7921 86.5783C94.7179 86.5931 94.6461 86.5808 94.5773 86.5431C94.4517 86.496 94.3273 86.4407 94.2071 86.3801C94.1789 86.3639 94.1505 86.3493 94.1222 86.3332C94.1007 86.3332 94.0792 86.3303 94.0577 86.3263C94.1898 86.3976 94.3233 86.4661 94.4581 86.5334C94.5378 86.5765 94.6715 86.6642 94.5568 86.7531C94.477 86.8135 94.2627 86.7044 94.1359 86.633C94.1278 86.6424 94.1181 86.6535 94.1046 86.6642C94.0102 86.7354 93.7679 86.5783 93.6905 86.5363C93.0209 86.1779 92.3735 85.8074 91.7511 85.383C91.3704 85.1391 90.999 84.8826 90.6359 84.6037C89.9406 84.0675 89.3087 83.4438 88.7296 82.7863C88.334 82.3363 88.1189 82.083 87.7355 81.5373C87.1199 80.6588 86.656 79.7421 86.2091 78.7707C86.2025 78.7558 86.2154 78.7183 86.2355 78.6808C86.1437 78.4559 86.055 78.2281 85.9659 77.9924C85.7339 78.0233 85.5004 78.0443 85.2696 78.0578C84.7256 78.0888 84.1973 78.0407 83.6857 77.9289C83.0661 77.8494 82.4529 77.6744 81.9103 77.3996C81.585 77.2366 81.2717 77.0623 80.9747 76.8683C80.7087 76.7269 80.4519 76.5648 80.2062 76.3761C79.1599 75.5785 78.5913 74.3403 78.4523 73.0549C78.3456 72.489 78.3224 71.9067 78.3859 71.3449C78.4318 70.9369 78.5238 70.5329 78.6573 70.1437C78.9044 69.28 79.3654 68.4802 80.0323 67.8752C80.1443 67.7608 80.2614 67.6513 80.3868 67.549C80.7581 67.2459 81.1798 67.0022 81.628 66.8244C81.7144 66.7827 81.8021 66.7436 81.8898 66.7072L81.7833 66.4621C81.7455 66.4729 81.614 66.4513 81.5978 66.4054C81.5546 66.2883 81.5146 66.1681 81.4728 66.051C81.4486 66.0657 81.4175 66.074 81.3839 66.0754V66.2111C81.3853 66.2502 81.3102 66.493 81.2696 66.3664C81.2278 66.2505 81.19 66.132 81.1495 66.0148C81.1159 65.9933 81.0906 65.9673 81.0812 65.9377C81.0771 65.9256 81.0729 65.9136 81.0675 65.9015C81.0648 65.9002 81.0604 65.9 81.0577 65.8986V65.9406C81.0591 65.9662 80.9918 66.16 80.9796 66.1222C80.7461 65.4809 80.5558 64.8259 80.4073 64.1603C80.3061 63.794 80.2259 63.4238 80.1652 63.048C80.099 62.7098 80.0413 62.3698 79.9913 62.0275C79.9873 61.9993 79.9837 61.9708 79.9796 61.9426C79.9783 61.9359 79.9761 61.9307 79.9747 61.924C79.9707 61.8877 79.9674 61.8499 79.962 61.8136C79.908 61.4269 79.863 61.0384 79.8292 60.6476C79.7577 59.8446 79.7293 59.0373 79.7374 58.2316C79.72 58.2383 79.704 58.248 79.6866 58.256C79.3359 58.405 78.9651 58.5272 78.588 58.6242C77.9393 59.5598 76.9034 60.1924 75.6622 60.259C75.2419 60.2816 74.8007 60.2309 74.3927 60.1125C74.3505 60.1221 74.307 60.13 74.2618 60.1359C73.9293 60.1793 73.6978 60.0443 73.3868 60.0031C72.889 59.9373 72.4668 59.9049 72.1446 59.6164C72.0452 59.6187 71.9498 59.6043 71.8595 59.5773C71.0054 59.7815 70.0984 59.3309 69.798 58.3869C69.2857 58.0873 68.8771 57.6428 68.6027 57.1271C68.074 56.4508 67.651 55.6214 67.3888 54.7502C67.3847 54.742 67.38 54.7333 67.3761 54.7248C67.2432 54.4371 67.1803 54.1281 67.1749 53.8185C67.0335 52.9367 67.07 52.0536 67.339 51.2775C67.3276 50.8569 67.4272 50.4185 67.6085 50.0207C67.8284 49.5383 68.1637 48.9831 68.5987 48.6613C68.5998 48.1668 68.8128 47.622 69.0919 47.2531C69.6489 46.5162 70.4571 46.1268 71.3312 46.0705C71.7757 44.9335 73.1227 44.6676 74.2843 45.0461C74.7668 44.5542 75.4735 44.3189 76.1788 44.4025C76.7753 44.4733 77.2851 44.7582 77.7071 45.1506C77.8184 45.1822 77.9294 45.2158 78.0402 45.2502C78.4095 45.0885 78.8403 45.0512 79.2345 45.1525C79.9181 45.3284 80.3645 45.8458 80.673 46.4386C80.7713 46.5062 80.8673 46.5758 80.9611 46.6486C81.0641 46.6947 81.1584 46.7568 81.2433 46.8293C81.3665 46.8949 81.4715 47.003 81.5353 47.1594C81.7093 47.3385 81.8715 47.5284 82.0148 47.7316C82.1221 47.4839 82.2325 47.2375 82.3468 46.9933C82.5329 47.0492 82.7579 46.9766 82.8517 46.7287C83.4458 45.1556 84.527 42.2727 85.546 40.9445C84.3568 41.7525 82.9052 42.1787 81.463 42.1359C81.4014 42.134 81.3391 42.1315 81.2765 42.1281C80.5012 42.2615 79.7133 42.2738 78.9904 42.1291C78.5036 41.9527 78.0291 41.7428 77.5695 41.5051C77.4577 41.4471 77.3468 41.3858 77.2364 41.3244C77.1882 41.2838 77.1428 41.2389 77.0968 41.1955C77.002 41.2023 76.9026 41.1951 76.797 41.1672C76.3992 41.0622 76.0308 40.7976 75.7999 40.4582C75.757 40.395 75.7223 40.3295 75.6915 40.2638C75.4411 40.0195 75.224 39.7428 75.0646 39.4191C74.8769 39.0405 74.7623 38.6144 74.7501 38.1886C74.6718 37.771 74.6776 37.3414 74.8234 36.9426C74.8396 36.8995 74.8585 36.8577 74.8761 36.8146C74.8842 36.7878 74.8892 36.7594 74.8986 36.7326C74.9412 36.5904 74.9958 36.4629 75.0616 36.3429C75.0861 36.2198 75.1264 36.0975 75.1827 35.9787C75.1891 35.9213 75.1969 35.8639 75.2062 35.8068C74.7771 34.999 74.9292 33.9429 75.5714 33.2863C75.4826 32.8619 75.5723 32.411 75.8312 32.0344C76.0213 31.7577 76.2858 31.5394 76.5851 31.3879C76.6163 31.3721 76.6992 31.3448 76.798 31.3136C76.9086 31.2161 77.0257 31.1235 77.1534 31.0422C77.1855 30.2147 78.0511 29.7537 78.755 29.3459C79.2116 29.0814 79.4117 28.5809 79.882 28.3273C80.3964 28.0502 81.0546 28.0333 81.6232 27.965C82.9634 27.8039 84.3905 27.6788 85.7374 27.8244C86.4852 27.9052 87.1043 28.2662 87.3605 28.8566C88.0038 28.9325 88.5777 29.3958 89.0314 29.8722C89.5976 30.4668 90.08 31.0997 90.2462 31.881C90.3567 31.9406 90.4572 32.0136 90.548 32.0959C90.5446 32.6454 90.4725 33.1964 90.3204 33.715C90.3651 34.025 90.2716 34.3207 90.1134 34.589C90.1376 34.8431 90.1208 35.0936 90.0675 35.3429C90.3753 35.888 90.0866 36.7117 89.6554 37.2521C89.6543 37.3536 89.6535 37.4553 89.6525 37.5568C89.6781 37.5435 89.7033 37.5278 89.7267 37.508C91.6832 35.8465 93.6946 36.0836 96.0714 35.133C98.215 34.72 100.403 34.4568 102.599 34.3693C102.57 34.365 102.541 34.3623 102.512 34.3576C101.405 34.1767 100.343 33.722 99.4288 33.0695C99.1869 33.0083 98.9574 32.8993 98.7521 32.717C98.5526 32.5399 98.4145 32.3354 98.3351 32.1164C98.299 32.0778 98.2628 32.0387 98.2277 31.9992C97.5416 31.831 97.0191 31.2389 97.1066 30.4601C96.6721 29.9469 96.5123 29.3133 96.6593 28.6535C96.4166 28.2443 96.3951 27.7282 96.5763 27.2961C96.1948 26.8336 96.1658 26.1767 96.465 25.6535C96.1919 25.2661 96.1309 24.7529 96.4679 24.2941C96.6268 24.0776 96.8472 23.9412 97.087 23.8752C97.1548 23.6255 97.2933 23.3931 97.5099 23.214C97.6211 23.1222 97.7376 23.054 97.8566 23.0031C97.9014 22.7454 98.0476 22.501 98.3282 22.3088C98.4557 22.2216 98.5864 22.1652 98.7159 22.134C98.8386 21.8308 99.0525 21.5644 99.3536 21.3918C99.7174 21.1836 100.141 21.1567 100.526 21.2658ZM83.1964 70.2707C83.4786 70.2666 83.7506 70.2697 84.0206 70.298C84.0314 70.29 84.0424 70.2859 84.0519 70.2873C84.0963 70.298 84.1367 70.3078 84.1798 70.3185C84.3296 70.3401 84.4794 70.3708 84.632 70.4152C84.9924 70.5217 85.3533 70.6898 85.6652 70.8986C85.9595 71.0953 86.2524 71.3008 86.5089 71.5461C86.5993 71.6228 86.6848 71.706 86.7657 71.7922C86.8966 71.8998 87.0233 72.0103 87.1446 72.1193C87.2931 72.2554 87.4376 72.3957 87.5753 72.5412C87.7913 72.7905 87.9606 73.0683 88.0821 73.3742C88.1305 73.4724 88.0706 73.5313 87.9708 73.5138C87.9263 73.507 87.8658 73.4748 87.8038 73.4318C87.8133 73.4547 87.8237 73.4753 87.8331 73.4982C87.8857 73.6019 87.841 73.676 87.7208 73.6369C87.7142 73.6329 87.7076 73.6291 87.7023 73.6252C87.7643 73.7356 87.8217 73.8485 87.8702 73.967C87.9227 74.072 87.8747 74.1451 87.756 74.1047C87.694 74.0697 87.6349 74.0289 87.5782 73.9845C87.6039 74.0411 87.6305 74.0966 87.6534 74.1545C87.7074 74.2609 87.6454 74.3164 87.5402 74.2922C87.4497 74.2423 87.3665 74.1822 87.2882 74.1135C87.2761 74.104 87.2648 74.0936 87.254 74.0842C87.2891 74.1717 87.2226 74.2257 87.1349 74.2082C87.0106 74.1836 86.7775 73.9748 86.7208 73.8644C86.7168 73.8577 86.7141 73.8506 86.7101 73.8439C86.6441 73.7996 86.5726 73.738 86.5187 73.6789C86.4755 73.7408 86.3915 73.7863 86.3536 73.7111C86.2402 73.4026 86.0631 73.1385 85.8214 72.9162C85.6837 72.7154 85.5162 72.544 85.3204 72.4025C85.2152 72.3137 85.1062 72.2284 84.9943 72.1476C84.7959 72.0574 84.589 71.9893 84.3732 71.9435C84.3301 71.9301 84.2854 71.9214 84.2423 71.9094C84.1464 71.8918 84.0511 71.874 83.9552 71.8605C83.5652 71.8067 83.1737 71.7972 82.7823 71.8322C82.7123 71.8349 82.6452 71.7816 82.6154 71.7199C82.5276 71.7239 82.4404 71.7274 82.3527 71.7355C82.2087 71.7406 82.2397 71.5382 82.3487 71.5177C82.4863 71.4922 82.624 71.4724 82.7589 71.4562C82.7563 71.4442 82.7553 71.4307 82.7579 71.4201C82.5109 71.408 82.2651 71.414 82.0167 71.4396C81.9089 71.4449 82.0374 71.2453 82.0968 71.2345C82.1237 71.2292 82.1506 71.2262 82.1788 71.2209C82.1761 71.2168 82.1743 71.2142 82.173 71.2101H82.1671C82.0186 71.2169 81.9169 70.9809 82.0948 70.9484C82.1393 70.9403 82.1826 70.935 82.2257 70.9269C82.2177 70.9042 82.2168 70.8841 82.2247 70.8654C82.1478 70.8641 82.0722 70.8635 81.9952 70.8635C82.0371 70.8606 82.0683 70.6807 82.1183 70.674C82.1572 70.6686 82.1975 70.6628 82.2364 70.6574C82.2393 70.6074 82.3154 70.4923 82.3478 70.4855C82.6043 70.4424 82.8553 70.4119 83.1036 70.4025C83.1278 70.3462 83.1629 70.2713 83.1964 70.2707Z" fill="black"/>
<path fill-rule="evenodd" clip-rule="evenodd" d="M116.077 68.7706C117.096 69.3891 118.65 70.8312 117.553 72.3645C116.262 73.7165 114.403 72.1664 113.487 71.4653C112.638 70.922 111.683 72.3194 112.471 72.9538C119.09 77.8444 121.777 68.9323 116.592 68.0434C116.022 67.9455 115.81 68.5793 116.077 68.7706ZM106.866 56.9756L107.119 56.9313L107.249 56.9094C108.008 56.7841 108.908 56.7003 109.433 57.2951C109.727 57.6287 109.828 58.2488 109.433 58.5681C108.737 59.13 107.968 58.9123 107.135 58.9598C106.448 58.9992 105.787 59.1126 105.126 59.3014C103.674 59.7155 102.491 60.4714 101.251 61.3014C101.089 61.4103 100.923 61.2027 101 61.0508C101.716 59.6518 103.103 58.5025 104.492 57.802C105.234 57.4281 106.045 57.1179 106.866 56.9756ZM113.582 76.3023C115.8 76.463 120.608 75.4061 122.605 76.9915C130.129 86.3679 100.3 88.7786 103.521 78.4051C105.573 75.0509 110.292 76.399 113.582 76.3023ZM113.201 81.9628C112.652 81.9182 111.987 82.3519 111.825 82.687C111.664 83.0223 111.727 83.7306 111.731 83.8534C112.691 83.9498 113.658 83.9645 114.62 83.9016C114.371 83.0766 114.362 82.0877 113.201 81.9628ZM117.629 83.3468C117.475 82.3227 116.741 82.0802 116.147 82.2339C115.539 82.391 115.182 83.0891 115.221 83.7107C115.223 83.7536 115.199 83.79 115.182 83.8244C116.008 83.727 116.827 83.5667 117.629 83.3468ZM110.827 82.1481C110.481 81.6229 109.654 81.3695 109.125 81.462C108.26 81.6437 108.158 82.7399 108.158 82.9633C108.955 83.2665 109.801 83.4678 110.61 83.6282C110.773 83.6602 110.935 83.6889 111.098 83.716L111.109 83.5829C111.129 83.2977 111.143 82.6289 110.827 82.1481ZM120.604 82.0625C119.718 80.6939 117.812 81.6738 117.97 83.1689C118.139 83.1157 118.307 83.0601 118.475 83.0017C119.172 82.7594 119.935 82.4715 120.604 82.0625ZM113.627 77.347C112.435 77.2399 111.456 77.276 110.679 77.4199L110.655 77.6791C110.569 78.578 110.458 79.4618 110.931 79.8234C111.315 80.1172 112.59 80.0891 113.445 79.8765C113.656 79.8234 113.931 77.9591 113.627 77.347ZM115.471 77.2394C115.28 78.1253 115.19 79.2009 115.574 79.5204C115.979 79.8577 117.283 79.812 117.624 79.5873C117.923 79.3907 117.915 78.486 117.804 77.4703C117.144 77.315 115.994 77.2394 115.471 77.2394ZM110.15 77.4281L109.76 77.4316L109.539 77.4346C108.98 77.4445 108.377 77.4766 107.807 77.6007C106.675 80.0427 110.81 80.4642 110.171 77.5184L110.15 77.4281ZM118.33 77.487L118.322 77.6253C118.289 78.3113 118.311 79.2146 118.692 79.4584C119.252 79.8173 120.304 79.748 120.874 78.0882C120.686 77.593 118.685 77.5232 118.33 77.487ZM107.356 62.9265C107.595 62.9265 107.824 63.0076 108.033 63.1577C108.238 63.3054 108.424 63.521 108.579 63.7898C108.872 64.2986 109.055 65.001 109.055 65.7777C109.055 66.5544 108.872 67.2569 108.579 67.7657C108.424 68.0345 108.238 68.2501 108.033 68.3977C107.824 68.5478 107.595 68.6289 107.356 68.6289C107.117 68.6289 106.888 68.5478 106.679 68.3977C106.474 68.2501 106.288 68.0345 106.133 67.7657C105.84 67.2569 105.657 66.5544 105.657 65.7777C105.657 65.001 105.84 64.2986 106.133 63.7898C106.288 63.521 106.474 63.3054 106.679 63.1577C106.888 63.0076 107.117 62.9265 107.356 62.9265ZM122.511 62.9265C122.75 62.9265 122.979 63.0076 123.187 63.1577C123.393 63.3054 123.578 63.521 123.733 63.7898C124.026 64.2986 124.209 65.001 124.209 65.7777C124.209 66.5544 124.026 67.2569 123.733 67.7657C123.578 68.0345 123.393 68.2501 123.187 68.3977C122.979 68.5478 122.75 68.6289 122.511 68.6289C122.271 68.6289 122.042 68.5478 121.834 68.3977C121.628 68.2501 121.443 68.0345 121.288 67.7657C120.995 67.2569 120.812 66.5544 120.812 65.7777C120.812 65.001 120.995 64.2986 121.288 63.7898C121.443 63.521 121.628 63.3054 121.834 63.1577C122.042 63.0076 122.271 62.9265 122.511 62.9265ZM120.448 56.3484L120.642 56.388L120.771 56.4152C122.864 56.8644 125.517 57.75 126.496 59.7778C126.534 60.0704 126.494 60.1331 126.461 60.1741L126.451 60.1878C126.424 60.2228 126.402 60.271 126.275 60.3108C126.24 60.3024 126.204 60.2936 126.168 60.2841C125.71 60.1643 125.347 59.9992 124.996 59.8278L124.616 59.6407C124.174 59.4246 123.728 59.2164 123.256 59.0627C122.249 58.7347 121.213 58.5037 120.16 58.3803C119.932 58.3536 119.712 58.2768 119.539 58.1451C119.375 58.0202 119.249 57.8471 119.192 57.6171C119.118 57.3195 119.139 57.0941 119.299 56.8256C119.419 56.6239 119.591 56.4841 119.789 56.4039C119.991 56.322 120.22 56.3028 120.448 56.3484Z" fill="black"/>
</svg>
