<svg width="243" height="485" viewBox="0 0 243 485" fill="none" xmlns="http://www.w3.org/2000/svg">
<path fill-rule="evenodd" clip-rule="evenodd" d="M69.084 445.932C68.7354 444.525 69.3032 442.7 69.6305 440.872C70.1396 438.029 71.3422 433.909 73.633 432.621C74.0392 431.548 85.3099 422.958 91.1887 418.641C94.208 416.423 96.6809 412.241 97.2929 412.29C98.457 409.432 98.6066 406.611 99.3212 403.303C96.6653 402.955 92.1289 403.58 90.0357 402.071C89.6605 402.096 89.6662 398.007 89.6115 397.43C91.1887 393.166 95.0644 288.843 91.1887 239.152C90.7783 233.621 89.7093 227.432 90.7652 221.727C89.0357 221.347 87.9988 219.559 87.9926 219.487C83.8561 211.382 90.2016 183.823 94.1787 176.193C91.0204 176.111 86.8604 175.682 84.9051 173.05C83.9795 172.746 83.3959 172.217 82.9467 171.365C82.4294 170.555 81.9493 169.704 81.5171 168.832C79.4128 164.469 78.1147 159.625 78.8164 154.818C78.6826 154.776 77.9938 154.771 77.9595 154.579C77.892 153.397 78.1093 152.356 78.465 151.24C82.0786 138.668 86.4285 126.291 92.1783 114.456C95.0596 108.121 101.021 105.81 107.197 103.432C110.169 102.266 113.142 100.921 116.243 100.158C116.282 99.9417 116.097 99.2829 116.503 99.3366C117.005 99.4411 116.906 100.247 117.092 100.699C124.263 94.8398 119.716 91.8208 124.039 88.6121C128.514 86.2943 131.166 86.2001 136.099 86.7017C137.919 86.7543 139.375 87.573 139.804 89.4013C141.369 93.1843 145.034 95.9686 149.033 96.8221C149.363 96.235 150.272 94.5514 150.781 95.0829C156.556 95.2796 167.717 99.8331 173.123 101.416C178.549 102.799 178.48 104.273 179.9 110.158C182.476 120.645 181.994 160.031 175.271 168.33C175.271 168.33 171.615 170.768 169.78 171.365C169.821 175.246 169.17 181.026 169.78 184.821C171.153 191.703 172.826 198.613 174.356 205.532C174.362 206.303 180.483 217.728 177.614 215.613C177.022 215.904 175.981 217.125 175.343 217.396C178.391 224.329 177.83 232.839 177.614 241.403C177.56 246.503 178.754 252.092 179.9 257.315C188.381 301.569 194.133 351.817 197.282 396.145C197.411 397.96 197.495 399.346 197.556 400.636C197.618 401.078 197.02 401.07 196.798 400.846L196.491 400.548C196.15 400.645 195.604 400.794 195.258 400.887C195.214 402.339 195.359 403.847 195.534 405.17C195.696 406.434 197.755 411.959 197.282 413.193C198.852 413.11 201.799 415.681 203.205 418.463C203.926 419.107 206.233 420.166 206.762 421.156C207.833 422.185 215.27 426.488 215.27 426.488C218.008 428.674 226.816 437.356 226.098 439.118C226.098 439.118 226.178 439.669 226.206 439.853C227.717 448.632 225.2 448.265 217.055 449.556C205.156 451.651 193.903 445.298 183.847 439.913C180.505 437.664 177.25 438.261 177.614 435.545C178.274 432.191 178.391 420.185 182.205 420.456C181.578 419.769 181.735 413.467 182.205 412.29C182.503 409.257 179.754 406.424 179.9 403.303C178.302 403.421 175.039 404.168 174.356 402.39C174.386 402.211 175.141 402.214 175.271 402.172L175.257 402.071L175.343 402.051C168.692 378.652 152.487 271.195 134.893 262.947C134.784 263.829 132.848 262.782 131.676 262.947C126.234 305.322 120.003 345.264 116.679 390.588C116.347 391.932 115.578 401.308 115.253 402.863C115.253 402.863 114.234 403.703 113.634 403.869C113.452 408.651 114.067 418.63 114.089 418.641L114.407 419.418C116.26 423.589 117.641 429.17 115.253 433.258C117.025 433.129 117.799 434.637 117.878 436.203C118.922 443.07 91.3164 449.164 84.9051 449.556C82.7987 449.923 67.7816 447.25 69.084 445.932Z" fill="#F1F0E0"/>
<path fill-rule="evenodd" clip-rule="evenodd" d="M71.6083 446.499C75.0884 447.296 78.4837 448.612 81.9198 449.39C93.1111 448.567 104.098 444.809 113.915 440.171C116.76 438.928 118.429 436.722 117.157 433.892C112.993 439.029 97.5781 442.602 90.5213 444.815C86.1326 445.776 81.1493 447.949 76.7175 445.922C73.9093 445.442 70.7128 444.098 69.6321 441.575C69.5577 442.65 69.6682 443.719 69.7619 444.792C69.6518 446.108 70.2951 446.286 71.6083 446.499V446.499ZM113.166 403.212C113.258 402.994 113.551 402.989 113.662 403.188C113.875 403.171 114.101 403.149 114.327 403.139C113.94 401.916 113.885 400.637 114.078 399.374C114.321 395.891 114.599 392.411 114.894 388.932C117.933 355.596 121.434 322.16 127.403 289.191C127.331 289.14 127.284 289.062 127.297 288.962C127.596 286.626 128.229 284.349 128.67 282.036C129.116 279.704 129.491 277.36 129.902 275.021C130.025 274.323 130.149 273.625 130.28 272.927C130.186 271.231 130.596 269.447 130.813 267.804C130.965 266.65 131.185 265.471 131.487 264.317C131.359 263.929 131.426 263.469 131.738 263.177C131.743 263.173 131.747 263.169 131.751 263.165C131.728 263.088 131.702 263.015 131.675 262.947C131.46 262.417 130.995 262.18 130.659 261.803C129.693 261.628 128.705 261.58 127.732 261.735C127.586 261.762 127.478 261.561 127.625 261.483C131.538 259.198 136.41 261.401 139.296 264.38C148.166 276.96 151.374 292.934 156.275 307.368C165.147 338.764 171.37 370.88 178.498 402.669C184.135 402.407 189.76 401.586 195.41 401.728C195.622 401.249 195.987 400.737 196.421 400.532C192.911 352.071 186.879 303.791 177.899 256.035C176.902 243.525 178.462 230.772 174.744 218.54C148.362 228.904 118.862 230.447 91.1879 224.873C96.3622 283.444 99.0956 342.628 91.9879 401.186C94.2598 402.083 96.6994 402.468 99.1152 402.749C103.761 403.31 108.496 403.381 113.166 403.212V403.212ZM183.364 417.017C183.782 417.827 183.339 418.67 182.463 418.9C185.083 419.59 185.569 422.371 187.634 423.64C187.827 423.275 188.374 423.214 188.74 423.107C189.843 419.013 191.117 414.196 196.285 412.69C195.957 412.27 196.002 411.775 196.017 411.279C195.633 409.33 194.251 404.981 195.107 402.746C190.358 403.826 185.484 404.268 180.669 404.968C181.648 408.524 182.478 413.892 183.364 417.017V417.017ZM180.061 434.333C179.906 434.291 179.751 434.248 179.598 434.202C178.841 437.519 183.975 438.601 186.508 439.778C190.324 441.356 194.136 442.941 197.939 444.537C205.639 448.393 212.871 449.478 221.431 446.73C226.879 445.689 225.842 444.649 226.641 440.455C221.179 447.787 209.99 444.64 203.045 441.47C196.732 439.057 190.373 436.741 183.842 434.71C182.537 435.036 181.294 434.696 180.061 434.333V434.333ZM124.609 166.321C127.898 167.21 131.233 167.671 134.577 168.33C134.285 166.188 133.857 164.046 133.849 161.876C130.922 163.658 127.812 165.115 124.609 166.321V166.321ZM155.64 144.652C148.612 143.19 141.17 143.724 134.529 146.502C132.248 147.259 129.168 149.231 126.8 148.318C128.556 153.881 126.344 159.613 124.056 164.676C129.307 162.928 133.931 159.854 138.713 157.158C136.922 154.806 153.203 151.956 154.97 152.018C155.472 149.586 156.07 147.174 156.594 144.745C156.302 144.854 155.938 144.708 155.64 144.652V144.652ZM119.322 147.284C119.284 147.312 119.257 147.348 119.244 147.395C112.364 148.346 105.456 151.471 98.3919 150.565C93.6194 149.95 95.8169 152.674 98.9955 152.571C106.167 153.289 112.816 149.058 119.488 147.615L119.322 147.284ZM115.567 101.303C115.583 101.379 115.6 101.454 115.616 101.529C115.687 101.529 115.758 101.522 115.832 101.501C115.877 101.457 115.921 101.411 115.965 101.366C115.835 101.329 115.7 101.307 115.567 101.303V101.303ZM67.0769 445.096C67.1758 443.435 68.0495 441.77 69.2995 440.653C68.4649 437.243 70.1366 432.9 73.7034 431.432C74.6733 429.846 76.7784 429.148 78.2991 428.016C77.0234 427.938 75.8541 427.031 76.8336 426.056C78.9061 426.683 80.9111 427.53 82.8845 428.379C83.4176 428.491 84.6843 429.545 84.7839 428.604C84.4086 427.855 81.5144 427.099 80.5704 426.579C81.27 426.138 81.971 425.695 82.6676 425.251C81.4297 425.221 79.8386 424.293 81.0515 423.24C84.3199 423.966 87.7185 424.606 90.5987 426.258C92.9748 425.669 86.0574 423.556 85.4185 423.455C86.5033 422.718 87.5541 421.947 88.5414 421.115C87.4586 421.095 85.2013 420.008 86.645 419.037C88.4626 418.571 90.9864 420.067 92.7903 420.547C92.7918 420.545 92.7918 420.547 92.7918 420.547C94.1509 421.049 95.4969 421.592 96.8312 422.153C97.3698 422.38 97.5986 421.638 97.0673 421.413C94.9943 420.542 92.8963 419.718 90.7522 419.007C91.3366 418.371 91.8871 417.71 92.4389 417.046C92.2925 416.005 93.3694 415.091 93.7685 414.149C93.6839 413.667 93.9264 412.911 94.4993 412.811C94.9545 412.37 95.6415 412.342 96.2761 412.442C97.2831 410.51 98.1522 407.502 98.4714 405.104C95.804 404.749 92.7089 404.738 90.4032 403.269C89.7171 403.226 89.033 402.729 89.0141 401.904C88.9459 398.928 89.241 395.995 89.5059 393.033C89.7706 390.075 90.0196 387.115 90.2525 384.154C94.1884 336.655 93.4792 288.907 89.7361 241.421C89.3363 235.854 89.136 230.16 90.0624 224.632C88.9123 224.277 84.6138 223.538 84.9448 221.983C81.2148 212.503 86.7314 188.221 90.7876 178.679C87.769 178.502 84.1455 177.856 82.163 175.372C80.2536 174.7 79.5843 172.466 78.6325 170.856C76.5854 166.567 75.2589 161.739 75.7769 156.963C73.6634 156.404 76.2842 150.608 76.5176 149.048C80.0225 137.508 84.0385 126.031 89.3013 115.165C91.1801 111.192 94.4729 108.053 98.5034 106.298C103.349 104.19 108.217 102.008 113.284 100.466C113.253 99.6043 114.156 99.267 114.772 99.5784C114.811 99.5657 114.85 99.5528 114.891 99.5432C115.513 99.3956 116.456 99.6382 116.958 100.158C118.6 97.7568 119.025 94.7186 119.631 91.8979C122.074 94.4479 119.818 102.984 116.014 103.719C118.492 121.557 139.264 117.325 145.585 104.327C146.957 101.816 147.882 99.3466 149.25 96.7909C145.302 97.5978 141.264 95.4226 139.833 91.6429C139.539 91.0305 139.285 90.6888 138.743 90.3059C138.078 89.8346 138.247 88.6357 139.188 88.6666C142.895 89.4969 140.46 95.3887 149.479 96.4212C149.805 95.9175 150.19 95.4403 150.596 95.1943C150.767 95.0059 151.309 94.953 151.601 95.1693C158.387 95.5766 165.006 97.2887 171.514 99.1326C177.104 100.504 182.965 103.485 184.349 109.555C186.999 119.208 182.773 167.182 175.478 173.114C174.276 174.276 172.832 175.076 171.269 175.639C172.765 186.306 175.097 196.907 177.082 207.508C177.231 209.337 180.411 219.484 176.374 217.814C176.265 217.867 176.154 217.918 176.043 217.969C176.282 218.454 176.506 218.945 176.723 219.442C177.42 221.037 177.975 222.65 178.229 224.377C178.494 226.174 178.546 227.989 178.626 229.801C178.656 230.474 178.681 231.136 178.689 231.794C179.469 238.152 179.453 244.642 179.516 251.03C183.043 275.179 188.106 299.146 190.984 323.422C194.485 349.357 197.262 375.399 198.876 401.521C198.932 402.72 197.54 402.957 196.863 402.292C196.766 402.319 196.669 402.345 196.572 402.372C196.57 403.42 196.66 404.471 196.782 405.511C197.013 407.028 198.754 410.846 198.316 412.222C199.9 412.003 202.451 412.325 202.911 413.62C204.725 415.924 204.609 419.066 206.762 421.156C204.689 421.608 202.631 422.215 200.621 422.851C200.205 423.074 200.457 423.681 200.982 423.524C202.098 423.191 203.217 422.848 204.342 422.537V422.536C205.43 422.235 206.523 421.965 207.63 421.758C207.668 421.789 207.655 421.856 207.607 421.883C208.399 422.496 209.298 423.029 210.2 423.54C209.618 423.667 201.893 425.731 204.204 426.378C206.445 425.451 208.781 424.565 211.204 424.105C212.253 424.697 213.278 425.315 214.314 425.923C213.814 426.028 205.486 427.833 208.372 428.355C210.611 427.542 212.931 426.997 215.269 426.488C218.136 428.188 221.008 429.883 223.837 431.631C225.021 432.358 226.307 433.059 227.067 434.152C228.077 435.607 228.089 437.422 227.395 439.085C229.42 447.785 225.846 448.121 217.515 449.948C205.707 452.963 195.466 445.73 185.203 441.801C183.06 440.799 180.691 440.046 178.77 438.726C176.955 437.437 175.76 434.73 177.421 432.873C176.273 430.731 177.806 425.479 178.173 422.97C178.475 421.387 178.679 418.832 181.036 418.751C180.406 418.342 180.426 417.574 180.635 416.957C180.911 413.916 179.964 408.518 179.737 405.084C177.935 405.213 175.263 405.74 174.328 403.748C173.967 403.173 174.433 402.555 175.023 402.476C175.023 402.475 175.023 402.475 175.022 402.474C174.896 402.483 174.932 402.469 175.016 402.449C165.463 363.104 159.302 322.792 145.517 284.585C142.362 277.204 140.956 267.687 133.904 262.923C133.808 263.518 133.707 264.205 133.332 264.633C133.312 264.71 133.29 264.787 133.271 264.864C133.024 265.824 132.747 266.774 132.502 267.733C126.985 310.097 120.616 352.373 117.555 395.022C117.091 396.997 117.846 404.027 115.075 403.711C114.732 403.904 114.285 403.996 113.913 404.088C114.485 406.623 114.325 410.451 114.308 412.762C114.348 415.071 114.73 417.463 114.472 419.75C114.175 421.253 111.358 420.347 111.818 418.836C111.883 414.503 112.146 409.158 112.891 404.347C108.574 405.188 104.148 405.392 99.7517 405.19C99.9875 407.73 99.2334 410.907 98.3557 412.991C100.988 413.872 103.538 415.06 105.573 416.851C107.499 418.598 109.27 422.603 112.667 421.279C113.608 420.861 114.64 420.136 114.965 419.202C115.279 418.969 115.115 419.531 115.053 419.665L115.182 419.71C115.963 419.212 117.398 424.37 117.518 425.013C118.118 427.775 118.813 430.921 117.392 433.502C120.445 434.767 120.116 438.881 117.853 440.603C108.868 446.409 93.8861 451.149 82.7343 451.944C80.761 452.081 78.6849 451.504 76.8071 450.884C74.6007 450.296 72.3869 449.667 70.2057 448.975C68.2841 448.535 66.8381 446.891 67.0769 445.096V445.096Z" fill="black"/>
<path fill-rule="evenodd" clip-rule="evenodd" d="M129.247 35.1582C122.639 35.1582 114.711 38.355 114.037 38.4189L114.019 38.4199C113.664 38.4199 112.279 39.4734 109.862 41.5806L112.479 46.6758L112.268 46.8776C111.254 47.8476 110.389 48.7316 109.706 49.4285C104.128 55.1188 103.126 77.4604 104.44 85.2517C105.754 93.043 108.189 100.667 119.523 100.667C130.857 100.667 143.467 93.8657 145.409 91.7477C146.704 90.3357 148.159 89.6592 149.773 89.7183C149.839 89.6347 149.905 89.5514 149.97 89.4684L150.208 89.4348C152.442 89.1119 154.043 88.6773 155.01 88.1311C156.9 87.0643 158.976 81.4557 158.976 80.2203C158.976 78.9971 162.077 70.0993 162.139 69.1577L162.14 69.1316C162.14 68.3445 166.192 64.726 166.192 63.5769C166.192 62.4277 167.008 62.4974 166.192 58.448L165.955 57.2584C165.085 52.947 163.385 45.8079 156.9 42.7057C149.773 39.2968 135.921 35.1582 129.247 35.1582Z" fill="#F1F0E0"/>
<path fill-rule="evenodd" clip-rule="evenodd" d="M158 42.5459C154.446 38.781 134.268 32.9576 124.06 34.192L123.754 34.2316C122.939 34.3347 122.136 34.4908 121.344 34.7029C118.783 35.2999 116.137 36.2038 114.021 37.7136C112.254 38.9487 106.681 40.9658 108.324 44.197C107.714 45.3486 107.487 46.7714 107.899 47.9056C107.951 48.2974 108.072 48.6582 108.226 49.0323C106.925 50.9487 105.895 53.1158 105.061 55.1771C103.603 60.3646 102.697 65.7632 102.564 71.0559C102.122 81.1114 103.227 93.1227 112.002 99.625C117.304 103.745 125.608 103.884 131.565 98.775C131.903 98.3757 133.493 97.2982 132.963 97.1092C132.805 97.2757 132.643 97.4377 132.477 97.5968C132.485 97.5791 132.486 97.5614 132.483 97.5423L132.639 97.4017C132.931 97.1315 133.311 96.7394 132.879 96.8161C132.86 96.8382 132.839 96.8574 132.818 96.8795C132.727 96.9342 132.658 96.9817 132.604 97.0236L132.576 97.0457L132.585 97.0368C132.834 96.772 132.983 96.5019 132.611 96.6744L132.562 96.6983C132.396 96.8721 132.228 97.0385 132.057 97.2006C132.06 97.1814 132.057 97.1623 132.046 97.1416L132.206 96.9878C132.362 96.8354 132.338 96.8347 132.262 96.7116C132.593 96.2484 131.975 96.5235 131.931 96.7042C131.545 96.6129 131.205 97.3375 130.956 97.4259C120.035 105.805 104.186 98.3701 104.443 75.0217L104.447 74.5649C104.522 67.0991 105.151 59.4256 108.246 52.6673C108.547 52.0163 108.883 51.383 109.254 50.7703C109.509 50.3108 109.782 49.863 110.076 49.4271C110.898 49.3608 111.71 49.2105 112.509 48.9778C112.784 48.9086 113.055 48.832 113.327 48.7422C117.294 48.9581 121.173 49.193 125.151 49.4157L126.393 49.493C129.763 49.7092 133.248 50.0555 135.968 52.1356C138.636 54.0294 138.648 57.7639 140.932 59.8431C144.189 62.0493 144.213 64.0387 144.84 67.2898C144.794 69.7407 143.091 73.3016 146.216 74.333C145.689 75.0831 146.424 74.7227 146.481 74.4597C146.487 74.4612 146.493 74.4626 146.498 74.4626C146.028 75.3341 146.718 74.7853 146.78 74.5053C146.816 74.495 146.853 74.4685 146.89 74.4317C146.417 75.1952 147.182 74.6606 147.137 74.5215C148.051 73.1187 149.934 72.9008 151.26 73.2726C151.277 73.3226 151.335 73.3271 151.372 73.3005C157.014 74.5207 155.558 86.1762 149.777 85.0495C149.53 84.9991 149.535 85.1177 149.486 85.129C149.62 84.7791 149.243 84.9215 149.247 84.995L149.224 84.9939C149.206 84.9923 149.214 84.9903 149.2 84.995C149.329 84.2794 148.603 85.3162 148.66 85.3588C148.638 85.3456 148.613 85.3382 148.59 85.3352L148.615 85.2673C148.736 84.9467 148.726 85.0799 148.725 84.8963C148.815 84.6694 148.822 84.7686 148.801 84.6208C148.482 84.3745 148.388 85.1215 148.282 85.1762C148.464 84.9228 148.319 84.7159 148.148 84.8535C146.846 87.5868 145.164 90.155 142.99 92.1781C142.752 92.3652 142.511 92.5493 142.262 92.7231C141.338 93.5268 139.919 94.0436 139.054 94.7556C139.054 94.7674 139.06 94.7821 139.068 94.7969L139.049 94.8147V94.8147L139.029 94.8337L138.727 94.978C138.639 95.0531 138.559 95.1371 138.489 95.2299C138.413 95.3168 138.347 95.4125 138.291 95.5141C138.263 95.6379 138.325 95.6894 138.443 95.6364C138.494 95.6187 138.546 95.5981 138.598 95.5789C138.595 95.5834 138.593 95.5863 138.59 95.5893C138.573 95.6148 138.459 95.88 138.591 95.8369L138.606 95.8308C138.679 95.8043 138.751 95.7748 138.822 95.7468C138.738 95.8514 138.661 95.9648 138.593 96.0606C138.521 96.1357 138.477 96.2241 138.459 96.3242C138.462 96.3802 138.493 96.4037 138.549 96.3964C138.634 96.3684 138.719 96.3389 138.803 96.308L138.779 96.3536C138.719 96.4705 138.635 96.6665 138.785 96.6011C138.914 96.5613 139.037 96.5157 139.161 96.4656C139.172 96.4862 139.192 96.4936 139.234 96.4744C139.628 96.3345 140.008 96.1637 140.373 95.9619C140.693 95.7292 141.017 95.5009 141.338 95.2696C141.641 95.0885 141.933 94.8867 142.212 94.6599C144.078 93.4569 145.712 91.9286 147.008 90.2266C149.176 92.1002 153.511 90.3102 156.192 88.8436C158.563 87.5327 159.495 85.109 159.736 82.4959C160.237 78.9778 163.118 77.7736 162.918 70.0544C162.922 70.0559 162.927 70.0559 162.933 70.0559C163.038 70.0249 163.139 69.9837 163.235 69.9307C163.334 69.8835 163.427 69.8276 163.514 69.7598L163.622 69.611V69.611C163.678 69.5801 163.728 69.5477 163.766 69.5153L163.786 69.5409C163.849 69.6168 163.807 69.5026 163.803 69.48L163.99 69.226C164.434 68.6213 164.921 67.9429 165.318 67.4003L165.33 67.4223C165.339 67.439 165.344 67.451 165.34 67.4563C166.283 66.103 167.171 64.4684 167.418 62.886C167.709 61.6671 167.595 60.411 167.341 59.2819C166.252 55.328 162.685 46.3808 158 42.5459ZM132.388 97.2265L132.447 97.174L132.395 97.239C132.368 97.2726 132.34 97.3028 132.295 97.3336C132.298 97.3233 132.298 97.313 132.296 97.3012C132.327 97.2782 132.357 97.2531 132.388 97.2265ZM124.105 36.1785C131.028 35.5845 137.837 37.1065 144.443 38.9489L144.899 39.0796C148.655 40.1493 152.627 41.1118 155.801 43.4013C160.236 46.7914 162.527 52.1844 164.525 57.1637C166.27 60.8632 165.378 65.0348 162.748 67.618C162.475 65.051 162.008 62.5591 161.279 60.0872C161.127 59.701 161.242 59.5745 160.914 59.5241C160.419 66.1855 162.858 71.1072 158.031 79.002C155.936 82.7271 158.361 85.4528 152.446 87.413L152.286 87.4741C151.053 87.9382 149.708 88.3045 148.501 88.045L148.609 87.8695C148.719 87.6887 148.752 87.601 148.592 87.5236C148.596 87.5148 148.602 87.506 148.608 87.4957C148.738 87.2512 148.863 87.0037 148.983 86.7533C149.032 86.7695 149.08 86.7813 149.131 86.7946C149.098 86.855 149.094 86.9154 149.185 86.936C149.51 87.0473 149.844 87.092 150.186 87.0711L150.26 87.0656C150.646 87.042 150.889 86.9718 151.107 86.9065C151.179 86.8947 151.251 86.883 151.322 86.8682C152.023 86.7133 152.764 86.3191 153.244 85.9285C158.713 82.8285 158.148 72.2756 151.406 71.2781C151.268 64.6337 148.101 53.4241 142.846 47.0928C138.095 41.269 125.127 38.7448 116.104 39.6348C115.973 39.6783 115.841 39.7222 115.71 39.7665C114.318 39.8899 112.991 40.5088 111.598 40.7963C112.598 40.0482 113.733 39.55 114.901 39.1265C117.23 37.7051 119.9 36.936 122.479 36.3935C123.013 36.2624 123.554 36.1903 124.105 36.1785ZM151.714 76.6162C151.351 76.4197 151.393 76.6094 151.31 76.5543C148.702 76.3421 145.891 78.6202 144.434 80.5193C144.549 80.6386 144.86 80.2851 144.915 80.2291C144.922 80.2365 144.931 80.2424 144.94 80.2453L144.899 80.3025C144.309 81.1484 145.48 80.153 145.589 79.9478C145.608 79.9581 145.628 79.964 145.65 79.9596C145.557 80.0505 145.273 80.2874 145.225 80.4559L145.15 80.5184C144.441 81.1241 144.5 81.5797 145.304 80.7196C145.285 80.7593 145.278 80.7962 145.291 80.8256L145.263 80.844C144.868 81.12 144.542 81.8892 145.369 81.0996C145.283 81.6763 146.189 80.5615 146.218 80.5693C147.785 79.3417 150.092 78.1478 152.058 77.9874L152.125 77.9797C152.486 77.9334 152.657 77.8266 152.53 77.5912C152.974 77.4858 152.87 77.2675 152.66 77.2746C152.973 77.069 152.691 76.8723 152.509 76.9491C152.634 76.6037 152.133 76.8337 152.087 76.7856C151.827 76.3851 151.757 76.7192 151.714 76.6162ZM157.179 55.2082C155.927 54.7505 152.228 56.1208 152.524 57.9357C152.7 58.3523 153.281 58.5911 153.689 58.3559L154.222 57.9989C155.148 57.3794 155.984 56.8362 156.979 56.2959C157.521 56.0277 157.754 55.4583 157.179 55.2082ZM150.054 52.5115L150.538 52.1975C153.148 50.4928 156.837 47.9099 150.294 50.5823C149.549 50.9014 148.558 51.0902 148.151 51.799C147.512 53.1053 149.194 53.193 150.054 52.5115ZM149.763 44.8628C149.972 44.0697 147.366 45.0004 146.608 45.2457L146.492 45.2893C145.754 45.5637 144.908 45.8183 144.467 46.4538C143.95 47.3319 144.997 47.5138 145.645 47.1172C146.974 46.2502 148.432 45.5961 149.763 44.8628ZM143.135 41.1685C144.602 39.5699 140.676 41.1013 140.088 41.5264L140.071 41.5389C139.633 41.8472 139.722 42.5111 140.134 42.7062C141.307 42.7284 142.17 41.7528 143.135 41.1685ZM136.461 39.416C138.793 37.7436 135.721 38.5391 134.654 39.1945C133.927 39.8344 134.676 40.9148 136.461 39.416Z" fill="black"/>
<path fill-rule="evenodd" clip-rule="evenodd" d="M127.7 86.1434C127.685 84.5206 126.276 84.2408 124.937 84.4571C122.671 84.823 120.396 85.0804 118.1 85.1268L117.704 85.1338V85.1338C117.64 85.041 117.534 84.9706 117.389 84.9551C116.116 84.8178 114.815 84.8401 113.535 84.8024C112.418 84.7697 111.271 84.6582 110.154 84.7457L110.065 84.7535C108.7 84.8853 107.26 85.5805 107.425 87.1788C107.577 88.6589 108.994 89.9691 110.126 90.7916C110.355 90.9564 110.589 91.1109 110.83 91.2517C110.906 91.3479 111.016 91.4149 111.143 91.4286C112.258 92.0295 113.488 92.3851 114.762 92.5035C117.461 92.7542 120.6 92.4829 123.192 91.3153C124.035 90.9358 124.822 90.4618 125.517 89.8797C126.589 88.9817 127.712 87.6201 127.7 86.1434ZM117.065 89.3606C118.147 89.3281 119.228 89.4792 120.258 89.8123C120.957 90.0372 121.594 90.4698 122.263 90.7704C120.007 91.629 117.387 91.8162 115.073 91.6599C114.057 91.5913 113.073 91.3577 112.156 90.9559C112.299 90.8529 112.444 90.7482 112.595 90.657C113.053 90.3806 113.531 90.1454 114.03 89.9582C115.002 89.5942 116.028 89.3933 117.065 89.3606ZM116.702 75.1703C116.994 74.9612 116.762 74.2684 116.139 74.3754C110.472 75.3471 113.408 85.0886 120.643 79.7429C121.504 79.0494 120.461 77.522 119.533 78.1159L119.203 78.3695C118.131 79.1893 116.359 80.4288 115.089 79.0988C113.89 77.4228 115.588 75.8463 116.702 75.1703ZM112.865 67.7974C111.66 66.7717 110.149 67.5276 109.262 68.5665L109.106 68.7522C108.929 68.9642 108.732 69.211 108.614 69.475C107.631 68.6399 106.299 68.0522 105.024 68.4337C103.787 68.805 103.081 69.9833 103.294 71.2483C103.535 72.6869 104.625 73.6538 105.797 74.4014L106.13 74.6121C107.538 75.508 108.856 76.4106 110.015 77.6421C110.204 77.8423 110.612 77.8158 110.736 77.5493L110.836 77.3349V77.3349L110.937 77.1206C111.759 75.371 112.64 73.6328 113.364 71.842C113.899 70.5148 114.073 68.8255 112.865 67.7974ZM126.597 68.7268L126.413 68.515C125.531 67.4899 124.036 66.8035 122.856 67.7977C121.601 68.8567 121.847 70.6079 122.406 71.9585C123.08 73.5875 123.867 75.1805 124.623 76.7784L124.784 77.1209C124.852 77.2637 124.918 77.4066 124.985 77.5495C125.109 77.8161 125.519 77.8426 125.706 77.6423C126.829 76.4493 128.1 75.5665 129.457 74.6989L129.867 74.4388C131.058 73.6847 132.184 72.7111 132.429 71.2486C132.638 69.9864 131.937 68.8007 130.699 68.4338C129.421 68.0555 128.091 68.6387 127.107 69.4753C126.99 69.2046 126.788 68.9498 126.597 68.7268V68.7268ZM124.982 61.3721C124.551 61.9306 125.012 62.8434 125.641 62.9877C126.421 63.1667 127.208 63.0578 127.974 63.2798C128.675 63.4832 129.347 63.8907 129.948 64.2969C130.633 64.76 131.265 65.277 131.845 65.866C132.19 66.2163 132.625 67.0464 133.157 67.0619C133.686 67.0774 132.976 65.4262 132.917 65.2833C132.5 64.2663 131.914 63.3304 131.181 62.5106C129.734 60.893 126.671 59.1861 124.982 61.3721ZM108.83 60.925L108.469 61.0251C107.576 61.273 106.622 61.5776 105.855 62.1121L105.795 62.1546L105.702 62.2223C104.74 62.9383 103.379 64.367 104.06 65.6133C104.108 65.6992 104.207 65.7077 104.288 65.6727C105.194 65.2763 105.867 64.4848 106.831 64.1537L107.009 64.0933C107.943 63.7793 109.099 63.4491 110.104 63.4792C110.811 63.7085 111.766 63.5185 111.95 62.6598L111.958 62.6177L111.974 62.5287C112.08 61.942 111.922 61.1939 111.314 60.9111C110.481 60.5237 109.669 60.6961 108.83 60.925Z" fill="black"/>
</svg>
