<svg width="237" height="231" viewBox="0 0 237 231" fill="none" xmlns="http://www.w3.org/2000/svg">
<path d="M118.031 45.9379C130.697 45.9379 141 35.634 141 22.969C141 10.3039 130.697 0 118.031 0C105.366 0 95.0625 10.3039 95.0625 22.969C95.0625 35.634 105.366 45.9379 118.031 45.9379ZM118.031 11.4843C124.364 11.4843 129.516 16.6362 129.516 22.969C129.516 29.3017 124.364 34.4537 118.031 34.4537C111.699 34.4537 106.547 29.3017 106.547 22.969C106.547 16.6362 111.698 11.4843 118.031 11.4843Z" fill="black"/>
<path d="M83.582 96.1831C86.7527 96.1831 89.3241 93.6122 89.3241 90.4409C89.3241 74.6093 102.204 61.7294 118.036 61.7294C133.867 61.7294 146.747 74.6093 146.747 90.4409C146.747 93.6126 149.319 96.1831 152.489 96.1831C155.66 96.1831 158.231 93.6122 158.231 90.4409C158.231 68.277 140.2 50.2451 118.036 50.2451C95.8717 50.2451 77.8398 68.277 77.8398 90.4409C77.8398 93.6122 80.4108 96.1831 83.582 96.1831Z" fill="black"/>
<path d="M40.1955 180.755C52.8606 180.755 63.1645 170.451 63.1645 157.786C63.1645 145.121 52.8606 134.817 40.1955 134.817C27.5305 134.817 17.2266 145.121 17.2266 157.786C17.2266 170.451 27.5309 180.755 40.1955 180.755ZM40.1955 146.302C46.5283 146.302 51.6803 151.454 51.6803 157.786C51.6803 164.119 46.5283 169.271 40.1955 169.271C33.8628 169.271 28.7108 164.119 28.7108 157.786C28.7108 151.454 33.8632 146.302 40.1955 146.302Z" fill="black"/>
<path d="M40.1958 185.062C18.0319 185.062 0 203.094 0 225.258C0 228.43 2.57137 231 5.74213 231C8.91289 231 11.4843 228.429 11.4843 225.258C11.4843 209.426 24.3642 196.546 40.1958 196.546C56.0275 196.546 68.9074 209.426 68.9074 225.258C68.9074 228.43 71.4788 231 74.6495 231C77.8203 231 80.3916 228.429 80.3916 225.258C80.3921 203.094 62.3602 185.062 40.1958 185.062Z" fill="black"/>
<path d="M195.871 180.755C208.536 180.755 218.84 170.451 218.84 157.786C218.84 145.121 208.536 134.817 195.871 134.817C183.206 134.817 172.902 145.121 172.902 157.786C172.902 170.451 183.207 180.755 195.871 180.755ZM195.871 146.302C202.204 146.302 207.356 151.454 207.356 157.786C207.356 164.119 202.204 169.271 195.871 169.271C189.539 169.271 184.387 164.119 184.387 157.786C184.387 151.454 189.539 146.302 195.871 146.302Z" fill="black"/>
<path d="M195.872 185.062C173.708 185.062 155.676 203.094 155.676 225.258C155.676 228.43 158.247 231 161.418 231C164.589 231 167.16 228.429 167.16 225.258C167.16 209.426 180.04 196.546 195.872 196.546C211.703 196.546 224.583 209.426 224.583 225.258C224.583 228.43 227.155 231 230.325 231C233.496 231 236.067 228.43 236.067 225.258C236.067 203.094 218.035 185.062 195.872 185.062Z" fill="black"/>
<path d="M153.725 154.6L123.775 137.308V102.724C123.775 99.5519 121.204 96.9814 118.033 96.9814C114.862 96.9814 112.291 99.5524 112.291 102.724V137.308L82.3408 154.6C79.5943 156.185 78.6532 159.697 80.2393 162.444C81.8254 165.19 85.3378 166.131 88.0834 164.545L118.033 147.253L147.983 164.545C148.888 165.067 149.874 165.315 150.848 165.315C152.833 165.315 154.763 164.286 155.827 162.444C157.413 159.697 156.472 156.185 153.725 154.6Z" fill="black"/>
<path d="M113.998 42.8004C123.608 42.8004 131.398 35.0101 131.398 25.4002C131.398 15.7903 123.608 8 113.998 8C104.388 8 96.5977 15.7903 96.5977 25.4002C96.5977 35.0101 104.388 42.8004 113.998 42.8004Z" fill="black"/>
<path d="M114 59.9004C94.1178 59.9004 78 76.0182 78 95.9004H150C150 76.0182 133.882 59.9004 114 59.9004Z" fill="black"/>
<path d="M41.9979 177.8C51.6077 177.8 59.3981 170.01 59.3981 160.4C59.3981 150.79 51.6077 143 41.9979 143C32.388 143 24.5977 150.79 24.5977 160.4C24.5977 170.01 32.388 177.8 41.9979 177.8Z" fill="black"/>
<path d="M42 194.9C22.1178 194.9 6 211.018 6 230.9H78C78 211.018 61.8822 194.9 42 194.9Z" fill="black"/>
<path d="M199.998 177.8C209.608 177.8 217.398 170.01 217.398 160.4C217.398 150.79 209.608 143 199.998 143C190.388 143 182.598 150.79 182.598 160.4C182.598 170.01 190.388 177.8 199.998 177.8Z" fill="black"/>
<path d="M200 194.9C180.118 194.9 164 211.018 164 230.9H236C236 211.018 219.882 194.9 200 194.9Z" fill="black"/>
</svg>
