<svg width="402" height="432" viewBox="0 0 402 432" fill="none" xmlns="http://www.w3.org/2000/svg">
<path d="M190.847 91.1832C175.881 98.8974 150.887 106.457 130.367 109.389C119.876 110.932 110.156 113.092 108.767 114.172C106.453 116.023 106.299 121.269 106.916 165.703C107.687 221.4 108.15 224.486 119.259 245.932C130.984 268.612 159.219 293.915 190.076 309.497L200.567 314.743L211.059 309.497C241.916 293.915 270.15 268.612 281.876 245.932C292.984 224.486 293.447 221.4 294.219 165.703C294.836 121.269 294.681 116.023 292.367 114.172C290.979 113.092 281.259 110.932 270.767 109.389C250.247 106.457 225.716 99.0517 209.979 91.1832C204.887 88.5603 200.413 86.4003 200.259 86.4003C199.95 86.5546 195.784 88.5603 190.847 91.1832ZM213.219 113.555C227.104 119.572 257.961 128.057 265.83 128.057C275.087 128.057 274.779 126.823 274.316 173.726C273.699 221.555 273.39 223.406 262.59 241.457C252.407 258.275 228.956 278.795 207.201 289.903L200.567 293.143L194.087 289.903C171.87 278.64 148.264 257.812 138.39 240.995C127.59 222.48 127.436 221.4 126.819 173.263L126.356 129.755L129.904 128.983C131.91 128.675 139.47 127.286 146.721 125.897C160.916 123.275 178.659 117.72 191.773 111.857C196.093 109.852 199.95 108.155 200.104 108.155C200.259 108 206.121 110.469 213.219 113.555Z" fill="black"/>
<path d="M214.302 186.069L187.148 213.223L177.737 203.349L168.325 193.629L161.228 200.572L154.285 207.515L170.485 223.715L186.685 239.915L220.628 205.972L254.571 172.029L247.937 165.395L241.457 158.915L214.302 186.069Z" fill="black"/>
</svg>
