<svg width="588" height="343" viewBox="0 0 588 343" fill="none" xmlns="http://www.w3.org/2000/svg">
<path d="M250.623 58.3104C245.679 61.2602 242.766 70.7956 241.088 88.4944C240.647 93.9824 240.205 102.283 240.205 107.016V115.591L222.635 126.293L205.065 137.063L204.447 134.662C203.123 128.968 194.912 126.91 190.409 131.095C188.29 133.016 188.114 133.702 188.114 139.944V146.667L178.667 151.949C173.457 154.831 168.69 157.437 168.072 157.575C167.189 157.849 166.924 156.889 166.924 153.87C166.924 150.44 166.571 149.411 164.717 147.902C161.803 145.432 156.329 145.364 153.239 147.833C151.12 149.411 151.032 149.823 151.032 158.398V167.316L143.085 171.843C133.373 177.4 128.076 181.996 124.015 188.376C120.306 194.138 119.423 199.764 122.16 200.175C123.043 200.312 146.176 193.452 173.546 184.946C209.127 173.833 224.401 169.442 226.873 169.442C230.758 169.442 235.349 171.912 236.762 174.725C237.468 176.302 246.386 250.253 246.386 254.644L246.297 256.907L222.9 264.11C210.01 268.021 199.15 271.588 198.797 271.999C197.384 273.509 191.38 285.445 191.91 285.788C192.175 286.062 204.624 284.004 219.633 281.26C234.555 278.516 247.092 276.253 247.445 276.184C247.798 276.184 248.769 277.213 249.652 278.516C252.654 283.044 259.629 283.044 262.543 278.448L264.044 275.978L276.669 278.311C306.07 283.799 319.843 286.131 320.285 285.788C320.815 285.376 314.458 273.028 313.133 271.862C312.604 271.451 301.832 267.883 289.207 264.042C276.581 260.132 266.074 256.839 265.898 256.77C265.191 256.427 274.109 178.498 275.168 175.205C276.051 172.392 281.26 169.442 285.233 169.442C287.794 169.442 302.98 173.833 338.649 184.946C366.019 193.452 389.152 200.312 390.035 200.175C392.772 199.764 391.889 194.07 388.18 188.376C384.031 181.928 379.528 178.017 369.551 172.186L361.163 167.316V158.398C361.163 149.823 361.075 149.411 358.956 147.833C355.954 145.432 350.745 145.501 347.567 147.902C345.624 149.48 345.271 150.303 345.271 153.733C345.271 155.997 345.006 157.78 344.741 157.78C344.123 157.78 340.857 156.065 331.409 150.646L324.081 146.53V139.739C324.081 133.153 323.993 132.947 321.521 130.958C316.488 127.048 309.072 129.037 307.748 134.662L307.13 137.063L289.56 126.362L271.99 115.591V107.016C271.99 95.9032 270.489 80.1938 268.811 72.3734C266.428 61.466 262.631 56.9384 256.097 56.9384C254.155 56.9384 251.86 57.4872 250.623 58.3104Z" fill="black"/>
<path d="M179.899 198.666C179.546 198.94 179.281 209.573 179.281 222.333C179.281 243.05 179.458 245.52 180.694 245.863C184.49 246.96 184.579 245.931 184.402 221.647C184.137 199.009 184.137 198.597 182.371 198.391C181.312 198.254 180.252 198.391 179.899 198.666Z" fill="black"/>
<path d="M328.227 198.666C327.874 198.94 327.609 209.436 327.609 221.921C327.609 245.863 327.786 246.96 331.494 245.863C332.819 245.451 332.907 243.187 332.73 221.99C332.465 199.009 332.465 198.597 330.7 198.391C329.64 198.254 328.581 198.391 328.227 198.666Z" fill="black"/>
<path d="M131.248 215.062C130.984 215.679 130.719 226.038 130.719 238.043C130.719 256.976 130.895 260.063 132.131 260.955C133.191 261.778 133.897 261.847 135.222 261.367C136.899 260.681 136.899 259.789 136.723 237.494L136.458 214.376L134.162 214.17C132.661 214.033 131.602 214.376 131.248 215.062Z" fill="black"/>
<path d="M375.903 214.513C375.55 214.719 375.285 225.215 375.285 237.768C375.285 259.652 375.373 260.681 376.963 261.367C378.287 261.847 378.993 261.778 380.053 260.955C381.289 260.063 381.466 256.976 381.466 238.043C381.466 226.038 381.201 215.748 380.936 215.13C380.406 214.033 376.963 213.621 375.903 214.513Z" fill="black"/>
</svg>
