<svg width="379" height="379" viewBox="0 0 379 379" fill="none" xmlns="http://www.w3.org/2000/svg">
<path d="M189.595 84.0434L189.5 117.49L191.679 117.869C192.816 118.153 196.133 118.532 198.975 118.722C206.271 119.385 218.02 123.459 225.979 128.102C229.769 130.376 235.928 135.303 240.381 139.756C246.729 146.199 248.814 149.137 252.319 156.432C254.688 161.359 257.152 167.139 257.815 169.318C258.857 173.108 259.141 173.298 264.732 174.719C267.858 175.477 270.606 175.951 270.89 175.761C271.743 174.909 268.995 164.581 266.058 157.569C264.447 153.495 260.752 146.863 257.91 142.694C255.162 138.619 253.077 134.735 253.362 134.071C253.551 133.408 256.109 129.239 258.952 124.786C261.794 120.333 264.637 115.785 265.3 114.648C266.342 112.753 266.248 112.658 264.353 113.7C263.216 114.363 258.668 117.206 254.214 120.048C249.761 122.891 245.687 125.354 245.024 125.639C244.36 125.923 240.476 123.838 236.307 120.996C227.59 115.216 216.125 110.1 208.166 108.584C201.723 107.352 203.239 111.142 195.659 76.7477C192.816 63.4827 190.258 52.1127 190.069 51.6389C189.784 51.0704 189.595 65.7567 189.595 84.0434Z" fill="black"/>
<path d="M166.284 109.815C158.42 112.184 146.955 117.774 140.986 122.322C138.238 124.312 135.68 126.017 135.206 126.017C134.353 126.017 124.025 119.953 121.278 117.964C117.677 115.216 112.466 112.468 113.224 113.795C113.698 114.553 116.73 119.48 120.046 124.691C123.362 129.997 126.015 134.545 126.015 134.924C126.015 135.208 124.025 138.335 121.657 141.841C115.119 151.41 110.95 161.454 107.539 175.761C107.444 176.33 95.032 179.456 79.9667 182.773C64.9015 186.089 52.3945 188.931 52.205 189.121C52.0155 189.31 66.5122 189.5 84.6095 189.5H117.393L117.961 184.004C119.477 170.739 124.499 156.811 131.132 147.81C139.659 136.345 153.019 126.396 166.284 121.754C169.695 120.617 172.822 119.385 173.106 119.101C173.39 118.722 174.148 116.163 174.811 113.226C176.043 108.11 176.043 108.015 174.053 108.11C172.916 108.11 169.411 108.962 166.284 109.815Z" fill="black"/>
<path d="M181.35 124.218C172.728 125.26 168.085 126.776 160.031 130.85C119.857 151.032 111.33 204.376 143.071 235.928C157.473 250.235 177.276 257.152 196.889 254.783C206.269 253.551 211.291 252.035 219.345 247.961C239.622 237.633 252.129 219.252 254.782 196.322C257.814 170.55 243.696 143.736 220.956 131.892C216.692 129.618 211.102 127.25 208.638 126.492C204.753 125.355 189.025 122.986 187.604 123.27C187.319 123.365 184.477 123.744 181.35 124.218ZM207.975 127.913C218.492 131.134 226.167 135.967 234.6 144.399C243.127 153.022 247.96 160.791 251.276 171.498C254.497 182.015 254.308 198.312 250.802 208.924C247.391 219.157 243.98 224.747 235.926 233.37C228.062 241.802 219.534 247.298 208.733 250.898C202.385 252.983 199.732 253.362 189.499 253.362C179.266 253.362 176.613 252.983 170.264 250.898C159.463 247.298 150.935 241.802 143.166 233.464C130.564 220.01 125.542 207.408 125.542 189.5C125.542 171.593 130.564 158.991 143.166 145.536C156.431 131.324 172.538 124.691 191.867 125.449C197.931 125.734 203.711 126.586 207.975 127.913Z" fill="black"/>
<path d="M189.214 145.63C188.835 146.199 186.467 152.547 183.908 159.748C181.35 166.949 175.57 183.151 171.117 195.564C166.569 207.976 163.063 218.304 163.158 218.398C163.348 218.493 169.127 214.798 176.044 210.25C182.961 205.607 188.93 201.817 189.309 201.817C189.688 201.817 195.752 205.607 202.764 210.25C209.775 214.893 215.65 218.588 215.839 218.398C216.123 218.209 209.775 200.112 194.899 158.801C192.057 151.031 189.499 145.157 189.214 145.63Z" fill="black"/>
<path d="M261.037 193.953C258.1 218.778 247.677 236.591 228.917 249.287C223.705 252.793 210.63 258.668 208.072 258.668C206.177 258.668 205.513 259.899 204.092 265.963C202.671 271.933 202.86 272.027 212.809 268.995C221.621 266.342 231.949 261.226 238.013 256.678C240.76 254.688 243.413 252.983 244.077 252.983C244.645 252.983 247.203 254.309 249.762 256.015C266.153 266.532 266.722 266.911 265.774 265.205C264.922 263.689 260.089 256.109 255.352 248.624L252.225 243.792L255.92 239.149C262.269 231.19 267.954 217.925 271.459 203.239C271.554 202.67 283.966 199.544 299.032 196.227C314.097 192.911 326.604 190.069 326.793 189.879C326.983 189.69 312.486 189.5 294.389 189.5H261.605L261.037 193.953Z" fill="black"/>
<path d="M108.016 205.134C108.016 208.355 112.09 220.389 115.217 226.737C116.638 229.485 119.575 234.412 121.944 237.728C124.218 241.044 125.923 244.266 125.639 244.929C125.45 245.592 122.891 249.761 120.049 254.214C117.206 258.668 114.364 263.216 113.701 264.353C112.658 266.248 112.753 266.342 114.648 265.3C115.785 264.637 120.333 261.794 124.786 258.952C129.24 256.109 133.314 253.646 133.977 253.362C134.64 253.077 138.525 255.162 142.694 258.004C151.411 263.879 162.307 268.616 170.74 270.322L176.52 271.554L182.489 298.463C185.805 313.338 188.648 326.13 188.837 326.888C189.122 327.646 189.216 313.149 189.122 294.673L189.027 261.036L181.447 260.373C155.77 258.099 134.83 241.992 123.46 215.935C121.754 211.956 120.333 207.976 120.333 207.218C120.333 206.366 118.722 205.418 115.88 204.755C113.322 204.092 110.574 203.428 109.721 203.144C108.395 202.765 108.016 203.239 108.016 205.134Z" fill="black"/>
</svg>
