<svg width="1199" height="1144" viewBox="0 0 1199 1144" fill="none" xmlns="http://www.w3.org/2000/svg">
<path d="M595.86 0.918884C590.725 2.38605 585.04 6.14569 582.014 10.1805C576.053 17.9749 571.285 32.1882 571.285 42.0917C571.285 45.0261 570.918 47.4103 570.551 47.4103C570.185 47.4103 548.36 50.7115 522.134 54.7462C465.739 63.3659 413.471 71.3438 392.472 74.4615C372.39 77.5793 373.215 77.3042 373.215 79.8718C373.215 84.365 374.224 84.4567 399.991 80.5137C497.742 65.6584 569.268 54.6545 570.918 54.2877C572.385 53.921 573.211 54.7462 574.861 58.2308C576.053 60.5233 578.162 64.0995 579.721 65.9335C581.647 68.4094 582.014 69.4181 581.097 69.4181C579.355 69.4181 562.39 83.7231 537.632 105.823C509.296 131.223 447.95 193.304 443.548 201.098C442.54 202.84 444.465 206.05 446.483 206.05C447.4 206.05 452.535 201.098 458.587 194.312C473.259 177.898 520.117 131.132 538.732 114.259C547.352 106.464 561.198 94.3602 569.451 87.3911C577.796 80.3303 584.673 74.0947 584.857 73.3611C585.223 71.8022 585.682 71.8022 588.616 73.9113C593.751 77.5793 600.812 79.6884 608.056 79.7801C613.283 79.7801 615.026 80.1469 614.659 80.9722C614.475 81.6141 615.484 85.9239 616.951 90.6923C618.51 95.3689 621.444 106.189 623.462 114.809C625.571 123.337 627.588 131.682 628.047 133.332C628.872 136.175 628.78 136.175 621.811 139.66C608.331 146.262 596.135 161.759 591.826 177.623C590.817 181.383 590.267 186.976 590.267 192.753C590.267 200.731 590.634 203.024 593.201 210.451C594.852 215.22 596.044 219.163 595.86 219.346C595.677 219.621 498.476 249.332 489.031 251.991C487.472 252.449 485.913 253.458 485.638 254.283C484.905 256.117 486.647 259.235 488.389 259.235C489.123 259.235 505.537 254.467 524.794 248.598C544.05 242.729 568.901 235.118 579.905 231.817L599.987 225.673L607.873 233.559C616.493 242.087 623.003 246.397 632.082 249.423C636.758 251.074 637.859 251.716 637.217 252.816C636.758 253.55 635.199 261.436 633.64 270.239C628.23 300.867 619.886 334.428 610.165 364.689C607.873 372.025 605.764 378.902 605.489 380.095C605.122 381.47 604.48 382.02 603.471 381.653C590.267 377.527 576.328 375.51 563.582 375.876C555.238 376.06 553.404 376.427 552.578 377.71C551.02 380.278 553.037 382.57 556.705 382.479C564.866 382.112 584.581 384.129 592.926 386.147C632.265 395.775 665.093 423.101 680.499 459.139C697.463 498.845 694.07 545.611 671.696 580.64C669.862 583.391 668.119 585.684 667.752 585.684C667.386 585.684 662.801 584.675 657.482 583.483C644.461 580.549 629.239 575.505 614.567 569.453C603.38 564.868 602.188 564.501 600.812 565.877C599.345 567.161 598.886 566.977 595.769 563.676C593.109 560.833 592.376 559.275 592.376 556.615C592.376 554.69 591.917 550.655 591.459 547.629C590.725 542.86 590.817 541.943 592.284 540.293C595.402 536.9 597.052 532.407 598.153 524.704C599.162 517.46 599.345 517.001 601.729 516.543C605.764 515.717 606.956 512.049 608.515 495.269C610.074 478.854 609.707 475.737 605.856 474.086C604.022 473.261 603.93 472.619 604.113 466.383C604.48 457.489 602.921 445.659 600.17 437.59C598.245 431.813 598.153 430.988 599.437 429.612C603.655 424.844 600.537 415.49 593.293 411.456C589.258 409.255 588.616 409.163 571.285 409.163C557.163 409.163 551.937 409.53 546.618 410.814C526.444 415.674 512.506 424.569 507.279 436.031C504.161 442.908 503.428 450.153 504.528 465.375C505.445 477.02 505.353 478.579 503.978 480.138C501.961 482.339 502.144 485.548 504.803 498.111C508.563 515.809 509.755 518.744 513.606 518.744C515.44 518.744 515.899 519.844 516.816 526.996C517.549 533.049 519.292 538.184 521.768 541.668C523.326 543.869 523.602 545.703 523.602 554.873C523.602 561.292 523.235 565.51 522.685 565.51C522.226 565.51 520.667 566.702 519.292 568.261C517.916 569.82 515.991 571.012 514.798 571.012C513.606 571.012 507.646 574.497 501.41 578.715C489.856 586.509 475.001 595.404 465.648 599.989L460.513 602.465L457.853 599.439C444.649 583.85 435.112 565.418 429.885 545.336C427.776 536.992 427.042 532.132 426.767 522.411C426.125 505.814 426.125 505.722 422.457 506.089L419.523 506.364L419.248 515.076C419.065 522.411 420.44 536.166 422.366 545.336C422.824 547.537 422.549 547.72 417.506 548.821C404.943 551.572 371.656 557.349 359.002 558.999C347.723 560.558 320.488 563.676 318.746 563.676C317.645 563.676 316.453 567.344 317.004 568.811C317.462 570.187 318.562 570.278 326.54 569.728C348.823 568.261 409.986 558.633 423.466 554.414C424.291 554.139 425.575 556.432 427.226 560.925C437.313 588.16 456.294 612.643 479.128 627.865C481.695 629.516 483.896 630.983 484.079 631.167C484.629 631.625 470.691 652.074 461.98 663.72C457.303 669.955 453.268 675.366 452.902 675.732C452.626 676.099 449.692 674.999 446.299 673.165C432.544 665.921 419.523 663.078 402.742 663.903C386.878 664.637 372.94 669.497 360.01 678.667C346.989 688.02 333.784 705.443 329.383 719.198C321.955 742.489 321.405 745.24 321.405 756.336L321.497 767.065L306.733 768.99C277.756 772.842 260.792 774.4 230.073 775.959L219.436 776.51L218.886 766.606C218.335 756.703 214.759 739.922 212.65 737.354C212.1 736.62 210.999 736.07 210.266 736.07C209.624 736.07 206.506 734.053 203.48 731.485C200.454 729.009 197.061 726.442 195.961 725.892C194.86 725.25 193.852 724.7 193.668 724.608C193.485 724.424 196.511 717.455 200.362 709.111C210.358 686.92 218.427 666.104 226.497 641.804C230.348 630.158 233.741 620.346 234.016 620.071C234.199 619.796 236.859 620.529 239.885 621.63C243.828 623.097 248.046 623.739 255.382 624.014C266.752 624.381 273.905 623.097 282.616 618.695L287.843 616.128L290.044 619.521C297.288 630.433 340.845 686.92 343.321 688.57C343.871 688.937 344.605 689.304 344.972 689.304C345.98 689.304 348.456 686.461 348.456 685.361C348.456 684.719 343.871 678.483 338.186 671.422C332.592 664.362 320.213 648.223 310.676 635.568L293.437 612.46L298.297 607.508C307.925 597.605 312.969 584.4 313.06 569.178C313.06 553.681 308.109 541.118 298.022 531.031C287.476 520.578 275.464 515.259 260.425 514.434C244.47 513.608 231.173 518.652 219.894 529.839L213.75 535.983L207.148 529.014C181.014 501.229 141.033 460.973 139.658 460.973C138.924 460.973 140.299 458.497 142.775 455.196C147.727 448.777 151.395 441.166 153.596 433.005C154.971 427.503 155.613 412.831 154.513 408.613C153.963 406.504 154.421 406.229 163.408 403.019C168.634 401.185 199.904 389.906 232.916 377.985C265.927 366.065 300.039 353.777 308.567 350.751C317.187 347.725 324.798 344.515 325.623 343.507C327.09 341.856 327.274 341.948 329.658 345.432C333.418 350.934 346.439 362.947 352.308 366.523C355.242 368.265 357.626 370.191 357.626 370.741C357.626 373.217 343.963 407.971 335.252 427.32C321.68 457.397 311.41 477.571 296.096 504.163C292.061 511.041 288.852 517.276 288.852 518.01C288.852 519.936 291.144 521.678 293.07 521.311C295.363 520.944 312.143 491.142 326.449 462.349C339.47 436.031 349.832 412.464 358.543 389.448C361.661 381.103 364.32 374.226 364.412 374.042C364.595 373.951 368.355 375.051 372.94 376.518C392.655 382.937 413.012 382.295 434.012 374.318C440.522 371.933 442.631 371.475 443.457 372.3C444.007 372.942 448.225 380.37 452.902 388.989C457.578 397.517 461.888 405.128 462.53 405.77C463.539 406.779 462.255 408.43 455.836 414.94C441.439 429.429 429.518 447.86 423.283 465.375C420.44 473.444 420.348 474.361 422.641 475.645C425.759 477.204 426.951 475.828 430.435 466.567C441.531 437.223 464.547 411.181 492.424 396.417C501.319 391.74 511.772 387.522 518.833 385.688C524.885 384.221 526.536 381.929 523.693 379.086L521.859 377.16L511.772 380.553C499.485 384.588 487.289 390.548 476.652 397.701L468.766 403.019L459.045 385.413C453.727 375.693 449.325 367.532 449.325 367.257C449.325 366.982 452.168 364.689 455.653 362.03C471.241 350.476 482.062 334.337 488.022 313.704C489.856 307.377 490.131 304.443 490.131 290.413C490.04 271.523 488.664 265.287 481.512 250.524C472.342 231.542 458.495 217.879 439.789 209.259C421.174 200.639 397.79 199.081 379.817 205.224C377.066 206.141 374.682 206.875 374.682 206.783C374.591 206.6 371.473 198.897 367.805 189.544C364.045 180.191 357.076 163.868 352.399 153.323C347.631 142.686 343.596 133.607 343.321 133.149C343.138 132.599 345.247 131.04 347.998 129.573C356.801 124.988 365.421 113.709 368.263 102.98C369.914 96.8361 369.914 86.5658 368.172 80.9722C363.953 67.0339 350.841 55.5715 336.077 52.8206C329.383 51.6285 320.03 52.2703 318.654 54.1043C318.104 54.8379 315.353 55.5715 311.96 55.9383C297.38 57.2221 285.551 68.9596 282.341 85.3737C280.049 96.3776 284.542 110.316 293.437 120.128C296.738 123.796 297.93 125.721 297.38 126.547C292.061 133.332 244.103 197.797 223.929 225.306C195.777 263.728 133.789 349.559 124.619 363.039C124.344 363.497 122.785 363.13 121.226 362.213C118.842 360.838 118.017 360.746 116.458 361.755C114.899 362.672 114.165 362.672 111.964 361.48C107.013 359.004 97.2926 357.812 90.4152 359.004C80.5117 360.654 73.2674 364.597 65.1979 372.759C57.0367 381.012 53.0936 387.339 49.2423 398.343C46.7664 405.404 46.3996 407.971 46.0328 418.333C45.7577 427.411 46.0328 431.813 47.1332 436.214C53.1853 460.148 71.7086 475.37 97.1092 477.204C101.694 477.479 105.454 477.937 105.454 478.213C105.454 478.488 107.746 490.867 110.497 505.814C124.619 582.108 145.71 720.39 143.326 721.123C142.867 721.307 139.933 722.957 136.723 724.883C121.043 734.145 109.122 754.96 109.122 772.933C109.213 797.6 128.47 821.717 152.312 826.852C155.338 827.494 161.115 827.861 166.525 827.586C177.071 827.127 184.223 824.927 193.118 819.516C197.886 816.582 198.987 816.215 198.528 817.591C198.162 818.875 198.895 820.067 201.279 821.901C204.214 824.101 289.127 881.872 346.989 921.027L369.73 936.433L371.473 934.232C372.94 932.398 373.032 931.756 372.115 930.381C371.106 928.913 333.876 903.329 267.303 858.397C260.242 853.628 242.911 841.891 228.881 832.263C214.851 822.726 202.655 814.931 201.921 814.931C200.913 814.931 201.279 814.014 203.297 811.997C208.799 806.22 213.475 798.334 215.951 790.815L218.335 783.295L227.689 783.02C250.797 782.47 305.449 777.243 321.13 774.034C323.239 773.575 323.606 773.942 324.615 777.06C329.2 791.181 342.312 808.146 355.884 817.407C368.355 825.935 384.769 831.712 399.9 832.904L407.786 833.546L407.327 866.65C407.144 885.54 407.327 901.129 407.786 902.963C408.519 905.714 409.069 906.172 411.362 906.172H414.021L414.205 875.453C414.296 858.58 414.755 842.074 415.122 838.865L415.855 832.904L423.466 831.346C437.221 828.32 450.792 821.534 461.796 812.089C465.189 809.154 468.399 807.045 468.949 807.32C469.866 807.962 563.582 877.47 588.708 896.177C595.035 900.945 600.445 904.797 600.812 904.797C601.913 904.797 604.297 901.954 604.297 900.578C604.297 898.744 608.79 902.137 520.851 837.031C495.358 818.141 474.176 802.369 473.717 802.002C473.259 801.543 474.451 798.976 476.56 795.95C483.529 785.955 489.123 772.475 490.223 762.938C490.773 758.353 490.957 758.17 494.166 757.711C498.843 757.069 497.834 757.161 588.158 747.899C657.849 740.839 669.862 739.83 670.412 740.93C675.088 749.275 684.075 757.344 692.786 760.921C697.646 762.938 697.83 763.122 697.371 765.781C697.096 767.34 696.271 773.942 695.537 780.544C692.603 805.211 687.651 831.254 680.682 858.03C678.39 866.833 676.28 874.994 676.005 876.186C675.822 877.379 675.088 878.112 674.446 877.837C673.896 877.654 670.32 876.92 666.56 876.278C660.783 875.361 658.674 875.361 652.439 876.645C640.701 879.029 630.889 884.439 622.086 893.242C609.707 905.714 604.205 919.01 604.022 937.075L603.93 946.061L601.179 946.428C599.62 946.703 585.315 947.712 569.451 948.812C493.249 953.947 465.648 956.148 464.364 957.157C463.63 957.799 463.08 959.174 463.264 960.183C463.447 961.742 464.272 962.2 467.665 962.384C471.241 962.659 601.546 953.856 604.297 953.214C604.847 953.03 606.039 955.231 606.956 957.982C613.008 977.239 627.313 991.269 645.653 996.037C654.181 998.33 669.495 997.504 677.839 994.387C695.904 987.784 709.751 973.296 715.986 954.589C717.82 948.812 718.279 945.511 718.37 937.808C718.462 932.49 718.187 926.071 717.82 923.595L717.087 919.01L733.867 908.373C743.037 902.504 762.569 890.583 777.149 881.872C826.484 852.528 844.915 841.249 858.211 832.629C869.949 824.927 871.324 823.826 870.958 821.809L870.499 819.608L874.259 822.176C890.123 832.904 906.353 837.856 925.61 837.948C956.329 838.04 982.005 823.735 999.336 797.142C1008.6 782.929 1018.59 757.161 1020.7 742.214C1023.18 724.7 1017.03 709.019 999.703 688.478C996.86 685.177 994.109 681.876 993.559 681.234C993.101 680.592 988.791 676.741 984.023 672.798C974.761 664.912 964.491 659.318 954.587 656.751C942.575 653.541 917.357 654.091 902.685 657.759C900.943 658.218 900.576 658.034 900.943 657.026C902.227 653.816 888.197 618.329 867.015 570.553C850.6 533.599 843.356 516.268 838.129 501.412C836.387 496.736 834.461 492.242 833.728 491.509C832.077 489.95 829.968 490.225 828.684 492.242C827.034 494.902 838.863 524.979 861.513 575.597C876.276 608.7 883.337 625.665 889.481 642.996C892.14 650.515 894.708 657.301 895.258 657.943C896.45 659.41 896.908 659.135 887.28 662.528C882.787 664.087 876.826 666.746 874.075 668.396C867.473 672.339 859.495 679.584 856.377 684.535C855.002 686.645 852.893 689.212 851.701 690.129C846.474 694.256 836.937 718.372 835.653 730.752C835.378 733.686 834.645 736.07 834.095 736.07C833.544 736.07 826.208 735.245 817.68 734.236C809.244 733.228 791.913 731.577 779.167 730.568C766.512 729.56 755.508 728.459 754.958 728.276C754.133 728.001 753.766 725.983 753.766 722.591C753.766 719.656 753.399 715.896 752.849 714.154C752.391 712.32 752.299 710.486 752.849 709.569C754.867 705.718 745.697 695.081 735.151 688.937L729.099 685.452L731.85 679.859C743.588 656.659 763.211 606.958 775.591 569.178C783.66 544.603 786.136 535.8 796.956 493.71L797.873 490.317H804.201C822.174 490.317 840.789 482.614 854.819 469.409C870.224 454.921 878.202 437.682 878.752 418.241L878.935 409.805L911.947 409.255C942.024 408.796 963.39 407.788 973.661 406.412L977.512 405.862V408.888C977.512 414.023 980.171 423.377 983.197 429.062C986.865 436.031 995.943 444.467 1003.55 448.044C1006.76 449.602 1010.07 450.886 1010.89 450.886C1011.72 450.886 1012.36 451.528 1012.36 452.353C1012.36 453.087 1001.17 498.203 987.507 552.489C970.084 621.722 962.932 651.615 963.574 652.624C964.674 654.366 968.342 654.366 969.351 652.624C969.993 651.524 1019.69 454.462 1019.69 453.087C1019.69 452.904 1022.26 452.72 1025.47 452.72C1042.16 452.72 1058.48 441.808 1066.18 425.486C1069.3 418.975 1069.67 417.508 1069.94 408.888C1070.31 401.002 1070.04 398.434 1068.29 393.024C1060.59 369.182 1037.39 355.794 1013.64 361.48C997.044 365.331 984.94 376.335 980.079 391.924C978.521 396.967 977.512 398.801 976.136 399.076C970.451 400.36 946.151 401.46 914.24 402.011L878.018 402.561L876.368 396.234C871.691 378.902 861.146 363.314 846.841 352.768C839.596 347.358 835.837 345.799 834.003 347.266C832.169 348.733 832.261 352.401 834.095 353.135C840.697 355.703 853.351 367.073 859.312 375.785C875.543 399.718 876.001 428.603 860.596 451.803L856.194 458.497L854.452 455.104C851.884 450.061 846.657 446.851 836.479 444.1C831.527 442.725 827.034 441.258 826.392 440.891C825.75 440.524 824.833 436.948 824.466 433.005L823.641 425.761L827.584 422.001C842.164 408.338 839.688 383.671 822.632 371.933C819.881 370.099 815.113 367.807 812.087 366.798C801.908 363.772 783.293 365.514 776.691 370.191C771.464 373.951 770.731 382.662 775.132 389.264C777.241 392.474 777.425 393.666 777.791 406.871C778.25 422.276 779.534 427.411 784.577 432.638C786.411 434.564 786.87 435.848 786.594 438.599C786.319 441.991 786.228 442.083 779.9 444.009C767.98 447.677 759.452 453.545 757.251 459.689C756.701 461.432 755.875 462.807 755.6 462.807C754.683 462.807 749.548 457.03 746.522 452.445C738.544 440.616 735.06 428.878 735.06 413.748C735.06 400.91 736.527 394.583 741.937 383.304C756.701 352.493 795.306 332.961 819.514 343.965L824.833 346.441L826.392 344.515C828.684 341.764 827.309 339.747 821.532 337.271C808.511 331.586 791.088 333.145 774.857 341.306C771.372 343.048 768.163 344.515 767.704 344.515C767.246 344.515 763.211 339.013 758.81 332.319C737.719 300.591 698.288 248.14 694.529 246.672C692.878 246.031 690.494 247.956 690.494 250.065C690.494 250.891 694.529 256.759 699.48 262.995C718.554 287.203 737.535 313.154 753.308 336.904L761.286 349.009L757.893 352.035C755.967 353.685 753.674 355.611 752.758 356.161C749.09 358.82 739.736 371.842 735.885 379.636C730.2 391.465 728.824 397.059 728.366 411.456C727.999 420.809 728.274 425.394 729.374 430.071C730.2 433.555 730.841 436.948 730.841 437.682C730.841 439.057 719.196 445.201 701.131 453.362C695.079 456.021 689.852 458.681 689.485 459.231C689.118 459.781 687.009 456.296 684.717 451.528C678.573 438.415 670.32 426.953 658.858 415.49C647.212 403.845 635.658 395.775 619.794 388.164C614.017 385.321 609.89 383.121 610.532 383.029C611.908 383.029 612.458 381.745 618.143 363.314C629.881 325.625 643.544 265.196 642.627 255.567L642.352 252.358H652.439C666.744 252.266 677.473 248.781 690.586 239.887C696.087 236.127 706.083 225.765 706.083 223.748C706.083 223.106 707.366 220.446 708.925 217.971C712.502 212.194 715.253 203.482 715.253 198.164C715.253 195.963 715.344 194.129 715.528 194.129C724.973 193.579 779.809 191.286 793.472 190.828C807.869 190.369 812.912 189.911 813.829 188.902C814.929 187.802 815.388 188.168 816.947 191.194C821.348 199.722 826.117 202.84 828.226 198.347C829.051 196.33 828.868 195.596 826.392 192.478C820.798 185.509 819.423 180.924 819.331 170.287C819.331 161.484 819.514 160.2 821.99 155.248C828.868 141.218 844.915 133.332 860.779 136.267C868.298 137.642 872.975 139.935 878.569 145.253C886.455 152.589 890.765 162.584 890.765 173.497C890.856 182.208 889.022 188.627 884.712 195.046C881.411 200.089 880.953 200.364 878.935 199.447C874.717 197.522 870.866 183.4 873.342 178.632C874.075 177.348 874.901 172.488 875.267 167.995C876.276 154.973 873.525 147.821 866.189 144.52C861.421 142.319 856.286 142.319 849.775 144.52C839.413 147.912 833.819 153.873 836.204 158.916C836.754 160.2 837.212 165.519 837.212 170.746C837.212 185.051 838.313 189.085 843.723 194.221L848.125 198.439L841.247 201.923C834.736 205.224 834.37 205.316 832.719 203.849C830.61 201.923 827.217 202.198 825.842 204.399C825.108 205.591 825.383 206.416 827.034 208.25C829.693 211.093 838.221 215.678 843.54 217.054L847.574 218.154L846.932 230.625C845.557 259.143 841.43 289.037 834.553 321.499C831.527 335.62 831.619 337.179 835.929 337.179C838.404 337.179 838.496 336.813 842.256 319.481C845.374 304.81 849.683 278.125 851.426 262.445C852.709 249.882 854.635 226.315 854.635 221.547C854.635 219.254 855.002 219.071 861.513 218.062C865.272 217.42 870.774 215.77 873.617 214.303C876.551 212.835 878.844 211.735 878.935 211.827C879.394 213.752 885.263 224.665 888.839 230.258C900.852 249.24 920.108 273.173 948.718 304.626C962.29 319.665 980.813 341.489 989.524 352.952C994.109 358.912 998.236 363.772 998.694 363.772C1000.53 363.772 1003.19 361.846 1003.19 360.563C1003.19 357.261 982.555 332.044 950.461 295.915C929.92 272.807 920.659 261.986 911.489 250.157C903.878 240.345 891.957 222.372 888.014 214.761C886.546 212.01 884.529 209.443 883.612 209.167C881.961 208.617 881.961 208.526 883.429 207.7C886.088 206.233 892.965 196.238 894.891 190.919C901.768 172.58 897.459 153.231 883.704 139.935C881.595 137.917 876.826 134.708 873.067 132.874C866.831 129.756 865.456 129.481 856.836 129.206C849.225 128.839 846.199 129.206 841.155 130.673C834.278 132.782 828.226 136.358 823.733 140.76L820.798 143.694L815.48 140.577C812.545 138.834 774.123 118.569 730.016 95.5523C668.394 63.2742 649.504 53.8292 648.404 54.4711C647.579 55.0213 646.845 56.3968 646.662 57.5889C646.387 60.0648 643.636 58.4142 680.865 77.9461C691.961 83.7231 713.877 95.1855 729.466 103.347C745.146 111.508 763.028 120.953 769.355 124.254C775.682 127.555 788.52 134.249 797.965 139.201C807.41 144.245 815.571 148.279 816.122 148.279C816.855 148.279 816.947 148.829 816.58 149.838C812.178 160.017 810.711 169.278 812.27 177.623C812.82 180.374 813.095 182.758 813.004 182.85C812.454 183.492 715.803 186.793 715.344 186.151C714.977 185.784 713.785 182.483 712.685 178.815C708.834 166.619 697.921 153.048 685.542 145.07C672.521 136.817 659.316 133.149 644.553 133.883L634.741 134.249L634.191 129.756C632.723 118.66 622.545 82.3477 620.344 80.0552C619.152 78.9548 619.794 78.4046 624.929 75.9287C639.693 69.0513 647.487 54.4711 645.47 37.8736C644.094 27.0531 636.3 13.8484 631.623 14.582C627.588 15.1322 627.588 17.4247 631.623 22.835C636.942 29.8041 638.5 34.4807 638.5 43.2838C638.5 48.9692 638.042 51.5367 636.483 54.7462C632.999 61.9904 632.632 62.2656 628.505 60.7983L624.929 59.6063L625.021 53.921C625.112 49.9778 625.571 47.7771 626.763 46.4933C629.147 43.9257 629.697 37.14 627.68 35.2143C626.671 34.114 626.396 33.197 627.038 32.4634C630.706 27.7867 628.23 21.001 621.353 17.1496C610.165 10.7307 598.245 13.2982 593.293 23.2017C591.551 26.6863 591.459 28.0618 592.009 36.8649C592.651 46.3099 592.743 46.7684 595.769 49.8862C598.336 52.6371 598.795 53.8292 598.795 57.5889C598.795 61.8071 598.703 61.9904 594.852 63.8244C592.651 64.9248 590.45 65.7501 589.9 65.7501C587.974 65.7501 582.289 58.1391 580.455 53.1873C574.403 37.0483 583.664 12.5646 597.419 7.97968C602.738 6.23743 612.183 7.33783 619.977 10.639C627.221 13.665 629.972 13.39 629.972 9.4469C629.972 7.70459 629.055 6.87933 625.204 5.2287C613.925 0.368652 603.38 -1.19019 595.86 0.918884ZM604.297 22.6516C602.096 24.027 600.904 23.6602 602.83 22.1931C603.838 21.4595 604.847 21.0927 605.122 21.3677C605.397 21.6429 605.03 22.1931 604.297 22.6516ZM615.392 32.9218C616.584 33.9305 617.043 34.4807 616.401 34.114C614.659 33.197 612.55 35.306 612.55 37.9653C612.55 40.5328 614.842 41.725 617.226 40.1661C618.877 39.2491 618.969 39.4325 618.969 43.1921C618.969 47.6854 617.593 51.9952 615.943 53.0956C612.55 55.2964 606.131 52.8206 603.93 48.419C602.463 45.4846 601.546 36.7732 602.371 33.6555C603.655 28.8871 609.982 28.5203 615.392 32.9218ZM343.138 62.4489C349.74 65.6584 356.618 72.2607 359.46 78.1295C361.478 82.0726 361.753 83.9982 361.753 91.8843C361.753 98.67 361.294 102.155 360.01 105.364L358.36 109.582L354.142 107.381C351.849 106.189 349.282 105.181 348.365 105.181C345.797 105.181 343.871 104.172 343.871 102.705C343.871 101.971 343.229 100.229 342.496 98.8535C341.304 96.4693 341.304 96.1025 342.954 94.6353C345.797 92.0677 345.522 83.8148 342.496 80.7888C340.754 79.0464 340.203 77.5793 340.203 74.3698C340.203 68.5928 337.452 66.1169 330.025 65.2916C324.981 64.7414 323.881 64.9248 319.296 67.2173C312.694 70.6102 308.567 77.0291 309.393 82.3477C309.668 84.2733 309.576 86.1073 309.026 86.3824C308.017 87.0243 307.834 92.4345 308.659 96.8361C309.117 99.1285 309.851 99.8622 311.777 100.321C313.794 100.687 314.436 101.421 314.803 103.714C315.353 107.106 313.244 109.032 305.358 112.333C302.607 113.525 299.856 114.626 299.306 114.901C297.563 115.726 292.52 107.84 290.503 101.238C287.018 89.5919 289.494 78.2212 297.197 70.4268C301.506 66.1169 305.725 64.0078 312.052 62.9991C314.711 62.6323 317.187 61.6237 317.737 60.7983C318.471 59.6063 320.213 59.4229 328.283 59.6063C336.627 59.8813 338.645 60.2482 343.138 62.4489ZM616.493 62.2656C614.2 64.8331 605.214 64.3746 605.214 61.7153C605.214 60.9818 607.231 60.615 611.541 60.615C617.593 60.7067 617.868 60.7983 616.493 62.2656ZM625.388 67.4924C625.388 68.9596 615.943 72.3524 610.807 72.8109C607.873 72.9943 603.93 72.6276 601.546 71.9857C597.603 70.7018 597.511 70.6102 599.437 69.6014C601.179 68.6845 602.096 68.6845 604.48 69.9683C608.331 71.9857 616.309 71.3438 619.702 68.6845C622.27 66.7588 625.388 66.0252 625.388 67.4924ZM333.326 73.0861C333.601 73.6362 333.234 74.2781 332.409 74.5532C330.667 75.2868 329.658 74.5532 330.575 73.1777C331.309 71.8939 332.592 71.8939 333.326 73.0861ZM320.03 76.6623C320.03 77.1208 319.479 77.9461 318.746 78.4963C317.645 79.4133 317.554 79.2299 317.921 77.7627C318.379 75.837 320.03 75.0117 320.03 76.6623ZM333.784 83.448C333.784 85.0986 333.326 85.5571 331.4 85.4654C328.191 85.4654 326.54 87.9413 328.283 90.0504C329.2 91.1508 330.392 91.4258 332.226 91.059L334.977 90.5089L334.426 96.1025C333.968 101.696 332.042 105.181 329.475 105.181C325.165 105.181 319.113 98.3033 319.113 93.4432C319.113 92.0677 319.571 91.7927 321.589 92.1594C323.239 92.4345 324.339 92.0677 325.256 90.9673C326.907 88.6749 326.815 88.1247 324.431 85.9239C322.139 83.8148 322.872 82.6227 326.907 81.9808C333.143 81.1556 333.784 81.2473 333.784 83.448ZM338.828 113.067C337.911 113.709 336.811 114.076 336.444 113.8C335.252 113.067 335.435 110.316 336.719 109.032C337.544 108.207 338.094 108.39 339.103 109.949C340.387 111.691 340.295 111.966 338.828 113.067ZM328.466 112.883C328.924 113.525 328.283 113.984 326.815 114.167C323.698 114.626 321.864 113.8 321.864 112.058C321.864 110.866 322.414 110.683 324.89 111.141C326.449 111.508 328.099 112.333 328.466 112.883ZM330.758 127.372C330.483 128.105 330.208 127.83 330.208 126.822C330.117 125.813 330.392 125.263 330.667 125.63C330.942 125.905 331.034 126.73 330.758 127.372ZM318.562 134.249C322.781 135.075 326.999 135.35 330.667 134.983L336.169 134.433L338.553 139.751C350.29 165.885 357.259 182.116 362.119 194.312C365.329 202.29 368.355 208.801 368.905 208.801C369.364 208.801 366.704 210.818 363.036 213.294C347.998 223.381 344.33 226.223 338.186 232.276C330.3 240.07 325.532 246.856 320.488 257.768C315.811 267.855 313.794 274.824 312.877 285.003C311.227 301.417 314.069 317.006 321.222 331.494L324.339 337.73L317.004 340.205C312.969 341.673 301.231 345.891 290.778 349.559C280.416 353.318 245.111 366.156 212.283 377.894L152.679 399.443L150.203 394.033C146.81 386.422 142.133 379.819 135.623 373.309L130.029 367.623L147.269 343.507C192.201 280.326 240.343 214.486 283.992 156.257L304.441 129.022L308.2 130.948C310.31 131.957 314.894 133.424 318.562 134.249ZM667.111 144.061C690.677 152.131 708.192 173.68 708.283 195.046C708.375 203.574 707.091 208.067 702.415 215.036C700.397 218.062 698.747 221.088 698.747 221.822C698.747 222.464 696.913 224.848 694.712 227.049L690.677 230.992L685.267 227.966C682.333 226.223 676.28 223.381 671.696 221.547C663.443 218.246 663.443 218.246 663.168 214.669C662.984 212.56 663.718 208.801 665.093 205.133C666.377 201.832 667.752 197.98 668.119 196.421C668.761 194.312 669.77 193.487 672.979 192.57C680.59 190.369 683.983 184.5 680.957 178.632C679.582 176.064 679.582 175.514 680.865 173.038C681.599 171.571 682.241 169.462 682.241 168.361C682.241 164.877 678.665 160.384 674.263 158.274C671.971 157.174 668.761 154.79 667.202 153.048C664.726 150.388 663.443 149.838 659.591 149.471C656.382 149.105 653.998 149.471 652.072 150.388C649.504 151.672 649.046 151.672 645.836 150.022C644.002 149.105 641.251 148.279 639.784 148.279C636.3 148.279 631.256 150.755 629.147 153.414C628.047 154.79 626.488 155.615 624.929 155.615C623.278 155.615 621.353 156.716 619.244 158.825C616.218 161.851 616.034 162.401 616.493 166.252C616.859 169.92 616.584 170.654 614.2 173.038C611.999 175.239 611.541 176.523 611.724 179.182C611.816 181.108 611.541 183.767 611.174 185.142C610.165 189.085 611.358 192.203 614.842 194.312C616.584 195.321 618.052 196.788 618.052 197.613C618.052 200.364 621.811 203.299 625.479 203.299C629.422 203.299 629.697 203.757 629.789 211.093L629.972 216.595L619.886 221.363L609.89 226.132L607.69 223.197C604.022 218.337 599.803 209.167 598.245 202.657C592.284 177.531 609.065 149.471 634.282 142.227C641.71 140.118 658.216 141.035 667.111 144.061ZM861.054 162.034C862.613 163.593 862.888 165.06 862.888 171.846C862.888 181.108 860.687 186.885 856.377 189.085C850.6 192.111 846.932 190.002 844.915 182.483C843.906 178.448 843.906 177.99 845.557 176.798C847.941 175.147 847.849 171.204 845.374 170.562C843.906 170.104 843.631 169.462 843.815 166.802C844.09 163.685 844.273 163.501 849.592 161.942C857.019 159.833 858.853 159.833 861.054 162.034ZM626.305 163.776C625.846 164.785 624.929 165.885 624.471 166.161C623.187 166.986 623.37 164.418 624.654 163.135C626.396 161.392 627.405 161.851 626.305 163.776ZM672.704 165.244C674.171 166.344 674.263 166.527 672.888 166.619C672.062 166.619 670.779 166.894 669.953 167.169C668.853 167.536 668.486 167.169 668.486 165.794C668.486 163.501 670.137 163.318 672.704 165.244ZM652.622 167.078C652.897 167.903 654.273 169.095 655.74 169.92C657.757 170.929 658.399 171.938 658.399 173.863C658.399 175.331 659.316 177.623 660.508 179.09C662.892 182.208 663.168 186.059 661.425 194.037C658.858 205.408 654.456 210.635 647.029 210.635C644.094 210.635 642.902 209.993 639.693 206.692C635.658 202.473 632.173 196.971 632.723 195.504C633.09 194.587 633.365 192.203 634.099 183.125C634.282 180.832 635.291 177.348 636.3 175.331C637.4 173.405 638.225 171.021 638.225 170.104C638.225 168.728 639.051 168.453 642.627 168.453C645.103 168.453 647.854 167.903 648.862 167.078C651.155 165.335 651.889 165.335 652.622 167.078ZM668.486 173.497C668.486 174.23 667.844 174.872 667.111 174.872C666.377 174.872 665.735 174.23 665.735 173.497C665.735 172.763 666.377 172.121 667.111 172.121C667.844 172.121 668.486 172.763 668.486 173.497ZM626.305 191.836C626.305 192.295 625.846 192.111 625.388 191.378C624.929 190.644 624.471 189.544 624.471 189.085C624.471 188.535 624.929 188.81 625.388 189.544C625.846 190.277 626.305 191.286 626.305 191.836ZM867.84 195.596C868.482 198.439 868.39 198.439 863.622 199.814C858.578 201.281 855.552 200.731 855.552 198.347C855.552 197.613 856.744 196.605 858.211 195.963C859.679 195.413 861.971 193.67 863.438 192.203C866.281 189.177 866.464 189.36 867.84 195.596ZM873.433 205.133C873.8 205.683 871.691 207.15 868.665 208.617C864.08 210.726 862.154 211.093 854.452 211.093C844.64 211.093 841.155 209.718 846.015 207.792C848.858 206.692 849.867 206.692 856.928 207.517C860.229 207.884 862.888 207.517 866.556 206.141C872.608 203.941 872.7 203.941 873.433 205.133ZM420.99 210.084C464.456 219.346 492.699 266.571 481.42 311.137C479.128 320.123 472.892 333.145 467.39 340.389C463.63 345.341 453.819 355.519 452.718 355.519C452.535 355.519 451.801 354.327 451.159 352.768C448.775 346.991 440.247 341.214 428.051 337.271C421.816 335.162 421.816 335.162 421.816 331.769C421.816 328.651 422.182 328.193 425.392 326.817C431.627 324.066 436.671 314.346 437.771 303.251C438.138 299.95 437.863 291.33 437.129 283.994C436.396 276.658 436.029 267.672 436.304 264.004C436.763 255.659 435.112 250.707 429.793 245.389C424.933 240.529 419.798 238.236 412.371 237.502C405.035 236.861 398.432 238.328 390.638 242.362L384.769 245.48L382.66 242.821C376.608 235.118 361.386 235.668 352.491 243.83C347.631 248.323 344.788 255.2 344.146 264.37C343.138 277.85 348.915 286.011 359.46 286.011H363.77L364.412 290.78C365.146 297.474 369.639 305.91 375.141 311.045C379.359 314.988 379.909 315.905 380.551 320.582C381.376 326.451 380.459 334.612 378.9 336.537C378.259 337.271 372.757 340.389 366.613 343.598C360.561 346.808 353.958 350.751 352.124 352.493L348.64 355.519L342.954 349.926C336.26 343.232 331.125 335.804 326.815 326.817C317.187 306.46 317.187 281.426 326.815 260.702C333.693 245.755 342.129 236.219 358.452 224.94C376.608 212.377 386.236 208.984 403.934 208.892C410.17 208.892 417.597 209.351 420.99 210.084ZM645.195 217.512C647.212 217.879 650.421 217.695 652.255 217.237C655.557 216.32 655.648 216.32 655.648 218.888C655.648 220.446 654.823 222.372 653.631 223.381C647.854 228.791 637.308 225.031 637.308 217.512C637.308 214.394 637.4 214.303 639.417 215.586C640.518 216.32 643.085 217.237 645.195 217.512ZM676.739 231.634C676.739 232.551 673.988 233.834 673.346 233.193C673.071 232.917 673.163 232.367 673.529 231.817C674.263 230.625 676.739 230.442 676.739 231.634ZM646.478 244.105C646.478 244.838 645.836 245.48 645.103 245.48C642.719 245.48 643.452 243.646 646.295 242.821C646.387 242.729 646.478 243.371 646.478 244.105ZM375.049 245.48C375.049 245.939 374.682 246.397 374.132 246.397C373.674 246.397 373.215 245.939 373.215 245.48C373.215 244.93 373.674 244.563 374.132 244.563C374.682 244.563 375.049 244.93 375.049 245.48ZM416.772 247.039C414.755 248.415 414.205 248.14 415.03 246.122C415.305 245.297 416.13 244.93 416.956 245.205C418.239 245.664 418.148 245.939 416.772 247.039ZM396.048 247.589C395.865 247.773 394.489 248.598 392.93 249.515L390.179 251.074L392.38 249.24C393.572 248.14 394.948 247.314 395.498 247.314C396.048 247.314 396.232 247.406 396.048 247.589ZM426.401 252.174C426.401 252.816 424.842 254.1 423.008 255.017L419.523 256.668L422.182 253.825C425.117 250.799 426.401 250.249 426.401 252.174ZM430.068 261.528C430.068 262.261 429.243 262.903 428.326 262.903C426.125 262.903 425.025 261.436 426.584 260.794C428.785 259.877 430.068 260.152 430.068 261.528ZM386.97 262.261C378.35 269.964 372.298 274.824 372.298 274.09C372.298 271.248 374.224 268.405 376.149 268.405C377.342 268.405 380.368 266.755 382.843 264.737C387.153 261.253 389.813 259.694 386.97 262.261ZM360.652 264.921C353.316 274.641 351.207 276.2 351.207 271.798C351.207 270.422 352.674 268.864 355.609 266.846C360.194 263.82 362.119 263.087 360.652 264.921ZM427.501 269.781C429.243 270.514 431.444 291.513 430.802 301.6C430.252 310.678 426.859 318.198 422.457 320.307C419.523 321.682 418.973 321.682 413.929 320.215C400.45 316.272 393.389 309.853 393.389 301.417C393.389 297.932 390.546 295.915 386.511 296.557C383.76 297.015 383.302 296.74 381.926 294.081C379.176 288.762 382.11 281.885 386.145 283.994C386.97 284.452 388.162 286.103 388.804 287.57C390.271 291.146 392.105 291.697 395.59 289.679C398.249 288.12 400.633 285.003 406.135 275.833C409.345 270.514 414.388 268.13 420.99 268.772C423.833 269.047 426.676 269.505 427.501 269.781ZM389.171 272.99C386.695 275.007 384.311 276.658 383.852 276.658C382.66 276.658 383.669 275.649 388.345 272.165C393.756 268.038 394.306 268.68 389.171 272.99ZM364.962 274.09C363.953 277.667 361.111 279.867 362.028 276.383C362.578 274.09 365.054 270.056 365.512 270.514C365.696 270.698 365.421 272.256 364.962 274.09ZM396.507 278.675C394.489 281.793 393.847 282.252 393.572 280.968C393.205 279.317 397.79 273.449 398.707 274.366C398.983 274.549 397.974 276.566 396.507 278.675ZM386.97 306.46C386.97 307.194 386.603 308.019 386.053 308.294C385.503 308.661 385.136 307.836 385.136 306.46C385.136 305.085 385.503 304.259 386.053 304.626C386.603 304.901 386.97 305.727 386.97 306.46ZM400.908 322.599C403.109 323.7 407.052 325.35 409.711 326.175L414.663 327.734L415.122 342.039L415.58 356.436L410.628 354.51C401.458 350.934 392.93 346.533 389.446 343.415L385.87 340.389L386.97 334.612C387.704 331.311 387.887 325.992 387.612 322.049C386.97 313.888 388.254 312.879 393.572 317.556C395.406 319.206 398.707 321.499 400.908 322.599ZM430.16 345.157C437.313 348 443.09 352.31 445.291 356.711C446.666 359.371 446.666 359.554 445.107 360.838C441.347 363.68 430.619 368.449 423.008 370.833C415.763 373.034 413.563 373.309 400.725 373.309C387.887 373.309 385.686 373.034 378.442 370.833C370.739 368.449 360.102 363.589 356.251 360.654C354.6 359.462 354.6 359.187 355.792 357.903C356.618 357.078 362.303 353.777 368.538 350.476L379.817 344.515L384.036 348.092C390.088 352.952 393.572 354.969 404.851 359.646C420.715 366.34 422.733 365.331 422.733 351.209C422.733 346.533 422.916 342.681 423.191 342.681C423.466 342.681 426.584 343.782 430.16 345.157ZM107.471 367.532C111.506 368.907 113.157 369.091 114.624 368.357C116.183 367.532 117.375 367.99 121.776 371.016C128.379 375.51 137.365 384.955 141.033 391.374C151.854 410.447 150.478 433.463 137.548 450.611L133.881 455.379L129.296 450.519C126.728 447.768 122.785 444.651 120.584 443.459C117.283 441.716 116.366 440.616 115.908 438.14C115.541 436.214 115.724 433.739 116.458 432.18C117.1 430.621 118.017 427.228 118.567 424.752C119.117 422.184 119.942 419.984 120.309 419.709C122.143 418.333 122.785 413.381 122.418 402.653C121.96 392.291 121.685 390.548 119.667 387.064C115.174 379.453 108.113 376.06 98.393 376.885C86.9306 377.802 76.6603 384.955 71.8003 395.5C67.1236 405.77 67.2153 417.233 71.9837 433.647C74.7346 443 74.7346 444.1 72.3504 445.384C71.3418 446.026 68.7742 447.952 66.7568 449.786L63.0888 453.087L60.8881 450.428C53.1853 440.799 50.5261 420.901 54.6525 404.67C59.6043 385.413 76.4769 367.807 91.974 365.606C97.7511 364.872 100.685 365.239 107.471 367.532ZM1040.88 370.925C1056.37 378.444 1065.91 396.6 1062.98 412.648C1061.69 419.25 1057.57 428.053 1053.62 432.363L1050.78 435.389L1048.03 433.372C1046.47 432.271 1043.26 430.621 1040.97 429.795C1035.74 427.778 1035.1 425.577 1038.4 420.809C1041.98 415.49 1043.81 406.871 1043.9 394.95C1043.99 381.103 1042.43 378.352 1033.08 375.143C1023.45 371.842 1012.08 374.593 1006.21 381.562C999.611 389.448 997.502 392.382 996.31 395.408C994.201 400.268 994.66 411.364 997.227 422.46C998.511 427.778 999.52 433.28 999.52 434.839V437.498L995.76 433.922C987.782 426.036 984.389 416.499 985.123 403.845C985.49 396.967 986.04 394.766 988.791 389.081C992.551 381.562 996.677 376.885 1003 373.217C1010.98 368.54 1015.57 367.348 1025.75 367.623C1033.91 367.899 1035.56 368.265 1040.88 370.925ZM781.276 377.068C780.634 377.802 779.717 378.444 779.167 378.444C778.708 378.444 778.983 377.619 779.9 376.61C781.826 374.501 783.11 374.868 781.276 377.068ZM810.161 382.112C809.886 382.57 809.152 383.029 808.694 383.029C808.144 383.029 808.052 382.57 808.327 382.112C808.602 381.562 809.336 381.195 809.794 381.195C810.344 381.195 810.436 381.562 810.161 382.112ZM1022.72 382.479C1024.19 383.671 1024.19 383.763 1022.26 384.221C1020.24 384.771 1017.86 383.579 1017.86 382.02C1017.86 380.828 1020.89 381.103 1022.72 382.479ZM784.027 385.78C784.027 386.238 783.293 386.697 782.468 386.697C781.093 386.697 781.001 386.513 782.193 385.78C783.935 384.68 784.027 384.68 784.027 385.78ZM1016.94 392.015C1017.03 392.291 1016.67 392.749 1016.12 392.932C1015.29 393.208 1011.44 387.981 1011.44 386.513C1011.44 385.78 1016.85 391.098 1016.94 392.015ZM805.118 389.631C809.428 391.832 813.371 396.692 813.371 399.81C813.371 401.736 815.755 405.037 817.222 405.037C817.68 405.037 819.239 403.753 820.706 402.102C822.907 399.718 823.549 399.443 824.741 400.452C828.409 403.386 823.549 411.456 818.139 411.456C814.838 411.456 814.104 412.373 813.646 416.866C812.82 425.761 794.756 433.372 789.162 427.228C786.686 424.385 784.944 418.975 784.944 413.748C784.944 409.071 785.127 408.705 787.145 408.705C788.337 408.705 789.804 408.154 790.354 407.421C792.005 405.404 790.079 402.286 787.236 402.286C785.127 402.286 784.944 401.919 784.944 398.343C784.944 395.408 785.494 393.849 787.053 392.382C792.555 387.247 798.515 386.33 805.118 389.631ZM818.872 388.256C818.781 389.906 817.222 391.465 816.672 390.457C816.305 389.906 816.305 388.989 816.58 388.531C817.222 387.43 818.872 387.339 818.872 388.256ZM828.868 391.374C830.151 395.133 830.243 395.042 827.584 393.849C825.2 392.749 824.925 392.291 825.842 389.998C826.667 387.706 827.767 388.256 828.868 391.374ZM1037.12 394.766C1037.12 398.343 1036.75 399.26 1035.1 399.993C1032.35 401.185 1031.89 404.487 1034.27 406.137C1036.11 407.421 1036.11 407.696 1034.92 411.822C1033.08 417.966 1031.25 419.709 1026.57 419.709C1023.64 419.709 1022.26 419.158 1020.34 417.141C1017.22 413.84 1015.11 408.705 1015.11 404.211C1015.11 401.277 1015.48 400.452 1017.22 399.993C1018.32 399.626 1020.7 397.976 1022.44 396.325C1027.49 391.649 1029.96 390.365 1033.63 390.365H1037.12V394.766ZM108.296 394.583C112.24 398.068 112.973 401.644 112.331 414.115C111.964 420.442 111.506 426.403 111.323 427.228C110.681 429.429 102.886 434.38 99.9519 434.38C97.2009 434.38 92.7993 430.254 90.2318 425.211C88.948 422.551 88.6729 420.075 88.7646 411.456C88.948 399.351 89.9567 395.5 93.3495 393.574C96.8341 391.649 105.637 392.199 108.296 394.583ZM1007.68 399.718C1007.68 403.845 1007.41 404.945 1006.86 403.661C1005.39 400.36 1005.85 394.033 1007.5 394.033C1007.68 394.033 1007.77 396.6 1007.68 399.718ZM1004.29 417.233C1003.92 419.617 1003.74 419.8 1003.19 418.333C1002.82 417.324 1002.27 415.032 1002 413.29L1001.35 410.08L1003 412.189C1004.1 413.656 1004.56 415.307 1004.29 417.233ZM556.522 422.001L551.57 427.044V422.46C551.57 417.966 551.57 417.875 554.779 417.324C556.522 417.049 558.631 416.774 559.364 416.591C562.023 416.132 561.565 417.049 556.522 422.001ZM572.202 416.407C572.202 416.682 571.835 417.141 571.285 417.416C570.827 417.691 570.368 417.508 570.368 417.049C570.368 416.499 570.827 416.041 571.285 416.041C571.835 416.041 572.202 416.224 572.202 416.407ZM583.206 416.407C583.206 416.682 582.839 417.141 582.289 417.416C581.83 417.691 581.372 417.508 581.372 417.049C581.372 416.499 581.83 416.041 582.289 416.041C582.839 416.041 583.206 416.224 583.206 416.407ZM79.2279 418.7C79.503 419.067 78.9528 420.167 77.9441 421.084C76.2018 422.735 76.1101 422.643 76.1101 420.35C76.1101 417.966 78.1275 416.866 79.2279 418.7ZM592.192 419.892C594.943 422.643 591.917 427.961 587.607 427.961C586.232 427.961 586.232 427.595 587.974 423.377C589.992 418.516 590.45 418.15 592.192 419.892ZM539.19 424.935C536.439 427.87 534.055 430.437 533.78 430.712C533.597 430.988 534.239 429.704 535.247 427.961C536.256 426.219 536.898 424.11 536.715 423.285C536.439 422.276 537.265 421.451 538.915 420.809C543.959 418.975 543.959 419.8 539.19 424.935ZM1026.66 427.044C1029.41 427.044 1029.6 427.32 1029.96 430.712C1030.24 434.105 1030.06 434.472 1027.49 435.297C1025.93 435.756 1022.72 435.848 1020.15 435.481C1015.2 434.747 1015.48 435.389 1015.84 427.044L1016.03 423.468L1019.97 425.211C1022.08 426.219 1025.1 427.044 1026.66 427.044ZM817.864 438.048C817.956 440.891 817.405 441.625 813.554 444.192C806.035 449.327 800.991 450.244 795.948 447.677C793.655 446.485 793.197 445.659 793.197 443C793.197 438.415 794.389 436.673 797.69 436.398C802.092 436.031 809.886 432.822 813.371 429.887L816.58 427.228L817.222 430.988C817.497 433.097 817.864 436.306 817.864 438.048ZM79.503 432.73C79.2279 433.372 79.0445 432.913 79.0445 431.629C79.0445 430.346 79.2279 429.887 79.503 430.437C79.6864 431.079 79.6864 432.18 79.503 432.73ZM540.749 436.306C539.557 439.24 536.439 442.725 536.439 441.258C536.439 440.249 541.391 432.546 541.758 432.913C541.941 433.097 541.483 434.656 540.749 436.306ZM564.958 435.022C564.499 435.939 564.133 437.04 564.041 437.59C564.041 438.048 563.032 438.69 561.932 438.782C559.914 439.149 559.914 439.057 562.482 436.306C565.6 433.097 566.242 432.73 564.958 435.022ZM574.403 437.498C574.128 438.323 573.211 438.965 572.385 438.965C571.193 438.965 571.285 438.69 572.661 437.131C574.495 435.022 575.32 435.206 574.403 437.498ZM593.293 440.524C593.293 441.166 592.926 441.716 592.376 441.716C591.917 441.716 591.459 440.616 591.459 439.149C591.459 437.223 591.642 436.948 592.376 438.048C592.834 438.782 593.293 439.974 593.293 440.524ZM552.028 438.415C552.028 438.69 551.661 439.149 551.111 439.424C550.653 439.699 550.194 439.516 550.194 439.057C550.194 438.507 550.653 438.048 551.111 438.048C551.661 438.048 552.028 438.232 552.028 438.415ZM109.672 441.258C110.314 443.917 109.03 445.843 105.179 447.86C102.428 449.236 100.961 448.502 100.869 445.659C100.869 445.109 100.594 444.009 100.319 443.183C99.9519 442.175 100.319 441.716 101.419 441.716C102.428 441.625 104.17 441.074 105.454 440.341C108.572 438.507 109.03 438.599 109.672 441.258ZM1012.45 442.358C1013 443.917 1012.82 444.192 1011.35 443.825C1009.24 443.275 1008.41 442.083 1009.15 440.708C1010.07 439.332 1011.62 440.157 1012.45 442.358ZM528.186 442.175C528.186 442.908 527.82 443.55 527.27 443.55C526.811 443.55 526.628 442.908 526.903 442.175C527.27 441.441 527.636 440.799 527.82 440.799C528.003 440.799 528.186 441.441 528.186 442.175ZM1038.95 442.633C1038.95 443.092 1038.49 443.55 1037.94 443.55C1037.48 443.55 1037.3 443.092 1037.57 442.633C1037.85 442.083 1038.31 441.716 1038.58 441.716C1038.77 441.716 1038.95 442.083 1038.95 442.633ZM737.719 451.987C742.396 460.331 751.749 470.418 760.552 476.47C768.346 481.789 774.307 484.723 783.935 487.566C787.511 488.666 790.446 489.858 790.446 490.133C790.446 491.234 780.359 529.656 777.608 538.917C764.953 581.832 748.723 625.665 731.208 664.545C726.99 673.898 723.689 682.06 723.964 682.793C724.331 683.71 723.872 683.894 722.405 683.435C712.043 680.684 701.039 680.592 693.612 683.16L689.852 684.535L683.066 675.732C679.307 670.872 670.503 659.502 663.443 650.332C656.29 641.253 648.771 631.442 646.57 628.507L642.535 623.189L646.112 620.254C672.612 598.705 690.677 568.169 696.454 534.699C698.563 522.687 698.563 501.137 696.546 489.4C695.262 481.88 692.236 469.685 690.769 465.833C690.494 465.191 690.952 464.641 691.686 464.641C693.428 464.641 711.585 456.48 723.964 450.153C729.007 447.585 733.317 445.476 733.592 445.476C733.867 445.476 735.701 448.41 737.719 451.987ZM576.604 448.41C580.638 450.611 583.573 455.563 587.607 467.209L591 477.02V501.321C591 531.123 590.542 533.232 582.747 538.459C575.136 543.502 564.774 548.087 559.731 548.637C556.155 549.096 553.312 548.546 545.151 545.886C533.964 542.31 528.92 539.284 526.811 535.249C524.977 531.765 522.868 516.818 522.134 502.696C521.401 490.317 522.685 478.671 525.527 470.418C526.536 467.484 527.545 462.073 527.911 458.406C528.278 453.362 528.828 451.528 530.112 450.886C531.763 449.969 546.343 447.493 553.862 446.851C562.665 446.118 573.578 446.851 576.604 448.41ZM837.854 451.711C845.557 454.004 849.133 457.305 849.133 462.44C849.133 465.191 848.491 466.017 843.54 469.685C832.261 478.029 816.947 483.348 805.851 482.797L800.074 482.522L799.799 478.671C799.432 474.086 797.782 472.344 795.122 473.811C793.655 474.545 793.197 475.737 793.197 478.396C793.197 481.422 792.83 482.064 791.455 482.064C788.062 482.064 777.975 478.396 770.731 474.453C763.395 470.51 763.395 470.51 763.12 466.567C762.844 462.807 763.12 462.257 767.429 458.13C771.097 454.554 773.39 453.362 779.442 451.436L786.87 449.052L788.887 450.978C792.647 454.462 796.223 455.838 801.908 455.838C806.401 455.838 808.419 455.288 813.095 452.812C816.213 451.161 819.423 449.052 820.248 448.135C821.715 446.485 821.99 446.485 826.484 448.135C829.143 449.052 834.186 450.703 837.854 451.711ZM513.881 450.428C512.964 451.895 512.047 452.537 511.864 451.895C511.497 450.794 514.432 446.851 515.074 447.585C515.349 447.768 514.798 449.144 513.881 450.428ZM120.309 451.528C122.143 452.995 124.711 455.471 126.086 457.122C128.562 460.056 128.562 460.148 126.911 461.432C123.702 463.907 115.999 467.3 110.589 468.768C107.563 469.501 105.087 470.051 104.995 469.868C104.904 469.776 104.537 466.567 104.17 462.807L103.62 455.838L106.554 454.738C108.205 454.187 110.864 452.628 112.331 451.345C115.816 448.502 116.366 448.502 120.309 451.528ZM79.3196 460.698C80.0532 466.567 79.503 466.75 73.1757 462.715C70.5165 460.973 68.7742 459.231 68.7742 458.222C68.7742 457.213 70.5165 455.288 72.7172 453.729L76.5686 451.07L77.5773 453.454C78.2192 454.829 78.9528 458.13 79.3196 460.698ZM86.197 451.253C86.197 451.528 85.8302 451.987 85.28 452.262C84.8215 452.537 84.363 452.353 84.363 451.895C84.363 451.345 84.8215 450.886 85.28 450.886C85.8302 450.886 86.197 451.07 86.197 451.253ZM517.366 470.418C515.991 474.82 514.615 478.396 514.157 478.396C512.781 478.396 512.414 475.553 513.698 474.453C514.432 473.811 515.991 470.785 517.183 467.575C518.283 464.458 519.383 461.982 519.567 462.073C519.658 462.257 518.741 466.017 517.366 470.418ZM168.084 498.845C185.324 516.451 201.83 533.507 204.672 536.625L209.991 542.402L207.698 547.445C204.947 553.314 202.655 563.309 202.655 569.178C202.655 576.239 205.222 585.776 209.165 593.937C212.192 599.897 214.667 603.29 220.169 608.884L227.414 616.036L222.737 630.891C214.942 655.65 202.471 687.653 189.909 715.071L187.158 721.215L180.922 719.381C174.32 717.455 159.923 716.722 153.963 718.006L150.753 718.647L149.561 709.294C145.985 679.767 135.073 606.408 127.828 563.218C124.436 542.952 113.065 479.863 112.331 477.479C112.056 476.47 113.798 475.37 118.75 473.536C122.418 472.16 127.92 469.226 130.854 467.025C135.623 463.541 136.173 463.357 136.448 464.916C136.631 465.925 150.845 481.147 168.084 498.845ZM601.454 487.291C601.087 490.225 600.72 495.269 600.537 498.57C600.354 503.797 600.262 503.246 599.528 494.168C598.886 486.374 598.886 483.439 599.712 482.522C601.637 480.23 602.096 481.697 601.454 487.291ZM514.34 496.002C514.34 500.587 514.248 504.163 514.065 503.98C513.881 503.797 513.056 500.129 512.139 495.819C511.314 491.509 510.397 487.291 510.122 486.374C509.663 484.723 509.755 484.723 511.956 486.19C514.157 487.566 514.248 488.116 514.34 496.002ZM246.854 523.604C238.326 528.005 233.466 535.433 233.924 543.411C234.108 546.803 233.741 548.179 232.182 549.738C229.431 552.489 228.881 555.331 230.165 561.292C231.265 566.702 233.741 570.553 236.583 571.47C237.592 571.837 238.417 572.846 238.417 573.855C238.417 574.863 239.059 577.156 239.793 578.898C240.527 580.64 241.352 584.125 241.719 586.509C242.269 590.819 242.177 590.911 239.701 591.553C238.234 591.919 233.833 594.12 229.889 596.321C225.946 598.613 222.187 600.264 221.637 600.081C219.986 599.439 214.392 589.719 212.467 583.942C210.174 577.339 209.441 566.244 210.908 559.825C214.759 542.952 227.138 529.014 243.002 523.604C250.613 521.036 251.897 521.036 246.854 523.604ZM275.739 524.612C290.503 530.389 301.415 542.585 304.899 557.349C307.467 568.536 306.091 581.741 301.231 591.002C297.563 598.155 297.747 597.972 294.262 596.138C292.52 595.221 287.66 593.203 283.35 591.553L275.556 588.618L275.647 584.125C275.739 578.256 277.665 571.929 280.049 569.361C281.699 567.436 281.975 566.06 281.975 558.449C281.975 550.105 281.883 549.646 279.499 547.629C276.931 545.428 276.748 544.328 276.931 531.673C276.931 528.922 273.813 525.438 270.054 523.695C265.285 521.586 269.87 522.32 275.739 524.612ZM265.744 534.883C268.77 536.992 269.779 539.468 270.42 546.62C270.879 552.489 271.154 553.131 273.08 553.406C274.914 553.681 275.097 554.231 275.097 559.641C275.097 564.226 274.822 565.51 273.722 565.51C272.988 565.51 272.163 566.61 271.796 567.986C269.228 579.357 267.853 582.383 264.093 584.308C255.382 588.802 244.836 580.732 244.836 569.453C244.836 566.152 244.47 565.418 242.361 564.318C240.893 563.584 239.334 563.218 238.784 563.401C237.592 563.768 236.583 560.833 236.583 556.982C236.583 555.423 236.95 554.598 237.592 554.965C238.051 555.331 239.61 555.331 240.893 554.965C243.094 554.414 243.186 554.139 242.636 550.38C241.902 545.611 244.194 540.109 248.046 537.634C254.19 533.599 262.168 532.315 265.744 534.883ZM584.581 555.607C585.407 565.51 586.599 564.135 570.918 572.021C561.198 577.064 559.731 577.523 556.246 576.972C550.286 576.055 531.396 568.903 531.488 567.527C531.579 566.977 531.671 562.576 531.763 557.807L531.854 549.188L539.924 552.397C553.771 558.082 565.508 557.349 578.162 550.013C580.73 548.546 583.023 547.354 583.298 547.262C583.664 547.17 584.215 550.93 584.581 555.607ZM594.026 580.64C590.817 588.618 584.49 607.783 581.922 617.779C580.455 623.097 579.171 628.049 578.896 628.782C578.621 629.516 577.704 627.224 576.787 623.739C575.87 620.163 574.311 615.028 573.211 612.277L571.285 607.325L575.411 603.565C580.547 598.797 580.272 597.421 572.294 589.444L566.242 583.391L578.621 576.789L591 570.187L593.476 573.121L595.86 575.964L594.026 580.64ZM606.222 576.789C604.022 579.082 602.83 578.348 604.205 575.689C604.847 574.497 605.764 574.038 606.681 574.405C607.965 574.863 607.873 575.23 606.222 576.789ZM530.204 576.606C536.898 579.265 553.771 584.767 555.329 584.767C557.163 584.767 557.072 585.134 552.028 593.478C547.168 601.456 546.435 604.666 549.094 605.491C549.919 605.766 551.295 606.316 552.12 606.775C552.945 607.233 555.238 607.967 557.163 608.517L560.74 609.434L560.465 617.045C560.006 630.066 560.373 629.883 554.504 620.713C548.36 611.084 533.597 591.277 527.086 583.666C523.602 579.723 522.685 577.981 523.143 576.606C523.877 574.221 524.243 574.221 530.204 576.606ZM617.593 578.898C618.877 579.448 618.693 579.907 616.584 582.108C613.192 585.684 612.275 585.409 614.109 581.557C614.934 579.815 615.759 578.348 615.851 578.348C615.943 578.348 616.768 578.623 617.593 578.898ZM509.205 584.4C508.196 585.959 507.462 586.417 507.279 585.684C507.004 585.042 507.554 583.942 508.563 583.208C510.947 581.466 511.039 581.649 509.205 584.4ZM517.824 597.605C514.707 600.906 512.047 603.565 511.864 603.473C511.681 603.382 512.598 600.723 513.881 597.513C515.257 594.395 516.266 591.461 516.266 591.094C516.266 590.727 516.724 589.26 517.274 587.793L518.283 585.225L520.942 588.343L523.602 591.553L517.824 597.605ZM642.81 588.251C642.81 589.077 631.348 599.439 630.431 599.439C630.156 599.439 632.265 596.779 635.199 593.478C639.968 588.068 642.81 586.142 642.81 588.251ZM601.454 592.286C599.07 596.963 594.943 603.29 594.577 602.832C593.843 602.098 598.52 591.461 600.17 590.085C603.196 587.518 603.563 588.16 601.454 592.286ZM620.161 594.028C618.785 596.688 616.676 599.439 615.576 600.081C614.109 601.089 614.75 599.622 617.868 594.945C620.161 591.461 622.27 588.71 622.453 588.893C622.637 589.077 621.628 591.369 620.161 594.028ZM259.05 592.928C260.609 592.928 263.36 592.378 265.285 591.736C268.403 590.544 268.678 590.636 268.678 592.194C268.678 595.312 261.067 597.421 253.548 596.321C249.788 595.679 249.421 595.404 249.421 593.111V590.452L252.906 591.736C254.74 592.378 257.583 592.928 259.05 592.928ZM650.146 593.937C646.02 599.164 644.644 599.622 648.312 594.579C649.963 592.194 651.797 590.269 652.255 590.269C652.714 590.269 651.705 591.919 650.146 593.937ZM662.984 592.836C662.984 593.295 661.884 594.579 660.6 595.862L658.124 598.063L659.683 595.037C661.058 592.378 662.984 591.094 662.984 592.836ZM487.839 598.063C487.197 598.797 486.28 599.439 485.822 599.439C485.271 599.439 485.363 598.797 486.005 598.063C486.647 597.33 487.564 596.688 488.022 596.688C488.573 596.688 488.481 597.33 487.839 598.063ZM525.436 608.884L518.741 615.486L521.951 609.526C523.785 606.224 525.894 602.19 526.719 600.539L528.278 597.513L530.204 599.897L532.13 602.373L525.436 608.884ZM292.52 602.923C292.52 603.932 290.503 605.858 289.586 605.858C289.127 605.858 289.219 605.032 289.769 604.024C290.778 602.19 292.52 601.456 292.52 602.923ZM486.463 613.285C484.079 618.329 483.529 620.254 484.263 621.538C486.28 625.481 489.306 623.189 498.293 610.901C499.026 609.892 499.851 609.251 500.127 609.526C500.402 609.801 498.476 613.835 496 618.512C491.69 626.49 491.323 626.948 489.398 625.94C485.638 624.014 478.761 619.154 478.669 618.42C478.669 617.687 488.664 606.775 489.306 606.775C489.49 606.775 488.206 609.709 486.463 613.285ZM264.918 609.617C267.303 610.443 267.853 611.084 267.394 612.643C267.119 613.652 266.844 615.028 266.844 615.669C266.844 616.678 258.958 618.512 258.224 617.687C258.041 617.503 257.583 615.578 257.216 613.469C256.757 610.259 256.849 609.617 258.316 609.251C261.067 608.517 261.892 608.609 264.918 609.617ZM538.732 611.451C539.282 612.277 535.614 617.228 534.881 616.586C534.422 616.036 536.806 610.443 537.54 610.443C537.907 610.443 538.457 610.901 538.732 611.451ZM249.238 616.678C246.67 617.137 246.395 616.586 247.771 613.652L248.871 611.084L249.972 613.744C250.98 616.128 250.889 616.403 249.238 616.678ZM592.376 618.329C592.376 618.604 591.551 619.888 590.542 621.171C588.616 623.647 588.066 622.547 589.625 619.521C590.542 617.87 592.376 617.045 592.376 618.329ZM637.217 618.054C637.033 618.145 635.841 619.062 634.557 620.071L632.265 621.905L634.007 619.796C635.016 618.695 636.208 617.779 636.667 617.779C637.217 617.779 637.4 617.87 637.217 618.054ZM568.534 623.647C567.892 624.289 567.617 623.556 567.709 621.355C567.709 618.42 567.8 618.329 568.626 620.438C569.176 621.905 569.176 623.005 568.534 623.647ZM505.262 626.49C503.519 629.791 501.961 632.45 501.594 632.45C501.319 632.45 500.218 631.9 499.21 631.167C497.559 629.883 497.651 629.608 502.419 624.748C505.17 621.905 507.646 619.888 507.921 620.071C508.104 620.346 506.912 623.189 505.262 626.49ZM545.243 620.713C545.884 621.722 542.125 625.573 541.299 624.839C540.749 624.289 543.042 619.612 543.867 619.612C544.234 619.612 544.876 620.071 545.243 620.713ZM523.143 623.189C522.868 623.739 522.134 624.197 521.584 624.197C521.034 624.197 521.034 623.647 521.768 622.822C523.051 621.263 524.152 621.63 523.143 623.189ZM609.065 629.057C606.956 631.167 605.214 633.642 605.214 634.468C605.214 635.843 599.253 638.686 598.336 637.769C597.878 637.402 611.633 625.114 612.458 625.114C612.733 625.114 611.174 626.857 609.065 629.057ZM671.054 671.698L683.433 687.561L678.298 692.697C668.853 702.142 665.093 712.504 666.102 725.525L666.652 733.044L659.5 733.686C655.648 734.053 640.701 735.52 626.305 736.987C594.577 740.288 492.607 750.742 492.149 750.742C491.965 750.742 491.507 746.891 491.232 742.214C489.856 720.665 480.136 700.216 464.364 685.728L458.404 680.317L466.565 669.405C474.176 659.318 487.197 640.703 489.398 636.668C490.315 634.926 490.682 635.018 497.926 638.319C528.737 652.349 564.958 655.1 597.419 645.747C608.056 642.629 620.619 637.127 629.606 631.625L636.667 627.224L647.67 641.529C653.723 649.415 664.268 662.986 671.054 671.698ZM550.653 633.092C548.452 634.651 548.085 634.193 549.277 630.983C550.286 628.507 550.378 628.416 551.295 630.066C552.12 631.442 551.937 632.084 550.653 633.092ZM516.632 631.167C516.908 631.9 516.724 633.367 516.266 634.376C515.715 635.385 515.532 636.577 515.807 637.035C516.541 638.227 516.266 638.136 512.689 636.944C511.13 636.393 509.847 635.66 509.847 635.385C509.847 634.559 514.615 629.699 515.44 629.699C515.807 629.699 516.357 630.341 516.632 631.167ZM538.365 640.061C537.815 641.529 536.715 642.537 535.706 642.537C532.588 642.537 532.588 641.253 535.706 638.686C539.007 636.027 539.741 636.393 538.365 640.061ZM585.315 639.786C585.04 640.887 584.581 641.529 584.306 641.253C583.848 640.703 584.765 637.952 585.407 637.952C585.59 637.952 585.59 638.778 585.315 639.786ZM558.814 642.17C559.639 644.188 559.548 644.371 557.989 644.371C557.255 644.371 556.613 643.546 556.613 642.537C556.613 640.336 557.989 640.061 558.814 642.17ZM548.819 643.454C548.544 643.913 547.902 644.371 547.352 644.371C546.893 644.371 546.526 643.913 546.526 643.454C546.526 642.904 547.168 642.537 547.993 642.537C548.727 642.537 549.094 642.904 548.819 643.454ZM951.378 663.17C958.805 665.095 967.425 669.222 974.211 674.082C980.538 678.575 993.376 691.596 999.611 699.849C1015.48 720.757 1017.68 734.053 1009.42 758.537C1001.63 781.645 986.498 807.412 980.63 807.504C978.062 807.596 972.285 805.578 963.574 801.452L956.513 798.151L955.963 793.382C955.137 787.147 955.871 779.352 957.888 771.099C959.355 765.506 959.906 764.497 961.556 764.497C964.949 764.497 969.626 760.554 970.91 756.703C972.377 752.301 971.001 739.28 968.525 734.786C967.425 732.769 966.966 729.101 966.783 721.857C966.141 694.347 955.871 679.309 936.431 677.658C928.361 677.016 914.148 678.758 908.646 681.143C902.685 683.71 893.882 693.063 890.398 700.491C886.913 708.01 885.721 714.338 885.905 725.066C885.996 731.485 885.629 734.511 884.529 736.529C882.512 740.38 882.695 749.275 884.804 754.135C886.546 757.803 890.398 760.829 893.607 760.829C894.524 760.829 894.983 761.746 894.983 763.855C894.983 768.44 897.55 777.243 899.751 780.361C901.402 782.653 901.768 784.487 901.768 791.365L901.86 799.709L897.367 803.102C892.232 806.954 878.752 814.014 876.368 814.014C874.259 814.014 862.521 802.827 857.753 796.133C852.434 788.522 846.841 776.601 844.457 767.706C841.981 758.353 841.247 742.398 842.623 732.311C844.548 718.923 853.076 697.098 857.294 694.897C858.211 694.347 860.045 692.146 861.421 689.854C866.098 681.876 877.377 673.715 890.673 668.763C909.563 661.611 936.156 659.135 951.378 663.17ZM426.034 672.798C447.766 678.392 466.656 693.43 475.918 712.595C482.612 726.35 483.712 731.302 483.712 747.533C483.712 759.087 483.346 762.388 481.603 768.44C479.403 776.326 474.451 786.688 470.141 792.649L467.39 796.592L463.997 793.474C460.513 790.356 453.268 787.147 445.566 785.404C441.439 784.487 441.256 784.212 440.706 780.728C440.339 778.71 440.339 775.226 440.706 773.117C441.164 769.632 441.806 768.807 445.199 766.789C459.779 758.353 464.822 733.136 456.111 713.329C452.351 704.801 438.963 693.43 427.042 688.57C416.589 684.352 394.122 686.369 383.76 692.422C379.451 694.989 374.132 700.583 371.656 705.076C369.272 709.661 369.364 720.39 371.931 723.874L373.857 726.442L371.106 729.926C368.814 732.677 368.172 734.42 367.897 738.821C367.438 745.515 368.63 748.633 373.123 752.851C375.691 755.235 376.791 757.069 377.25 759.912C378.167 765.872 382.202 773.484 387.062 778.527C391.647 783.295 394.214 787.972 392.839 789.164C392.38 789.531 389.262 790.631 385.961 791.457C375.049 794.299 365.054 800.351 360.194 807.045L357.626 810.622L349.098 802.002C339.653 792.374 335.71 786.23 331.584 775.226C329.108 768.348 328.833 766.698 328.833 755.786C328.741 744.598 328.924 743.498 331.4 737.904C332.776 734.603 334.335 729.743 334.701 727.084C335.527 721.674 340.387 710.945 344.88 704.251C346.531 701.775 350.565 697.007 353.867 693.522C372.94 673.715 399.441 666.012 426.034 672.798ZM717.545 689.762C725.89 691.871 735.426 696.915 740.837 702.142C745.055 706.176 745.697 707.185 745.238 709.478C744.871 710.945 745.33 714.062 746.155 716.355C748.814 724.333 745.697 735.428 738.636 743.315L735.151 747.074L731.3 743.498C729.191 741.572 726.532 739.647 725.431 739.28C724.422 739.005 723.505 737.996 723.505 737.079C723.505 736.254 723.047 735.062 722.405 734.42C721.58 733.594 721.855 732.769 723.689 730.843C729.558 724.516 731.208 716.813 728.09 709.661C723.689 699.482 712.777 693.43 702.69 695.631C694.345 697.557 689.76 704.434 692.419 710.853C693.153 712.595 693.612 718.464 693.612 726.992C693.703 738.454 693.978 740.747 695.262 742.214C696.821 743.865 696.729 744.14 693.428 747.349C691.503 749.183 689.485 750.742 688.935 750.742C686.918 750.742 678.94 741.664 676.28 736.345C674.263 732.219 673.621 729.376 673.254 723.599C672.796 714.521 674.355 709.111 679.49 701.958C687.835 690.221 701.865 685.819 717.545 689.762ZM904.978 695.906C901.31 700.124 897.917 703.884 897.459 704.434C895.533 706.543 899.659 699.574 902.227 696.273C904.703 693.155 910.205 688.387 911.305 688.387C911.489 688.387 908.646 691.78 904.978 695.906ZM929.37 695.723C929.645 696.181 929.278 696.64 928.453 696.64C927.628 696.64 927.261 696.181 927.536 695.723C927.811 695.173 928.27 694.806 928.453 694.806C928.636 694.806 929.095 695.173 929.37 695.723ZM922.492 696.09C922.492 696.273 921.851 696.64 921.117 697.007C920.383 697.282 919.742 697.098 919.742 696.64C919.742 696.09 920.383 695.723 921.117 695.723C921.851 695.723 922.492 695.906 922.492 696.09ZM439.605 704.801C439.88 705.259 439.147 706.268 437.863 707.093C435.387 708.744 435.112 708.469 436.487 705.718C437.496 703.884 438.78 703.425 439.605 704.801ZM943.95 705.901C946.884 708.194 950.186 714.429 952.386 721.857C955.412 732.127 954.129 758.812 949.819 772.567C947.618 779.902 942.208 785.863 936.247 787.422C929.003 789.347 914.79 784.946 908.921 778.894C904.428 774.309 903.327 770.091 901.402 752.209L899.568 735.428L902.685 726.534C909.104 708.102 914.331 704.342 934.047 704.067C940.374 703.976 941.841 704.251 943.95 705.901ZM425.85 711.495C424.108 714.521 423.466 714.979 422.182 713.971C421.082 713.054 421.174 712.687 422.457 711.678C424.567 710.119 426.767 710.028 425.85 711.495ZM446.574 712.595C446.574 713.604 442.998 715.896 441.439 715.896C441.164 715.896 441.806 714.613 442.906 713.146C444.832 710.486 446.574 710.211 446.574 712.595ZM713.785 712.779C717.087 714.062 715.069 723.324 710.759 727.267C708.925 729.009 708.742 729.009 705.166 727.359C701.039 725.525 701.131 725.617 702.506 723.141C703.24 721.674 703.148 720.757 702.048 719.106C701.223 717.822 700.581 716.447 700.581 715.988C700.581 713.421 709.751 711.22 713.785 712.779ZM380.551 714.062C380.551 714.521 379.726 715.346 378.717 715.896C377.342 716.63 376.883 716.63 376.883 715.621C376.883 714.888 377.158 714.062 377.525 713.787C378.442 712.87 380.551 713.054 380.551 714.062ZM413.929 718.097C418.239 719.931 420.624 722.499 421.724 726.625C423.191 731.669 423.008 731.76 419.615 728.092C416.68 724.883 416.13 724.7 409.895 724.333C403.659 723.966 403.201 724.058 399.808 726.809C396.782 729.285 396.14 729.468 395.131 728.184C393.297 725.983 389.171 724.149 386.053 724.149C382.843 724.149 382.568 723.232 385.136 720.94C389.354 717.18 407.419 715.346 413.929 718.097ZM894.891 725.617C894.249 727.267 893.699 727.817 893.424 727.084C893.149 726.35 893.516 724.791 894.157 723.508C895.716 720.573 896.267 722.132 894.891 725.617ZM175.328 725.158C183.673 726.9 194.219 732.586 200.546 738.73C203.755 741.847 206.69 744.323 207.148 744.323C207.882 744.323 209.165 748.266 210.908 756.244C211.366 758.537 211.825 764.955 211.825 770.549C211.825 784.029 209.165 792.924 202.471 802.002L201.004 804.111L195.594 802.369C191.559 800.993 190.184 800.076 190 798.609C189.817 797.509 188.35 795.124 186.607 793.29L183.581 790.081L184.682 784.671C185.232 781.645 186.424 778.71 187.341 778.068C189.542 776.418 190.551 768.715 190.459 755.786C190.275 746.065 190 744.232 187.983 740.197C185.14 734.511 181.197 731.76 174.503 730.935C168.634 730.202 156.989 731.669 152.22 733.686C141.675 738.088 135.898 746.616 136.998 756.061C137.365 758.995 137.64 762.296 137.548 763.58C137.09 774.584 138.832 782.287 142.133 783.295C144.426 784.029 145.251 787.972 143.509 790.448C142.775 791.548 142.133 794.207 142.133 796.408C142.133 800.81 140.85 803.928 139.107 803.928C138.465 803.928 136.448 804.753 134.614 805.762L131.221 807.504L127.737 803.561C123.702 798.884 118.75 789.439 117.466 783.662C115.082 773.3 116.824 760.554 122.235 750.375C125.719 743.59 136.265 732.861 142.684 729.376C151.945 724.516 164.325 722.866 175.328 725.158ZM389.721 733.044C393.664 738.088 390.363 749.825 384.953 749.825C383.669 749.825 383.302 749.092 383.302 746.157C383.302 742.764 383.485 742.489 385.044 743.406C388.896 745.424 391.922 741.022 389.813 736.345C388.896 734.42 388.345 734.145 386.053 734.603C383.76 734.97 383.302 734.786 383.302 733.411C383.302 731.669 384.402 730.752 386.695 730.66C387.245 730.568 388.621 731.669 389.721 733.044ZM414.021 732.127C419.89 737.904 416.314 749.825 408.794 749.825C402.559 749.825 398.157 743.773 399.9 737.629C400.908 734.053 402.834 731.944 404.668 732.677C405.31 732.953 406.869 732.586 408.152 731.852C411.087 730.202 412.187 730.293 414.021 732.127ZM452.993 732.861C452.993 733.594 452.626 734.236 452.076 734.236C451.618 734.236 451.159 733.594 451.159 732.861C451.159 732.127 451.618 731.485 452.076 731.485C452.626 731.485 452.993 732.127 452.993 732.861ZM427.959 736.896C430.894 738.454 433.461 738.088 435.479 735.979L437.221 734.053L438.23 735.979C440.797 740.747 440.064 753.401 437.129 753.585C436.487 753.585 434.837 753.768 433.278 753.768C430.985 753.952 430.16 754.777 427.501 759.454C421.174 770.733 415.855 775.593 407.877 777.243C399.166 779.169 392.013 775.226 387.52 766.148C384.311 759.637 384.402 757.803 388.162 756.427C389.904 755.786 392.197 754.318 393.389 753.035L395.498 750.834L398.616 753.218C400.266 754.502 401.458 755.877 401.092 756.152C400.816 756.427 398.066 756.886 394.948 757.161C389.538 757.62 389.262 757.711 388.987 760.095C388.712 762.113 389.171 762.846 391.096 763.58C394.581 764.864 398.341 764.68 402.559 763.03C405.31 761.929 406.227 761.012 406.227 759.454C406.227 757.711 406.777 757.344 410.262 756.978C418.79 755.969 424.016 748.633 423.466 738.363C423.191 732.769 423.283 732.402 424.567 734.053C425.392 734.97 426.859 736.254 427.959 736.896ZM778.525 737.446C795.489 738.821 825.108 741.847 831.344 742.948L834.186 743.406L834.828 752.118C835.929 768.348 841.43 784.854 850.05 797.6C852.251 800.81 857.386 806.862 861.513 810.988C865.731 815.207 868.482 818.599 867.748 818.599C867.106 818.599 862.246 821.442 857.111 824.835C844.365 833.363 820.248 848.127 786.319 868.117C757.251 885.356 733.684 899.753 721.947 907.639C718.279 910.115 714.977 912.132 714.611 912.132C714.244 912.132 712.41 909.565 710.668 906.447C706.541 899.203 696.087 888.749 688.66 884.439C685.45 882.514 682.333 880.863 681.874 880.68C681.141 880.405 681.141 879.946 681.874 879.029C682.424 878.296 683.158 876.737 683.525 875.453C694.345 834.372 701.223 798.884 703.882 770.366L704.432 763.855L710.301 763.763C726.348 763.58 742.671 753.585 749.731 739.555L752.024 734.97L756.334 735.52C758.718 735.887 768.713 736.712 778.525 737.446ZM375.966 740.747C375.966 742.948 375.599 744.232 375.049 743.865C373.49 742.948 374.04 736.987 375.691 736.987C375.874 736.987 375.966 738.638 375.966 740.747ZM892.965 748.45V753.035L891.773 750.284C890.398 747.258 890.031 742.306 891.04 741.205C892.14 740.197 893.057 743.498 892.965 748.45ZM963.665 750.375C963.757 753.768 963.299 755.419 962.198 756.336C960.823 757.528 960.731 757.161 961.281 751.751C961.648 748.541 962.015 744.598 962.015 743.039L962.106 740.197L962.84 742.948C963.207 744.415 963.574 747.808 963.665 750.375ZM717.087 741.939C717.087 742.122 716.353 742.856 715.528 743.498C714.06 744.69 713.969 744.598 715.161 743.131C716.353 741.664 717.087 741.205 717.087 741.939ZM728.824 750.559C729.283 751.934 722.772 754.777 715.711 756.244C710.117 757.436 702.598 756.978 698.197 755.327L695.629 754.318L697.646 752.393C699.389 750.559 699.847 750.559 704.891 751.567C711.31 752.943 716.536 751.934 720.479 748.45C722.955 746.341 723.139 746.341 725.706 747.808C727.173 748.725 728.549 749.917 728.824 750.559ZM172.027 749.733C176.887 751.934 179.913 756.244 180.372 761.654C180.83 766.239 177.713 786.23 176.154 789.164C174.687 791.732 169.276 793.199 163.133 792.649C153.412 791.823 150.57 788.064 148.461 773.025C147.544 766.423 147.544 763.855 148.369 760.921C151.487 750.65 162.491 745.424 172.027 749.733ZM145.343 750.65C145.618 751.109 145.435 751.751 144.884 752.118C144.426 752.393 143.967 752.026 143.967 751.292C143.967 749.642 144.518 749.367 145.343 750.65ZM447.491 754.685C447.491 754.869 446.574 755.786 445.566 756.794C443.548 758.537 443.548 758.537 444.832 756.427C445.932 754.685 447.491 753.677 447.491 754.685ZM432.819 776.143C432.819 779.627 433.186 783.937 433.645 785.863C434.378 788.981 434.287 789.439 431.902 791.09C422.641 797.692 408.978 801.085 402.467 798.426C399.808 797.325 399.624 796.958 400.175 793.932C400.45 792.098 400.725 789.531 400.725 788.247C400.725 785.955 401 785.771 406.318 785.313C413.929 784.671 420.807 781.095 426.217 774.951C428.601 772.291 431.077 769.999 431.719 769.999C432.453 769.999 432.819 771.833 432.819 776.143ZM916.899 792.649C921.851 794.666 924.418 795.124 931.204 795.216C938.54 795.216 939.915 794.941 943.858 792.74L948.168 790.264V794.391C948.168 796.592 948.26 798.701 948.352 799.068C948.718 800.26 939.732 804.661 934.964 805.762C931.754 806.403 928.911 806.403 924.968 805.67C918.733 804.569 910.572 800.81 910.48 799.068C910.48 798.517 910.297 796.225 910.021 794.024C909.746 791.915 909.838 790.173 910.205 790.173C910.572 790.173 913.598 791.273 916.899 792.649ZM449.417 793.749C457.12 796.408 459.229 797.6 460.879 800.076C462.438 802.369 462.347 802.46 458.862 805.486C449.325 813.831 437.496 820.25 425.484 823.735C420.715 825.11 416.68 825.477 405.768 825.385C393.572 825.385 391.096 825.11 383.944 822.909C375.874 820.433 365.604 815.757 364.595 814.106C362.945 811.447 374.774 802.736 384.586 799.251L389.904 797.417L392.288 799.893C397.974 805.578 407.052 807.596 416.68 805.395C423.558 803.744 436.029 797.692 439.422 794.299C442.081 791.64 443.273 791.548 449.417 793.749ZM152.587 797.05C153.596 797.784 156.714 798.884 159.648 799.434L164.966 800.443L163.408 803.836C162.582 805.67 161.849 807.229 161.849 807.229C161.849 807.32 158.731 806.862 154.971 806.22C149.744 805.395 148.186 804.845 148.461 803.836C148.644 803.102 149.011 800.993 149.286 799.068C149.744 795.308 150.02 795.124 152.587 797.05ZM183.123 801.452C182.848 802.277 180.647 803.744 178.263 804.845C169.001 808.879 167.167 808.054 172.853 802.369C174.595 800.626 176.062 798.976 176.062 798.701C176.062 798.426 176.796 797.6 177.713 796.958C178.996 795.95 179.547 796.133 181.472 797.967C182.756 799.159 183.398 800.718 183.123 801.452ZM955.504 806.128C955.504 806.312 954.862 806.954 954.129 807.596C953.028 808.513 952.753 808.513 952.753 807.229C952.753 806.403 953.395 805.762 954.129 805.762C954.862 805.762 955.504 805.945 955.504 806.128ZM184.682 813.281C184.223 815.573 183.398 816.857 181.839 817.591C178.996 818.875 178.905 818.875 179.455 815.115C179.822 813.098 180.739 811.722 182.389 810.897C183.673 810.163 184.865 809.705 184.957 809.796C185.049 809.888 184.957 811.447 184.682 813.281ZM886.271 819.516C885.996 819.975 885.263 820.433 884.804 820.433C884.254 820.433 884.162 819.975 884.437 819.516C884.712 818.966 885.446 818.599 885.905 818.599C886.455 818.599 886.546 818.966 886.271 819.516ZM904.795 823.918C903.878 824.835 903.236 826.119 903.236 826.669C903.236 827.861 901.86 827.953 899.201 826.944C897.642 826.302 897.917 825.935 901.402 823.826C905.803 821.259 907.179 821.259 904.795 823.918ZM955.688 825.202C955.321 825.477 953.854 826.119 952.295 826.486L949.544 827.127L952.295 824.835C954.22 823.184 955.229 822.726 955.688 823.459C956.054 824.101 956.054 824.835 955.688 825.202ZM894.066 824.101C894.066 824.56 893.882 825.018 893.699 825.018C893.424 825.018 892.965 824.56 892.69 824.101C892.415 823.551 892.599 823.184 893.057 823.184C893.607 823.184 894.066 823.551 894.066 824.101ZM932.121 827.769L932.213 831.437H927.169C923.96 831.437 922.492 831.071 923.043 830.612C924.418 829.237 931.112 824.193 931.662 824.101C931.938 824.101 932.121 825.752 932.121 827.769ZM914.79 827.678C913.323 829.237 911.58 830.154 910.847 829.878C909.93 829.512 910.388 828.778 912.589 827.219C916.807 824.285 917.816 824.468 914.79 827.678ZM944.409 826.761C946.151 828.503 946.151 828.595 943.308 829.145C941.658 829.512 939.549 829.97 938.54 830.245C936.981 830.612 937.164 830.245 939.365 827.861C940.924 826.302 942.208 825.018 942.391 825.018C942.575 825.018 943.492 825.844 944.409 826.761ZM670.687 884.256C688.843 888.933 704.615 904.43 710.117 923.045C712.043 929.464 712.043 941.843 710.117 949.179C708.375 956.056 704.157 964.859 700.397 969.353C697.921 972.287 697.28 972.654 694.712 972.195C687.101 970.636 683.066 968.711 678.481 964.218C673.805 959.633 673.713 959.541 674.63 956.24C675.73 952.572 679.307 943.585 680.499 941.476C682.516 938.083 683.341 935.057 683.8 929.372C684.258 923.87 684.167 923.228 682.333 922.128C681.324 921.394 680.407 920.019 680.407 918.918C680.407 914.608 677.564 907.823 674.63 904.98C671.42 901.862 664.726 899.295 659.775 899.295C654.915 899.295 647.579 901.954 644.002 905.072C640.518 908.098 637.4 913.966 637.308 917.268C637.308 918.368 636.208 919.927 634.924 920.844C632.54 922.403 632.54 922.586 633.09 928.822C633.64 934.69 634.741 938.45 636.391 939.642C636.667 939.917 637.859 942.852 638.959 946.153C641.435 953.58 641.618 959.541 639.417 961.375C635.566 964.309 622.545 972.837 622.27 972.562C619.886 969.995 615.667 961.467 613.833 955.69C607.139 934.507 611.999 913.416 627.13 898.286C640.151 885.265 655.465 880.313 670.687 884.256ZM668.486 908.923C673.163 913.141 674.997 922.403 673.071 931.756C671.604 938.725 669.586 940.834 665.643 939.459C663.993 938.909 660.417 938.725 656.932 939.092C646.937 940.101 643.727 936.983 643.727 926.071C643.727 915.8 646.112 910.757 652.439 907.914C656.474 905.989 666.01 906.631 668.486 908.923ZM652.622 960.733C656.382 962.75 662.067 963.117 665.002 961.558C669.495 959.174 668.028 964.401 662.342 971.187L657.941 976.322L656.29 974.304C651.797 968.619 648.312 962.842 648.312 961.008C648.312 958.441 648.404 958.441 652.622 960.733ZM676.189 972.837C675.363 974.121 673.346 973.663 672.704 972.104C671.787 969.811 672.979 968.894 674.905 970.545C675.822 971.37 676.464 972.379 676.189 972.837ZM676.28 987.326C676.005 987.784 674.997 988.243 674.171 988.243C672.796 988.243 672.796 988.059 673.988 987.326C675.822 986.134 677.014 986.134 676.28 987.326ZM669.403 989.16C669.403 989.618 668.578 990.077 667.477 990.077C666.469 990.077 665.918 989.618 666.194 989.16C666.469 988.61 667.386 988.243 668.119 988.243C668.853 988.243 669.403 988.61 669.403 989.16Z" fill="black"/>
<path d="M604.019 35.1232C602.643 36.4987 603.469 40.0749 605.303 40.9919C607.778 42.3674 609.979 40.5334 609.612 37.4156C609.429 35.6734 608.787 34.9398 607.045 34.7564C605.761 34.573 604.386 34.7564 604.019 35.1232Z" fill="black"/>
<path d="M851.15 171.387C848.399 174.138 851.425 178.448 854.818 176.614C857.569 175.147 856.285 170.287 853.259 170.287C852.708 170.287 851.791 170.745 851.15 171.387Z" fill="black"/>
<path d="M651.799 183.676C650.974 185.326 650.974 186.427 651.707 187.527C653.725 190.828 658.401 189.453 658.401 185.51C658.401 181.108 653.541 179.733 651.799 183.676Z" fill="black"/>
<path d="M637.488 183.308C635.196 185.601 636.938 189.544 640.239 189.544C641.064 189.544 642.256 188.719 642.807 187.802C643.999 185.509 643.999 185.326 642.256 183.675C640.514 181.933 638.955 181.841 637.488 183.308Z" fill="black"/>
<path d="M424.293 283.169C422.367 284.269 422.184 288.854 424.11 290.413C426.494 292.339 429.153 290.688 429.153 287.204C429.153 283.627 426.861 281.793 424.293 283.169Z" fill="black"/>
<path d="M408.979 285.462C407.145 287.571 408.887 291.697 411.638 292.064C415.214 292.614 416.773 288.213 413.93 285.462C412.096 283.628 410.446 283.628 408.979 285.462Z" fill="black"/>
<path d="M418.42 305.727C414.936 306.185 413.194 308.019 414.019 310.587C414.477 312.054 415.394 312.421 418.879 312.421C424.748 312.421 427.132 311.596 427.774 309.487C428.966 305.819 426.398 304.718 418.42 305.727Z" fill="black"/>
<path d="M796.313 404.669C795.579 407.512 796.863 408.979 799.614 408.521C804.474 407.879 803.924 402.285 799.064 402.285C797.505 402.285 796.771 402.927 796.313 404.669Z" fill="black"/>
<path d="M1024.28 401.276C1023.82 402.285 1023.36 403.294 1023.36 403.569C1023.36 404.303 1026.21 406.87 1027.03 406.87C1028.04 406.87 1030.7 404.211 1030.7 403.202C1030.7 401.918 1027.95 399.534 1026.57 399.534C1025.84 399.534 1024.83 400.359 1024.28 401.276Z" fill="black"/>
<path d="M92.798 406.137C90.047 408.888 93.0731 413.198 96.466 411.364C98.4834 410.264 98.6668 406.321 96.6494 405.587C94.632 404.853 94.0818 404.853 92.798 406.137Z" fill="black"/>
<path d="M104.168 406.412C102.426 408.246 102.334 408.796 103.893 410.905C106.277 414.206 111.596 410.538 109.487 407.054C108.111 404.945 106.002 404.67 104.168 406.412Z" fill="black"/>
<path d="M535.613 477.388C529.194 479.68 527.819 481.698 530.386 485.366C531.578 486.924 531.945 487.016 534.788 485.824C536.438 485.182 540.106 484.357 542.857 483.99C549.001 483.256 550.193 482.615 550.193 479.68C550.193 475.554 543.958 474.545 535.613 477.388Z" fill="black"/>
<path d="M562.298 476.195C559.364 476.929 558.264 479.496 559.914 481.88C561.015 483.531 562.207 483.806 566.975 483.806C570.093 483.806 573.944 484.173 575.595 484.631C581.28 486.465 583.848 480.23 578.437 477.662C575.778 476.379 565.691 475.462 562.298 476.195Z" fill="black"/>
<path d="M568.716 485.915C565.965 488.666 568.258 493.984 572.109 493.984C576.144 493.984 577.244 489.858 574.035 486.648C571.926 484.539 570.275 484.356 568.716 485.915Z" fill="black"/>
<path d="M538.454 486.832C535.794 489.492 539.004 494.443 543.039 493.802C545.514 493.435 546.523 489.308 544.597 487.016C543.314 485.457 539.921 485.365 538.454 486.832Z" fill="black"/>
<path d="M546.893 522.87C543.958 527.455 547.168 528.922 559.822 529.105C568.167 529.197 570.368 528.28 570.368 524.52C570.368 521.769 570.184 521.769 558.172 521.219C548.727 520.761 548.177 520.852 546.893 522.87Z" fill="black"/>
<path d="M247.863 549.647C246.213 550.289 246.396 554.048 248.138 555.516C250.981 557.9 254.557 553.223 252.173 550.38C250.981 549.005 249.881 548.821 247.863 549.647Z" fill="black"/>
<path d="M262.347 550.746C261.063 553.13 263.081 555.698 266.015 555.239C267.482 555.056 268.308 554.322 268.491 552.764C269.041 549.096 264.09 547.445 262.347 550.746Z" fill="black"/>
<path d="M253.181 570.92C250.98 574.955 255.474 577.339 262.259 575.78C265.01 575.138 265.469 574.68 265.469 572.387C265.469 569.636 265.377 569.636 259.784 569.361C254.923 569.086 254.006 569.361 253.181 570.92Z" fill="black"/>
<path d="M907.727 725.342C904.426 727.084 903.6 728.001 903.417 730.385C903.142 732.769 903.509 733.32 905.434 733.87C906.993 734.237 908.644 733.87 910.294 732.861C911.67 731.944 914.146 731.211 915.796 731.302C919.097 731.394 921.573 729.56 921.573 726.901C921.573 722.866 914.054 722.041 907.727 725.342Z" fill="black"/>
<path d="M931.386 724.334C930.194 725.159 929.736 726.534 930.011 728.277C930.286 730.936 930.469 731.028 934.871 731.119C937.439 731.119 940.74 731.761 942.39 732.403C944.775 733.504 945.508 733.504 946.792 732.403C948.809 730.753 948.167 727.91 945.233 725.709C942.115 723.325 933.771 722.591 931.386 724.334Z" fill="black"/>
<path d="M937.254 734.603C934.411 737.996 938.079 744.048 941.564 741.939C944.865 739.83 943.673 733.32 939.913 733.32C938.996 733.32 937.804 733.87 937.254 734.603Z" fill="black"/>
<path d="M912.13 734.879C911.763 735.154 911.488 736.804 911.488 738.455C911.488 742.123 914.056 744.049 916.99 742.49C919.099 741.389 919.466 737.08 917.724 735.337C916.532 734.145 913.139 733.87 912.13 734.879Z" fill="black"/>
<path d="M918.823 763.03C917.356 764.498 917.723 767.982 919.557 768.899C924.234 771.375 937.346 770.733 939.089 768.074C940.189 766.423 940.097 766.057 938.814 764.223C937.897 762.939 935.788 762.572 928.727 762.389C923.592 762.205 919.373 762.48 918.823 763.03Z" fill="black"/>
<path d="M705.624 719.198C703.882 721.032 704.157 723.141 706.358 724.517C709.751 726.626 713.419 721.307 710.118 718.923C708.008 717.364 707.458 717.456 705.624 719.198Z" fill="black"/>
<path d="M405.492 735.795C404.391 737.996 405.4 742.581 407.234 743.682C410.719 745.882 413.653 741.481 411.819 736.712C410.719 733.778 406.776 733.228 405.492 735.795Z" fill="black"/>
<path d="M168.724 764.038C167.165 765.872 168.265 769.632 170.558 770.274C172.667 770.824 175.143 768.807 175.143 766.423C175.143 763.03 170.925 761.379 168.724 764.038Z" fill="black"/>
<path d="M153.592 765.414C152.859 767.798 154.601 770.916 156.71 770.916C159.186 770.916 160.745 768.532 160.103 765.873C159.645 764.039 158.911 763.58 156.802 763.58C154.968 763.58 153.959 764.13 153.592 765.414Z" fill="black"/>
<path d="M158.454 779.261C154.328 781.553 158.271 786.505 164.139 786.505C168.816 786.505 171.017 784.671 170.192 781.553C169.641 779.444 169.183 779.169 166.615 779.261C165.056 779.352 162.856 779.261 161.847 778.894C160.838 778.619 159.279 778.71 158.454 779.261Z" fill="black"/>
<path d="M648.954 924.145C646.937 925.337 646.937 929.188 648.954 930.381C651.247 931.573 653.814 929.922 653.814 927.263C653.814 924.604 651.247 922.953 648.954 924.145Z" fill="black"/>
<path d="M663.078 926.071C662.436 927.721 662.619 928.638 663.995 930.014C666.287 932.398 668.947 930.931 668.947 927.171C668.947 924.97 668.488 924.42 666.379 924.237C664.453 923.962 663.72 924.42 663.078 926.071Z" fill="black"/>
<path d="M399.532 911.582C390.362 914.884 384.402 921.394 381.284 931.665C379.633 937.166 379.45 939.551 379.908 948.721C380.55 962.017 381.651 966.235 384.585 966.235C388.07 966.235 388.987 964.309 387.886 959.358C387.336 956.973 387.061 954.773 387.336 954.589C388.161 953.764 389.537 957.615 390.179 962.292C390.821 966.877 390.729 967.152 388.436 968.069C383.21 969.995 386.878 975.68 397.331 981.641C406.685 986.959 421.54 988.335 431.168 984.667C442.172 980.448 451.159 971.462 455.285 960.55C457.853 953.764 456.936 940.009 453.451 932.765C448.316 922.036 438.046 914.425 424.749 911.582C417.047 910.024 404.117 910.024 399.532 911.582ZM433.094 921.853C442.08 926.438 448.591 935.699 449.875 945.786C450.517 951.105 450.608 951.013 444.465 952.022C438.321 953.03 437.22 955.048 437.495 964.676L437.771 973.021L433.828 975.588C429.976 977.973 423.099 979.99 418.605 979.99C416.405 979.99 416.313 979.715 416.313 974.488C416.313 969.353 416.496 968.986 419.064 967.611C422.457 965.868 425.941 960.733 427.317 955.323C428.601 950.463 428.692 938.45 427.5 934.507C426.858 932.49 426.95 931.298 427.867 930.014C429.701 927.538 429.426 923.778 427.225 920.936L425.299 918.552L427.684 919.469C429.059 919.927 431.443 921.027 433.094 921.853ZM418.605 933.223C420.439 933.223 421.265 936.8 419.889 939.276C418.972 941.11 418.972 941.751 420.439 943.31C422.365 945.419 421.907 950.463 419.064 956.79C416.955 961.65 415.029 961.834 408.427 958.074C403.75 955.415 402.008 952.847 401.458 947.895C401.274 946.153 400.541 945.511 398.707 945.328C395.956 944.961 395.589 944.136 397.056 941.568C397.606 940.376 398.615 940.009 400.082 940.284C401.733 940.651 402.833 940.101 404.209 937.992C406.593 934.691 412.92 931.94 416.13 932.857C416.863 933.04 417.964 933.223 418.605 933.223ZM405.126 964.401C409.619 967.244 409.986 967.794 409.527 970.178C409.252 971.645 408.977 974.03 408.977 975.497C408.977 978.798 407.602 978.89 401.641 975.863L397.056 973.571V967.702C397.056 963.851 397.423 961.65 398.248 961.375C399.624 960.733 399.349 960.641 405.126 964.401Z" fill="black"/>
<path d="M411.45 939.734C409.433 940.926 409.433 945.053 411.359 945.787C414.935 947.162 418.053 941.568 414.752 939.826C413.651 939.184 412.459 939.184 411.45 939.734Z" fill="black"/>
<path d="M1051.79 1111.76C1051.79 1112.31 1051.51 1113.41 1051.24 1114.24C1050.87 1115.34 1051.24 1115.7 1052.61 1115.7C1053.71 1115.7 1054.54 1115.34 1054.54 1114.97C1054.54 1113.78 1051.88 1110.57 1051.79 1111.76Z" fill="black"/>
<path d="M1090.3 1114.33C1090.3 1118.55 1090.94 1119.19 1094.06 1117.54C1097.36 1115.7 1095.71 1110.2 1091.95 1110.2C1090.58 1110.2 1090.3 1110.94 1090.3 1114.33Z" fill="black"/>
<path d="M1120.56 1110.66C1119.65 1111.76 1119.74 1112.13 1121.02 1112.59C1123.13 1113.41 1124.69 1111.67 1123.04 1110.29C1122.03 1109.47 1121.48 1109.56 1120.56 1110.66Z" fill="black"/>
<path d="M1120.56 1114.79C1118.91 1115.8 1120.2 1118.64 1122.12 1118.27C1123.04 1118.09 1123.86 1117.36 1124.05 1116.53C1124.41 1114.79 1122.31 1113.69 1120.56 1114.79Z" fill="black"/>
<path d="M1129.92 1113.41C1129 1115.43 1129.09 1115.7 1130.65 1115.7C1132.02 1115.7 1132.48 1115.06 1132.48 1113.41C1132.48 1112.13 1132.12 1111.12 1131.75 1111.12C1131.29 1111.12 1130.47 1112.13 1129.92 1113.41Z" fill="black"/>
<path d="M1148.71 1112.95C1147.25 1114.97 1147.25 1115.25 1148.62 1115.52C1150.55 1115.98 1151.01 1115.34 1150.64 1112.77L1150.36 1110.66L1148.71 1112.95Z" fill="black"/>
<path d="M1166.96 1114.7C1166.04 1116.16 1167.42 1118.55 1169.07 1118.27C1171 1117.91 1171 1114.42 1168.98 1114.05C1168.15 1113.87 1167.24 1114.15 1166.96 1114.7Z" fill="black"/>
<path d="M1195.02 1115.89C1195.2 1117.08 1195.94 1118 1196.67 1118C1197.41 1118 1198.14 1117.08 1198.32 1115.89C1198.6 1114.33 1198.14 1113.87 1196.67 1113.87C1195.2 1113.87 1194.75 1114.33 1195.02 1115.89Z" fill="black"/>
<path d="M0 1115.71C0 1117.17 0.641894 1117.54 3.30117 1117.54C5.96044 1117.54 6.51063 1117.26 6.05214 1116.07C5.77704 1115.25 5.50194 1114.42 5.50194 1114.24C5.50194 1114.05 4.30986 1113.87 2.75097 1113.87C0.641894 1113.87 0 1114.24 0 1115.71Z" fill="black"/>
<path d="M1150 1140.19C1148.9 1142.39 1150.18 1144.59 1152.11 1143.86C1153.94 1143.12 1154.03 1141.01 1152.29 1139.64C1151.19 1138.72 1150.73 1138.9 1150 1140.19Z" fill="black"/>
<path d="M1183.28 1139.91C1182.55 1141.93 1183.56 1144.41 1185.03 1143.86C1185.58 1143.67 1186.13 1142.57 1186.13 1141.38C1186.13 1138.9 1184.11 1137.8 1183.28 1139.91Z" fill="black"/>
</svg>
