<svg width="447" height="604" viewBox="0 0 447 604" fill="none" xmlns="http://www.w3.org/2000/svg">
<path fill-rule="evenodd" clip-rule="evenodd" d="M1.34529 468.943L340.66 495.891L341.016 498.198C346.702 535.243 349.574 560.375 349.632 573.594L349.632 573.999C349.632 587.107 353.655 607.954 361.699 636.54L362.197 638.3L0.871699 638.93L-3.39062 552.886L1.34529 468.943ZM202.224 284.309C216.021 284.99 229.926 290.908 231 294.689C233.392 303.112 237.238 339.164 249.888 344.703C262.537 350.243 289.542 345.193 297.263 358.42C304.984 371.648 330.34 425.57 330.34 438.134C330.34 446.51 247.707 449.418 82.4407 446.857C84.5505 379.39 93.3463 343.925 108.828 340.462L110.21 340.156C132.6 335.263 145.981 335.106 153.618 327.219C161.412 319.17 162.826 305.356 166.059 294.689C167.841 288.812 185.294 283.474 202.224 284.309Z" fill="#F1F0E0"/>
<path fill-rule="evenodd" clip-rule="evenodd" d="M232.483 305.396C232.535 305.356 232.588 305.344 232.644 305.373C233.719 305.889 233.942 306.922 234.311 307.997C234.851 309.57 235.476 311.105 236.054 312.664C237.206 315.791 238.304 318.913 239.587 321.988C240.904 325.153 242.268 328.261 243.831 331.317C244.584 332.795 245.393 334.245 246.218 335.685C246.786 336.685 247.316 338.058 248.065 338.997C248.121 338.698 248.202 338.414 248.297 338.148C248.198 338.196 248.102 338.248 248.012 338.305C247.823 338.423 247.596 338.186 247.709 338.002C248.117 337.329 248.647 336.874 249.253 336.566C250.93 334.704 287.884 343.59 297.986 353.57C316.282 371.645 328.632 393.993 336.754 417.767C341.239 430.886 345.369 444.132 349.636 457.322C354.144 471.27 358.852 485.157 363.37 499.095C364.36 502.161 362.2 504.946 359.472 505.956C354.391 507.832 349.271 509.599 344.109 511.233C346.614 520.856 348.366 530.682 349.626 540.536C352.226 560.857 352.553 581.589 356.65 601.696C357.591 606.311 358.781 610.861 360.038 615.398L360.329 616.445C361.078 619.108 361.76 621.794 362.678 624.4C363.469 626.641 364.492 628.901 365.046 631.213C365.695 633.932 364.739 636.903 362.195 638.3C360.154 639.423 357.232 638.959 356.001 636.851C355.75 636.419 355.598 635.95 355.537 635.477C355.352 635.083 355.181 634.681 355.03 634.268C354.971 634.11 354.919 633.945 354.869 633.78L354.722 633.288C354.362 632.113 354.031 630.928 353.699 629.744C353.159 627.843 352.616 625.95 352.015 624.066L351.71 623.125C350.223 618.596 348.892 614.029 347.732 609.405C343.579 592.824 342.699 575.657 341.559 558.665L341.499 557.787C340.467 542.56 339.851 527.365 341.116 512.171L340.943 512.228V512.228L340.77 512.28C339.127 512.783 337.479 513.275 335.826 513.754C335.774 513.773 335.726 513.792 335.674 513.806C334.617 514.134 333.529 514.445 332.423 514.734L331.758 514.905L331.289 515.033L330.795 515.174C329.229 515.628 327.632 516.151 326.008 516.099C323.318 516.53 320.581 516.791 317.891 516.8C318.72 530.355 319.676 543.9 320.818 557.431C321.964 571.034 323.484 584.584 325.061 598.134C325.838 604.828 326.671 611.508 327.59 618.179C328.054 621.562 328.537 624.926 329.153 628.28C329.787 631.71 330.91 635.377 330.233 638.845C330.218 638.84 330.204 638.836 330.19 638.836C329.963 639.84 329.357 640.74 328.3 641.361C326.363 642.493 323.654 641.83 322.542 639.85C322.447 639.684 322.357 639.513 322.272 639.338C321.131 639.826 319.88 640.015 318.346 640.03L297.536 640.238V640.238C288.078 640.333 278.621 640.432 269.158 640.57C239.45 641.008 209.743 641.513 180.035 641.873L168.894 642.001C152.186 642.176 135.468 642.522 118.76 642.517C110.401 642.517 102.052 642.489 93.6926 642.285C89.6434 642.185 85.6037 642.029 81.5592 641.863L80.8452 641.83C77.6163 641.671 74.1883 641.372 71.0313 642.095C70.1599 643.791 67.934 644.142 66.7689 642.408C64.1066 638.44 63.3801 632.905 62.8882 628.055L62.715 626.309C62.1704 620.875 61.692 615.441 61.3368 609.997C60.0771 590.709 59.6177 571.403 60.1955 552.078C60.4891 542.228 61.3937 532.435 62.464 522.642C62.8002 519.586 63.1507 516.535 63.5296 513.489L63.5361 512.405C63.5367 512.059 63.5343 511.728 63.5248 511.418L63.4304 508.479C63.352 506.029 63.2791 503.577 63.2487 501.125L63.2359 499.654L63.2217 496.916C60.8822 496.693 58.3864 495.916 56.3689 495.542C53.0968 494.931 49.8333 494.272 46.5797 493.576C40.0631 492.173 33.6175 490.515 27.2146 488.682L25.8528 488.29C19.9446 486.587 13.955 484.771 8.36562 482.224C6.17763 481.224 3.99437 480.097 2.07633 478.619C1.96266 480.173 1.78744 481.722 1.68325 483.262C1.47534 486.308 1.2286 489.345 1.02495 492.391L0.830211 495.29C0.510317 500.119 0.222215 504.944 0.0919774 509.788C-0.485804 530.919 -0.585258 552.139 0.532418 573.255C1.08652 583.825 1.87742 594.395 3.01877 604.923C3.57761 610.101 4.1696 615.294 4.89893 620.453C5.65194 625.755 7.01115 631.023 7.42791 636.363C7.82573 641.513 -0.0453639 642.261 -1.33827 637.552C-2.88641 631.905 -3.28078 625.813 -4.09681 620.007L-4.18929 619.363C-5.09385 613.195 -5.81844 607.003 -6.44359 600.801C-8.60186 579.41 -9.162 557.91 -8.03012 536.438C-7.49198 526.155 -6.21605 515.911 -4.67174 505.736L-4.49239 504.563C-3.78937 500.006 -3.13125 495.449 -2.3351 490.913L-2.02971 489.212C-1.31459 485.313 -0.765223 481.073 0.395077 477.174L0.0501761 476.855C-0.594646 476.254 -1.29346 475.559 -1.80239 474.809C-3.55468 474.573 -5.04649 473.312 -4.86179 471.024C-4.26033 463.505 -1.5135 455.858 0.934971 448.761C3.39291 441.626 6.24393 434.624 9.47383 427.801C20.8353 403.823 37.1979 382.053 57.2071 364.614C67.8203 355.361 79.4517 347.155 92.305 341.313C98.6416 338.428 105.196 336.197 112.063 334.993C115.464 334.396 118.897 333.932 122.354 333.832C125.159 332.176 128.489 332.873 131.205 334.689L131.353 334.789H131.358L132.054 334.927V334.927C132.224 334.96 132.219 335.23 132.054 335.268C132.044 335.268 132.03 335.273 132.02 335.277C132.466 335.628 132.887 336.002 133.28 336.405C134.578 337.732 134.573 339.333 133.905 340.626C137.879 344.312 140.389 349.045 143.017 353.816C145.835 358.924 149.524 363.339 154.014 367.063C170.471 380.717 194.677 386.758 215.297 380.31C230.461 375.572 243.414 362.747 246.994 347.307C246.146 347.61 245.228 347.657 244.356 347.344C240.264 345.885 238.704 341.411 237.139 337.67L237.063 337.49C235.533 333.866 234.25 330.184 233.236 326.385C232.214 322.547 231.612 318.496 231.361 314.535C231.264 312.969 231.307 311.403 231.388 309.837L231.46 308.542C231.515 307.369 231.498 306.17 232.483 305.396ZM165.901 294.835C165.958 294.693 166.181 294.617 166.266 294.787C169.889 302.264 167.512 312.507 164.087 319.637C160.503 327.094 155.104 332.751 148.705 337.645C147.825 338.318 146.919 338.981 146.001 339.63C140.663 343.402 135.908 333.234 142.07 331.292C148.492 328.028 153.711 322.21 157.338 316.098C159.3 312.796 161.038 309.356 162.369 305.746C163.695 302.145 164.49 298.398 165.901 294.835Z" fill="black"/>
<path fill-rule="evenodd" clip-rule="evenodd" d="M271.361 200.195C271.604 188.306 270.502 176.123 264.727 165.497C259.713 155.524 252.273 146.879 244.636 138.832C241.449 135.474 237.194 132.091 237.593 127.001C238.011 121.66 241.222 110.09 241.717 104.701C242.692 94.1047 235.111 91.1886 226.248 86.1533C215.559 80.0799 202.786 80.7825 191.2 83.5091C169.594 88.6667 143.92 97.2264 135.756 120.131C133.793 125.779 134.283 131.725 133.892 137.585C133.526 143.07 131.331 148.293 129.227 153.305C118.105 178.076 118.206 205.426 120.225 232.014C114.286 233.388 108.544 238.03 107.235 244.189C105.041 254.973 116.347 259.958 123.025 265.787C131.168 272.895 137.097 282.095 144.5 289.905C192.538 342.893 298.539 318.505 276.503 235.971C273.513 224.243 270.915 212.378 271.361 200.195Z" fill="#F1F0E0"/>
<path fill-rule="evenodd" clip-rule="evenodd" d="M176.334 84.6515C188.265 80.0123 201.16 78.0508 213.916 79.6948C220.779 80.5794 227.433 82.4261 233.71 85.3569C236.737 86.7707 239.641 88.4469 242.365 90.3832L242.613 90.5611C244.769 92.1164 246.968 94.0401 246.716 96.6219C246.883 97.1625 246.912 97.7566 246.78 98.3493C244.654 107.896 242.422 117.412 240.221 126.94C239.758 128.943 239.31 130.95 238.865 132.958C253.849 144.245 267.935 159.676 273.269 178.013C278.49 195.963 276.204 214.869 278.05 233.24C278.487 237.592 279.226 241.91 280.387 246.131C281.633 250.663 283.715 254.947 284.768 259.53C286.887 268.75 283.814 277.802 278.951 285.62C269.935 300.112 256.314 312.342 240.476 318.836C232.372 322.158 223.451 323.964 214.685 323.823C206.087 323.685 196.299 321.918 189.102 316.955C184.237 313.601 188.394 306.994 193.628 309.208L195.051 309.807C198.68 311.327 202.283 312.736 206.175 313.545C210.525 314.448 214.994 314.641 219.423 314.363C228.011 313.825 236.154 310.965 243.567 306.671C250.256 302.795 256.216 297.79 261.538 292.198L262.13 291.572C267.169 286.225 272.241 280.131 275.075 273.328C276.533 269.827 277.323 265.978 276.692 262.202C275.963 257.849 274.026 253.749 272.895 249.495C270.748 241.414 270.024 232.988 269.778 224.651L269.76 224.01C269.304 206.9 270.6 189.572 264.542 173.218C259.056 158.407 247.748 147.076 238.499 134.612C238.045 136.675 237.593 138.738 237.133 140.799C236.585 143.261 236.085 145.74 235.487 148.19L235.442 148.369V148.369C235.622 148.897 235.56 149.498 235.079 149.876C235.025 149.918 234.972 149.954 234.918 149.992C234.428 151.126 233.667 151.995 232.213 152.356C230.82 152.701 229.717 152.113 229.099 151.095L221.829 151.132V151.132C217.213 151.156 212.147 151.686 207.607 150.746C206.909 150.601 206.997 149.609 207.607 149.418C211.897 148.077 216.907 148.11 221.361 147.694L228.38 147.039V147.039C228.69 147.01 229.002 146.973 229.316 146.934L229.786 146.875L232.226 136.014V136.014C233.194 131.704 234.208 127.402 235.092 123.075C236.687 115.273 238.435 107.507 240.183 99.7389C234.696 98.3929 229.095 97.7903 223.417 98.03L222.763 98.059C220.563 98.1639 218.205 98.3842 216.366 99.6612C214.085 101.245 213.92 104.511 213.415 107.029C212.028 113.937 211.035 120.91 210.165 127.9C209.745 131.281 209.427 134.67 209.054 138.055C208.885 139.591 208.781 141.152 208.552 142.679C208.334 144.132 207.813 145.546 207.519 146.982C208.026 149.174 204.99 151.256 203.296 149.309C201.201 146.901 199.366 144.389 197.025 142.187C194.677 139.979 192.112 138.045 189.347 136.388C183.727 133.021 177.888 130.949 171.612 129.199C171.404 129.141 171.286 129.012 171.228 128.862C164.966 130.64 158.841 133.048 153.157 136.144C139.981 143.323 129.608 155.716 125.678 170.271C123.238 179.31 122.699 188.857 122.666 198.182C122.651 202.511 122.743 206.89 123.427 211.173C124.191 215.952 125.925 220.225 127.321 224.81C127.686 226.007 127.596 227.076 127.208 227.968L127.564 228.022C130.416 228.468 136.004 229.727 136.513 232.838C136.656 233.71 136.168 234.392 135.271 234.468C133.678 234.603 132.676 233.445 131.403 232.655C131.174 232.513 130.939 232.383 130.705 232.251C130.644 232.293 130.563 232.303 130.479 232.255C122.954 227.968 113.757 234.525 112.083 242.133C110.519 249.236 113.18 257.462 120.042 260.567C123.492 262.128 127.161 263.109 130.336 265.244C133.009 267.042 135.37 269.239 137.43 271.709C141.671 276.794 144.87 282.592 148.627 288.018C150.276 290.4 152.107 292.65 154.283 294.575C156.666 296.682 159.983 297.514 160.993 300.813C161.386 302.099 160.732 303.644 159.574 304.299C155.338 306.696 150.54 302.526 147.577 299.699C144.535 296.797 142.053 293.283 139.776 289.767C135.961 283.878 132.704 277.159 127.109 272.695C123.75 270.016 119.566 269.003 115.786 267.108C111.448 264.934 108.367 261.372 106.526 256.918C103.138 248.718 104.03 238.264 110.45 231.74C112.535 229.62 115.173 228.265 117.936 227.719C115.083 222.727 114.024 216.434 113.308 210.848C112.589 205.235 112.513 199.586 112.809 193.942L112.869 192.845C113.436 182.78 114.578 172.443 118.219 162.993C121.285 155.039 125.937 147.741 132.118 141.845C132.756 141.237 133.411 140.641 134.077 140.055C133.898 139.918 133.727 139.771 133.574 139.605C131.842 137.719 132.213 135.174 132.443 132.83C132.699 130.225 133.114 127.627 133.737 125.084C138.085 107.339 151.455 92.8611 168.661 86.8725C171.145 86.0074 173.716 85.2631 176.334 84.6515ZM118.367 241.678C121.151 239.918 125.401 240.592 128.305 241.746C131.72 243.103 135.357 245.633 136.702 249.17C137.947 252.444 133.3 253.604 131.566 251.335C130.495 249.933 129.702 248.583 128.686 247.361C128.556 247.488 128.433 247.62 128.324 247.764L128.244 247.874C127.813 248.508 127.028 249.167 126.188 249.054L125.961 249.024V249.024C125.113 248.91 124.179 248.499 123.945 247.576L123.922 247.471L123.891 247.304C123.697 246.279 124.003 245.15 124.986 244.613C125.051 244.577 125.119 244.547 125.185 244.513C123.021 243.378 120.789 243.023 118.435 242.206C118.201 242.124 118.149 241.816 118.367 241.678ZM195.787 88.9993C181.276 88.635 165.355 93.0989 154.629 103.155C149.55 107.917 146.11 113.457 143.025 119.631C141.568 122.546 140.631 125.776 139.936 128.951C139.556 130.689 139.272 132.441 139.12 134.214C139.091 134.556 139.097 134.916 139.044 135.255C138.999 135.543 138.944 135.618 138.894 135.599C138.919 135.679 139.038 135.844 139.154 136C150.019 128.183 163.467 123.632 176.767 126.597C177.19 126.691 177.19 127.359 176.767 127.453C176.087 127.605 175.408 127.775 174.73 127.941C180.549 128.069 186.529 129.893 191.555 132.606C196.578 135.316 201.86 139.148 205.501 143.809C205.397 143.129 205.315 142.446 205.299 141.754C205.259 139.908 205.301 138.052 205.37 136.207C205.519 132.206 205.791 128.206 206.12 124.216L206.265 122.477C206.854 115.504 207.578 108.333 208.987 101.511C209.809 97.533 212.008 95.1096 214.965 93.6888C209.477 90.144 202.029 89.1566 195.787 88.9993ZM222.696 86.6781C216.156 84.7176 209.349 83.8539 202.536 83.9719C205.013 84.5977 207.41 85.5074 209.666 86.7634C212.569 88.3799 214.613 90.5214 216.444 93.0731C218.166 92.4733 220.082 92.1421 222.097 91.9991C226.752 91.6688 231.458 91.9171 236.081 92.6505C235.218 92.1189 234.343 91.6087 233.453 91.124C230.032 89.2625 226.424 87.7957 222.696 86.6781Z" fill="black"/>
<path fill-rule="evenodd" clip-rule="evenodd" d="M234.306 292.287C237.886 291.789 241.735 289.76 245.155 291.409C246.753 292.179 247.512 294.814 246.431 296.278C244.78 298.515 243.076 298.885 240.397 299.1C238.389 299.261 236.369 299.273 234.366 299.041L233.857 298.979C230.282 298.517 226.567 297.519 223.797 295.116C223.231 294.624 223.521 293.562 224.248 293.408C227.537 292.716 230.977 292.751 234.306 292.287ZM230.093 284.041C230.092 284.012 230.136 284.012 230.137 284.041C230.224 286.087 230.799 287.985 231.861 289.736C231.876 289.761 231.838 289.783 231.823 289.759C230.76 288.006 230.18 286.089 230.093 284.041ZM241.37 241.8C244.946 243.975 250.396 249.046 246.548 254.437C242.02 259.191 235.5 253.74 232.287 251.275C229.307 249.365 225.96 254.278 228.724 256.509C251.941 273.705 261.363 242.369 243.179 239.243C241.177 238.899 240.433 241.127 241.37 241.8ZM259.676 217.463C260.516 217.463 261.319 217.748 262.051 218.276C262.771 218.795 263.422 219.553 263.965 220.498C264.992 222.287 265.634 224.757 265.634 227.488C265.634 230.219 264.992 232.689 263.965 234.478C263.422 235.423 262.771 236.181 262.051 236.7C261.319 237.228 260.516 237.513 259.676 237.513C258.836 237.513 258.033 237.228 257.302 236.7C256.582 236.181 255.93 235.423 255.387 234.478C254.36 232.689 253.718 230.219 253.718 227.488C253.718 224.757 254.36 222.287 255.387 220.498C255.93 219.553 256.582 218.795 257.302 218.276C258.033 217.748 258.836 217.463 259.676 217.463ZM220.787 220.248L221.103 220.188C222.948 219.853 223.88 219.966 225.486 221.223C226.693 222.169 226.347 224.03 225.486 225.024C223.985 226.756 222.519 226.449 220.464 226.516L220.32 226.521C218.607 226.59 216.892 226.639 215.178 226.665C214.709 226.673 214.24 226.671 213.771 226.674C213.82 231.014 211.319 234.319 208.025 236.831C205.895 238.456 203.202 236.581 202.442 234.559C201.814 232.886 201.679 230.828 202.005 228.996C202.126 228.321 202.377 227.588 202.762 226.963L202.87 226.795L202.853 226.555C202.848 226.496 202.853 226.439 202.851 226.38C199.792 226.194 196.752 225.887 193.712 225.501L192.699 225.37C190.105 225.026 186.295 224.916 184.195 223.228C184.129 223.174 184.153 223.056 184.223 223.019C185.377 222.397 186.548 222.432 187.839 222.375L188.024 222.366C189.428 222.293 190.828 222.233 192.231 222.185L193.635 222.141C197.226 222.038 200.82 221.864 204.407 221.673C205.031 221.639 205.655 221.6 206.279 221.562C206.933 221.288 207.627 221.124 208.313 221.094C208.881 221.068 209.427 221.147 209.941 221.31C211.252 221.209 212.561 221.099 213.87 220.98L215.178 220.859C217.024 220.683 218.965 220.606 220.787 220.248ZM243.454 187.719C247.4 185.779 252.198 185.731 256.263 187.337L256.532 187.446C260.637 189.15 265.583 193.086 264.512 197.989C263.532 202.477 256.496 201.717 256.14 197.475C253.868 194.326 248.773 193.635 245.571 195.638C243.629 196.852 242.296 198.898 241.384 200.96C240.608 202.717 240.461 204.887 239.268 206.417C239.23 206.467 239.152 206.476 239.096 206.462C235.538 205.639 235.456 199.983 236.062 197.24C236.944 193.252 239.772 189.53 243.454 187.719Z" fill="black"/>
<path d="M231.629 561C229.465 554.508 226.561 546.365 222.917 536.571H168.421L159.879 561H117L164.833 436.975H227.7L275.875 561H231.629ZM213.179 509.921C208.851 497.962 204.41 486.004 199.854 474.046L195.754 462.942C191.768 473.306 185.903 488.965 178.158 509.921H213.179Z" fill="#C86139"/>
</svg>
