<svg width="2451" height="1878" viewBox="0 0 2451 1878" fill="none" xmlns="http://www.w3.org/2000/svg">
<path d="M1211.25 330.981C1183.31 335.959 1164.64 342.736 1161.88 348.82C1158.42 356.565 1164.64 364.171 1185.8 378C1207.38 392.244 1269.33 422.806 1306.67 437.88C1310.4 439.263 1313.86 445.071 1334.05 483.378C1346.77 507.579 1357.84 528.323 1358.81 529.706C1360.33 531.642 1394.21 542.567 1395.31 541.322C1395.59 541.184 1393.79 534.408 1391.44 526.525C1382.18 494.58 1375.54 469.134 1376.51 468.719C1377.2 468.443 1396.84 475.91 1420.35 485.038C1443.72 494.303 1469.85 504.537 1478.15 507.856C1508.58 519.887 1521.71 523.068 1535.82 522.1C1549.51 521.132 1553.38 518.504 1569.84 498.59C1584.5 480.889 1586.57 477.708 1584.36 476.325C1583.67 475.91 1574.54 477.708 1563.89 480.336C1553.38 482.963 1543.43 485.038 1541.9 485.038C1536.51 485.038 1504.7 468.996 1459.21 442.997C1433.48 428.476 1412.46 416.307 1412.46 415.892C1412.46 415.477 1431.55 408.424 1455.06 400.127C1478.43 391.829 1498.34 384.638 1499.45 384.085C1500.69 383.393 1496.96 380.074 1487.69 373.713L1474.14 364.171L1431.27 368.596C1407.62 371.085 1378.58 373.713 1366.83 374.681L1345.39 376.202L1319.81 365.692C1264.21 342.874 1227.84 328.768 1225.22 328.906C1223.56 328.906 1217.33 329.875 1211.25 330.981Z" fill="black"/>
<path d="M1869.39 420.594C1857.49 423.36 1850.16 427.509 1841.04 436.498C1830.66 446.87 1824.16 459.593 1824.3 469.411C1824.44 481.028 1829.28 489.602 1845.18 506.335C1852.79 514.356 1859.43 522.515 1859.98 524.451C1860.53 526.664 1858.74 534.823 1855.28 546.854C1852.1 557.365 1849.19 567.46 1848.78 569.396C1848.09 572.162 1844.63 574.513 1830.25 581.427C1812.55 589.863 1784.89 609.086 1770.78 622.362C1763.32 629.553 1755.02 641.999 1751.42 651.68C1749.49 656.935 1746.17 661.222 1739.53 667.721C1734.41 672.562 1722.66 684.593 1713.53 694.412L1696.8 712.113L1699.84 717.506L1703.02 723.038L1697.63 729.123C1694.58 732.58 1690.02 739.495 1687.26 744.75C1679.37 759.962 1625.44 880.69 1625.44 883.18C1625.44 883.871 1621.43 889.818 1616.31 896.456C1611.33 903.232 1605.66 911.53 1603.73 914.987C1601.65 918.444 1598.47 923.561 1596.54 926.188C1594.6 928.816 1592.94 931.305 1592.8 931.444C1592.66 931.72 1587.96 928.816 1582.43 924.805C1569.43 915.817 1567.08 915.955 1560.03 926.327C1553.53 935.869 1553.8 938.082 1563.21 944.443C1567.08 947.07 1569.85 949.836 1569.43 950.804C1568.88 952.326 1476.5 1107.35 1475.53 1108.32C1475.39 1108.46 1452.3 1096.98 1424.22 1082.73L1373.06 1056.87H1361.99C1352.17 1056.87 1350.1 1057.29 1343.32 1061.16C1339.18 1063.51 1334.06 1067.52 1332.12 1070.15C1330.05 1072.78 1309.58 1111.91 1286.62 1157.14C1263.53 1202.36 1228.27 1271.78 1208.21 1311.19C1184.98 1356.83 1171.29 1385.45 1170.46 1389.74C1167.97 1402.33 1173.36 1417.82 1182.77 1425.84C1187.05 1429.43 1224.81 1449.21 1287.73 1480.6C1307.64 1490.69 1323.96 1499.41 1323.96 1499.96C1323.96 1500.65 1323.13 1501.9 1322.03 1502.73C1320.92 1503.69 1319.4 1507.43 1318.43 1511.02C1316.22 1520.43 1318.43 1528.17 1325.48 1535.22L1331.02 1540.62L1264.36 1539.79C1227.71 1539.24 1186.64 1538.82 1173.09 1538.82H1148.47L1148.06 1532.32C1148.01 1531.37 1147.94 1530.55 1147.85 1529.83C1147.47 1526.67 1146.68 1525.55 1144.88 1524.99C1143.35 1524.58 1137.82 1521.67 1132.43 1518.49C1127.17 1515.31 1115 1509.78 1105.46 1506.18C1088.18 1499.82 1082.37 1496.92 1073.93 1490.69L1069.51 1487.38L1082.92 1480.74C1104.36 1470.09 1110.99 1460.96 1103.39 1451.97L1099.65 1447.55H1106.43C1110.03 1447.55 1113.76 1446.99 1114.59 1446.44C1115.42 1445.89 1116.53 1439.53 1117.08 1432.34C1120.12 1384.63 1123.03 1196.27 1120.81 1181.34C1119.02 1168.89 1100.76 1111.91 1090.8 1087.44C1089.84 1085.09 1090.11 1085.09 1093.98 1087.85C1098.55 1091.31 1104.22 1090.76 1107.26 1086.75C1108.09 1085.5 1110.72 1083.84 1113.07 1083.15C1119.98 1080.8 1120.54 1075.96 1115.42 1063.51C1113.07 1057.7 1111.27 1052.59 1111.55 1052.31C1111.82 1052.03 1115.7 1056.18 1119.98 1061.58C1124.55 1067.25 1128.97 1071.39 1130.35 1071.39C1133.67 1071.39 1137.27 1067.8 1137.27 1064.48C1137.27 1060.88 1130.08 1047.61 1122.06 1036.68C1118.19 1031.43 1115.14 1026.59 1115.14 1025.76C1115.14 1023.96 1121.78 1020.64 1128 1019.54C1134.64 1018.29 1141.69 1011.24 1141.14 1006.4C1140.73 1003.08 1140.45 1002.94 1132.15 1003.36C1125.38 1003.63 1121.78 1002.94 1115 1000.17C1110.3 998.1 1102.97 995.887 1098.69 995.196C1093.85 994.505 1090.11 992.983 1088.73 991.324C1087.48 989.803 1081.4 979.154 1075.18 967.676L1063.7 946.656L1067.02 929.231L1070.34 911.668L1084.03 910.838C1091.63 910.423 1101.04 909.317 1104.77 908.349C1108.64 907.519 1137.55 900.19 1169.08 892.307C1200.61 884.424 1231.31 877.648 1237.12 877.095C1247.63 876.127 1247.76 876.127 1251.22 879.999C1254.54 884.01 1254.54 884.01 1257.44 881.382C1260.07 879.031 1261.04 878.893 1265.05 880.276C1271.55 882.627 1272.52 882.35 1274.73 877.925C1276.67 874.329 1277.5 874.052 1287.32 873.223C1293.4 872.808 1299.35 871.563 1301.28 870.18C1304.74 867.968 1305.71 862.851 1303.08 860.223C1301.84 858.979 1302.67 858.426 1306.4 857.734C1311.79 856.628 1316.22 852.756 1317.74 847.362C1318.29 845.426 1320.64 841.831 1322.72 839.341C1327.56 833.81 1327.84 830.076 1323.41 826.204L1320.09 823.299L1335.16 806.566C1343.46 797.439 1350.24 789.28 1350.24 788.45C1350.24 785.961 1318.57 742.952 1316.36 742.537C1315.39 742.261 1313.45 743.643 1312.07 745.58C1310.83 747.516 1309.17 749.175 1308.47 749.175C1307.78 749.175 1298.38 744.473 1287.73 738.665C1277.08 732.719 1267.96 728.57 1267.26 729.261C1266.71 729.953 1263.94 739.495 1261.18 750.558C1258.55 761.621 1254.13 776.695 1251.64 784.301C1247.35 797.024 1246.8 797.992 1242.37 799.513C1233.8 802.556 1210.84 814.172 1204.06 818.874C1197.43 823.438 1197.15 823.438 1150.68 829.384C1124.96 832.565 1103.8 835.054 1103.53 834.778C1103.25 834.501 1102.56 828.001 1102.01 820.395L1101.04 806.566L1109.47 800.481C1114.17 797.024 1117.91 793.29 1117.91 792.184C1117.91 790.939 1112.24 772.27 1105.46 750.558C1098.55 728.846 1092.32 706.72 1091.63 701.465C1089.01 681.136 1083.61 660.945 1077.8 649.467C1074.49 643.106 1064.67 635.776 1050.98 629.415L1040.47 624.574V611.713V598.714L1049.18 598.161C1060.24 597.469 1065.91 593.735 1070.34 584.055C1073.52 576.864 1076.56 560.269 1075.73 554.046C1075.45 552.248 1074.49 546.025 1073.52 540.217C1072 530.26 1072.13 529.568 1075.45 522.93C1084.86 504.399 1084.86 492.229 1075.59 488.357C1068.95 485.591 1063.84 486.006 1053.33 490.155C1045.31 493.197 1041.71 493.75 1028.71 493.889C1014.88 494.027 1012.81 494.442 1005.62 498.038C1001.33 500.112 995.244 504.676 992.063 507.856L986.255 513.803L977.128 506.888C962.884 496.102 959.565 495.41 950.714 501.357C943.8 506.058 937.023 515.047 929.832 529.43C923.194 542.429 914.205 568.151 915.588 569.534C917.662 571.609 936.885 574.928 946.565 574.928C957.352 574.928 964.82 572.439 967.171 568.013C968.277 566.077 968.415 560.545 967.862 551.003C967.171 538.972 967.309 536.206 969.522 532.057C971.734 527.77 980.309 521.132 981.691 522.654C982.106 522.93 981.691 525.696 980.862 528.738C976.575 544.089 986.393 569.534 999.808 577.832C1002.44 579.353 1004.51 581.151 1004.51 581.842C1004.51 582.534 1001.33 591.108 997.595 600.927L990.542 618.766L977.819 620.564C962.469 622.638 950.161 626.234 938.13 632.319C933.151 634.808 925.96 637.574 921.949 638.542C917.939 639.372 911.163 642.276 906.876 644.903C902.589 647.531 898.855 649.467 898.716 649.329C898.578 649.052 897.61 646.701 896.642 644.212C893.738 636.882 887.1 630.106 879.356 626.649C872.718 623.468 871.196 623.33 837.038 623.33H801.774L794.168 627.064C785.871 631.351 778.679 639.786 776.328 647.946C775.499 651.265 774.946 704.507 774.946 804.63C774.946 974.867 774.254 964.08 785.317 975.005C794.445 984.133 800.806 985.654 830.4 985.654H855.155V1006.95C855.155 1032.4 856.814 1050.1 861.516 1076.93C868.292 1115.23 884.749 1172.49 889.866 1176.22C891.11 1177.05 892.632 1179.68 893.185 1181.89C893.6 1184.1 896.78 1190.33 900.238 1195.86C905.908 1205.12 907.014 1209.69 903.695 1209.69C901.897 1209.69 893.185 1195.58 889.451 1186.59C887.791 1182.58 885.994 1179.26 885.302 1179.26C882.675 1179.26 741.617 1212.18 740.787 1212.87C740.511 1213.28 741.617 1221.03 743.138 1230.43C744.798 1239.7 745.766 1247.58 745.351 1247.99C744.245 1249.1 707.597 1245.78 704.002 1244.26C702.342 1243.57 690.726 1240.66 678.141 1237.9C665.557 1235.27 653.94 1232.09 652.143 1230.98C650.345 1229.88 645.781 1228.49 641.909 1228.08L634.856 1227.25L635.686 1232.64C640.111 1263.48 664.727 1411.45 665.557 1412.97C666.387 1414.36 668.461 1414.91 671.365 1414.77C680.077 1414.08 681.875 1413.11 682.705 1409.24C683.12 1407.03 685.333 1400.11 687.545 1393.61C689.896 1387.11 693.353 1374.25 695.29 1364.85C697.226 1355.17 700.545 1343.83 703.172 1338.3L707.597 1328.62L714.374 1338.71C725.852 1355.31 731.799 1360.42 740.234 1360.42C750.883 1360.42 756.553 1343.14 748.67 1334.84L745.766 1331.66L749.638 1330.14C751.713 1329.31 754.617 1327.93 755.861 1326.96C757.106 1325.99 758.627 1325.57 759.042 1326.13C759.457 1326.54 761.116 1334.29 762.638 1343.28C764.297 1352.4 765.957 1360.15 766.371 1360.56C766.925 1361.12 793.477 1351.02 825.422 1338.3C857.367 1325.57 903.142 1307.46 927.066 1297.92L970.628 1280.63L972.288 1264.17C973.117 1255.18 974.085 1240.25 974.224 1231.12L974.639 1214.53L969.66 1204.85C962.054 1190.6 961.363 1189.91 961.916 1197.24C962.192 1202.08 961.777 1203.46 960.118 1203.88C957.767 1204.29 956.108 1198.48 956.108 1189.22C956.108 1183 955.278 1181.61 936.747 1157.83C893.185 1101.54 874.377 1068.49 864.697 1030.18C859.995 1011.65 858.059 993.536 860.686 991.877C863.176 990.356 864.835 993.675 864.835 1000.45C864.835 1003.63 865.803 1010.96 866.909 1017.05C874.792 1057.84 894.153 1094.07 940.342 1153.68C962.746 1182.72 971.32 1195.17 976.021 1205.68L979.064 1212.59L990.68 1192.54C997.042 1181.47 1003.13 1172.07 1003.96 1171.79C1008.24 1170.13 1006.17 1176.08 996.765 1192.4C991.095 1202.08 986.67 1210.38 987.085 1210.65C987.361 1210.93 990.542 1209.41 994.138 1207.06C1000.36 1203.05 1005.06 1202.63 1003.68 1206.09C1003.4 1206.92 997.872 1210.93 991.648 1214.66L980.309 1221.72L978.649 1245.09C977.819 1257.95 976.99 1270.4 976.99 1272.89C976.851 1275.24 976.021 1278.14 975.053 1279.11C973.671 1280.35 972.288 1294.04 970.075 1327.23C968.415 1352.68 965.788 1390.02 964.267 1410.07C962.884 1430.12 961.639 1449.35 961.639 1452.66V1458.89L976.16 1457.92C988.053 1457.09 990.68 1457.23 990.68 1458.75C990.68 1461.93 986.808 1475.21 985.425 1477C984.734 1477.97 980.309 1488.62 975.468 1500.79C970.628 1512.96 965.511 1524.16 964.128 1525.68C962.745 1527.34 960.948 1530.66 960.118 1533.15L958.458 1537.71L848.378 1536.88C787.807 1536.47 698.055 1535.64 648.962 1535.22C559.764 1534.4 554.37 1534.67 558.657 1538.82C559.902 1539.93 704.555 1541.17 1284.55 1545.04C1309.46 1545.2 1333.21 1545.35 1355.91 1545.49C1657.66 1547.39 1773.34 1548.34 1958.03 1549.88C2037.96 1550.71 2123.98 1551.27 2149.29 1551.27C2192.43 1551.27 2195.34 1551.13 2194.92 1548.78C2194.51 1546.56 2189.25 1546.43 2113.61 1545.73L2032.71 1545.04L2032.29 1536.47L2031.88 1527.9L2023.3 1522.5C2012.38 1515.73 2002.01 1510.75 1986.79 1505.49C1980.02 1503.14 1971.86 1499.68 1968.4 1498.02C1959.83 1493.74 1945.45 1482.67 1941.02 1477.14C1938.81 1474.38 1936.04 1472.44 1934.24 1472.44C1931.2 1472.44 1931.48 1473.55 1928.85 1451.83C1928.16 1445.2 1928.16 1445.2 1932.58 1444.23C1934.94 1443.81 1942.68 1443.4 1949.59 1443.4C1956.51 1443.4 1963.15 1442.71 1964.25 1442.02C1965.77 1441.05 1967.3 1433.03 1969.92 1412.01C1972 1396.24 1973.38 1382.83 1972.97 1382.14C1972.69 1381.58 1969.37 1381.17 1965.77 1381.17H1959.14L1958.17 1288.79C1957.2 1196.41 1957.06 1189.36 1954.57 1150.91C1953.74 1139.43 1952.91 1125.19 1952.5 1119.11C1952.08 1113.02 1951.53 1102.79 1951.12 1096.29C1950.7 1089.79 1949.46 1068.91 1948.35 1049.96C1947.24 1030.88 1946 1011.93 1945.58 1007.78C1945.31 1003.63 1944.62 993.951 1944.2 986.345C1943.79 978.739 1942.82 963.527 1942.13 952.464C1939.91 919.55 1938.53 923.699 1954.57 916.231L1968.4 909.87V901.573V893.137L1986.79 887.467C2031.46 873.499 2059.81 863.542 2070.05 858.426L2080.97 852.894L2088.72 860.5C2093 864.649 2097.01 868.106 2097.7 868.106C2098.53 868.106 2105.03 862.159 2112.23 854.968L2125.22 841.831L2137.95 841.969C2145 842.107 2151.36 841.692 2152.33 841.139C2153.16 840.586 2153.57 838.788 2153.16 836.99C2152.61 835.054 2153.16 833.118 2154.4 832.15C2155.51 831.182 2156.48 828.831 2156.48 827.033C2156.48 824.959 2158.28 821.917 2160.77 819.566C2164.91 815.693 2165.05 814.864 2162.98 808.641C2162.56 807.258 2168.1 801.173 2178.47 791.354C2225.07 747.239 2262.27 711.007 2262.69 709.485C2262.96 708.379 2259.64 703.815 2255.5 699.252C2251.21 694.688 2247.75 690.401 2247.75 689.848C2247.75 689.295 2249.69 687.082 2251.9 684.87C2254.25 682.657 2256.05 680.306 2256.05 679.476C2256.05 677.817 2224.1 644.903 2221.75 644.35C2220.78 644.073 2200.59 662.466 2176.95 685.146C2068.25 789.141 2071.84 785.822 2064.51 788.45C2060.78 789.971 2052.9 793.429 2047.23 796.194C2037.82 800.896 2033.68 801.864 2005.05 806.428C1987.49 809.332 1972.27 811.821 1971.03 812.236C1969.09 812.789 1968.68 808.641 1967.85 773.929C1966.88 731.474 1966.47 725.804 1963.42 689.018C1959.83 647.393 1955.54 623.468 1949.18 611.16C1944.48 602.171 1933.41 589.725 1923.46 582.257L1913.78 574.928L1910.73 560.131C1909.08 551.833 1907.69 544.504 1907.55 543.674C1907.55 542.706 1909.77 541.599 1912.39 541.185C1918.34 540.078 1926.22 533.44 1929.54 526.664C1934.66 516.43 1937.29 497.623 1935.07 485.73C1934.24 481.166 1933.14 471.762 1932.58 464.986C1931.48 451.433 1929.13 444.934 1920.55 433.455C1913.78 424.19 1904.65 420.179 1889.3 419.35C1882.25 418.935 1874.64 419.488 1869.39 420.594ZM1888.19 431.243C1888.19 438.711 1882.11 442.168 1868.83 442.168C1858.05 442.168 1852.24 446.04 1849.61 455.029C1847.26 462.497 1845.32 463.465 1845.32 456.965C1845.32 446.04 1855 438.019 1868.14 438.019C1879.62 438.019 1882.25 437.051 1883.91 432.349C1885.57 427.786 1888.19 426.956 1888.19 431.243ZM1915.57 450.742C1926.64 466.784 1931.89 484.485 1930.51 500.665C1928.44 525.419 1920.83 535.929 1904.37 536.621C1898.84 536.898 1897.04 537.451 1896.77 539.248C1896.49 541.046 1897.18 541.738 1899.12 541.738C1900.78 541.738 1902.02 541.876 1902.02 542.153C1902.02 542.429 1903.54 550.588 1905.48 560.407C1909.21 579.906 1909.63 586.821 1907.55 594.427C1902.71 611.713 1890.68 608.948 1851.82 581.704C1850.99 581.151 1852.65 573.545 1855.42 564.418C1866.48 527.632 1868.69 518.643 1868.42 512.835L1868.14 506.888L1861.36 506.612C1856.25 506.473 1854.04 505.644 1852.1 503.154C1844.63 494.027 1855.28 484.208 1866.76 489.464C1872.15 491.953 1876.71 486.698 1880.03 473.837C1881.55 468.167 1884.18 462.22 1885.84 460.561C1889.44 456.827 1907.55 445.21 1909.9 445.072C1910.87 444.934 1913.36 447.561 1915.57 450.742ZM1057.34 515.047C1063.56 521.824 1067.85 533.579 1070.06 550.035C1070.89 556.258 1070.89 556.258 1066.05 546.163C1061.76 536.898 1058.31 533.164 1055.95 535.376C1055.54 535.929 1056.23 538.004 1057.48 540.078C1064.25 550.312 1066.05 559.163 1062.04 561.375C1059.41 562.896 1059.13 566.63 1061.62 566.63C1063.97 566.63 1067.43 563.864 1069.37 560.407C1070.61 558.194 1070.75 558.748 1070.06 563.864C1068.4 576.864 1065.5 584.193 1060.38 588.757C1055.4 593.044 1054.85 593.182 1045.03 592.629L1034.66 592.214L1034.93 616.692C1035.07 646.978 1034.24 654.722 1030.51 655.967C1022.76 658.318 1005.75 648.499 999.669 637.989C993.308 627.064 993.585 625.266 1004.37 598.022C1009.76 584.47 1013.91 572.715 1013.36 572.024C1012.95 571.194 1011.56 570.917 1010.46 571.332C1007.55 572.577 1003.4 569.949 1001.05 565.247C998.425 560.131 998.425 556.397 1001.19 554.046C1003.13 552.525 1004.09 552.663 1007.55 554.599C1012.95 557.78 1014.19 557.503 1013.91 553.769C1013.78 552.11 1015.02 547.823 1016.54 544.365C1018.89 538.972 1020.14 537.866 1024.15 537.036C1030.92 535.791 1039.5 527.909 1043.78 518.92C1047.93 510.069 1051.53 508.963 1057.34 515.047ZM1795.12 617.936C1801.76 621.117 1812.55 632.457 1817.39 641.031C1820.29 646.286 1820.43 646.978 1818.22 647.807C1816.83 648.361 1815.45 647.807 1814.62 646.286C1813.93 645.042 1810.47 640.063 1806.88 635.361C1801.76 628.585 1798.44 625.819 1791.39 622.362C1786.41 619.872 1782.26 617.245 1781.98 616.415C1781.16 614.064 1788.9 614.894 1795.12 617.936ZM990.127 628.447C994.414 646.286 1011.15 660.53 1027.6 660.669C1036.87 660.669 1038.53 658.318 1039.91 642.967C1040.33 636.744 1041.43 631.627 1042.26 631.627C1045.58 631.627 1062.18 641.031 1067.71 646.01C1072.83 650.712 1074.49 653.616 1077.8 663.434C1085.55 686.806 1086.79 696.071 1086.65 727.74C1086.52 751.25 1085.69 763.696 1082.09 793.428C1076.14 842.522 1065.08 915.125 1060.38 935.731C1059.83 938.635 1058.17 936.56 1050.7 922.593C1032.03 888.573 1026.36 875.989 1022.35 860.5C1020.27 852.202 1017.23 841.139 1015.71 835.884L1012.95 826.618L1020.14 823.023C1032.72 816.661 1044.61 807.396 1044.61 804.077C1044.61 800.62 1029.68 761.068 1017.65 732.58C1011.29 717.506 998.84 691.369 990.819 676.295C990.127 674.913 987.915 670.349 985.978 666.062C980.585 654.307 968.692 643.659 956.937 640.063C951.682 638.404 946.15 637.159 944.629 637.159C936.747 637.159 952.097 630.936 968.554 627.479C985.84 623.745 989.021 623.883 990.127 628.447ZM881.568 633.702C884.749 635.914 888.898 640.616 890.696 643.935L893.876 650.02V803.939C893.876 895.764 893.323 959.24 892.632 961.176C890.419 966.708 882.536 974.867 876.59 977.495C871.75 979.707 866.909 980.122 837.453 980.122C800.944 980.122 797.625 979.569 789.604 972.101C787.392 970.027 784.488 965.878 783.105 962.836C780.754 957.581 780.477 951.911 780.477 866.032C780.477 795.226 780.892 775.312 782.137 776.557C784.488 778.908 788.775 778.631 791.817 775.865C794.168 773.653 794.306 776.419 794.306 858.011C794.306 904.338 794.721 942.783 795.274 943.198C795.689 943.751 796.934 943.475 798.04 942.645C799.561 941.401 799.838 916.093 799.838 798.96C799.838 720.687 800.253 655.69 800.668 654.445C803.848 646.148 832.475 641.999 862.069 645.456C872.579 646.701 876.59 645.595 873.547 642.552C870.782 639.787 840.911 637.989 825.975 639.786C809.933 641.584 802.466 644.212 797.764 649.882L794.306 654.031V707.826C794.306 759.132 794.168 762.036 791.54 767.153C788.083 773.929 785.041 774.206 782.413 767.845C780.892 763.972 780.477 752.909 780.477 706.996C780.477 645.456 780.477 645.733 788.913 637.297C797.072 629 798.178 628.861 838.836 629.276L875.622 629.553L881.568 633.702ZM2233.92 662.743C2240.28 669.104 2245.26 674.774 2244.85 675.051C2244.57 675.466 2241.8 675.189 2238.76 674.498C2229.91 672.423 2227.98 672.838 2222.86 677.678C2196.31 702.709 2152.33 744.888 2138.09 758.856L2120.25 776.142L2118.31 772.27C2115.27 766.462 2112.78 767.43 2113.47 774.344C2113.75 776.972 2112.92 777.248 2098.4 779.599C2093.42 780.429 2087.89 781.535 2085.95 781.812C2082.49 782.503 2082.49 782.503 2086.64 778.77C2088.99 776.695 2099.09 767.015 2109.32 757.058C2119.55 747.101 2128.27 739.771 2128.54 740.601C2129.37 743.229 2131.17 742.537 2136.43 737.974C2141.27 733.686 2142.51 730.506 2139.75 729.538C2138.92 729.261 2142.23 725.389 2147.07 720.825C2151.92 716.4 2170.17 698.837 2187.87 681.827C2205.57 664.817 2220.51 650.988 2221.06 650.988C2221.75 650.988 2227.42 656.243 2233.92 662.743ZM960.533 657.903C976.298 663.711 981.553 669.519 994.691 695.241C1005.89 716.815 1039.08 797.439 1039.08 802.694C1039.08 807.811 1008.52 823.853 987.5 829.937C969.245 835.193 947.395 837.129 929.002 835.193C920.705 834.225 913.514 832.98 912.822 832.288C910.471 829.938 908.95 799.375 909.365 764.387C909.78 733.825 909.503 729.123 907.705 729.123C903.142 729.123 903.004 821.778 907.429 833.671C908.673 836.714 908.12 837.958 904.11 842.66L899.546 848.054L899.408 773.929C899.408 704.23 899.546 699.252 902.174 689.018C906.323 672.977 908.673 669.104 918.354 662.605C931.768 653.477 944.906 651.956 960.533 657.903ZM1946.28 693.997C1943.92 726.772 1938.81 751.941 1931.62 765.908C1929.27 770.749 1922.9 778.216 1921.24 778.216C1919.59 778.216 1919.72 773.1 1921.38 771.993C1924.15 770.334 1930.93 754.983 1933.69 744.335C1937.42 730.367 1940.33 709.624 1941.44 689.018C1941.99 679.891 1942.68 671.87 1943.09 671.317C1943.51 670.626 1944.75 670.902 1945.72 672.008C1947.38 673.668 1947.52 677.264 1946.28 693.997ZM1750.18 683.487C1754.6 713.773 1756.26 747.239 1754.19 763.834C1752.39 778.493 1749.07 789.28 1746.31 789.28C1743.82 789.28 1743.82 786.099 1746.58 777.525C1751.01 763.004 1750.32 719.166 1744.78 681.551C1744.09 676.296 1744.23 675.604 1746.58 676.157C1748.52 676.434 1749.49 678.37 1750.18 683.487ZM2244.02 694.688L2257.43 708.656L2231.85 733.272C2216.22 748.069 2206.26 756.781 2206.26 755.398C2206.26 753.6 2205.57 753.186 2203.22 754.015C2201.42 754.569 2197.83 755.398 2195.2 755.951C2192.02 756.505 2190.22 757.749 2189.95 759.409C2189.39 761.76 2190.08 761.898 2196.31 761.207L2203.08 760.377L2189.12 773.929C2167.27 795.088 2158.69 803.109 2157.45 803.109C2156.76 803.109 2154.54 802.003 2152.61 800.62C2149.29 798.269 2146.8 797.162 2137.81 794.12C2135.87 793.429 2138.64 792.322 2147.49 790.109C2168.23 784.993 2175.01 780.429 2171.55 773.929C2170.03 771.025 2169.34 770.887 2157.31 771.717C2150.39 772.27 2141.27 773.1 2137.12 773.514L2129.51 774.344L2136.01 767.706C2142.1 761.483 2142.93 761.068 2148.87 761.483C2153.44 761.621 2155.1 761.207 2155.1 759.824C2155.1 758.717 2153.71 757.473 2152.05 756.919C2149.01 756.228 2149.29 755.813 2155.79 749.037C2159.66 745.165 2169.34 735.761 2177.5 728.155L2192.3 714.326L2195.75 718.336C2198.66 721.655 2199.21 721.932 2200.04 719.857C2201.15 717.092 2198.52 711.836 2196.17 711.836C2195.2 711.836 2201.98 704.645 2211.1 695.933C2220.23 687.22 2228.39 680.168 2229.08 680.444C2229.91 680.583 2236.55 686.944 2244.02 694.688ZM2245.82 681.551C2246.23 682.38 2245.95 683.763 2245.12 684.593C2244.02 685.699 2242.77 685.284 2240.56 683.072L2237.52 680.029H2241.11C2243.19 680.029 2245.26 680.721 2245.82 681.551ZM1882.66 733.548C1891.79 752.356 1899.26 768.259 1899.26 769.089C1899.26 771.993 1882.8 786.514 1879.62 786.514C1876.58 786.514 1879.07 780.844 1883.08 778.355C1885.57 776.833 1889.02 774.068 1890.82 772.27L1894 768.813L1877.82 735.623C1867.86 715.155 1861.92 701.465 1862.47 700.082C1862.89 698.837 1863.99 698.284 1864.68 698.699C1865.51 699.252 1873.67 714.879 1882.66 733.548ZM1103.94 760.93L1113.48 791.354L1110.58 793.843C1104.91 798.407 1087.35 809.055 1086.65 808.226C1086.24 807.811 1087.07 795.088 1088.73 780.014C1090.25 764.94 1091.91 746.963 1092.46 740.186C1093.02 733.272 1093.71 728.293 1093.85 729.123C1094.12 729.814 1098.69 744.197 1103.94 760.93ZM1710.35 735.069C1712.56 738.665 1719.89 749.452 1726.53 758.994L1738.56 776.419L1733.17 802.417L1727.77 828.416L1697.21 870.042C1680.34 892.86 1665.41 912.774 1664.16 914.295C1661.81 916.646 1661.39 916.646 1658.49 914.572C1655.03 912.221 1650.33 911.529 1650.33 913.466C1650.33 914.157 1652.82 916.646 1655.86 919.136C1659.32 921.901 1661.95 925.359 1662.92 928.954C1665.41 937.39 1663.05 943.337 1653.37 952.74C1647.82 958.195 1644.33 963.355 1642.85 968.327C1642.31 970.162 1642.03 971.971 1642.03 973.761C1642.03 977.356 1639.54 976.388 1637.19 971.825C1634.57 966.846 1634.57 963.251 1637.19 954.677C1638.3 950.943 1639.27 946.379 1639.27 944.581C1639.27 939.05 1636.23 941.677 1634.15 949.145C1631.52 957.995 1630.14 959.378 1627.38 955.506C1626.27 953.847 1624.33 952.464 1623.09 952.464C1620.18 952.464 1615.76 948.453 1615.76 945.964C1615.76 944.858 1614.24 942.507 1612.3 940.571C1610.37 938.635 1608.43 935.592 1608.01 933.518C1607.46 931.582 1605.94 929.646 1604.56 929.369C1603.04 928.954 1601.93 928.401 1601.93 927.986C1601.93 924.944 1617 902.264 1622.12 897.839C1623.78 896.318 1628.62 886.914 1632.91 876.957C1642.31 854.553 1682.69 764.802 1689.74 750.143C1694.58 740.325 1703.16 728.431 1705.37 728.431C1705.92 728.431 1708.14 731.336 1710.35 735.069ZM1287.45 752.079C1294.65 755.951 1300.45 759.409 1300.45 759.824C1300.45 761.76 1288.56 774.483 1285.66 775.589C1283.86 776.28 1281.23 778.77 1279.99 781.259C1275.56 789.695 1269.48 794.811 1263.81 794.811C1259.38 794.811 1258.83 794.397 1259.66 792.322C1261.18 788.865 1269.34 760.93 1271.41 752.218C1272.24 748.345 1273.35 745.026 1273.76 745.026C1274.18 745.026 1280.4 748.207 1287.45 752.079ZM1327.97 776.419L1339.18 791.907L1326.18 806.151C1319.12 814.034 1311.38 822.193 1309.03 824.268L1304.88 828.14L1303.22 820.81C1302.39 816.8 1301.28 812.374 1301.01 811.13C1300.59 809.609 1302.53 806.428 1305.99 802.556C1313.59 794.258 1312.62 791.769 1304.19 798.13C1300.59 800.896 1296.86 803.109 1295.89 803.109C1292.85 803.109 1281.09 798.822 1281.09 797.716C1281.09 797.162 1283.31 794.535 1286.07 791.907C1288.84 789.418 1296.44 780.844 1302.94 772.961C1309.44 765.217 1315.25 759.27 1315.8 759.824C1316.36 760.377 1321.75 767.845 1327.97 776.419ZM2165.61 778.078C2163.95 780.706 2143.34 786.376 2126.61 788.727C2111.4 791.078 2106.69 792.737 2109.18 794.95C2109.74 795.503 2116.37 796.609 2123.98 797.439C2138.36 799.098 2147.63 802.556 2155.79 809.194C2159.66 812.374 2159.8 812.789 2157.72 814.864C2155.65 816.938 2155.1 816.8 2150.39 814.034C2144.59 810.715 2125.92 804.492 2124.4 805.46C2121.21 807.258 2124.12 810.023 2131.17 812.098C2135.6 813.343 2141.54 815.693 2144.45 817.076C2149.56 819.704 2153.71 825.65 2151.78 827.586C2151.36 828.14 2147.07 827.172 2142.23 825.512C2137.53 823.853 2130.34 822.055 2126.47 821.502C2120.25 820.81 2119.14 821.087 2119.14 823.023C2119.14 824.268 2120.25 825.651 2121.63 826.065C2122.87 826.48 2127.99 828.278 2132.97 830.214C2150.95 836.99 2149.84 838.512 2128.54 836.299L2112.92 834.639L2085.26 845.979C2070.05 852.341 2056.36 858.149 2054.83 859.117C2051.38 861.33 2001.32 877.786 1967.02 888.02C1900.92 907.657 1856.25 915.402 1844.63 909.317C1834.95 904.062 1823.61 888.573 1809.51 860.638C1801.48 844.873 1788.62 817.768 1788.62 816.385C1788.62 816.108 1792.5 815.555 1797.34 815.002C1818.63 812.789 1843.8 804.492 1865.79 792.599C1873.81 788.312 1877.41 786.929 1877.82 788.173C1879.76 793.705 1885.43 819.704 1885.43 823.299C1885.43 825.65 1886.26 828.278 1887.22 829.108C1889.02 830.629 1912.12 827.31 1993.99 813.619C2036.99 806.428 2040.31 805.598 2050.69 800.481C2067.7 792.184 2079.59 788.588 2112.92 782.227C2120.94 780.706 2165.19 775.727 2166.02 776.28C2166.16 776.419 2166.02 777.248 2165.61 778.078ZM1259.66 802.971C1260.07 803.8 1259.1 805.045 1257.58 805.875C1254.54 807.534 1254.4 807.258 1255.65 803.939C1256.62 801.449 1258.41 801.035 1259.66 802.971ZM1243.75 806.013C1243.75 810.577 1240.71 812.789 1234.35 812.789C1227.71 812.789 1223.01 814.587 1224.81 816.385C1225.36 816.938 1232.14 817.353 1240.02 817.076C1253.3 816.8 1257.31 815.832 1267.54 810.3C1270.17 808.917 1266.3 816.247 1261.59 821.502C1255.65 828.416 1244.45 834.225 1227.16 839.756C1210.01 845.15 1208.49 845.841 1210.29 847.639C1211.39 848.745 1213.33 848.745 1217.62 847.501C1220.66 846.533 1223.7 846.118 1224.12 846.532C1224.53 847.086 1223.84 849.575 1222.6 852.202C1221.35 854.968 1220.24 857.458 1220.24 857.734C1220.24 858.149 1225.22 860.915 1231.17 863.957C1237.25 867 1242.51 869.904 1242.92 870.595C1243.34 871.287 1238.78 872.255 1232.97 872.808C1226.47 873.361 1196.73 879.999 1158.57 889.541C1097.16 905.03 1074.07 909.455 1071.86 905.86C1071.44 905.168 1071.58 902.126 1072.27 899.083C1073.24 894.796 1084.72 818.459 1084.72 816.247C1084.72 815.002 1094.68 809.885 1095.51 810.715C1096.06 811.13 1096.89 817.768 1097.3 825.374C1097.86 833.118 1098.69 839.618 1099.1 840.033C1099.79 840.724 1146.26 835.469 1180.69 830.629C1196.32 828.555 1200.61 827.448 1203.23 824.959C1206.69 821.778 1239.19 804.63 1242.09 804.492C1242.92 804.492 1243.75 805.183 1243.75 806.013ZM1281.37 808.226C1283.86 810.3 1286.21 812.098 1286.49 812.374C1286.9 812.651 1285.38 814.725 1283.17 816.938C1280.54 819.704 1278.33 820.81 1276.67 820.257C1272.93 819.151 1273.63 821.502 1278.33 825.927C1281.92 829.384 1282.48 829.523 1282.48 827.31C1282.48 824.406 1287.59 818.321 1290.22 818.321C1291.19 818.321 1293.26 820.534 1294.92 823.161C1296.58 825.927 1298.79 828.969 1299.9 829.937C1301.42 831.597 1300.04 833.533 1290.36 842.66C1284.14 848.745 1274.73 857.181 1269.61 861.745L1260.35 869.904L1257.72 866.585C1256.34 864.787 1251.36 858.564 1246.66 852.894C1241.96 847.224 1238.22 842.245 1238.22 841.831C1238.22 841.416 1242.37 839.341 1247.21 837.129C1262.7 830.214 1272.8 819.012 1272.8 808.641C1272.8 803.385 1275.28 803.247 1281.37 808.226ZM1758.61 813.619C1765.25 814.725 1773.41 815.555 1776.59 815.279C1781.02 815.002 1782.4 815.417 1782.4 816.938C1782.4 821.363 1744.51 819.012 1739.81 814.311C1737.73 812.236 1740.36 809.747 1743.54 810.577C1745.06 810.992 1751.98 812.374 1758.61 813.619ZM1320.92 831.182C1321.75 835.193 1318.57 837.682 1312.76 837.682C1309.72 837.682 1307.37 837.267 1307.37 836.714C1307.37 836.161 1309.03 833.948 1311.1 831.874C1315.25 827.448 1320.23 827.172 1320.92 831.182ZM1009.21 831.735C1009.63 833.118 1012.81 844.735 1016.26 857.596C1023.04 883.042 1023.18 883.318 1057.06 945.549C1066.05 961.868 1074.9 978.324 1076.56 982.197C1078.36 985.93 1080.98 989.941 1082.37 990.909C1083.89 992.154 1084.58 993.813 1084.03 995.334C1083.34 997.547 1084.3 997.962 1092.6 998.792C1097.72 999.345 1106.71 1001.7 1112.38 1003.91C1120.81 1007.23 1124.13 1007.92 1130.08 1007.37C1137.68 1006.54 1137.96 1006.95 1133.4 1012.21C1132.29 1013.59 1130.49 1014.7 1129.53 1014.7C1126.21 1014.7 1112.52 1020.37 1109.33 1022.99L1106.15 1025.62L1109.2 1027.83C1112.79 1030.32 1129.39 1054.8 1131.74 1060.88C1133.81 1066.42 1131.46 1068.63 1128 1064.34C1104.08 1034.75 1097.99 1033.23 1109.2 1059.78C1113.62 1070.29 1115 1075.41 1114.17 1076.79C1111.69 1080.8 1109.75 1079.83 1106.29 1073.19C1102.01 1064.62 1099.52 1062.41 1097.3 1064.89C1096.2 1066.42 1096.75 1068.63 1100.07 1074.85C1104.49 1083.15 1104.08 1085.92 1098.69 1084.95C1096.89 1084.67 1092.88 1080.25 1087.9 1072.78C1076.97 1056.74 1070.61 1055.77 1078.5 1071.39C1082.64 1079.42 1082.92 1082.87 1079.6 1082.18C1075.87 1081.49 1049.18 1041.66 1039.77 1022.99C1037.7 1018.84 1033.27 1012.21 1030.09 1008.47C1021.8 998.653 994.691 961.868 980.723 941.401C956.937 906.551 943.246 879.446 936.747 854C935.225 848.192 933.981 842.937 933.981 842.245C933.981 841.692 940.619 841.001 948.64 840.863C964.543 840.586 980.862 837.82 994.829 832.98C1006.17 828.969 1008.24 828.831 1009.21 831.735ZM1719.62 869.489C1714.78 893.137 1714.36 896.594 1716.16 898.115C1717.4 898.945 1723.9 900.743 1730.82 902.126C1740.64 904.2 1743.54 905.306 1744.37 907.519C1745.06 909.04 1746.17 929.507 1747.14 953.155C1747.97 976.665 1748.93 1000.04 1749.21 1005.01C1749.9 1016.49 1751.01 1037.37 1754.88 1122.98L1755.85 1143.31L1747.69 1152.02C1743.13 1156.72 1714.91 1186.45 1684.77 1217.98C1654.62 1249.51 1628.48 1277.17 1626.55 1279.52L1622.95 1283.67L1617.14 1278.97C1609.95 1273.3 1609.95 1273.3 1601.93 1291.97C1598.75 1299.58 1594.46 1308.84 1592.53 1312.71L1589.07 1319.49L1595.43 1325.3L1601.79 1330.97L1592.39 1338.16C1584.92 1343.83 1582.02 1345.21 1577.73 1345.21C1574.96 1345.21 1564.73 1347.01 1555.05 1349.36C1545.51 1351.57 1535 1353.79 1531.82 1354.34C1528.5 1354.75 1525.32 1356 1524.49 1356.97C1523.38 1358.21 1527.53 1374.53 1539.42 1415.88L1555.88 1473.13L1596.26 1496.36C1618.8 1509.23 1637.61 1519.32 1638.71 1518.91C1639.82 1518.49 1642.59 1514.2 1644.8 1509.5C1652.27 1493.74 1650.33 1486.27 1633.6 1466.08C1622.95 1453.36 1621.29 1450.73 1621.29 1446.16C1621.29 1442.98 1622.12 1440.22 1623.64 1439.11C1627.38 1436.07 1633.74 1425.14 1633.74 1421.83C1633.74 1418.78 1634.57 1418.09 1658.91 1398.73L1672.18 1388.22L1685.87 1399.42C1693.34 1405.51 1700.67 1411.45 1702.33 1412.42C1704.96 1414.22 1707.31 1413.53 1726.25 1405.09C1737.87 1399.98 1747.83 1395 1748.24 1393.89C1748.66 1392.65 1746.72 1390.02 1743.13 1386.98L1737.32 1382.14L1768.02 1351.44C1784.89 1334.43 1799.13 1319.77 1799.82 1318.8C1800.38 1317.69 1801.21 1317.28 1801.48 1317.55C1801.76 1317.97 1802.45 1335.12 1803.01 1355.72L1803.97 1393.2L1799.55 1394.17C1797.2 1394.58 1792.22 1395 1788.62 1395C1785.03 1395 1781.43 1395.83 1780.6 1396.66C1779.63 1397.9 1781.29 1405.78 1786.41 1423.76C1790.42 1437.59 1794.29 1449.62 1795.12 1450.45C1795.95 1451.28 1804.8 1451.28 1822.37 1450.18C1836.61 1449.35 1848.5 1448.79 1848.78 1449.21C1849.19 1449.48 1850.02 1455.85 1850.85 1463.17C1851.96 1474.1 1851.82 1477.14 1850.16 1480.32C1849.06 1482.4 1845.88 1495.12 1843.11 1508.4C1840.21 1521.67 1836.89 1535.36 1835.37 1538.68L1832.88 1544.77L1799.96 1543.8C1781.98 1543.38 1700.95 1542.69 1619.91 1542.28C1538.87 1541.86 1446.35 1541.17 1414.27 1540.76L1355.91 1539.93L1359.78 1536.61C1361.99 1534.81 1364.76 1531.21 1366 1528.59C1368.77 1522.64 1368.91 1510.89 1366 1505.49C1363.93 1501.34 1363.93 1501.34 1370.71 1494.84C1378.04 1487.79 1378.45 1487.24 1449.12 1347.29C1467.23 1311.47 1482.45 1281.6 1483 1280.91C1483.55 1280.08 1495.72 1256.15 1510.1 1227.66L1536.24 1175.94L1536.38 1161.28V1146.76L1549.52 1124.64C1556.85 1112.47 1577.18 1077.89 1594.88 1047.89C1612.58 1017.88 1627.65 992.707 1628.2 992.015C1628.76 991.462 1632.77 993.536 1637.06 996.717C1647.57 1004.46 1650.75 1004.05 1657.66 993.813C1664.16 984.271 1663.88 982.058 1654.48 975.697C1650.75 973.208 1647.57 970.442 1647.57 969.75C1647.57 967.123 1653.79 958.272 1659.18 953.708C1667.76 946.241 1670.11 937.528 1666.79 926.188L1665.27 921.072L1694.72 880.829C1711.04 858.702 1724.46 841.139 1724.73 841.692C1724.87 842.107 1722.52 854.692 1719.62 869.489ZM2119.14 841.001C2119.14 841.277 2114.16 845.979 2108.08 851.511L2097.01 861.468L2092.31 856.213L2087.47 850.82L2099.5 845.703C2109.87 841.416 2119.14 839.065 2119.14 841.001ZM929.832 846.947C929.832 853.032 940.066 881.659 947.119 895.764C955.001 911.53 968.139 932.965 981.83 952.187C987.5 960.208 991.787 966.984 991.648 967.261C989.989 968.921 910.333 954.538 902.589 951.081C899.408 949.836 899.408 949.422 899.408 923.423V897.147L904.386 895.073C910.471 892.584 917.386 887.743 917.386 885.946C917.386 883.733 913.79 884.563 907.567 888.158C904.248 890.094 901.067 891.616 900.514 891.616C899.823 891.616 899.408 889.265 899.408 886.222C899.408 881.52 901.206 878.34 913.514 862.021C921.396 851.649 928.173 843.214 928.726 843.214C929.417 843.214 929.832 844.873 929.832 846.947ZM1312.9 845.703C1312.9 850.405 1308.2 852.894 1298.24 853.862L1288.7 854.692L1294.23 848.883C1299.07 843.767 1300.32 843.214 1306.26 843.214C1311.79 843.214 1312.9 843.628 1312.9 845.703ZM1242.65 858.702C1255.51 874.467 1256.89 876.404 1255.09 876.404C1254.54 876.404 1249.29 870.595 1243.62 863.681C1237.95 856.628 1232.28 849.437 1230.89 847.777C1229.51 845.979 1228.96 844.596 1229.65 844.596C1230.48 844.596 1236.29 850.958 1242.65 858.702ZM1233.38 858.426C1234.49 860.223 1233.24 860.223 1229.79 858.426C1228.4 857.596 1227.16 856.351 1227.16 855.521C1227.16 854 1232 856.213 1233.38 858.426ZM1298.24 862.989C1301.97 865.755 1298.66 867.553 1288.42 868.521C1279.43 869.212 1278.6 868.659 1281.09 863.819C1282.2 861.745 1284 861.191 1289.11 861.191C1292.85 861.191 1296.86 862.021 1298.24 862.989ZM1269.34 875.021C1269.75 875.712 1269.2 876.404 1268.09 876.404C1266.85 876.404 1265.88 875.712 1265.88 875.021C1265.88 874.191 1266.43 873.638 1267.13 873.638C1267.96 873.638 1268.92 874.191 1269.34 875.021ZM1773.41 912.636C1779.91 914.849 1791.11 918.859 1798.3 921.348C1816.56 927.848 1835.23 931.305 1861.23 933.103C1891.24 935.316 1909.49 933.518 1928.16 926.88C1931.48 925.774 1934.52 924.944 1934.66 925.22C1935.21 925.774 1938.67 976.665 1943.51 1056.18C1945.03 1081.63 1946.97 1112.19 1947.8 1123.95C1950.98 1172.21 1951.39 1181.47 1951.95 1215.22C1952.22 1234.58 1952.5 1280.08 1952.5 1316.17V1381.86L1939.64 1382.97C1932.45 1383.66 1926.5 1383.93 1926.22 1383.66C1925.95 1383.38 1926.22 1380.75 1927.05 1377.71C1929.4 1367.89 1930.1 1334.15 1928.44 1308.56C1925.95 1270.26 1915.02 1182.17 1912.39 1179.54C1912.12 1179.26 1911.01 1179.26 1909.9 1179.68C1908.25 1180.23 1908.25 1182.17 1909.9 1191.98C1912.53 1208.58 1919.45 1263.9 1921.52 1285.75C1923.6 1306.35 1924.15 1364.43 1922.35 1374.39C1920.69 1384.21 1919.59 1384.9 1905.2 1386.01L1892.34 1386.98V1377.85C1892.34 1370.8 1891.93 1368.72 1890.27 1368.72C1888.75 1368.72 1888.19 1370.93 1887.92 1377.99L1887.5 1387.39L1880.59 1387.81C1876.85 1387.94 1859.43 1389.33 1841.87 1390.85C1824.44 1392.23 1809.92 1393.2 1809.64 1393.06C1809.37 1392.78 1808.68 1371.21 1807.98 1345.07C1807.29 1318.94 1806.05 1271.09 1805.08 1238.73C1804.25 1206.37 1803.97 1174.98 1804.39 1168.89C1805.36 1157.27 1805.49 1158.66 1789.31 1069.32C1786.69 1054.8 1781.02 1023.96 1776.87 1000.73C1769.82 961.315 1768.85 957.581 1763.18 945.411C1757.23 932.55 1752.67 917.338 1752.67 910.285C1752.67 906.828 1752.94 906.689 1757.23 907.519C1759.58 908.072 1766.91 910.285 1773.41 912.636ZM1603.31 935.869C1603.31 939.05 1591.56 957.027 1586.86 961.315C1584.64 963.251 1583.54 963.665 1582.29 962.421C1580.77 960.9 1582.85 956.613 1593.08 940.294C1598.06 932.688 1603.31 930.337 1603.31 935.869ZM1759.72 951.081C1764.01 960.761 1765.81 967.953 1769.95 991.186C1772.72 1006.81 1777.14 1031.01 1779.63 1045.12C1800.1 1157.83 1801.48 1166.4 1798.58 1165.16C1794.98 1163.64 1766.5 1146.63 1766.5 1146.07C1766.5 1145.52 1770.23 1144.41 1774.79 1143.58C1783.23 1141.79 1785.86 1139.99 1783.37 1137.5C1782.54 1136.67 1779.22 1136.94 1773.69 1138.33C1769.12 1139.57 1764.42 1140.54 1763.32 1140.54C1760.55 1140.54 1760.41 1138.47 1756.82 1054.11C1755.16 1014.42 1754.19 993.813 1753.36 978.739C1751.42 943.06 1751.28 932.412 1752.81 935.869C1753.77 937.805 1756.82 944.581 1759.72 951.081ZM1610.37 951.219C1608.15 957.442 1596.81 975.559 1594.46 976.388C1593.36 976.803 1591.42 975.973 1590.17 974.591C1588.1 972.24 1588.1 971.825 1590.31 967.399C1593.36 961.453 1602.48 947.9 1605.52 944.858C1607.6 942.922 1608.15 942.783 1609.95 944.581C1611.61 946.379 1611.61 947.485 1610.37 951.219ZM1624.06 960.07C1624.06 962.974 1619.49 971.825 1612.02 983.303C1607.18 990.909 1605.39 992.707 1602.9 992.292C1601.24 992.015 1599.72 990.909 1599.44 989.664C1599.03 987.175 1607.6 973.761 1615.76 964.495C1621.71 957.719 1624.06 956.474 1624.06 960.07ZM896.642 970.718C894.983 976.388 890.281 981.09 885.302 982.197C879.356 983.579 879.217 982.335 884.749 979.016C887.377 977.495 890.972 973.899 892.77 971.271C896.78 965.187 898.163 964.91 896.642 970.718ZM1581.74 967.676C1582.71 967.676 1583.54 969.474 1583.54 971.963C1583.54 976.665 1588.1 981.367 1592.53 981.505C1594.46 981.505 1595.01 982.611 1594.74 987.313C1594.6 991.739 1595.29 993.536 1597.64 995.611C1601.38 998.515 1603.73 998.792 1607.88 996.579C1610.78 994.919 1610.78 995.058 1608.71 998.238C1607.46 1000.04 1588.93 1031.15 1567.36 1067.25C1545.78 1103.34 1527.67 1133.63 1526.98 1134.59C1526.01 1135.84 1524.35 1135.29 1520.48 1132.52C1517.57 1130.45 1508.86 1125.74 1501.11 1121.87C1491.43 1117.17 1487.29 1114.4 1487.84 1113.16C1488.25 1112.05 1501.25 1090.34 1516.74 1064.76C1532.23 1039.03 1551.87 1006.4 1560.44 992.154C1571.37 974.037 1576.76 966.431 1578.14 966.984C1579.11 967.399 1580.77 967.676 1581.74 967.676ZM933.981 978.739C933.981 979.431 933.704 980.122 933.428 980.122C933.013 980.122 932.321 979.431 931.906 978.739C931.492 977.91 931.768 977.356 932.46 977.356C933.289 977.356 933.981 977.91 933.981 978.739ZM952.097 1003.77C956.522 1011.1 957.49 1013.87 956.246 1015.11C954.31 1017.05 953.342 1016.08 947.119 1005.84C941.863 997.132 941.172 993.951 944.353 993.951C945.459 993.951 948.916 998.377 952.097 1003.77ZM968.83 1032.26C976.575 1041.39 981.277 1053.42 976.99 1053.42C975.33 1053.42 964.405 1035.16 964.405 1032.26C964.405 1029.22 966.203 1029.22 968.83 1032.26ZM1414.54 1083.84C1461.29 1107.63 1466.4 1111.36 1470.14 1123.81C1474.42 1138.6 1476.91 1132.38 1426.99 1230.43C1412.75 1258.23 1388.82 1305.52 1373.47 1335.53C1324.65 1431.78 1314.01 1452.25 1310.55 1456.95C1305.43 1463.73 1294.65 1468.71 1284.55 1468.84C1276.53 1468.84 1274.59 1468.02 1232.69 1446.72C1184.15 1422.24 1180.28 1419.34 1176.54 1406.34C1172.26 1391.54 1164.93 1407.44 1268.65 1204.15C1286.76 1168.75 1308.61 1125.47 1317.46 1108.04C1338.48 1066.14 1343.74 1061.02 1364.07 1062.13C1372.5 1062.68 1375.55 1063.93 1414.54 1083.84ZM996.212 1077.06C999.531 1082.6 1001.61 1087.71 1001.19 1088.96C1000.5 1090.62 999.946 1090.76 998.425 1089.51C995.659 1087.16 986.532 1071.67 986.532 1069.18C986.532 1064.48 990.819 1067.94 996.212 1077.06ZM1018.34 1114.27C1023.59 1122.98 1024.42 1126.71 1021.1 1126.71C1019.58 1126.71 1008.66 1108.6 1008.66 1106.24C1008.66 1101.82 1013.22 1105.55 1018.34 1114.27ZM1475.81 1113.44C1477.61 1115.09 1487.42 1120.76 1497.8 1126.16C1508.03 1131.55 1518.54 1137.64 1521.03 1139.57C1524.39 1142.23 1527.11 1146.03 1529 1150.44C1530.84 1154.74 1531.89 1159.62 1531.95 1164.6C1532.09 1172.9 1531.54 1174.15 1507.06 1222.13C1493.23 1249.1 1459.07 1316.31 1431.14 1371.49C1403.07 1426.67 1377.9 1475.9 1374.85 1481.01C1371.67 1486.68 1367.8 1491.39 1364.76 1493.18C1360.06 1496.09 1359.64 1496.09 1354.39 1494.01C1347.61 1491.39 1336.96 1491.25 1332.26 1493.74C1329.08 1495.54 1327.56 1495.12 1311.38 1486.82C1301.7 1481.98 1292.43 1477.97 1290.63 1477.97C1288.84 1477.83 1285.79 1477 1284 1476.04C1280.95 1474.38 1281.23 1474.24 1288.98 1473.55C1299.35 1472.58 1307.09 1468.71 1313.59 1461.1C1316.5 1457.64 1329.36 1434 1343.6 1406.06C1357.15 1379.09 1377.9 1338.3 1389.51 1315.48C1401.13 1292.66 1425.61 1244.67 1443.72 1208.99L1476.64 1144V1134.32C1476.78 1126.85 1475.95 1123.12 1473.32 1117.72C1471.52 1113.85 1469.72 1110.25 1469.45 1109.56C1468.62 1108.04 1471.52 1109.84 1475.81 1113.44ZM1035.21 1142.89C1042.95 1152.02 1047.66 1164.05 1043.37 1164.05C1041.71 1164.05 1030.78 1145.52 1030.78 1142.75C1030.78 1139.85 1032.58 1139.99 1035.21 1142.89ZM1778.67 1159.76C1787.66 1165.16 1795.95 1169.86 1797.2 1170.27C1799.27 1171.1 1799.69 1172.9 1799.41 1181.2C1799.13 1186.59 1799.27 1205.54 1799.55 1223.38C1799.96 1254.49 1799.82 1255.6 1797.2 1257.26C1795.68 1258.09 1788.21 1265.97 1780.74 1274.68C1751.15 1309.39 1720.03 1338.85 1705.65 1345.77L1699.01 1348.95L1687.12 1338.85L1675.22 1328.89L1680.48 1322.12C1686.98 1313.96 1705.09 1296.67 1715.05 1289.2C1722.38 1283.67 1724.18 1280.22 1719.89 1280.22C1716.3 1280.22 1690.3 1302.48 1680.48 1313.82C1675.78 1319.35 1671.35 1323.78 1670.66 1323.78C1669.28 1323.78 1646.32 1304.83 1646.32 1303.59C1646.18 1303.03 1651.3 1295.57 1657.52 1286.99C1668.45 1271.78 1687.26 1251.45 1697.35 1243.98C1701.08 1241.08 1701.78 1239.97 1700.53 1238.59C1698.6 1236.65 1695.41 1238.45 1685.18 1246.89C1674.95 1255.32 1650.33 1285.75 1644.38 1297.22L1642.59 1300.68L1634.7 1294.32C1630.56 1290.73 1627.1 1287.41 1627.24 1286.99C1627.65 1285.47 1639.27 1273.16 1699.29 1210.52L1756.12 1151.19L1759.17 1167.51C1762.21 1183.83 1763.87 1187.97 1766.36 1185.35C1767.46 1184.24 1764.84 1166.4 1761.66 1153.26C1761.24 1151.6 1761.24 1150.22 1761.79 1150.22C1762.21 1150.22 1769.82 1154.51 1778.67 1159.76ZM1052.91 1191.85C1052.91 1203.05 1052.64 1204.29 1050.56 1203.88C1048.35 1203.46 1048.07 1201.94 1048.62 1191.71C1049.04 1179.26 1049.59 1177.33 1051.67 1178.57C1052.36 1179.12 1052.91 1185.07 1052.91 1191.85ZM954.725 1217.15C954.725 1219.23 942.278 1224.62 934.396 1225.87C930.938 1226.42 929.832 1226.14 929.832 1224.48C929.832 1223.24 933.289 1221.16 939.236 1218.95C950.161 1214.94 954.725 1214.39 954.725 1217.15ZM1052.64 1231.4C1053.05 1241.36 1051.25 1249.24 1048.76 1247.72C1047.24 1246.75 1046.83 1223.1 1048.35 1221.58C1050.84 1219.23 1052.22 1222.55 1052.64 1231.4ZM914.205 1231.26C914.758 1233.06 895.121 1240.53 891.802 1239.83C887.238 1239 889.728 1236.51 898.855 1232.92C908.535 1229.05 913.375 1228.49 914.205 1231.26ZM648.547 1234.86C648.962 1235.55 650.898 1245.37 652.557 1256.43C654.355 1267.63 660.578 1305.94 666.387 1341.48C672.195 1377.16 676.62 1407.17 676.205 1408.41C675.79 1409.52 674.131 1410.21 672.333 1409.93C668.876 1409.52 670.674 1418.64 651.313 1300.27C639.005 1224.35 639.835 1231.95 644.122 1232.78C646.196 1233.2 648.132 1234.16 648.547 1234.86ZM872.856 1245.09C872.441 1247.44 852.804 1255.18 849.9 1254.22C845.751 1252.83 849.07 1249.93 858.335 1246.61C870.367 1242.32 873.547 1242.05 872.856 1245.09ZM728.894 1252C737.33 1252.56 744.936 1253.39 745.904 1253.94C747.011 1254.63 756.968 1305.52 756.968 1310.92C756.968 1311.33 755.17 1310.09 752.957 1307.87C746.043 1300.96 738.022 1300.82 725.714 1307.32C718.799 1311.05 716.863 1310.36 716.863 1304.28C716.863 1299.02 710.917 1292.11 703.034 1288.1C689.896 1281.6 688.928 1277.59 698.194 1268.6C702.481 1264.31 704.832 1260.58 706.076 1256.15C707.459 1250.62 708.289 1249.79 710.64 1250.34C712.161 1250.76 720.32 1251.45 728.894 1252ZM832.337 1259.33C832.337 1260.58 827.911 1262.79 820.858 1265.14C811.178 1268.46 809.242 1268.74 808.55 1266.94C807.582 1264.17 807.721 1264.03 818.646 1260.16C829.018 1256.57 832.337 1256.43 832.337 1259.33ZM1801.07 1282.84C1801.07 1295.01 1801.35 1305.66 1801.76 1306.77C1802.18 1307.74 1788.07 1323.22 1768.16 1343.83L1733.72 1379.09L1719.2 1366.65C1711.04 1359.73 1704.4 1353.79 1704.4 1353.23C1704.27 1352.68 1706.89 1350.88 1710.21 1349.22C1719.34 1344.66 1733.86 1332.35 1751.84 1314.1C1767.05 1298.88 1797.06 1265 1798.03 1262.1C1798.3 1261.41 1799.13 1260.85 1799.82 1260.85C1800.52 1260.85 1801.07 1270.4 1801.07 1282.84ZM1051.25 1278.28C1050.98 1288.1 1050.42 1290.59 1048.76 1290.59C1046 1290.59 1045.03 1268.6 1047.52 1265.56C1050.56 1261.82 1051.67 1265.69 1051.25 1278.28ZM791.54 1273.02C791.54 1274.82 788.775 1276.34 780.201 1279.25C772.733 1281.6 768.308 1282.43 767.478 1281.6C765.403 1279.52 767.754 1277.86 778.403 1274.13C790.296 1269.98 791.54 1269.84 791.54 1273.02ZM1676.61 1336.91C1711.18 1366.51 1739.53 1391.4 1739.53 1392.23C1739.53 1393.75 1709.24 1407.44 1705.92 1407.44C1704.82 1407.44 1690.57 1396.38 1674.12 1382.97C1604.56 1326.13 1597.09 1319.9 1596.67 1318.94C1596.54 1318.38 1598.89 1312.02 1602.07 1304.97C1605.11 1297.78 1608.57 1289.9 1609.54 1287.41C1610.64 1285.06 1612.02 1282.98 1612.58 1282.98C1613.13 1282.98 1642.03 1307.18 1676.61 1336.91ZM1050.56 1319.9C1050.01 1331.94 1049.45 1334.15 1047.38 1334.15C1045.86 1334.15 1045.31 1308.98 1046.97 1307.46C1049.45 1304.83 1050.98 1309.81 1050.56 1319.9ZM747.979 1312.71C749.915 1314.51 751.436 1317 751.436 1318.25C751.436 1320.46 746.734 1320.46 727.926 1317.97L721.703 1317.14L730.001 1313.27C740.096 1308.43 743.692 1308.29 747.979 1312.71ZM740.373 1324.47C740.373 1326.27 734.841 1326.27 732.075 1324.47C730.554 1323.5 731.384 1323.09 735.256 1323.09C738.022 1323.09 740.373 1323.64 740.373 1324.47ZM738.022 1335.12C740.373 1336.64 743.415 1339.4 744.521 1341.48C746.319 1344.8 746.319 1345.63 744.521 1348.95C740.234 1356.55 734.288 1354.2 724.469 1340.79C721.012 1336.22 718.246 1332.07 718.246 1331.52C718.246 1329.59 733.458 1332.49 738.022 1335.12ZM1636.78 1359.32C1653.79 1373.01 1667.76 1384.49 1668.03 1384.63C1668.45 1384.9 1637.06 1409.38 1635.53 1409.79C1634.98 1410.07 1632.91 1407.44 1631.11 1403.85C1627.24 1396.52 1621.57 1391.4 1613.27 1387.81C1608.43 1385.59 1604.83 1385.18 1594.88 1385.59C1583.81 1386.01 1582.15 1385.73 1580.36 1383.38C1578 1380.06 1578.7 1377.43 1584.5 1367.34C1590.45 1357.11 1591 1355.45 1589.48 1351.44C1588.38 1348.39 1589.07 1347.42 1596.81 1341.2C1601.51 1337.47 1605.52 1334.29 1605.66 1334.29C1605.94 1334.15 1619.91 1345.49 1636.78 1359.32ZM1000.22 1351.71C1003.4 1375.22 1008.11 1389.47 1017.79 1405.65C1020.55 1410.35 1019.58 1412.97 1015.85 1410.76C1012.12 1408.55 1002.16 1387.25 998.978 1374.94C996.212 1364.02 993.446 1341.62 994.691 1340.37C997.18 1337.74 998.701 1340.93 1000.22 1351.71ZM1049.87 1363.47C1049.59 1373.84 1049.04 1376.33 1047.38 1376.33C1045.72 1376.33 1045.17 1373.84 1044.89 1363.47C1044.48 1351.44 1044.61 1350.74 1047.38 1350.74C1050.15 1350.74 1050.28 1351.44 1049.87 1363.47ZM1584.23 1353.51C1585.2 1355.03 1583.95 1358.21 1579.94 1365.26C1573.58 1376.05 1572.89 1381.86 1576.9 1386.84C1579.39 1389.88 1580.49 1390.16 1593.91 1390.16C1606.91 1390.16 1608.71 1390.43 1614.51 1393.89C1626.82 1401.08 1632.63 1415.46 1627.24 1424.87C1625.85 1427.36 1622.95 1431.64 1620.6 1434.69L1616.45 1440.08L1609.67 1435.93C1603.59 1432.06 1601.65 1431.64 1592.39 1431.64C1581.46 1431.78 1573.58 1434.41 1571.92 1438.84C1570.54 1442.57 1574.41 1443.12 1582.02 1440.5C1591.28 1437.18 1595.57 1437.18 1602.62 1440.5C1608.57 1443.26 1617.14 1450.59 1617.14 1452.94C1617.14 1453.77 1622.26 1460.55 1628.48 1467.88C1634.7 1475.21 1640.51 1482.95 1641.62 1484.89C1643.14 1487.93 1644.25 1502.86 1642.86 1502.86C1642.45 1502.86 1567.36 1460.13 1566.25 1459.3C1565.84 1458.89 1539.7 1358.49 1540.11 1358.35C1540.25 1358.21 1546.61 1356.41 1554.22 1354.48C1569.57 1350.61 1582.15 1350.19 1584.23 1353.51ZM1967.71 1390.43C1967.3 1392.65 1965.77 1403.85 1964.25 1415.6C1962.73 1427.36 1961.35 1437.04 1961.07 1437.31C1960.8 1437.59 1924.7 1439.67 1863.99 1442.71C1842 1443.81 1818.22 1445.06 1811.16 1445.61L1798.58 1446.44L1795.54 1436.35C1793.88 1430.68 1790.97 1420.72 1789.04 1413.94C1786.96 1407.31 1785.72 1401.5 1786.13 1401.22C1786.55 1400.81 1810.47 1398.59 1839.24 1396.24C1868.14 1393.89 1905.06 1390.99 1921.38 1389.6C1937.7 1388.22 1954.99 1386.98 1959.69 1386.84L1968.4 1386.7L1967.71 1390.43ZM1048.49 1406.34C1048.21 1416.71 1047.66 1419.2 1046 1419.2C1044.34 1419.2 1043.78 1416.85 1043.51 1408.27C1043.09 1395.97 1043.51 1393.61 1046.69 1393.61C1048.49 1393.61 1048.76 1395.55 1048.49 1406.34ZM1048.9 1450.31C1049.32 1457.5 1050.7 1465.8 1051.94 1468.57L1054.16 1473.82H1048.62C1039.91 1473.82 1034.38 1477 1028.02 1485.58C1024.84 1489.87 1021.38 1493.74 1020.27 1494.15C1016.4 1495.67 1012.12 1493.18 1008.93 1487.65C1005.62 1481.84 998.84 1476.59 994.553 1476.59C991.51 1476.59 991.51 1475.9 994.276 1464.83C996.35 1456.68 996.904 1455.85 1000.22 1455.71C1002.16 1455.71 1012.53 1454.88 1023.18 1454.05L1042.54 1452.39L1042.95 1444.37C1043.37 1437.59 1043.78 1436.35 1045.72 1436.76C1047.66 1437.18 1048.21 1439.53 1048.9 1450.31ZM1923.32 1447.13C1923.6 1448.52 1924.43 1454.74 1924.84 1460.96L1925.81 1472.3L1920.69 1473.27C1915.57 1474.24 1908.94 1479.91 1900.5 1490.42C1896.08 1496.23 1892.34 1495.26 1887.92 1487.24C1883.35 1479.08 1875.89 1475.07 1865.79 1475.48C1861.5 1475.76 1857.77 1475.62 1857.35 1475.21C1857.08 1474.79 1856.25 1468.84 1855.83 1461.79L1854.86 1449.07L1859.43 1448.38C1861.92 1447.96 1874.64 1446.99 1887.5 1446.44C1924.43 1444.51 1922.49 1444.51 1923.32 1447.13ZM1064.8 1454.74C1061.62 1470.37 1060.24 1471.89 1057.2 1462.9C1054.57 1455.02 1055.12 1451.97 1059.55 1451.28C1061.62 1451.01 1063.84 1450.59 1064.53 1450.45C1065.22 1450.45 1065.36 1452.25 1064.8 1454.74ZM1097.58 1455.43C1100.62 1458.33 1100.62 1459.03 1096.47 1463.87C1093.29 1467.6 1074.07 1478.94 1072.96 1477.7C1071.3 1476.04 1077.67 1461.52 1082.23 1456.81C1086.65 1452.11 1087.9 1451.56 1091.22 1452.39C1093.29 1452.8 1096.2 1454.32 1097.58 1455.43ZM1070.34 1459.44C1069.78 1462.21 1068.95 1464.14 1068.68 1463.73C1068.26 1463.31 1068.4 1460.82 1068.95 1458.06C1069.37 1455.15 1070.2 1453.22 1070.47 1453.63C1070.89 1454.05 1070.75 1456.54 1070.34 1459.44ZM1943.23 1486.41C1948.35 1490.97 1952.36 1495.26 1952.22 1495.67C1952.08 1496.09 1949.46 1497.19 1946.28 1498.16C1939.08 1500.24 1931.89 1505.77 1927.33 1512.68C1923.73 1518.08 1923.73 1522.23 1927.33 1522.23C1928.44 1522.23 1930.93 1519.74 1933 1516.69C1938.25 1508.67 1945.86 1504.11 1956.23 1502.86C1963.29 1502.03 1966.05 1502.31 1970.48 1504.39C1973.52 1505.77 1982.23 1509.23 1989.84 1511.99C2003.11 1516.83 2023.72 1527.34 2023.72 1529.42C2023.72 1530.38 1845.6 1531.77 1844.08 1530.94C1843.66 1530.66 1846.98 1513.24 1851.82 1491.66L1853.9 1482.4L1860.81 1481.01C1872.15 1478.8 1879.76 1482.26 1884.74 1491.8C1887.22 1496.64 1890.68 1498.72 1896.08 1498.72C1901.05 1498.72 1903.27 1497.06 1908.8 1488.76C1914.19 1480.74 1918.62 1478.11 1927.33 1477.97C1933.69 1477.97 1934.66 1478.53 1943.23 1486.41ZM1348.72 1506.32C1357.15 1510.61 1357.71 1522.92 1349.82 1527.9C1345.12 1530.8 1338.07 1530.52 1336.27 1527.48C1334.75 1525.13 1337.24 1523.88 1341.39 1524.71C1345.54 1525.54 1350.24 1521.67 1350.24 1517.39C1350.24 1513.51 1345.54 1509.23 1342.08 1510.19C1340.7 1510.47 1338.62 1510.33 1337.65 1509.64C1336.13 1508.53 1336.27 1507.98 1338.35 1506.32C1341.8 1503.69 1343.88 1503.69 1348.72 1506.32ZM1143.49 1533.98V1538.13L1054.99 1538.54C1006.31 1538.68 965.65 1538.54 964.82 1538.13C963.437 1537.71 963.437 1536.75 964.682 1534.12L966.203 1530.52L996.765 1530.11C1013.64 1529.97 1053.46 1529.83 1085.41 1529.83H1143.49V1533.98Z" fill="black"/>
<path d="M1914.47 475.496C1914.47 476.326 1916.68 479.507 1919.31 482.411C1924.84 488.634 1925.12 490.294 1921.38 494.719C1917.65 499.006 1919.86 501.495 1924.7 498.314C1931.34 494.027 1930.93 487.389 1923.46 478.4C1919.86 474.113 1914.47 472.316 1914.47 475.496Z" fill="black"/>
<path d="M1044.06 645.733C1043.64 646.701 1043.09 650.435 1042.68 654.169C1041.15 667.445 1034.65 673.253 1024.7 670.626C1021.38 669.658 1019.44 669.658 1018.89 670.626C1017.51 672.838 1020.41 674.636 1026.63 675.466C1034.38 676.572 1040.88 673.115 1044.06 666.339C1046.96 660.392 1048.48 644.074 1046.13 644.074C1045.3 644.074 1044.34 644.904 1044.06 645.733Z" fill="black"/>
<path d="M875.209 706.582C874.794 707.55 874.656 724.836 874.794 744.889C875.071 772.685 875.624 781.536 877.007 782.089C879.219 782.781 879.496 706.997 877.283 705.614C876.454 705.199 875.624 705.614 875.209 706.582Z" fill="black"/>
<path d="M802.602 817.492C802.602 819.428 810.622 826.481 817.952 831.044C822.792 834.087 835.238 837.682 840.77 837.682C847.961 837.682 857.918 833.81 865.801 827.863C874.237 821.502 877.141 817.353 873.822 816.109C872.439 815.555 869.535 817.353 865.663 820.811C857.503 828.278 851.972 830.906 842.844 831.736C833.026 832.565 822.516 828.831 813.112 821.087C806.197 815.279 802.602 814.173 802.602 817.492Z" fill="black"/>
<path d="M875.484 831.597C874.93 832.15 874.516 854.277 874.516 880.829C874.516 926.05 874.654 929.092 877.005 928.677C879.218 928.263 879.356 924.805 879.356 879.999C879.356 833.809 878.941 828.278 875.484 831.597Z" fill="black"/>
<path d="M2148.73 727.187C2147.35 729.538 2150.95 731.198 2158 731.198C2162.29 731.198 2164.78 730.506 2165.19 729.262C2165.61 728.155 2165.61 726.911 2165.19 726.496C2163.67 724.975 2149.7 725.666 2148.73 727.187Z" fill="black"/>
<path d="M2120.25 748.76C2115.13 754.568 2113.33 761.621 2116.93 761.621C2119 761.621 2124.67 751.941 2124.67 748.483C2124.67 745.718 2122.73 745.856 2120.25 748.76Z" fill="black"/>
<path d="M2202.67 732.166C2203.08 734.24 2203.91 737.974 2204.33 740.463C2205.3 745.165 2208.62 747.654 2209.86 744.473C2211.24 740.878 2207.09 729.123 2204.33 728.708C2202.12 728.293 2201.84 728.708 2202.67 732.166Z" fill="black"/>
<path d="M2163.67 759.824C2164.08 761.899 2165.6 762.313 2172.38 762.313C2179.16 762.313 2180.68 761.899 2181.09 759.824C2181.51 757.75 2180.4 757.473 2172.38 757.473C2164.36 757.473 2163.25 757.75 2163.67 759.824Z" fill="black"/>
<path d="M2022.33 817.63C2021.36 818.736 2016.66 821.502 2011.82 823.853C2006.98 826.066 2002.97 828.555 2002.97 829.246C2002.97 831.874 2006.7 831.597 2014.03 828.417C2022.19 824.821 2027.86 820.257 2027.86 817.353C2027.86 814.864 2024.4 815.002 2022.33 817.63Z" fill="black"/>
<path d="M1843.66 843.491C1838.96 850.543 1838.27 854.277 1841.59 854.277C1843.8 854.277 1852.65 839.48 1851.54 837.682C1850.02 835.193 1848.5 836.299 1843.66 843.491Z" fill="black"/>
<path d="M1818.49 1264.73C1817.52 1266.39 1821.39 1298.47 1824.71 1314.79C1828.17 1332.21 1835.22 1354.2 1840.89 1365.4C1845.59 1374.53 1855.55 1386.7 1858.59 1386.7C1861.77 1386.7 1860.8 1383.93 1855.55 1378.13C1849.19 1370.93 1839.51 1350.61 1834.94 1334.84C1831.07 1321.56 1825.4 1290.03 1823.88 1273.58C1823.19 1266.66 1822.36 1263.62 1821.11 1263.62C1820.01 1263.62 1818.9 1264.17 1818.49 1264.73Z" fill="black"/>
<path d="M1331.16 1111.78C1331.85 1113.57 1337.79 1116.75 1397.95 1147.18C1420.77 1158.79 1440.27 1168.2 1441.38 1168.2C1442.34 1168.2 1442.9 1167.37 1442.62 1166.4C1441.93 1164.46 1336.83 1110.39 1333.23 1110.25C1331.85 1110.12 1330.88 1110.81 1331.16 1111.78Z" fill="black"/>
<path d="M1294.23 1176.63C1294.92 1178.29 1325.9 1195.44 1387.85 1228.08C1404.45 1236.93 1408.32 1238.45 1408.32 1236.38C1408.18 1234.58 1394.63 1226.56 1354.11 1204.98C1301.7 1176.91 1292.57 1172.62 1294.23 1176.63Z" fill="black"/>
<path d="M1262.7 1238.17C1262.15 1238.73 1261.73 1239.7 1261.73 1240.11C1261.73 1241.36 1372.64 1300.96 1374.85 1300.96C1377.07 1300.96 1376.93 1298.88 1374.85 1297.23C1372.92 1295.7 1274.45 1242.6 1264.36 1237.62C1263.94 1237.48 1263.25 1237.76 1262.7 1238.17Z" fill="black"/>
<path d="M1230.75 1300.82C1230.34 1301.51 1230.75 1302.62 1231.72 1303.45C1234.62 1305.8 1341.66 1363.19 1343.18 1363.19C1344.01 1363.19 1344.7 1362.36 1344.7 1361.39C1344.7 1360.42 1337.1 1355.58 1327.83 1350.61C1251.22 1309.39 1232.82 1299.58 1232.27 1299.58C1231.86 1299.58 1231.16 1300.13 1230.75 1300.82Z" fill="black"/>
<path d="M1199.5 1363.47C1199.5 1365.68 1311.24 1425.84 1313.04 1424.59C1315.66 1423.07 1311.24 1420.03 1286.9 1407.03C1273.49 1399.84 1248.87 1386.7 1232.41 1377.85C1215.96 1369 1201.71 1361.81 1201.02 1361.81C1200.19 1361.81 1199.5 1362.64 1199.5 1363.47Z" fill="black"/>
<path d="M1799 1447.5L1785 1400.5L1970 1384.5L1962 1438.5L1799 1447.5Z" fill="#C86139" stroke="black"/>
<path d="M1595 1319L1612.5 1282.5L1741.5 1392L1706 1409.5L1595 1319Z" fill="#C86139" stroke="black"/>
<ellipse cx="949.849" cy="1005.46" rx="3.5" ry="14.5" transform="rotate(-27.7291 949.849 1005.46)" fill="#C86139"/>
<ellipse cx="972.849" cy="1042.46" rx="3.5" ry="14.5" transform="rotate(-27.7291 972.849 1042.46)" fill="#C86139"/>
<ellipse cx="1014.85" cy="1115.46" rx="3.5" ry="14.5" transform="rotate(-33.613 1014.85 1115.46)" fill="#C86139"/>
<ellipse cx="1036.95" cy="1152.01" rx="3.5" ry="14.5" transform="rotate(-33.613 1036.95 1152.01)" fill="#C86139"/>
<ellipse cx="1051.19" cy="1191.65" rx="3.5" ry="14.5" transform="rotate(2.72014 1051.19 1191.65)" fill="#C86139"/>
<ellipse cx="1050.19" cy="1231.65" rx="3.5" ry="14.5" transform="rotate(2.72014 1050.19 1231.65)" fill="#C86139"/>
<ellipse cx="1049.19" cy="1276.65" rx="3.5" ry="14.5" transform="rotate(2.72014 1049.19 1276.65)" fill="#C86139"/>
<ellipse cx="1048.19" cy="1321.65" rx="3.5" ry="14.5" transform="rotate(2.72014 1048.19 1321.65)" fill="#C86139"/>
<ellipse cx="1047.19" cy="1363.65" rx="3.5" ry="14.5" transform="rotate(2.72014 1047.19 1363.65)" fill="#C86139"/>
<ellipse cx="1046.19" cy="1405.65" rx="3.5" ry="14.5" transform="rotate(2.72014 1046.19 1405.65)" fill="#C86139"/>
<ellipse cx="1045.19" cy="1447.65" rx="3.5" ry="14.5" transform="rotate(2.72014 1045.19 1447.65)" fill="#C86139"/>
<ellipse cx="778.915" cy="1276.2" rx="3.5" ry="14.5" transform="rotate(74.696 778.915 1276.2)" fill="#C86139"/>
<ellipse cx="819.915" cy="1262.2" rx="3.5" ry="14.5" transform="rotate(74.696 819.915 1262.2)" fill="#C86139"/>
<ellipse cx="859.915" cy="1248.2" rx="3.5" ry="14.5" transform="rotate(74.696 859.915 1248.2)" fill="#C86139"/>
<ellipse cx="902.915" cy="1234.2" rx="3.5" ry="14.5" transform="rotate(74.696 902.915 1234.2)" fill="#C86139"/>
<ellipse cx="941.915" cy="1220.2" rx="3.5" ry="14.5" transform="rotate(74.696 941.915 1220.2)" fill="#C86139"/>
<ellipse cx="992.849" cy="1077.46" rx="3.5" ry="14.5" transform="rotate(-27.7291 992.849 1077.46)" fill="#C86139"/>
</svg>
