<svg width="288" height="254" viewBox="0 0 288 254" fill="none" xmlns="http://www.w3.org/2000/svg">
<g clip-path="url(#clip0_673_478)">
<path d="M95.8238 3.12946C49.7186 11.4356 15.1698 39.1228 3.49301 77.0422C0.12239 87.756 -0.359127 108.341 2.28921 119.175C6.02097 134.222 16.6143 152.4 28.1707 163.715C31.1802 166.604 33.7082 169.614 33.7082 170.336C33.7082 170.938 30.0968 180.087 25.7631 190.56C21.3091 200.912 17.9385 209.7 18.1793 210.061C18.5404 210.302 29.9764 206.209 43.82 200.912L68.7385 191.162L81.6191 194.773C98.111 199.468 108.584 201.033 124.956 201.033C162.875 201.033 197.063 187.31 220.537 162.752C231.371 151.316 237.269 141.686 242.205 127C245.455 117.61 245.937 114.48 245.937 102.924C245.937 94.0157 245.335 87.1541 243.89 81.9778C233.056 41.7712 195.979 11.556 147.466 3.12946C134.104 0.721878 108.825 0.842257 95.8238 3.12946ZM154.689 16.6119C172.505 21.4271 182.497 26.0015 195.979 35.2707C218.49 50.7996 232.695 74.0328 234.38 97.8678C236.908 136.75 206.091 172.383 159.023 185.143C148.429 187.911 145.42 188.273 124.594 188.273C100.398 188.273 92.3328 186.948 76.0816 180.448L69.8219 177.92L55.256 183.578C47.311 186.708 40.5698 188.995 40.2086 188.634C39.8475 188.393 41.6532 183.337 44.1812 177.559L48.7556 166.965L37.8011 156.011C26.365 144.695 20.3461 135.426 15.4105 122.064C11.5584 111.471 11.5584 89.2005 15.4105 78.1257C20.7072 62.7171 30.3376 49.4754 43.82 38.6413C58.1451 27.3257 76.0816 19.1399 95.8238 15.047C107.982 12.519 143.374 13.4821 154.689 16.6119Z" fill="black"/>
<path d="M63.3194 87.7569C58.7449 90.8867 56.6985 94.6185 56.5781 100.276C56.5781 109.425 62.5971 115.564 71.6255 115.564C80.654 115.564 86.6729 109.425 86.6729 100.276C86.5525 91.609 80.2928 85.4697 71.6255 85.4697C68.8568 85.4697 65.2454 86.4327 63.3194 87.7569Z" fill="black"/>
<path d="M115.325 87.3953C105.936 92.4512 106.176 108.823 115.566 113.758C123.03 117.61 133.141 115.082 136.632 108.341C138.799 104.128 138.92 96.6644 136.753 92.9327C133.021 86.1915 122.548 83.4227 115.325 87.3953Z" fill="black"/>
<path d="M167.09 87.3958C160.59 90.8868 157.821 102.564 162.034 109.064C167.933 117.972 182.74 117.611 188.277 108.342C192.37 101.36 189.842 91.4887 182.98 87.3958C178.767 84.9882 171.424 84.9882 167.09 87.3958Z" fill="black"/>
<path d="M263.269 121.583C262.908 122.546 261.223 128.204 259.417 133.982C254.602 149.15 245.814 163.234 232.934 176.476C207.413 202.598 173.828 217.044 134.223 218.97L119.777 219.692L127.602 225.952C145.177 240.156 167.447 247.981 190.32 247.981C204.765 247.981 211.627 246.898 226.313 242.444L236.665 239.314L253.398 245.935C262.667 249.426 270.492 252.315 270.733 252.074C270.974 251.833 268.566 245.694 265.436 238.351L259.658 224.989L264.714 220.655C272.057 214.516 281.085 200.913 284.336 191.644C288.067 180.689 287.947 164.077 284.215 152.881C279.641 139.519 264.593 117.129 263.269 121.583Z" fill="black"/>
</g>
<defs>
<clipPath id="clip0_673_478">
<rect width="287.706" height="254" fill="white"/>
</clipPath>
</defs>
</svg>
