<svg width="357" height="497" viewBox="0 0 357 497" fill="none" xmlns="http://www.w3.org/2000/svg">
<path fill-rule="evenodd" clip-rule="evenodd" d="M93.1959 541.002C95.3079 544.212 99.4622 543.718 101.246 541.232C121.555 545.966 142.376 544.1 162.967 542.94C220.993 540.578 279.346 547.981 337.137 540.236C343.267 539.01 350.403 539.596 355.419 535.342C363.442 525.937 361.714 511.657 360.436 500.201C350.192 435.625 335.627 370.457 328.362 305.466C327.956 299.275 330.506 291.583 332.793 285.764C333.357 284.681 336.927 283.62 338.779 282.371C344.462 278.29 343.541 270.976 338.614 266.684C322.66 255.435 300.452 259.366 283.528 263.516C280.285 251.33 276.639 243.315 270.464 242.522C258.711 241.011 230.2 236.394 221.418 242.522C217.216 245.453 214.52 255.781 211.496 260.813C189.44 260.421 144.675 230.901 135.472 264.143C127.995 264.659 120.59 271.19 122.02 279.026C112.323 287.599 119.971 300.452 119.837 311.122C118.562 333.76 106.317 354.006 101.223 375.875C89.5784 418.289 76.3986 495.441 90.8412 536.842C90.5304 536.679 89.8515 536.924 90.2913 537.268C91.9267 537.729 92.1393 539.79 93.1959 541.002Z" fill="#F1F0E0"/>
<path fill-rule="evenodd" clip-rule="evenodd" d="M346.778 530.215C344.069 508.46 342.185 482.198 342.164 460.262C342.162 458.196 345.366 458.2 345.368 460.262C345.39 482.198 347.273 508.46 349.982 530.215C350.237 532.26 347.029 532.235 346.778 530.215M326.712 395.327C322.526 397.888 317.03 396.112 312.887 394.416C311.001 393.644 311.832 390.544 313.739 391.325C316.892 392.616 321.499 394.516 324.826 392.716C328.147 390.919 328.297 385.977 328.322 382.716C328.337 380.651 331.541 380.653 331.526 382.716C331.492 387.153 330.899 392.765 326.712 395.327M318.966 494.88C314.743 492.715 311.14 489.755 308.24 485.997C306.98 484.364 309.765 482.769 311.007 484.379C313.559 487.686 316.885 490.216 320.583 492.113C322.421 493.055 320.798 495.82 318.966 494.88M298.67 383.008C291.424 412.054 286.562 441.62 284.179 471.463C283.694 477.521 283.354 483.572 283.162 489.626C282.969 491.205 282.785 492.787 282.613 494.37C281.96 500.356 281.459 506.439 281.503 512.465C281.523 515.17 281.607 517.862 281.792 520.558C281.471 519.657 281.175 518.752 280.887 517.85C280.298 516.003 279.909 514.088 279.308 512.253C278.812 510.734 278.171 509.279 277.574 507.809V507.805C277.754 501.783 277.346 495.704 277.138 489.71C276.869 481.945 276.537 474.187 276.365 466.418C276.02 450.88 276.192 435.329 276.753 419.799C277.879 388.505 280.722 357.36 283.59 326.195C284.387 317.528 285.244 308.865 285.837 300.182C286.434 291.407 286.674 282.616 286.742 273.817C286.746 273.184 285.785 273.016 285.609 273.629C285.453 271.541 285.176 269.458 284.716 267.442C291.625 271.85 298.91 275.66 306.052 279.667C309.813 281.779 313.558 283.926 317.435 285.817C319.566 286.859 321.716 287.817 323.911 288.722C326.186 289.66 328.361 290.95 330.864 290.297C331.081 290.241 331.285 290.161 331.481 290.057C331.197 290.597 330.912 291.135 330.64 291.68C329.695 293.559 328.794 295.446 327.921 297.349C327.688 297.521 327.484 297.758 327.324 298.066C326.899 298.896 326.487 299.733 326.086 300.582C326.006 300.507 325.926 300.43 325.846 300.354C325.509 300.038 325.045 300.514 325.341 300.859C325.477 301.015 325.609 301.168 325.742 301.324C323.13 306.946 321.007 312.856 318.821 318.626C316.133 325.718 313.586 332.862 311.186 340.054C306.456 354.202 302.283 368.535 298.67 383.008M195.081 488.419C181.727 495.573 169.249 504.123 157.246 513.345C155.61 514.602 154.016 511.816 155.629 510.577C167.631 501.356 180.111 492.805 193.465 485.651C195.284 484.677 196.9 487.445 195.081 488.419M149.973 404.628C149.279 404.577 148.605 404.174 148.428 403.452C147.347 399.021 146.499 394.195 147.506 389.675C147.954 387.659 151.043 388.517 150.595 390.527C149.802 394.091 150.432 397.943 151.256 401.497C162.903 402.007 174.394 397.826 185.537 395.018C187.541 394.513 188.387 397.606 186.389 398.109C174.568 401.087 162.342 405.544 149.973 404.628M381.841 522.815C381.853 522.787 381.865 522.755 381.873 522.727C382.558 520.651 382.574 518.239 382.65 516.064C382.782 512.193 382.642 508.314 382.294 504.456C381.557 496.334 379.97 488.344 378.076 480.422C374.323 464.732 369.02 449.466 366.14 433.563C360.489 402.345 361.831 369.842 350.74 339.731C346.13 327.213 339.545 315.18 330.597 305.235C331.25 303.248 331.887 301.256 332.508 299.257C333.593 295.779 334.703 292.189 335.372 288.607C335.388 288.511 335.408 288.411 335.42 288.31C339.229 286.668 342.693 283.57 343.286 279.451C343.542 277.672 343.246 275.701 342.477 273.982C344.047 272.531 345.056 270.648 344.816 268.124C344.368 263.372 338.82 262.149 334.959 261.22C330.569 260.166 326.015 259.874 321.525 260.371C319.258 260.619 317.015 261.036 314.825 261.661C312.922 262.202 310.851 262.759 309.325 264.065C309.145 264.217 309.293 264.514 309.51 264.514C312.598 264.502 315.674 263.368 318.794 263.219C322.062 263.067 325.322 263.336 328.527 264.009C331.659 264.666 334.783 265.628 337.631 267.114C338.432 267.535 339.605 267.819 338.664 268.669C337.975 269.29 336.621 269.342 335.736 269.434C333.778 269.638 332.087 270.784 331.839 272.876C331.619 274.723 332.72 276.815 334.683 277.231C334.791 277.256 334.891 277.283 334.979 277.32C335.031 277.42 335.111 277.504 335.103 277.368C335.103 277.368 335.107 277.364 335.107 277.368C335.155 277.66 335.171 277.776 335.171 277.796C335.159 277.772 335.139 277.672 335.123 277.592C335.135 277.664 335.159 277.78 335.191 277.953C335.147 277.764 335.183 278.225 335.147 278.297C334.106 280.221 331.026 280.762 329.232 281.591C328.883 281.751 328.583 281.939 328.326 282.151C327.902 282.004 327.469 281.855 327.033 281.691C324.882 280.886 322.735 280.104 320.556 279.379C316.351 277.973 312.093 276.719 307.887 275.308C299.925 272.64 292.227 269.27 284.412 266.217C284.164 265.295 283.876 264.393 283.535 263.516C283.467 263.332 283.139 263.272 283.103 263.516C282.983 264.293 282.886 265.075 282.806 265.86C282.774 265.932 282.766 266.012 282.782 266.088C282.33 270.656 282.45 275.332 282.218 279.896C281.929 285.586 281.124 291.235 280.896 296.929V297.033C280.055 301.894 279.294 306.77 278.605 311.662C277.832 311.422 276.947 311.47 276.041 311.955C269.641 315.373 262.447 317.276 255.21 317.701C251.565 317.913 247.956 317.793 244.332 317.372C241.948 317.1 239.601 316.603 237.25 316.13C238.488 310.941 239.818 305.776 241.32 300.664C242.557 296.46 243.935 292.277 245.637 288.234C247.356 284.151 249.494 280.253 251.485 276.294C252.402 274.463 251.321 271.662 248.938 271.854C248.233 271.91 247.528 271.954 246.819 271.986C239.922 272.315 232.748 271.546 225.939 270.861C218.189 270.075 210.335 269.261 202.653 267.984C202.084 267.891 201.852 268.665 202.412 268.853C206.057 270.079 209.658 271.465 213.395 272.383C217.24 273.333 221.109 274.198 225.01 274.875C228.747 275.521 232.5 276.061 236.265 276.518C238.72 276.819 241.203 276.971 243.675 277.171C240.346 282.492 238.051 288.494 236.053 294.404C233.485 301.994 231.599 309.803 229.752 317.596C225.803 334.301 222.547 351.174 220 368.151C218.173 380.324 216.695 392.544 215.586 404.797C215.257 401.075 214.857 397.365 214.404 393.658C212.89 381.353 210.679 369.128 207.723 357.088C207.988 356.623 208.112 356.066 208.024 355.525C207.491 352.216 206.089 349.335 204.86 346.265C203.638 341.978 202.32 337.719 200.902 333.492C199.292 327.734 197.486 322.064 195.175 316.527C193.408 312.307 191.394 308.196 189.151 304.21C186.471 298.636 183.527 293.183 180.295 287.97C180.127 287.485 179.855 287.032 179.466 286.651C178.877 285.722 178.281 284.804 177.672 283.895C177.275 283.302 176.138 283.662 176.438 284.416C176.578 284.769 176.718 285.121 176.863 285.47C163.697 282.176 150.788 287.212 138.248 290.931C135.084 291.872 131.887 292.722 128.643 293.335C126.092 293.816 123.12 294.401 120.576 293.871C118.874 293.519 118.121 292.746 118.95 290.927C119.807 289.044 122.146 287.805 124.177 286.972C124.942 286.808 125.695 286.515 126.42 286.075C128.11 285.049 128.851 282.909 128.054 281.086C127.329 279.439 125.215 278.021 123.344 278.774C123.076 278.882 122.811 278.986 122.547 279.091C122.519 279.051 122.487 278.994 122.459 278.914C122.191 278.181 122.074 279.059 122.191 278.009C122.383 276.294 124.197 274.735 125.439 273.753C128.527 271.305 132.989 269.494 136.974 270.42C137.274 270.488 137.575 270.572 137.871 270.676C141.977 272.099 143.975 266.185 140.695 263.981C140.495 263.849 140.242 263.68 139.966 263.484C138.6 262.534 136.602 260.936 137.146 259.493C137.819 257.702 141.788 256.672 143.29 256.063C148.722 253.859 154.589 252.609 160.445 252.353C166.337 252.096 172.305 252.746 177.988 254.336C180.776 255.114 183.64 256.296 186.275 257.49C188.642 258.559 193.793 259.974 194.121 262.971C194.193 263.633 195.135 263.857 195.339 263.135C196.953 257.381 190.689 253.667 186.555 251.291C183.844 249.728 180.768 248.755 177.792 247.797C174.94 246.876 172.028 246.198 169.056 245.789C162.676 244.916 156.219 245.028 149.891 246.254C144.127 247.373 137.715 249.28 133.057 252.99C130.197 255.266 128.903 258.888 130.053 262.422C130.093 262.538 130.133 262.658 130.173 262.775C125.026 263.696 120.156 266.645 116.9 270.756C114.224 274.134 112.822 278.834 115.217 282.765C115.117 282.837 115.017 282.913 114.921 282.993C112.638 284.82 110.94 287.473 110.435 290.374C109.446 296.096 112.902 300.098 117.737 301.629C116.539 302.8 115.39 304.041 114.264 305.283C111.745 308.068 109.338 311.101 107.215 314.195C102.913 320.461 99.2363 327.285 96.02 334.161C89.4073 348.281 85.2378 363.479 83.0269 378.889C81.9134 386.654 81.1684 394.46 80.8841 402.297C80.5556 411.232 80.8881 420.172 80.7158 429.111C80.5476 437.702 79.5984 446.084 77.6798 454.459C75.8414 462.468 73.3902 470.317 71.1713 478.223C68.668 487.126 65.9123 495.989 64.5906 505.169C63.9217 509.841 63.4411 514.525 63.8136 519.249C64.1901 524.061 65.9364 528.176 67.5465 532.652C67.955 533.794 69.2007 534.255 70.198 534.01C70.4223 536.154 71.2313 538.246 72.4369 540.057C74.9963 543.895 78.9375 546.343 83.4515 547.233C88.5382 548.231 93.7811 547.994 98.9319 547.81C104.519 547.61 110.111 547.429 115.698 547.197C121.548 546.955 127.397 546.707 133.247 546.457C133.053 540.459 132.823 534.463 132.562 528.468C131.152 496.059 128.931 463.631 128.872 431.18C128.758 431.113 128.647 431.034 128.541 430.931C125.907 428.385 122.674 426.712 119.636 424.719C117.917 423.591 119.524 420.817 121.254 421.952C123.815 423.632 126.483 425.125 128.883 427.007C128.897 423.629 128.927 420.251 128.994 416.873C129.035 414.81 132.239 414.81 132.198 416.873C131.997 427.055 132.064 437.239 132.295 447.419C133.04 480.411 135.383 513.341 136.45 546.32C152.151 545.649 167.852 544.973 183.555 544.4C196.328 543.935 209.101 543.47 221.874 543.006C224.554 542.91 226.06 540.994 226.388 538.49C226.989 533.882 225.859 529.118 223.304 525.243C223.04 524.843 222.727 524.486 222.379 524.181C222.439 521.421 222.551 518.656 222.395 515.895C222.162 511.68 221.814 507.465 221.51 503.254C220.893 494.819 220.416 486.369 220.228 477.914C219.843 461.006 220.124 444.081 221.081 427.196C222.999 393.462 227.465 359.945 234.775 326.948C235.308 324.544 235.844 322.14 236.401 319.74C242.085 322.693 248.998 323.755 255.21 323.795C262.996 323.843 270.61 322.052 277.644 318.795C277.595 319.159 277.547 319.52 277.503 319.884C275.541 335.511 273.887 351.169 272.445 366.849C269.569 398.106 267.807 429.492 268.051 460.889C268.119 469.588 268.451 478.259 268.864 486.946C269.285 495.781 269.929 505.117 272.389 513.639C272.661 514.581 273.266 515.122 273.963 515.318C273.999 516.56 274.079 517.807 274.167 519.033C274.451 523.019 275.264 531.302 277.003 534.915C278.697 538.442 281.521 541.239 285.121 542.778C289.695 544.729 294.642 544.168 299.472 543.855C320.476 542.485 341.464 540.65 362.455 539.039C365.379 538.814 368.303 538.594 371.223 538.366C373.822 538.165 376.51 537.989 378.817 536.639C381.44 535.104 383.487 527.567 382.582 524.45C382.418 523.881 382.169 523.32 381.841 522.815" fill="black"/>
<path fill-rule="evenodd" clip-rule="evenodd" d="M316.647 185.594C316.488 176.618 316.311 167.462 314.978 158.573C313.674 149.883 310.086 142.028 303.921 135.718C290.827 122.314 271.846 119.04 254.177 116.039L223.97 110.909C214.754 109.345 204.923 106.844 195.611 109.063C191.023 110.156 187.127 112.696 183.566 115.702C180.133 118.599 176.443 121.71 174.117 125.607C171.787 129.51 170.986 134.073 170.228 138.487C169.374 143.464 168.71 148.48 168.239 153.508C167.294 163.581 167.165 173.73 167.85 183.824C168.182 188.72 168.711 193.602 169.385 198.462C169.72 200.872 170.098 203.276 170.525 205.672C170.651 206.379 170.746 207.161 170.875 207.951C169.922 210.662 169.381 213.469 169.424 216.265C169.553 224.5 176.501 229.684 183.505 232.468C187.567 234.082 191.813 235.179 195.803 236.982C200.001 238.878 202.859 241.953 205.729 245.46C211.203 252.149 217.38 258.161 224.434 263.176C239.389 273.811 258.331 278.841 276.476 275.023C280.83 274.107 285.222 272.685 289.136 270.541C293.267 268.279 296.374 265 298.983 261.123C303.828 253.927 307.302 245.823 309.93 237.576C312.611 229.164 314.514 220.737 315.552 211.966C316.586 203.223 316.804 194.391 316.647 185.594V185.594Z" fill="#F1F0E0"/>
<path fill-rule="evenodd" clip-rule="evenodd" d="M220.251 79.6412C232.752 77.9211 250.005 83.5118 256.231 94.7847C285.952 87.7751 323.439 87.5455 347.936 110.88C373.497 138.56 341.391 175.057 320.101 183.285C321.652 190.821 319.235 239.097 302.134 260.631C288.563 278.877 256.958 287.297 242.334 265.505L242.22 265.325C240.653 262.808 242.002 262.889 243.611 264.761C257.931 277.359 277.402 277.574 292.406 264.279C320.526 239.977 317.627 180.391 304.246 145.92C266.144 141.734 225.349 153.287 199.032 181.979L200.811 192.697C201.115 194.523 201.459 196.347 201.722 198.179C201.89 199.353 201.909 200.521 201.096 201.471C198.411 204.609 193.886 199.894 190.163 198.019C189.064 197.864 187.963 197.805 186.883 197.881C168.997 200.186 172.521 234.897 192.18 228.813C193.831 227.783 195.25 228.097 195.891 229.591C200.577 233.885 203.667 241.543 211.452 248.919C214.199 251.685 216.698 254 219.788 256.219C221.603 258.055 227.079 259.927 225.343 263.069C222.06 270.218 202.702 247.762 199.28 241.552C188.556 245.788 176.673 244.349 165.56 243.313C106.935 240.264 114.761 178.442 162.815 139.411C171.86 132.75 181.84 127.315 192.214 123.133C193.631 122.562 193.012 120.236 191.576 120.815C184.711 123.582 178.02 126.876 171.641 130.689L171.631 128.41C171.622 124.57 171.682 120.574 172.349 117.066C172.682 114.635 173.242 112.039 174.105 110.086C175.172 104.099 191.88 83.5471 220.251 79.6412ZM186.103 205.85C187.008 204.99 188.698 206.016 189.504 205.99C191.565 206.272 193.523 207.143 195.049 208.218C196.057 208.783 196.764 209.313 197.354 209.801L197.37 209.797C197.366 209.797 197.36 209.801 197.356 209.802L197.411 209.84C198.271 210.451 201.418 213.892 199.429 212.967C199.281 212.774 199.129 212.589 198.976 212.408C198.96 212.432 198.937 212.457 198.91 212.48L199.022 212.646C200.712 215.189 197.794 212.51 197.345 211.799C197.324 211.816 197.3 211.827 197.276 211.84L197.861 212.552C197.943 212.653 198.007 212.733 198.06 212.801L198.183 212.92C200.137 214.842 200.198 216.571 197.928 213.73C198.018 213.864 198.089 214.006 198.099 214.132L198.234 214.303C200.016 216.601 198.566 215.785 197.681 214.804L197.607 214.719L197.622 214.742C198.446 216.012 196.811 215.121 196.522 214.442L196.51 214.411C196.195 214.154 196.002 213.866 195.935 213.793L195.923 213.781C194.39 212.21 192.169 210.881 190.282 210.277C190.009 210.225 189.732 210.183 189.452 210.154C188.318 209.9 187.171 209.727 186.011 209.633C185.87 209.616 185.726 209.512 185.618 209.378C183.866 209.318 184.407 208.6 185.134 208.466L185.147 208.464L185.002 208.452C183.878 208.342 183.109 207.938 184.247 207.691L184.391 207.662C184.373 207.634 184.358 207.607 184.342 207.579C183.368 207.472 184.004 206.525 184.545 206.754C184.317 206.01 185.357 206.381 185.487 206.271C185.586 206.161 185.709 206.064 185.779 206.059C186.093 205.838 185.941 205.858 186.103 205.85ZM192.063 193.803L191.835 193.937C191.65 194.045 191.46 194.116 191.27 194.158C191.539 194.273 191.805 194.397 192.068 194.529C192.064 194.367 192.061 194.206 192.061 194.045L192.063 193.803Z" fill="black"/>
<path fill-rule="evenodd" clip-rule="evenodd" d="M271.388 243.187C268.695 242.088 266.293 240.255 264.537 237.914C263.926 237.1 263.768 236.24 263.896 235.454C264.04 234.57 264.563 233.769 265.276 233.232C265.991 232.692 266.885 232.427 267.75 232.562C268.502 232.68 269.25 233.092 269.842 233.945L269.965 234.116C271.01 235.529 272.37 236.689 273.921 237.436C275.415 238.156 277.086 238.493 278.816 238.297C282.11 237.925 284.38 236.143 286.793 233.723C287.092 233.417 287.391 233.102 287.692 232.782C287.882 232.492 288.146 232.305 288.438 232.207C288.763 232.099 289.131 232.105 289.467 232.222C289.792 232.336 290.082 232.55 290.277 232.836C290.462 233.108 290.567 233.444 290.533 233.83C290.312 236.338 289.001 238.576 287.14 240.334C285.072 242.286 282.331 243.636 279.751 244.109C276.908 244.631 274.011 244.257 271.388 243.187V243.187ZM281.094 204.497C284.118 206.336 288.727 210.624 285.473 215.184C281.643 219.204 276.129 214.595 273.412 212.51C270.892 210.894 268.061 215.05 270.399 216.936C290.034 231.479 298.003 204.977 282.624 202.334C280.93 202.043 280.301 203.928 281.094 204.497ZM245.906 187.58C246.24 183.43 252.557 182.488 253.186 186.594C253.748 190.272 253.086 193.651 251.43 196.963C249.847 200.127 245.87 198.651 245.569 195.77C245.166 191.908 245.698 190.161 245.906 187.58ZM293.995 185.742C294.876 184.588 296.147 183.8 297.671 184.246C302.431 185.637 301.028 192.398 299.357 195.689C298.448 197.476 295.512 197.929 294.185 196.355C292.022 193.789 290.986 188.665 293.736 186.138C293.81 186.007 293.893 185.875 293.995 185.742ZM251.364 169.423L252.116 169.291C254.443 168.888 257.335 168.502 258.98 170.373C259.853 171.365 260.154 173.209 258.98 174.158C256.917 175.829 254.636 175.182 252.163 175.323C250.125 175.44 248.166 175.777 246.203 176.339C241.897 177.57 238.388 179.818 234.71 182.286C234.227 182.61 233.734 181.992 233.965 181.541C236.088 177.381 240.202 173.963 244.324 171.88C246.524 170.768 248.931 169.846 251.364 169.423ZM289.654 167.558L290.229 167.676C296.492 168.986 304.63 171.602 307.595 177.756C307.708 178.626 307.589 178.813 307.492 178.935L307.46 178.975C307.38 179.079 307.316 179.223 306.939 179.341C306.834 179.316 306.728 179.29 306.622 179.262C305.262 178.905 304.186 178.414 303.145 177.905L302.016 177.348C300.706 176.706 299.385 176.087 297.984 175.63C294.995 174.654 291.921 173.967 288.799 173.601C288.123 173.521 287.471 173.293 286.957 172.901C286.469 172.53 286.096 172.015 285.926 171.331C285.706 170.446 285.769 169.776 286.244 168.977C286.601 168.378 287.112 167.962 287.698 167.723C288.296 167.48 288.977 167.423 289.654 167.558Z" fill="black"/>
<path fill-rule="evenodd" clip-rule="evenodd" d="M320.529 212.766C319.202 210.983 316.816 208.643 314.402 208.769C314.093 208.785 313.978 209.12 314.163 209.346C314.952 210.311 316.031 210.997 316.822 211.981C317.758 213.146 318.434 214.552 318.873 215.973C319.512 218.038 319.688 220.374 319.119 222.474C318.116 226.175 314.945 228.887 311.485 230.272C308.061 231.644 303.94 232.112 300.701 230.103C295.921 227.137 291.866 222.862 285.858 222.777C284.453 222.758 283.462 223.402 282.872 224.321C282.279 223.434 281.301 222.807 279.931 222.792C273.195 222.716 268.168 227.355 262.515 230.246C258.694 232.201 253.75 231.594 249.809 230.303C246.09 229.085 242.054 226.64 240.652 222.778C239.877 220.646 240.051 218.156 240.846 216.054C241.369 214.672 242.176 213.336 243.174 212.25C244.21 211.123 245.571 210.415 246.631 209.347C246.848 209.128 246.677 208.789 246.392 208.769C241.888 208.464 237.82 213.844 236.97 217.747C236.133 221.592 237.381 225.426 239.909 228.359C245.049 234.323 254.566 236.29 261.974 234.537C267.969 233.119 273.664 229.853 279.931 230.322C281.305 230.425 282.291 229.852 282.886 228.983C283.482 229.877 284.475 230.462 285.858 230.328C291.699 229.762 296.913 233.9 302.583 234.91C307.097 235.715 311.974 234.63 315.842 232.197C319.885 229.654 322.732 225.574 322.919 220.711C323.027 217.913 322.206 215.018 320.529 212.766" fill="black"/>
</svg>
