<svg width="592" height="848" viewBox="0 0 592 848" fill="none" xmlns="http://www.w3.org/2000/svg">
<path fill-rule="evenodd" clip-rule="evenodd" d="M161.187 700.744C165.691 686.9 160.327 670.91 163.833 655.986C165.034 650.083 167.318 628.152 169.611 615.327C170.894 608.154 163.22 605.927 162.041 603.063C153.741 577.342 214.287 516.834 217.983 514.604C223.521 511.402 228.421 508.646 233.833 505.375C249.619 499.828 268.549 484.396 282.86 494.308C307.655 457.382 297.846 411.888 311.301 406.481C324.756 401.074 364.489 390.145 387.204 404.101C400.82 414.179 399.816 431.528 406.029 445.835C409.675 452.57 411.467 462.327 415.712 466.72C430.135 481.645 448.122 484.218 468.23 486.752C469.761 486.944 471.372 482.778 472.861 483.292C506.779 495.02 546.247 498.442 584.66 564.111C590.085 573.502 604.72 588.57 599.826 599.423C632.069 674.428 663.795 843.25 575.324 885.351C572.496 887.161 553.311 877.457 550.185 877.547C544.974 877.697 554.958 890.354 550.185 888.099C515.139 890.759 322.302 883.897 248.385 890.759C197.555 890.379 165.36 899.294 153.623 890.379C158.315 879.036 158.097 866.885 156.614 854.893C145.812 846.851 159.166 790.179 158.035 773.585C147.924 761.458 155.975 715.979 161.187 700.744Z" fill="#F1F0E0"/>
<path fill-rule="evenodd" clip-rule="evenodd" d="M177.305 617.733C182.154 624.788 186.609 632.052 190.636 639.607C192.713 643.504 194.65 647.478 196.394 651.533C196.757 642.765 196.836 633.893 197.861 625.211C197.934 624.585 198.979 624.28 199.088 625.044C200.22 632.917 200.407 640.993 200.834 648.95C201.327 648.799 201.871 648.712 202.47 648.712C208.29 648.712 214.022 649.189 219.821 649.659C222.42 649.869 225.138 650.03 227.789 650.445C225.656 648.088 223.669 645.598 221.835 643.001C219.964 640.352 217.826 636.213 221.086 633.668C224.686 630.858 231.746 634.533 235.229 635.963C236.992 636.686 238.721 637.474 240.423 638.312C242.573 632.287 249.161 631.489 254.809 632.32C258.836 632.914 262.744 634.292 266.669 635.341C271.651 636.673 276.654 637.926 281.676 639.103C290.719 641.22 299.823 643.071 308.971 644.675C309.213 644.394 309.549 644.172 309.997 644.06C313.129 643.277 316.585 643.877 319.798 643.936C323.101 643.998 326.405 643.993 329.708 643.925C335.609 643.804 341.505 643.755 347.404 643.653C349.082 642.636 351.208 641.176 351.729 639.262C352.379 636.873 350.349 634.227 349.406 632.193C345.787 624.385 344.521 615.646 345.941 607.142C346.195 605.626 346.716 603.969 347.469 602.415C341.005 603.107 334.625 603.577 328.125 603.789C315.147 604.212 302.17 604.655 289.186 604.751C263.226 604.944 237.265 604.946 211.304 604.756C196.626 604.648 181.981 604.514 167.32 603.764C168.515 605.279 169.677 606.826 170.812 608.398C171.046 608.328 171.353 608.454 171.317 608.745C171.305 608.847 171.293 608.948 171.281 609.049C173.351 611.941 175.343 614.879 177.305 617.733M206.164 886.238C212.197 886.045 218.229 885.853 224.262 885.661C236.103 885.284 247.945 884.907 259.785 884.53C283.244 883.783 306.702 883.062 330.164 882.415C353.57 881.769 376.987 881.086 400.399 881.816C423.864 882.549 447.27 884.443 470.692 885.964C483.713 886.808 496.743 887.54 509.788 887.89C522.212 888.223 534.746 887.719 547.151 888.606C547.568 885.538 547.261 882.479 547.306 879.423C543.237 877.072 539.244 874.573 535.297 872.117C520.906 863.163 507.304 853.033 494.474 841.96C492.501 840.258 490.568 838.519 488.653 836.763C489.986 839.675 488.919 843.43 485.101 844.663C480.444 846.165 475.677 845.632 470.84 845.518C465.929 845.403 461.018 845.293 456.107 845.189C446.507 844.986 436.908 844.803 427.308 844.642C408.554 844.328 389.8 844.095 371.044 843.943C333.311 843.639 295.603 844.153 257.875 844.833C247.266 845.025 236.668 845.263 226.059 845.023C220.751 844.903 215.422 844.864 210.12 844.579C205.873 844.349 201.6 843.748 197.353 843.207C196.817 850.607 196.257 858.004 195.634 865.397C195.221 870.278 194.797 875.16 194.378 880.041C194.206 882.054 194.193 884.11 193.909 886.023C197.987 886.246 202.039 886.368 206.164 886.238M202.024 677.296C202.172 682.96 202.251 688.627 202.292 694.296C202.781 694.015 203.333 693.81 203.955 693.715C210.552 692.708 217.612 693.472 224.287 693.585C230.74 693.693 237.214 693.656 243.66 693.961C250.119 694.266 256.575 694.631 263.033 694.965C266.063 695.123 269.059 695.259 272.066 695.669C274.125 695.95 276.76 695.93 278.96 696.516C269.729 687.572 260.547 678.576 251.341 669.607C251.065 669.337 250.866 669.053 250.727 668.763C244.588 665.021 238.695 660.81 233.359 655.987C229.127 657.619 224.31 657.825 219.823 658.189C214.023 658.66 208.294 659.137 202.472 659.137C202.079 659.137 201.71 659.098 201.363 659.03C201.648 665.116 201.865 671.201 202.024 677.296M441.707 787.323C427.614 791.825 412.344 791.775 397.683 792.676C382.052 793.638 366.445 794.437 350.797 795.047C319.543 796.261 288.31 797.912 257.062 799.225C239.213 799.975 221.367 800.802 203.526 801.701C202.26 801.764 201.053 801.44 199.988 800.845C199.389 812.599 198.687 824.348 197.87 836.09C197.769 837.558 197.655 839.025 197.551 840.494C205.948 839.44 214.282 838.432 222.742 837.717C232.242 836.914 241.738 836.238 251.251 835.606C269.79 834.377 288.359 832.73 306.931 832.13C344.792 830.906 382.736 831.323 420.611 831.592C431.327 831.668 442.043 831.772 452.759 831.901C458.117 831.967 463.474 832.038 468.832 832.116C474.217 832.195 480.003 831.635 485.102 833.515C485.15 833.532 485.191 833.558 485.239 833.577C469.858 818.997 456.079 802.885 441.707 787.323M392.164 740.713C368.611 745.003 344.689 744.709 320.815 745.133C296.386 745.569 271.925 745.28 247.492 745.331C233.613 745.36 219.614 745.97 205.785 744.734C204.151 744.588 202.885 743.968 201.981 743.089C201.73 757.803 201.268 772.511 200.632 787.213C201.529 786.832 202.508 786.6 203.526 786.54C234.746 784.703 265.969 783.036 297.227 782.017C328.461 780.999 359.734 779.792 390.984 780.17C406.235 780.354 422.362 779.379 437.403 782.703C431.687 776.627 425.848 770.664 419.741 764.954C410.837 756.63 401.335 748.833 392.164 740.713M374.174 723.394C374.143 723.358 374.127 723.318 374.104 723.281C374.019 723.344 373.915 723.387 373.779 723.384C351.731 722.887 326.997 729.845 306.376 719.166C297.17 714.399 289.547 706.865 282.146 699.623C282.142 699.677 282.137 699.731 282.133 699.784C282.085 700.372 281.836 701.08 281.241 701.34C278.808 702.407 275.96 702.477 273.348 702.857C270.345 703.295 267.395 703.551 264.366 703.733C257.686 704.134 251.006 704.559 244.325 704.937C237.658 705.314 230.96 705.345 224.284 705.511C217.59 705.678 210.578 706.489 203.952 705.533C203.343 705.445 202.803 705.254 202.322 704.989C202.312 713.564 202.234 722.138 202.154 730.707C202.14 732.104 202.113 733.5 202.097 734.896C202.992 734.076 204.221 733.503 205.79 733.365C218.077 732.283 230.458 732.764 242.788 732.805C254.896 732.845 267.005 732.886 279.113 732.926C303.562 733.008 327.991 733.246 352.436 733.712C364.323 733.938 376.159 734.939 387.872 736.863C383.13 732.541 378.519 728.091 374.174 723.394M565.738 879.298C570.252 880.679 574.732 880.08 579.255 881.026C579.533 881.084 579.79 881.192 580.025 881.334C593.568 875.546 602.595 863.93 608.773 850.914C615.285 837.194 619.774 822.527 622.781 807.659C628.98 777.008 628.991 745.227 625.782 714.218C622.629 683.754 616.387 653.455 607.478 624.157C601.361 604.04 593.566 583.716 582.742 565.374C570.244 573.751 560.551 585.812 551.42 597.602C540.509 611.691 530.676 626.601 521.874 642.092C522.784 644.746 522.926 648.075 523.362 650.447C524.203 655.021 524.963 659.652 525.561 664.265C526.837 674.126 528.062 683.991 529.366 693.848C531.947 713.338 535.028 732.775 538.431 752.137C538.707 753.707 538.266 755.033 537.456 756.028C544.207 759.588 550.869 763.305 557.36 767.335C571.631 776.194 584.969 786.514 595.44 799.749C595.712 800.093 595.286 800.552 594.949 800.241C572.494 779.484 544.595 766.452 517.204 753.573C503.207 746.991 489.278 740.303 475.848 732.608C461.804 724.562 448.41 715.469 435.573 705.615C420.915 694.363 407.117 682.061 394.182 668.864C392.658 667.308 393.027 665.36 394.174 664.13C393.786 664.01 393.474 663.673 393.454 663.111C393.143 654.492 390.556 647.149 385.491 640.173C380.792 633.701 374.803 628.368 369.401 622.512C367 619.91 364.706 617.199 362.658 614.307C360.549 611.33 359.264 608.045 357.429 604.935C355.285 601.301 353.461 603.157 352.467 606.447C351.34 610.176 351.41 614.542 351.863 618.375C352.342 622.432 353.576 626.387 355.355 630.053C357.025 633.497 358.951 637 357.827 640.948C355.979 647.435 348.058 651.191 342.057 652.652C335.375 654.279 328.385 653.963 321.619 653.119C313.146 652.062 304.712 650.515 296.336 648.869C286.636 646.964 276.993 644.766 267.426 642.281C262.928 641.113 258.462 639.578 253.921 638.611C252.302 638.266 249.305 637.749 247.402 638.593C271.863 653.181 298.531 662.899 325.616 671.367C328.981 672.418 327.601 677.502 324.157 676.66C295.059 669.543 267.684 656.333 241.63 641.866C241.232 641.644 240.893 641.301 240.645 640.895C238.024 639.973 235.359 639.171 232.642 638.51C231.428 638.215 225.181 636.153 224.4 636.946C223.294 638.068 227.123 641.711 228.079 642.77C234.888 650.315 242.986 656.474 251.752 661.564C260.644 666.727 270.105 670.844 279.611 674.729C290.259 679.08 301.514 682.501 311.864 687.503C315.975 689.49 313.09 696.24 308.759 694.871C303.176 693.106 297.752 690.513 292.327 688.309C287.718 686.439 283.109 684.569 278.526 682.634C275.332 681.285 272.158 679.891 269.016 678.434C273.723 682.865 278.431 687.296 283.137 691.73C291.287 699.406 299.031 708.151 308.995 713.535C318.839 718.854 330.069 719.472 341.026 719.358C346.527 719.3 352.004 719.125 357.505 719.347C363.294 719.58 368.436 720.47 373.922 722.293C374.023 722.327 374.096 722.387 374.158 722.456C374.35 722.222 374.676 722.105 375.012 722.304C389.92 731.122 403.509 742.561 416.579 753.867C430.049 765.519 442.724 777.911 454.8 791C466.36 803.527 477.827 816.103 490.405 827.63C502.687 838.885 515.811 849.104 529.516 858.562C536.983 863.716 544.635 868.679 552.552 873.115C556.783 875.486 561.08 877.874 565.738 879.298M564.488 540.086C559.149 534.087 553.402 528.526 547.322 523.382C544.639 524.177 541.823 524.399 538.985 524.428C534.655 524.471 530.315 524.652 525.984 524.607C517.646 524.522 509.311 524.258 500.971 524.213C483.918 524.12 466.86 524.115 449.807 524.264C447.572 524.283 445.961 523.328 444.966 521.94C441.514 525.855 437.956 529.679 434.368 533.443C428.54 539.559 422.326 545.394 415.712 550.711C416.999 550.72 418.287 550.731 419.567 550.723C425.466 550.683 431.365 550.646 437.263 550.614C449.099 550.549 460.936 550.5 472.773 550.469C496.305 550.407 519.911 550.603 543.413 551.808C549.936 552.142 556.51 552.278 563.01 552.914C566.535 553.259 570.057 553.661 573.579 554.037C574.3 554.113 574.991 554.21 575.669 554.318C572.22 549.36 568.504 544.599 564.488 540.086M470.234 486.612C470.393 486.72 470.565 486.817 470.717 486.932C471.063 487.192 471.009 487.662 470.6 487.82C470.058 488.032 469.487 488.193 468.9 488.319C467.116 490.908 465.722 494.107 464.749 495.728C461.953 500.387 458.738 504.825 455.467 509.158C454.81 510.028 454.14 510.888 453.467 511.747C469.306 511.709 485.137 511.79 500.967 512.389C509.301 512.705 517.663 512.97 525.98 513.595C529.4 513.853 532.818 514.284 536.227 514.712C518.484 501.882 498.532 492.085 477.862 484.811C477.89 484.843 477.919 484.867 477.947 484.898C478.403 485.404 477.723 486.059 477.21 485.635C474.521 483.411 472.187 484.455 470.234 486.612M390.206 637.417C390.656 638.099 391.098 638.803 391.53 639.526C392.569 638.489 394.02 637.797 395.889 637.739C416.638 637.091 437.378 636.525 458.139 636.511C468.377 636.504 478.709 636.159 488.934 636.666C494.069 636.921 499.202 637.224 504.334 637.515C507.922 637.719 511.734 637.972 515.238 639.011C523.313 624.88 532.278 611.295 542.068 598.305C519.856 601.031 497.263 600.741 474.925 601.497C449.617 602.355 424.294 602.54 398.977 603.14C392.033 603.304 385.088 603.485 378.145 603.679C374.561 603.779 370.977 603.883 367.393 603.991C366.273 604.025 365.114 604.056 363.953 604.026C364.041 604.207 364.13 604.388 364.217 604.568C366.171 608.605 368.628 612.321 371.491 615.77C377.579 623.103 384.932 629.419 390.206 637.417M417.425 680.944C418.194 678.806 420.066 677.162 423.05 677.298C440.051 678.07 457.084 678.606 474.065 679.725C482.337 680.271 490.643 680.638 498.902 681.362C503.162 681.736 507.414 682.431 511.656 682.983C514.563 683.363 517.608 683.803 520.397 684.836C519.856 678.863 519.379 672.884 518.965 666.897C518.633 662.087 518.532 657.234 518.558 652.412C518.571 649.971 518.653 647.516 518.771 645.076C518.521 645.127 518.269 645.152 518.023 645.121C517.588 645.068 517.182 645.016 516.804 644.915C512.896 646.446 508.472 646.783 504.332 647.079C499.421 647.429 494.512 647.801 489.602 648.152C479.154 648.898 468.608 648.849 458.137 649.191C437.525 649.863 416.909 650.253 396.292 650.805C397.249 654.911 397.283 659.127 395.752 663.102C396.818 662.749 398.046 662.913 399.094 663.949C405.032 669.817 411.148 675.477 417.425 680.944M477.396 724.599C477.816 723.438 478.608 722.371 479.545 721.648C483.15 718.869 489.731 720.469 494.058 720.68C499.181 720.932 504.304 721.182 509.427 721.433C510.981 721.508 518.916 721.913 524.744 723.156C523.539 714.058 522.447 704.946 521.47 695.817C521.265 693.9 521.075 691.983 520.888 690.066C518.142 690.95 515.158 691.274 512.326 691.409C508.083 691.611 503.82 691.953 499.572 692.02C491.086 692.153 482.552 691.734 474.064 691.593C458.78 691.339 443.493 690.609 428.215 690.006C443.554 702.462 459.762 713.827 476.669 724.165C476.91 724.312 477.155 724.452 477.396 724.599M525.679 729.996C524.388 730.168 523.108 730.224 522.128 730.324C517.211 730.819 512.371 731.27 507.429 731.342C502.528 731.413 497.629 731.485 492.729 731.557C491.687 731.571 490.645 731.587 489.603 731.602C502.506 738.653 515.805 744.968 528.916 751.618C527.761 744.421 526.682 737.214 525.679 729.996M385.082 569.444C355.676 581.945 317.959 583.079 292.688 562.314C290.177 563.001 287.4 563.229 285.183 563.452C280.201 563.953 275.265 564.413 270.259 564.57C260.502 564.874 250.737 565.331 240.976 565.451C221.23 565.695 201.483 565.809 181.736 565.985C180.055 566 178.711 565.488 177.691 564.665C175.691 568.057 173.831 571.534 172.133 575.099C169.656 580.299 167.557 585.673 165.833 591.168C166.203 591.104 166.586 591.059 166.997 591.052C192.948 590.603 218.919 591.35 244.875 591.458C270.836 591.567 296.795 591.455 322.756 591.64C329.94 591.692 337.071 591.693 344.237 592.226C347.967 592.504 351.741 592.625 355.435 593.228C355.848 593.294 356.268 593.354 356.692 593.413C361.642 590.519 367.787 591.123 373.445 591.017C379.942 590.894 386.438 590.785 392.934 590.689C405.702 590.499 418.472 590.361 431.242 590.273C456.585 590.1 481.866 590.747 507.194 591.631C519.795 592.069 532.348 592.815 544.787 594.755C545.623 593.674 546.45 592.587 547.296 591.514C556.11 580.339 566.558 566.033 581.062 562.57C580.505 561.663 579.941 560.761 579.368 559.866C569.319 562.517 558.234 562.382 547.967 562.938C536.133 563.577 524.324 564.019 512.476 564.31C488.924 564.889 465.377 565.252 441.821 565.61C435.283 565.71 428.745 565.814 422.208 565.923C418.681 565.982 415.154 566.05 411.628 566.104C409.657 566.134 407.896 566.129 406.019 565.475C404.28 564.869 402.586 563.96 400.904 563.207C400.318 562.944 399.841 562.556 399.451 562.097C394.835 564.856 390.051 567.332 385.082 569.444M270.172 527.877C266.474 528.904 262.657 529.074 258.746 529.369C253.614 529.758 248.493 529.823 243.347 529.856C235.142 529.909 226.935 529.852 218.733 529.626C215.21 529.529 213.151 527.17 212.54 524.468C212.455 524.536 212.368 524.604 212.283 524.674C202.3 532.902 193.254 542.313 185.589 552.73C204.049 552.788 222.511 552.8 240.971 552.924C250.731 552.99 260.498 553.391 270.254 553.642C275.041 553.765 279.757 554.162 284.524 554.615C284.618 554.624 284.718 554.632 284.814 554.641C284.309 554.058 283.808 553.467 283.318 552.859C277.621 545.797 272.935 537.095 270.172 527.877M150.151 898.618C148.523 894.135 149.155 889.327 149.247 884.613C149.342 879.776 149.394 874.942 149.41 870.104C149.441 860.648 149.505 851.193 149.61 841.737C149.821 822.608 150.042 803.464 150.795 784.347C152.282 746.554 155.147 708.853 159.823 671.314C162.095 653.064 164.916 634.855 168.744 616.863C168.69 616.791 168.638 616.717 168.584 616.644C164.772 611.548 160.437 606.838 156.692 601.708C156.36 601.253 156.221 600.669 156.224 600.08C156.088 600.013 155.95 599.943 155.811 599.863C152.704 598.094 155.51 593.27 158.615 595.063C158.257 594.857 163.415 581.613 163.962 580.279C165.925 575.49 168.133 570.807 170.623 566.268C172.125 563.53 173.733 560.849 175.417 558.218C175.711 556.253 176.772 554.432 178.594 553.457C181.793 548.874 185.247 544.468 188.93 540.271C204.005 523.088 222.835 509.217 243.407 499.336C246.379 497.909 249.44 496.719 252.49 495.473C255.737 494.145 258.748 492.409 261.947 491.015C267.153 488.747 272.293 488.877 277.407 491.278C277.844 491.484 277.531 492.156 277.087 492.04C273.794 491.182 270.421 491.038 267.121 491.97C263.887 492.884 261.428 494.903 258.604 496.588C253.572 499.59 247.947 501.546 242.789 504.348C235.969 508.056 229.304 512.126 222.929 516.595C229.535 516.945 236.145 517.198 242.758 517.373C247.669 517.504 252.578 517.526 257.482 517.812C260.972 518.014 264.602 517.957 268.091 518.521C267.25 512.736 267.248 506.899 268.3 501.264C268.3 501.262 268.3 501.26 268.3 501.258C268.554 499.9 268.862 498.553 269.241 497.22C270.047 494.385 272.63 493.96 274.505 495.033C274.691 494.896 274.878 494.761 275.058 494.615C277.305 492.79 279.327 490.607 281.086 488.313C284.738 483.545 287.691 478.027 289.926 472.464C292.191 466.831 293.795 460.937 295.367 455.08C296.155 452.144 297.008 449.224 297.81 446.29C298.508 443.739 299.016 440.922 300.298 438.598C300.538 438.163 301.262 438.245 301.377 438.74C302.056 441.651 301.697 444.971 301.572 447.939C301.435 451.233 301.246 454.497 300.807 457.767C299.899 464.551 298.433 471.22 296.084 477.662C293.832 483.84 290.86 489.605 286.824 494.809C284.143 498.267 280.334 502.844 275.923 504.708C275.347 511.199 275.413 517.696 276.945 524.121C278.95 532.532 282.788 540.527 288.062 547.377C299.121 561.739 316.23 569.854 334.079 571.527C352.546 573.257 371.444 569.125 388.038 561C406.494 551.963 421.806 538.019 435.558 522.97C443.486 514.295 451.706 505.759 459.054 496.581C460.356 494.954 462.44 491.652 464.912 488.677C462.396 488.654 459.814 488.277 457.587 487.991C452.98 487.4 448.477 486.484 443.975 485.338C435.557 483.197 426.681 480.217 419.325 475.504C403.761 465.529 397.685 452.876 395.61 435.444C394.954 429.934 404.479 428.596 405.366 434.123C406.729 442.62 408.791 446.755 411.502 454.917C414.109 462.763 417.886 465.685 425.105 470.01C431.882 474.07 439.583 476.429 447.049 478.866C451.186 480.217 455.373 481.448 459.545 482.69C462.201 483.48 465.354 484.169 468.048 485.39C469.454 484.156 470.92 483.225 472.397 482.873C472.288 482.69 472.429 482.407 472.701 482.46C473.135 482.547 473.567 482.643 474.001 482.733C474.437 482.764 474.871 482.85 475.304 483.006C501.308 488.64 526.28 500.636 547.456 516.978C548.524 517.423 549.556 517.97 550.539 518.661C551.045 519.016 551.38 519.58 551.477 520.164C554.66 522.764 557.749 525.462 560.734 528.254C584.771 550.745 600.001 580.664 610.663 611.437C621.167 641.753 628.276 673.545 632.186 705.375C636.171 737.82 636.631 770.94 630.85 803.202C627.746 820.525 622.721 837.549 615.304 853.527C608.644 867.877 597.803 884.225 580.775 885.972C580.72 886.027 580.669 886.084 580.608 886.135C573.926 891.639 563.979 887.838 556.994 884.55C555.887 884.028 554.788 883.479 553.694 882.917C554.272 885.143 554.533 887.473 554.653 889.657C554.905 894.193 548.512 894.45 547.301 890.686C536.938 892.509 526.237 892.535 515.756 892.477C504.044 892.412 492.337 892.006 480.639 891.455C457.428 890.36 434.246 888.686 411.02 887.925C363.992 886.385 316.836 889.677 269.846 891.334C256.664 891.8 243.482 892.264 230.3 892.73C216.832 893.205 203.377 893.296 190.017 895.118C185.105 895.788 183.223 890.972 184.608 887.971C184.263 885.956 184.607 883.746 184.796 881.372C185.149 876.936 185.482 872.499 185.795 868.06C186.405 859.405 186.995 850.747 187.554 842.088C188.687 824.542 189.661 806.983 190.61 789.426C192.495 754.518 193.939 719.583 195 684.64C195.259 676.123 195.598 667.603 196.025 659.091C195.516 658.285 195.009 657.477 194.519 656.659C192.886 653.935 191.285 651.193 189.631 648.481C186.314 643.044 182.976 637.644 179.488 632.314C176.476 627.712 173.369 623.18 170.122 618.742C166.092 652.794 162.509 686.879 160.864 721.149C159.053 758.893 158.091 796.696 157.569 834.479C157.423 845.035 157.324 855.591 157.212 866.147C157.153 871.644 157.095 877.137 157.14 882.634C157.183 887.891 157.978 893.642 156.113 898.618C155.026 901.52 151.224 901.571 150.151 898.618Z" fill="black"/>
<path fill-rule="evenodd" clip-rule="evenodd" d="M283.302 220.156C327.603 184.135 398.596 172.439 446.018 208.78C482.865 242.885 498.114 339.801 491.593 388.501C489.78 419.737 465.925 455.142 430.908 445.262C424.961 444.677 419.187 442.397 413.186 441.919C406.008 441.092 398.775 441.078 391.611 442.091C376 444.299 362.162 452.591 347.01 456.468C318.896 463.66 287.526 458.822 263.326 442.62C183.354 390.021 219.579 271.065 283.302 220.156V220.156Z" fill="#F1F0E0"/>
<path fill-rule="evenodd" clip-rule="evenodd" d="M289.196 457.332C288.374 457.048 287.553 456.752 286.738 456.449C286.684 456.638 286.596 456.819 286.495 456.995C286.38 457.278 286.266 457.554 286.138 457.83C287.161 457.837 288.186 457.655 289.196 457.332M290.845 108.268C291.208 107.454 291.627 106.672 292.098 105.917C290.953 106.288 289.807 106.8 288.77 107.46C289.471 107.696 290.158 107.966 290.845 108.268M465.831 214.845C465.878 214.837 465.925 214.83 465.971 214.822C465.37 213.222 464.3 211.711 463.118 210.62C462.906 210.424 462.676 210.243 462.454 210.056C463.708 211.551 464.847 213.146 465.831 214.845M145.648 382.192C146.241 376.572 146.995 370.973 147.972 365.407C148.908 360.077 149.696 354.376 152.411 349.646C155.105 344.936 157.806 340.36 161.012 336.216C160.554 334.101 159.948 332.113 159.423 330.509C156.392 321.277 153.407 309.553 159.706 300.974C161.167 298.987 162.952 297.464 164.993 296.089C165.862 295.503 167.303 294.971 167.971 294.162C168.442 293.589 168.28 293.899 168.301 293.616C168.415 292.093 164.845 288.879 164.01 287.673C162.447 285.442 161.282 282.929 160.393 280.362C156.877 270.2 159.268 259.008 161.382 248.825C162.5 243.428 163.733 238.017 164.138 232.505C164.515 227.33 163.808 222.276 163.39 217.128C162.985 212.047 163.093 206.805 165.27 202.101C166.334 199.81 167.943 197.788 169.904 196.212C171.816 194.669 174.201 193.773 176.066 192.237C177.926 190.706 177.394 188.638 176.908 186.522C176.242 183.652 175.4 180.801 175.319 177.837C175.171 172.668 177.279 167.634 180.573 163.726C183.968 159.69 188.818 156.96 194.058 156.347C196.456 156.064 198.814 156.543 201.198 156.375C203.556 156.213 204.067 155.034 204.512 152.877C205.535 147.938 205.118 143.06 207.549 138.451C209.705 134.354 213.538 131.577 217.775 129.94C225.541 126.935 234.573 127.554 242.765 129.326C247.6 115.095 262.695 105.762 277.548 105.648C279.865 101.713 283.792 98.7747 288.271 97.049C295.68 94.1851 303.528 95.8569 311.247 95.8569H311.28C312.056 95.8091 312.83 95.7896 313.604 95.7963C314.332 95.7552 315.06 95.6945 315.787 95.6144C324.571 94.576 333.26 90.9777 341.963 94.5025C345.842 96.0726 348.927 98.4917 350.88 101.578C353.824 102.379 356.728 103.296 359.576 104.361C371.923 104.684 384.156 111.307 390.399 122.042C399.189 121.045 408.727 122.737 414.541 129.92C416.055 131.789 417.228 133.985 418.005 136.316C423.932 138.234 429.417 141.651 433.007 146.798C436.283 151.495 436.912 157.567 434.696 162.609C439.988 166.444 444.123 171.934 446.115 178.416C447.325 182.355 447.505 186.424 446.726 190.301C452.144 191.503 457.326 193.731 461.917 197.075C466.728 200.579 472.737 206.155 473.054 212.572C473.077 213.043 473.059 213.514 473.022 213.984C483.614 213.24 494.414 215.035 501.573 223.53C506.949 229.904 509.286 238.112 507.851 245.585C520.454 248.145 532.37 254.735 540.682 264.479C546.723 271.561 552.092 280.564 551.769 290.206C551.668 293.111 550.987 296.035 549.808 298.737V298.743C550.313 299.694 550.833 300.752 551.331 301.877C559.138 307.342 564.809 315.907 568.002 325.347C570.581 332.995 572.205 342.928 569.45 350.711C569.032 351.897 568.5 353.015 567.88 354.052C568.4 354.606 568.891 355.158 569.369 355.717C574.63 361.869 579.958 369.618 579.594 378.088C579.446 381.499 578.18 384.928 576.111 387.744C583.387 395.124 589.246 404.436 588.668 414.834C588.169 423.883 583.204 433.074 575.425 437.421C576.724 444.395 574.987 451.753 569.558 457.198C566.85 459.92 563.658 461.713 560.276 462.67C559.521 470.884 552.234 477.494 544.494 479.394C543.052 479.752 541.611 479.967 540.177 480.068C533.212 483.485 524.907 483.093 517.8 479.96C515.706 482.622 512.978 484.792 509.798 486.348C508.512 486.982 507.15 487.507 505.73 487.931C495.694 490.903 485.401 486.874 476.624 482.171C476.342 482.022 475.823 481.834 475.365 481.625C474.152 482.979 471.943 484.32 470.791 484.981C466.884 487.224 462.108 488.268 457.622 487.972C452.362 487.622 447.721 485.883 443.424 483.41C442.797 483.518 442.164 483.579 441.53 483.613C437.489 483.828 433.886 482.548 430.645 480.526C428.504 480.809 426.308 480.783 424.085 480.392C419.188 481.638 414.419 479.657 410.587 476.51C408.889 475.115 407.455 473.478 405.918 471.915C404.323 470.29 403.109 469.913 401.244 468.822C396.832 466.241 396.3 459.698 398.213 454.967C397.849 454.139 397.64 453.216 397.64 452.191C397.654 443.256 401.769 435.062 406.821 427.913C409.078 424.726 411.529 421.605 414.217 418.776C416.38 416.504 419.417 412.819 422.616 411.895C422.812 411.754 423.014 411.612 423.216 411.478C422.596 409.307 422.233 407.098 422.387 404.841C422.55 402.522 423.297 400.325 424.496 398.452C420.475 390.656 418.777 382.105 419.585 373.183C416.312 368.54 413.833 363.413 412.554 357.793C411.766 354.316 411.314 350.657 411.375 347.092C411.402 345.381 412.028 343.217 412.041 341.445C411.947 342.005 411.219 339.916 410.936 339.396C407.69 333.366 403.521 328.663 402.827 321.554C402.423 317.395 403.407 312.8 405.899 309.391C404.302 303.097 404.323 296.338 406.835 290.335C407.509 288.731 408.283 287.161 409.172 285.672C408.761 284.418 408.384 283.151 407.899 282.012C407.71 281.56 407.522 281.103 407.333 280.645C405.508 279.034 403.81 277.275 402.382 275.55C399.217 271.73 396.798 267.35 396.495 262.302C396.347 259.775 396.939 257.356 397.674 254.958C397.998 253.873 398.193 252.667 398.577 251.609C398.792 251.022 399.311 250.423 399.492 249.87C399.533 249.749 399.567 249.648 399.594 249.567C399.567 249.486 399.546 249.318 399.546 249C399.54 246.581 399.224 244.216 399.209 241.885C396.993 244.122 394.326 245.793 391.295 246.771C385.186 248.732 378.813 247.842 373.405 244.816C367.585 248.806 361.045 252.417 354.187 253.866C350.113 254.728 346.03 254.372 341.942 254.904C337.881 255.436 333.953 257.208 330.128 258.59C321.613 261.669 313.12 264.829 304.579 267.828C297.682 270.247 290.218 272.168 282.997 270.807C280.969 273.933 278.336 276.575 274.961 278.515C272.544 279.897 269.89 280.833 267.148 281.298C264.723 281.709 261.88 281.548 259.914 283.212C257.994 284.829 256.795 287.241 255.071 289.061C253.151 291.096 250.78 292.861 248.295 294.128C246.301 295.146 244.266 295.88 242.199 296.359C242.38 300.961 242.556 305.557 242.61 310.166C242.71 320.179 242.67 330.192 242.804 340.206C242.939 350.185 243.256 360.165 243.781 370.131C244.28 379.484 244.981 388.87 247.21 397.994C254.606 428.27 282.311 449.948 313.322 451.053C322.529 451.383 331.643 450.089 340.447 447.38C349.567 444.57 357.711 438.788 367.06 437.01C369.505 436.551 371.809 439.011 370.408 441.376C367.996 445.439 365.066 447.919 361.059 450.365C356.862 452.919 352.188 454.813 347.574 456.47C339.086 459.515 330.107 461.282 321.101 461.773C314.231 462.15 307.334 461.679 300.605 460.385C300.133 461.834 299.298 463.242 298.665 464.583C298.571 464.779 298.253 464.644 298.314 464.442C298.416 464.105 298.482 463.808 298.509 463.566C296.247 466.517 292.751 468.558 289.16 469.55C286.628 470.25 283.94 470.465 281.333 470.17C280.491 470.075 279.69 469.934 278.895 469.758C276.242 472.083 272.847 473.633 269.438 474.408C270.024 477.966 268.266 481.847 264.191 482.858C262.48 483.282 260.837 483.289 259.193 483.134C257.866 483.754 256.438 484.239 254.922 484.57C252.949 485.001 250.592 484.448 249.103 483.02C248.288 483.592 247.527 483.99 246.773 484.899C243.667 488.646 236.972 485.661 236.676 481.328C235.692 481.328 234.702 481.342 233.711 481.376C233.476 481.483 233.24 481.591 232.998 481.706C228.667 483.72 224.181 485.479 219.391 483.896C218.509 483.605 217.701 483.235 216.967 482.804C213.592 483.107 210.265 483.114 206.842 482.009C204.821 481.355 202.923 480.318 201.34 478.956C196.059 480.506 190.488 481.207 185.234 479.286C181.301 477.851 178.134 475.587 175.905 472.601C172.496 472.723 169.035 471.901 165.916 470.277C160.581 467.515 156.843 462.265 154.236 457.003C148.497 445.392 145.102 432.92 143.769 420.056C142.455 407.388 144.328 394.787 145.648 382.192" fill="black"/>
<path fill-rule="evenodd" clip-rule="evenodd" d="M288.945 408.109C293.25 408.145 298.09 406.528 301.326 405.263L302.17 404.929C304.972 403.806 307.849 402.518 309.994 400.355C310.68 399.653 311.411 398.858 311.782 398.021C311.999 397.532 312.09 397.024 311.88 396.521C311.104 396.444 310.368 396.345 309.672 396.218C309.34 396.157 309.023 396.094 308.779 396.093C307.881 396.087 306.993 396.201 306.106 396.313C305.978 396.33 305.849 396.346 305.721 396.362C305.03 396.447 304.342 396.54 303.656 396.632C301.66 396.9 299.674 397.166 297.649 397.263C296.187 397.333 294.654 397.251 293.107 397.167C289.096 396.948 284.948 396.65 281.858 399.461C281.048 400.197 280.71 401.125 280.71 402.069C280.71 403.217 281.193 404.385 281.929 405.302C283.598 407.378 286.166 408.087 288.945 408.109ZM265.469 371.908C267.342 374.72 270.463 376.527 274.738 376.331C283.237 375.942 293.379 372.735 300.497 368.096C302.35 366.889 303.552 364.958 303.768 362.89L304.151 359.21L306.223 362.275C306.439 362.594 306.657 362.912 306.875 363.231C307.475 364.108 308.075 364.985 308.64 365.884C310.812 369.335 312.802 372.821 314.61 376.477C315.889 379.066 316.825 381.961 317.763 384.883C319.347 389.815 320.877 394.666 324.262 398.132C324.773 398.656 325.56 398.844 326.28 398.751C326.914 398.67 327.536 398.358 327.841 397.738C331.885 389.512 326.446 379.599 322.034 372.708L321.567 371.988C317.476 365.76 310.795 357.519 303.143 356.398L302.267 357.796L300.994 356.946C298.911 355.556 296.161 355.621 293.754 356.708L291.346 357.795C286.865 359.807 282.444 361.664 277.595 362.68C277.242 362.754 276.889 362.824 276.537 362.888C276.204 362.948 275.869 363.005 275.533 363.058C275.605 362.727 275.683 362.398 275.76 362.07C275.842 361.722 275.925 361.374 276.014 361.027C276.106 360.669 276.203 360.313 276.301 359.958C276.689 358.543 277.128 357.141 277.649 355.768C279.606 350.607 282.732 345.78 285.773 341.176L286.131 340.635C286.567 339.975 287.045 339.286 287.539 338.574C289.91 335.158 292.541 331.45 292.727 327.728C289.579 327.926 286.945 329.883 284.626 331.587C281.443 333.923 278.494 336.594 275.819 339.497C270.629 345.128 265.972 352.326 263.929 359.768C262.76 364.029 263.274 368.614 265.469 371.908V371.908ZM348.501 329.456L348.502 329.304C348.492 325.007 345.991 315.196 339.807 315.196C335.944 315.196 333.599 321.873 333.193 328.756L333.179 329.037C333 333.316 334.173 342.67 339.807 342.67C345.501 342.67 348.443 333.811 348.501 329.456V329.456ZM257.454 328.111L257.453 327.959C257.462 323.662 259.964 313.851 266.148 313.851C269.914 313.851 272.238 320.198 272.728 326.895L272.762 327.411C273.006 331.546 271.908 341.325 266.148 341.325C260.454 341.325 257.512 332.466 257.454 328.111V328.111ZM327.67 300.376C328.49 300.472 329.305 300.598 330.12 300.728C332.498 301.107 334.863 301.562 337.211 302.092C341.672 303.099 346.097 304.371 350.438 305.809C354.5 307.154 358.498 308.675 362.496 310.196C362.709 310.277 362.922 310.358 363.136 310.439C364.547 310.976 365.954 311.578 367.365 312.181C369.512 313.1 371.67 314.024 373.871 314.721C368.071 306.699 359.134 300.754 350.534 296.5C345.627 294.073 340.422 292.116 335.186 290.512L332.27 289.636C327.976 288.368 323.281 287.198 319.248 289.725C317.652 290.724 316.634 292.278 316.314 293.957C315.999 295.604 316.358 297.37 317.495 298.844C318.485 300.128 319.72 300.859 321.033 301.11C322.483 301.387 324.02 301.083 325.419 300.335C326.54 300.252 326.87 300.282 327.202 300.319L327.67 300.376ZM263.078 301.193C265.951 300.568 268.797 300.317 271.745 300.407C273.079 300.447 274.369 300.653 275.655 300.861C277.653 301.183 279.644 301.515 281.796 301.125C282.919 300.921 283.876 300.264 284.614 299.406C285.478 298.403 286.05 297.121 286.233 295.903C286.422 294.644 286.234 293.543 285.768 292.571C285.218 291.422 284.292 290.454 283.172 289.606C279.783 287.04 273.969 287.657 269.969 288.176C266.017 288.69 262.087 289.916 258.593 291.863C255.146 293.785 252.15 296.374 249.812 299.539C247.841 302.206 246.913 305.276 245.954 308.402C250.464 304.617 257.365 302.434 263.078 301.193Z" fill="black"/>
</svg>
