<svg width="590" height="618" viewBox="0 0 590 618" fill="none" xmlns="http://www.w3.org/2000/svg">
<path fill-rule="evenodd" clip-rule="evenodd" d="M313.386 338.47C300.381 328.563 267.729 324.107 253.848 333.647C240.138 343.226 238.644 358.718 232.255 372.969C226.227 370.125 216.273 374.198 214.525 379.793C212.358 382.432 212.26 389.846 210.766 393.394C145.728 403.751 135.854 454.475 128.026 512.062C117.67 570.498 94.1609 628.806 104.367 688.937C103.037 690.862 101.989 692.733 101.019 694.956C98.6962 698.91 101.688 704.507 106.374 704.29C112.438 703.757 118.443 703.03 124.536 702.803C141.427 702.216 158.334 702.286 175.232 702.5L177.536 702.531C262.694 703.591 347.848 705.681 433.011 706.235C436.1 706.24 437.613 703.468 437.201 700.733C436.37 695.228 435.599 689.72 434.794 684.212C454.937 689.535 476.351 690.874 496.438 684.772C497.843 683.34 493.164 684.116 492.421 683.899C510.907 671.262 505.386 644.641 503.749 625.468C493.567 559.768 489.977 487.075 450.637 431.012C433.617 408.133 408.666 390.019 379.994 385.943L379.199 385.834C370.815 384.716 361.472 384.355 354.142 379.793C345.898 373.209 342.385 361.044 333.712 360.93C330.848 360.892 326.952 364.517 322.76 366.978C322.447 361.564 319.531 356.996 318.887 352.799L318.835 352.44C318.163 347.546 319.083 343.144 313.386 338.47ZM173.615 513.798C191.892 501.096 239.106 507.478 240.187 508.189C242.567 509.755 243.592 509.894 244.879 511.927C246.15 512.096 247.419 512.271 248.688 512.451C251.233 513.283 249.347 516.415 246.407 515.297C248.176 522.926 242.972 528.352 240.9 535.894C240.227 538.343 240.876 542.747 240.9 545.249C240.699 548.439 237.173 552.208 237.761 555.408C239.85 566.787 251.187 577.888 246.407 588.923C243.241 595.155 233.717 598.334 227.385 600.452C214.267 605.489 191.409 600.263 183.787 588.923C179.722 582.874 175.011 567.617 172.587 562.884L172.05 555.377C170.725 536.715 169.546 516.625 173.615 513.798Z" fill="#F1F0E0"/>
<path fill-rule="evenodd" clip-rule="evenodd" d="M336.891 359.831C335.629 358.714 333.762 360.118 334.563 361.628C336.365 365.022 338.214 368.238 340.632 371.238C342.098 373.057 343.669 374.777 345.26 376.478C341.176 380.014 337.672 384.402 334.364 388.516C330.134 393.776 326.135 399.26 321.386 404.074C316.703 408.821 311.525 412.14 305.263 414.353L303.999 414.792C297.709 417.001 290.987 419.984 287.441 425.942C286.742 427.117 288.15 428.568 289.333 427.835C295.494 424.019 302.732 423.252 309.438 420.73C315.916 418.295 321.563 414.546 326.552 409.762C331.533 404.986 335.716 399.552 340.078 394.232C344.392 388.973 349.037 384.48 354.14 380.03C362.014 385.33 371.002 387.636 380.142 389.9L381.139 390.148C390.29 392.414 399.392 395.046 407.976 398.993C415.545 402.472 422.99 406.627 429.155 412.289C435.7 418.297 440.794 425.972 445.456 433.476C455.885 450.267 463.217 468.662 469.671 487.28C476.384 506.646 482 526.399 486.533 546.387C488.838 556.554 490.711 566.794 492.25 577.105C492.991 582.071 493.649 587.048 494.227 592.035C494.844 597.361 494.985 602.841 496.619 607.962C497.319 610.156 498.972 611.067 500.627 610.99L500.963 615.195C501.409 620.802 501.824 626.411 501.965 632.053C502.198 641.433 502.092 650.787 501.418 660.148L501.322 661.425C500.792 668.257 499.608 675.933 494.472 680.935C489.154 686.116 480.976 687.746 473.808 687.839C457.113 688.057 441.042 680.165 426.269 673.242C411.054 666.112 396.255 658.198 381.811 649.616C374.455 645.245 367.178 640.728 359.994 636.08C356.469 633.798 352.968 631.478 349.494 629.12C347.504 627.77 345.619 626.29 343.593 625.092C344.585 624.167 345.029 622.713 344.197 621.444C350.053 616.359 352.491 607.284 352.776 599.942C353.006 594.015 352.134 588.105 351.446 582.234C351.099 579.273 350.67 576.318 350.225 573.371C350.049 572.206 349.914 570.961 349.709 569.732C365.522 578.425 381.777 586.166 398.464 593.044C407.017 596.57 415.68 599.739 424.462 602.644L426.242 603.23C434.563 605.955 443.084 608.529 451.686 610.087C452.146 610.17 452.52 609.491 452.029 609.274C443.645 605.574 434.971 602.452 426.462 599.044L425.064 598.474V598.474C425.224 598.466 425.391 598.443 425.565 598.402C430.555 597.197 435.507 595.34 440.401 593.777C444.944 592.326 450.048 591.414 454.294 589.224C454.62 589.055 454.437 588.601 454.119 588.579C449.347 588.248 444.166 589.64 439.487 590.458L437.729 590.766C434.785 591.286 431.775 591.844 428.844 592.572C428.738 591.59 428.19 590.604 427.41 590.026C418.823 583.665 419.695 570.817 418.777 561.343L418.096 554.309C416.898 541.999 415.631 529.691 413.706 517.473C413.603 516.821 412.594 517.008 412.59 517.624C412.491 532.769 413.634 547.845 414.206 562.966L414.295 565.447C414.612 574.777 414.86 584.466 420.734 591.646C419.913 591.166 418.802 591.166 418.137 591.957C417.319 592.931 416.847 594.024 416.862 595.096C411.554 592.87 406.269 590.586 401.01 588.255C384.101 580.761 367.547 572.375 351.431 563.301C349.696 562.324 348.048 563.092 347.19 564.379L347.066 564.362C347.045 564.359 347.024 564.357 347.003 564.356L346.88 564.351C346.875 564.351 346.87 564.351 346.866 564.351C344.598 563.104 341.507 563.992 339.56 565.811C339.503 565.866 339.454 565.925 339.403 565.983C336.938 564.876 334.637 563.382 332.548 561.488C328.274 557.613 324.654 552.822 321.498 548.017C315.686 539.167 310.75 529.326 302.899 522.042C296.52 516.123 288.612 512.439 280.315 510.125C280.35 509.883 280.257 509.625 280.09 509.453C279.664 509.016 279.36 508.865 278.809 509.13C278.765 509.151 278.739 509.181 278.721 509.212L277.911 507.829C277.47 507.078 277.016 506.321 276.859 506.123C275.917 504.936 274.947 503.759 273.963 502.606C272.294 500.654 270.393 498.728 268.191 497.375C263.37 494.412 258.302 496.089 253.346 497.708C250.351 498.687 247.367 499.697 244.377 500.691L244.069 500.791C241.84 501.508 239.231 502.135 238.235 504.497C237.84 505.432 237.779 506.403 237.963 507.344C216.791 501.958 193.276 504.432 172.616 510.755C171.823 510.998 171.031 511.65 170.864 512.507C168.497 524.651 167.443 537.105 168.514 549.457C169.438 560.118 171.8 570.567 176.25 580.327L176.502 580.879C180.684 589.924 187.313 601.075 197.435 603.911C203.547 605.623 210.308 604.613 216.541 604.3C222.6 603.995 228.793 603.95 234.794 602.997C240.138 602.149 244.821 599.752 248.124 595.405C250.973 591.654 252.474 587.121 253.703 582.612C254.266 582.791 254.825 582.982 255.375 583.197C257.696 584.104 259.664 585.569 261.442 587.292C265.199 590.931 268.112 595.35 272.042 598.822C275.599 601.966 279.653 604.41 284.001 606.29C293.011 610.185 302.677 611.741 312.208 613.805L312.872 613.95C320.047 615.525 327.371 617.459 333.704 621.195C333.827 622.295 334.328 623.331 335.131 624.008C334.014 625.058 333.541 626.72 334.523 628.279C337.265 632.632 341.987 635.108 346.227 637.892L346.503 638.074C350.673 640.84 354.88 643.551 359.122 646.207C367.744 651.607 376.546 656.711 385.473 661.589C399.83 669.436 414.496 676.837 429.428 683.551C428.531 687.962 428.859 692.51 428.185 696.95L428.082 697.584C427.794 699.232 428.183 700.61 429.318 701.687L429.438 701.797L429.436 701.783L429.542 701.88L429.578 701.91L429.566 701.901C429.696 702.02 429.831 702.132 429.969 702.227L430.144 702.34V702.34C431.237 703.005 432.644 702.997 433.763 702.41L433.891 702.34L434.106 702.217C435.584 701.366 436.603 699.258 435.99 697.584C434.483 693.468 433.913 689.076 432.521 684.934L433.626 685.427V685.427L435.081 686.062C450.823 692.872 468.309 698.606 485.46 693.964C493.039 691.912 500.122 687.572 503.914 680.498C507.645 673.538 508.172 665.456 508.37 657.713C508.615 648.157 508.103 638.454 506.843 628.98C505.997 622.621 504.975 616.141 503.397 609.847C504.209 609.131 504.805 608.104 504.963 606.831C505.707 600.82 504.404 594.57 503.606 588.59C502.827 582.751 501.966 576.924 500.993 571.115C499.027 559.383 496.743 547.675 494.084 536.081C489.352 515.446 483.102 495.177 475.579 475.393L474.92 473.67C467.968 455.586 459.918 437.889 448.709 422.003C443.347 414.402 437.679 407.511 430.103 402.035C423.005 396.903 414.999 393.208 406.737 390.384C398.465 387.558 389.964 385.664 381.312 384.486C372.526 383.29 363.251 382.556 355.055 378.951C356.092 377.091 355.202 374.581 353.457 373.428C347.584 369.546 342.154 364.497 336.891 359.831ZM148.902 528.61C148.656 528.236 148.072 528.472 148.18 528.914C151.036 540.62 153.717 552.349 155.468 564.279C158.628 585.809 158.047 607.621 157.788 629.311L157.775 630.433C157.643 642.116 157.458 653.8 157.072 665.478C156.877 671.38 156.491 677.341 156.701 683.246C156.815 686.449 157.669 689.48 157.971 692.645C158.236 695.412 158 698.223 157.868 700.994C157.78 702.837 160.498 702.758 160.683 700.994L160.92 698.712C161.227 695.825 161.606 692.955 162.552 690.191C163.69 686.866 164.236 683.602 164.63 680.111C165.235 674.763 165.504 669.361 165.737 663.975L165.896 660.25C166.871 637.742 166.836 615.128 165.259 592.643L165.144 591.037C163.582 569.784 160.873 546.82 148.902 528.61ZM209.782 394.656C210.528 394.349 210.267 393.221 209.441 393.417L207.939 393.776C196.93 396.414 186.121 399.272 175.846 404.18C165.564 409.091 156.859 416.423 149.943 425.439C136.497 442.965 130.91 464.264 126.499 485.543C121.597 509.188 117.134 532.919 112.189 556.557L111.271 560.96C106.696 582.975 102.376 605.003 99.1929 627.28L98.9643 628.895C95.7545 651.803 93.8239 675.503 97.3262 698.47C98.0191 703.014 105.577 701.882 105.282 697.393C104.428 684.415 103.817 671.505 104.408 658.498C104.999 645.488 106.219 632.536 108.037 619.64C109.567 608.787 111.848 598.07 113.866 587.304L114.183 585.603C115.873 576.446 117.615 567.298 119.354 558.149L121.952 544.452C125.846 523.942 129.816 503.414 134.303 483.033L134.569 481.834C138.959 462.226 145.432 441.686 158.601 426.115C171.965 410.313 191.096 402.355 209.782 394.656ZM258.348 602.639C258.027 601.923 256.902 602.001 256.557 602.639C255.202 605.138 255.052 608.329 254.796 611.151L254.769 611.441C254.443 614.885 254.155 618.34 253.979 621.794C253.644 628.35 253.484 634.898 253.505 641.463C253.526 648.19 253.661 654.91 254.024 661.628L254.122 663.428C254.453 669.265 255.008 675.777 257.781 680.88C258.789 682.736 261.53 682.19 262.114 680.314C264.026 674.17 263.044 666.886 262.553 660.594L262.173 655.684C261.795 650.774 261.436 645.862 261.15 640.946C260.76 634.22 260.437 627.488 260.127 620.759C260.026 618.573 259.917 616.387 259.802 614.202L259.625 610.924C259.473 608.182 259.486 605.174 258.348 602.639ZM473.387 611.345L472.54 610.527C469.941 607.982 466.656 604.063 462.814 604.307C461.282 604.404 460.306 605.676 460.624 607.184C461.302 610.407 464.589 612.08 466.955 614.048C469.548 616.204 471.991 618.507 474.429 620.833C476.592 622.896 478.673 625.017 480.703 627.204L481.462 628.027C482.19 628.822 487.373 633.512 486.812 634.728L486.782 634.783C486.626 635.016 486.886 635.336 487.144 635.255C489.383 634.547 489.243 632.628 488.397 630.684C486.771 626.948 483.924 623.492 481.437 620.302C478.958 617.119 476.274 614.155 473.387 611.345V611.345ZM250.233 517.657C251.964 513.565 258.339 513.651 261.959 513.895C271.074 514.512 280.935 516.819 289.045 521.08C297.454 525.499 303.117 532.578 308.185 540.407L308.422 540.774C313.361 548.455 318.118 557.548 325.853 562.829C329.792 565.52 334.392 567.977 339.172 569.041C339.5 569.618 340.032 570.075 340.729 570.241L341.053 570.315C342.414 570.616 344.529 570.948 346.356 570.749C346.344 571.643 346.353 572.53 346.33 573.377C346.266 575.805 346.239 578.242 346.239 580.671C346.238 585.76 346.511 590.859 346.299 595.947C346.111 600.448 345.475 605.15 343.315 609.174C341.731 612.125 339.64 614.078 337.116 615.943C330.906 612.157 323.884 609.85 316.758 608.115C308.14 606.016 299.315 604.616 290.893 601.771C286.839 600.401 282.942 598.608 279.411 596.174C275.663 593.589 272.801 590.091 269.855 586.67L269.395 586.138C266.389 582.69 263.11 579.39 258.862 577.52C255.204 575.91 250.383 575.623 247.184 573.131C245.512 571.827 245.372 569.935 245.196 567.997C247.244 568.29 249.413 567.821 251.454 567.581L252.512 567.457C254.443 567.228 256.329 566.975 258.229 566.484C258.582 566.393 258.582 565.86 258.229 565.769C255.983 565.189 253.757 564.942 251.454 564.672L250.913 564.604C248.83 564.331 246.64 563.918 244.597 564.377C244.23 562.982 243.7 561.649 242.957 560.315C241.915 558.44 239.942 556.314 239.675 554.124C239.596 553.47 239.748 552.699 240.056 552.121L240.162 551.924C240.292 551.691 240.445 551.457 240.67 551.312C240.695 551.341 240.747 551.374 240.862 551.41C242.434 551.905 243.806 551.135 244.534 549.948C247.625 550.332 250.999 550.203 253.898 550.331L256.829 550.473C259.96 550.616 263.235 550.679 266.177 550.046C266.588 549.958 266.713 549.274 266.301 549.098C262.683 547.55 258.294 547.056 254.421 546.462C252.258 546.129 250.079 545.876 247.909 545.583C246.464 545.388 244.931 545.066 243.434 544.989C239.681 540.315 241.704 532.943 246.926 530.93C248.829 531.767 250.54 531.28 252.618 531.102C254.693 530.923 256.773 530.803 258.856 530.812C263.03 530.83 267.454 531.929 271.588 531.456C272.26 531.378 272.885 530.483 272.216 529.937C269.052 527.354 264.517 526.512 260.501 525.961L259.668 525.85C258.321 525.673 256.684 525.416 254.985 525.262C254.601 524.513 253.912 523.946 252.877 523.805C252.569 523.763 252.26 523.738 251.951 523.712L251.956 523.682V523.682C249.431 523.56 249.541 519.294 250.233 517.657ZM423.085 597.468C423.13 597.537 423.179 597.603 423.231 597.666L423.311 597.759L422.896 597.59L423.085 597.468V597.468ZM206.175 508.511C216.801 507.369 227.444 507.61 238.102 507.917C238.954 510.706 241.922 513.083 244.797 513.173C242.545 516.601 242.313 521.242 243.892 524.878C240.539 526.213 237.651 528.611 235.898 532.027C233.466 536.761 233.784 542.03 236.187 546.406C234.136 548.263 232.926 551.28 233.047 554.123C233.183 557.293 235.071 560.001 236.641 562.626C238.337 565.465 238.394 567.964 238.915 571.143C239.677 575.796 242.814 578.618 246.851 580.381L246.636 581.225C245.595 585.277 244.301 589.553 241.326 592.516C237.5 596.328 231.565 596.292 226.51 596.534L226.266 596.546C221.637 596.777 217.01 597.049 212.383 597.311L208.913 597.505C203.585 597.798 198.469 597.834 194.119 594.31C187.019 588.559 182.151 579.04 179.07 570.614C172.603 552.928 172.526 533.518 175.494 515.098C185.449 511.888 195.778 509.629 206.175 508.511ZM294.554 537.856L294.476 537.862C292.288 538.112 290.785 539.884 290.25 541.987C289.472 545.043 289.854 547.806 287.983 550.564C286.058 553.401 284.875 555.672 284.595 559.177C284.48 560.619 284.533 562.057 284.212 563.469L283.979 564.458C283.732 565.512 283.53 566.528 283.653 567.66C283.765 568.692 284.268 569.497 285.303 569.828C288.677 570.907 291.281 568.42 292.153 565.275C292.906 562.559 291.9 559.322 292.963 556.771C293.551 555.356 294.636 554.174 295.25 552.75C295.857 551.339 296.162 549.865 296.26 548.331C296.445 545.43 293.88 541.945 295.311 539.316C295.616 538.755 295.27 537.839 294.554 537.856ZM339.36 507.919C337.075 507.455 334.484 506.39 332.231 507.275C331.073 507.73 330.501 509.143 331.479 510.125C333.178 511.828 335.647 511.923 337.935 512.325L338.136 512.361C340.841 512.862 343.552 513.337 346.266 513.787C351.371 514.633 356.489 515.381 361.625 516.016C366.9 516.669 372.19 517.251 377.487 517.688L379.538 517.856C384.012 518.214 388.668 518.484 393.058 517.799C393.697 517.699 393.594 516.77 393.058 516.607C388.249 515.151 382.973 514.76 378 514.144C372.714 513.488 367.436 512.795 362.172 511.973C356.917 511.151 351.668 510.27 346.439 509.296C344.075 508.857 341.715 508.397 339.36 507.919ZM256.93 503.244C258.934 502.534 261.14 501.482 263.312 501.834C267.058 502.441 270.392 506.092 273.357 508.497L271.868 508.207C264.25 506.742 254.162 505.165 247.767 510.01C247.751 509.982 247.738 509.954 247.719 509.926C247.203 509.142 246.605 508.53 245.952 507.859C245.89 507.8 245.83 507.739 245.77 507.678L245.418 507.302L246.224 507.023C247.949 506.413 249.993 505.625 250.316 505.51L250.339 505.502C252.538 504.757 254.74 504.02 256.93 503.244ZM319.525 343.501C319.839 339.467 313.563 339.501 313.253 343.501C312.575 352.235 314.539 360.885 318.768 368.542C318.799 368.598 318.833 368.648 318.866 368.7C316.221 370.077 313.546 371.398 310.812 372.579C307.314 374.089 303.75 375.465 300.123 376.632C296.841 377.688 292.799 378.105 290.04 380.303C284.223 384.937 286.408 394.554 287.527 400.787L287.702 401.771C288.259 404.979 288.662 408.27 287.31 411.349C285.867 414.637 282.947 417.077 280.343 419.429L279.817 419.906C277.51 422.009 274.874 424.564 273.181 427.415C271.637 424.219 269.531 421.608 267.304 418.669C265.716 416.571 266.846 415.88 267.988 413.83C269.086 411.858 269.622 409.756 269.279 407.505C268.645 403.35 265.325 400.348 262.021 398.093C258.118 395.431 253.763 393.458 249.729 390.982C241.439 385.893 233.366 380.076 226.092 373.614C225.892 373.436 225.544 373.67 225.705 373.914C231.45 382.656 238.187 390.211 246.467 396.623C249.824 399.223 253.351 401.38 256.901 403.647L257.922 404.302C259.347 405.226 261.125 406.461 261.77 408.034C262.419 409.615 261.036 410.81 260.291 412.12C257.927 416.281 259.068 420.163 261.87 423.692L262.001 423.855C264.786 427.288 266.896 430.481 267.906 434.867C270.075 444.29 267.054 454.104 263.891 462.95L263.766 463.299C262.056 468.066 260.237 472.8 258.751 477.644L258.342 478.983C256.995 483.44 255.893 487.837 257.403 492.419C257.917 493.977 260.042 494.346 260.924 492.879C264.038 487.706 264.814 481.481 266.765 475.794C268.667 470.252 270.851 464.809 272.688 459.244C275.054 452.078 276.637 444.365 275.778 436.849C275.803 436.805 275.831 436.764 275.852 436.718L276.454 435.4C278.096 431.832 279.682 428.716 282.669 425.872C285.783 422.905 289.164 420.278 291.615 416.687C296.939 408.886 293.647 400.208 293.004 391.677L292.93 390.631C292.813 388.86 292.749 386.453 293.906 385.228C295.206 383.848 298.257 383.496 299.983 382.885C304.443 381.306 308.839 379.466 313.026 377.256C317.011 375.153 320.871 372.83 324.465 370.108L326.287 368.737C329.161 366.568 332.142 364.198 334.069 361.245C334.291 360.905 333.913 360.356 333.511 360.519C330.295 361.825 327.356 363.901 324.347 365.708C324.3 365.598 324.246 365.487 324.185 365.375C320.462 358.635 318.931 351.167 319.525 343.501ZM216.794 389.681C215.513 386.166 209.673 386.437 209.906 390.614C210.084 393.822 211.446 396.718 212.691 399.632L212.824 399.944C214.11 402.979 215.594 405.829 217.371 408.611C220.765 413.929 224.742 418.865 228.989 423.522C232.839 427.745 237.893 430.327 243.716 429.898C246.17 429.718 248.647 429.093 250.797 427.867C253.351 426.41 256.124 422.036 259.382 423.095C259.697 423.198 259.991 422.736 259.719 422.517C255.957 419.487 251.688 424.185 248.087 425.318C242.661 427.023 237.093 425.137 233.6 420.749C229.953 416.167 226.597 411.037 223.533 406.048C221.976 403.515 220.556 400.886 219.33 398.177C218.092 395.442 217.811 392.469 216.794 389.681ZM225.54 368.048C225.698 367.562 225.095 367.101 224.669 367.378C222.197 368.988 220.055 371.114 217.776 372.979C215.246 375.047 212.698 377.073 210.111 379.068C206.339 381.977 210.714 387.332 214.034 384.154C218.578 379.807 223.554 374.123 225.54 368.048ZM239.108 351.035C238.104 347.161 232.166 348.759 233.031 352.587L233.059 352.703C234.698 359.026 232.364 365.464 227.38 369.563L227.197 369.712C224.044 372.236 228.511 376.649 231.633 374.149C238.448 368.693 241.283 359.424 239.108 351.035Z" fill="black"/>
<path fill-rule="evenodd" clip-rule="evenodd" d="M187.532 227.729C189.487 212.116 195.631 195.54 202.092 180.985C216.619 150.212 249.879 145.975 279.695 139.63C309.117 135.345 340.273 131.475 369.252 140.025C385.543 144.018 391.906 163.428 389.335 178.745C387.867 188.29 383.524 197.323 379.821 206.169C372.46 224.335 367.79 243.783 367.782 263.451C368.288 276.305 370.101 290.975 355.336 296.419C341.286 303.409 340.099 322.356 322.507 333.106C315.393 347.521 296.015 348.79 282.069 352.133C273.254 353.821 264.339 355.063 255.4 355.865C229.518 359.183 208.812 351.681 195.263 328.615C186.196 314.577 179.444 298.369 181.112 281.356C182.774 263.441 185.541 245.62 187.532 227.729Z" fill="#F1F0E0"/>
<path fill-rule="evenodd" clip-rule="evenodd" d="M279.474 102.23C277.997 100.555 275.721 101.129 274.339 102.454C273.44 102.719 272.568 103.113 271.745 103.635C269.886 103.396 267.936 103.396 266.112 103.463C265.669 103.215 265.195 102.994 264.679 102.804C260.99 101.455 257.724 102.141 255.031 103.946C253.733 102.718 252.096 101.948 250.003 102.064C248.135 102.168 246.805 103.048 245.664 104.206C244.526 102.565 242.688 101.394 240.397 101.231C237.195 101.004 234.117 102.288 231.566 104.277C230.08 102.571 228.054 101.591 225.795 101.581C224.31 101.311 222.742 101.418 221.325 101.846C219.268 102.467 217.462 103.632 216.024 105.143C213.748 102.963 210.963 101.394 207.751 101.623C203.594 101.923 200.148 104.981 198.546 108.744C195.733 109.872 193.136 111.48 190.965 113.772C190.849 113.893 190.738 114.02 190.622 114.147C189.453 114.578 188.352 115.19 187.382 115.996C184.311 118.553 183.626 122.253 184.642 125.879C184.5 126.459 184.379 127.049 184.268 127.639C181.392 128.077 178.778 129.737 177.293 132.441C175.259 136.152 175.659 141.043 177.862 144.585C178.808 146.109 180.01 147.393 181.36 148.515C179.834 151.984 180.566 156.122 183.027 158.927C183.627 159.894 184.363 160.767 185.191 161.557C184.277 165.143 185.903 168.842 189.148 170.758L189.426 171.453C189.472 171.569 189.52 171.684 189.569 171.798C189.604 171.945 189.649 172.088 189.692 172.232C189.77 173.504 190.189 174.753 191.02 175.929C192.722 178.34 194.832 179.913 195.951 182.727L196.063 183.023C196.544 184.355 198.097 185.294 199.421 184.883C192.072 199.979 188.22 216.776 185.575 233.238C184.256 241.45 183.238 249.691 182.413 257.963L181.604 266.201C180.892 273.524 180.258 280.87 180.254 288.217C180.243 304.836 184.995 320.821 195.196 334.046C204.842 346.548 218.494 355.608 233.915 359.176C249.837 362.855 268.514 361.406 282.792 352.983C287.002 350.506 283.314 344.55 279.03 346.543C270.922 350.317 262.682 353.121 253.693 353.748C244.932 354.364 236.149 353.268 227.84 350.4C214.094 345.652 202.398 335.706 194.879 323.32C191.176 317.216 188.494 310.591 187.066 303.591C185.289 294.867 185.557 285.849 186.21 277.013L186.255 276.411C187.546 259.386 189.247 242.256 191.998 225.401C194.428 210.496 198.167 195.893 203.02 181.613C204.92 179.939 207.047 178.554 209.322 177.502C225.986 176.805 242.679 177.009 259.32 178.159C273.513 179.146 287.637 180.816 301.654 183.251L303.155 183.514C306.259 184.067 309.704 184.384 312.628 185.633C315.136 186.709 316.153 188.775 316.785 191.315C318.377 197.74 318.619 204.771 318.888 211.36C319.151 217.8 318.556 224.294 319.072 230.713C319.509 236.084 320.884 241.581 324.862 245.466C326.943 247.5 329.504 248.613 331.906 250.157C333.461 251.154 334.119 252.181 333.919 254.026C333.487 258.063 330.236 263.149 333.887 266.607C334.53 267.213 335.642 267.292 336.274 266.607C337.781 264.968 339.862 263.718 341.648 262.395C342.396 261.848 341.775 260.783 340.926 261.162C339.809 261.663 338.671 262.254 337.507 262.77C340.078 260.651 343.735 259.612 346.78 258.996C348.313 258.69 349.925 258.6 351.522 258.743C352.702 259.307 353.908 259.829 355.115 260.34C356.648 260.983 358.197 261.568 359.757 262.122C365.167 266.533 367.749 273.707 366.622 280.722C366.005 284.596 364.219 288.807 360.852 291.069C356.864 293.746 351.522 292.597 347.212 294.584C343.176 296.444 340.721 300.203 338.882 304.093L338.116 305.712C336.409 309.298 334.655 312.788 332.323 316.051C329.625 319.83 326.322 323.225 322.718 326.14C320.97 327.551 319.106 328.82 317.18 329.976L316.654 330.288C314.704 331.432 313.308 332.522 313.176 334.941C313.134 335.785 313.666 336.554 314.351 336.992C317.302 338.863 320.236 336.523 322.692 334.889C325.342 333.128 327.876 331.147 330.221 328.986C334.678 324.885 338.534 320.015 341.501 314.728C343.761 310.702 345.046 305.036 348.619 301.916C350.8 300.012 353.882 299.997 356.606 299.649C359.14 299.323 361.537 298.795 363.792 297.546C372.965 292.45 375.557 280.111 373.381 270.576C373.012 268.968 372.496 267.403 371.859 265.895C375.273 266.464 379.108 262.934 377.723 259.37C377.617 259.101 377.496 258.849 377.38 258.59C379.63 257.109 381.405 254.864 382.248 251.928C382.68 250.41 382.744 248.876 382.517 247.395C383.608 246.663 384.509 245.656 385.088 244.417C386.901 243.579 388.508 242.325 389.466 240.533C390.794 238.061 390.626 235.784 389.614 233.733C389.756 233.476 389.893 233.212 390.025 232.943C393.739 230.587 396.332 226.528 396.036 222.027C395.942 220.535 395.573 219.191 395.004 217.98C395.051 217.827 395.099 217.668 395.141 217.515C398.249 215.934 400.82 213.336 401.737 209.868C402.654 206.378 401.574 202.9 399.414 200.222C402.575 197.909 404.477 194.678 403.323 189.791C402.854 187.805 401.911 185.996 400.636 184.473C400.641 184.426 400.652 184.379 400.662 184.331L400.958 184.101C404.861 181.021 407.104 177.095 404.709 172.266C403.634 170.095 402.101 168.582 400.299 167.586L400.209 167.301V167.301C401.5 164.534 401.937 161.461 401.047 158.23C400.32 155.569 398.597 153.45 396.395 152.043C396.542 150.851 396.521 149.582 396.284 148.205C395.889 145.882 394.735 143.852 393.049 142.414C392.986 142.107 392.907 141.807 392.817 141.506C392.248 139.667 391.184 137.67 389.951 136.188C388.934 134.96 387.796 134.512 386.405 134.465C386.49 133.332 386.432 132.183 386.2 131.018C385.489 127.424 383.202 124.045 379.814 122.511C378.423 121.884 376.959 121.7 375.547 121.852C374.345 119.322 372.001 117.488 369.119 117.093C367.997 116.935 366.954 116.945 365.995 117.088C365.452 116.834 364.888 116.608 364.298 116.402C363.908 116.265 363.513 116.138 363.118 116.013C361.785 114.358 360.031 113.034 357.981 112.239C355.615 111.316 353.208 111.411 351.074 112.185L350.394 112.043V112.043C349.33 110.198 347.633 108.77 345.025 108.122C342.064 107.389 339.024 108.412 336.696 110.273C336.685 110.273 336.675 110.273 336.659 110.267C335.442 107.542 333.361 105.644 329.868 105.776C327.692 105.861 325.726 106.942 324.209 108.481C323.366 108.375 322.523 108.28 321.675 108.186C320.779 107.136 319.783 106.156 318.682 105.276C316.88 103.831 314.536 103.948 313.208 105.982C312.918 106.425 312.65 106.873 312.381 107.321L311.164 107.236V107.236C309.731 105.302 307.776 103.995 305.1 103.89C302.644 103.789 300.895 104.991 299.562 106.672C298.477 106.646 297.386 106.625 296.296 106.609C295.026 105.139 293.53 103.842 291.823 102.767C290.516 101.944 288.588 102.224 287.529 103.321C286.813 104.066 286.147 104.844 285.528 105.649C283.932 103.859 281.777 102.68 279.474 102.23ZM357.012 269.601C354.552 268.199 351.243 269.717 348.861 270.908C345.958 272.358 343.076 274.545 341.301 277.286C338.883 281.017 344.568 284.032 347.112 280.685C348.677 278.624 349.926 276.548 351.822 274.745C353.556 273.09 356.069 271.983 357.065 269.801C357.102 269.728 357.091 269.643 357.012 269.601ZM355.287 179.023L355.241 178.891C354.541 176.976 357.595 176.151 358.289 178.05C359.34 180.928 358.128 184.057 355.286 185.3C354.498 185.645 353.598 185.525 353.124 184.733C352.725 184.066 352.91 182.911 353.691 182.57C355.29 181.871 355.825 180.636 355.287 179.023V179.023ZM381.598 173.668C380.07 172.319 382.313 170.089 383.834 171.432C385.253 172.686 386.306 174.388 386.033 176.346C385.754 178.342 384.25 179.751 382.603 180.746C380.858 181.802 379.268 179.069 381.008 178.016L381.203 177.896C381.934 177.442 382.789 176.818 382.912 175.925C383.044 174.976 382.241 174.236 381.598 173.668ZM372.918 149.86L372.81 149.78C371.168 148.608 372.745 145.864 374.406 147.049C375.928 148.137 377.15 149.549 377.278 151.497C377.403 153.39 376.44 155.032 375.181 156.364C373.78 157.845 371.547 155.606 372.945 154.128C374.308 152.687 374.574 151.115 372.918 149.86V149.86Z" fill="black"/>
<path fill-rule="evenodd" clip-rule="evenodd" d="M230.805 309.578C229.997 308.172 228.136 306.87 226.433 307.07C218.805 307.965 218.818 317.217 221.763 322.618C224.375 327.408 229.78 330.219 235.19 329.809C240.873 329.377 245.716 326.034 247.847 320.716C249.256 317.197 249.908 310.702 246.158 308.338C246.089 308.294 245.974 308.305 245.919 308.369C244.121 310.461 244.05 313.602 242.477 315.931C241.013 318.097 238.739 319.886 236.075 320.162C234.086 320.369 232.073 319.651 231.295 317.864C230.874 316.898 230.922 316.373 231.08 315.708L231.224 315.13C231.722 313.105 231.946 311.563 230.805 309.578ZM228.764 269C224.786 271.419 218.724 277.061 223.004 283.058C228.042 288.347 235.295 282.283 238.87 279.541C242.184 277.416 245.908 282.882 242.833 285.363C217.004 304.493 206.522 269.633 226.752 266.155C228.979 265.772 229.807 268.252 228.764 269ZM270.776 252.411C268.334 248.746 262.759 249.285 261.414 253.635C260.686 255.991 261.692 258.109 261.64 260.461C261.596 262.449 261.726 264.664 262.335 266.589C263.724 270.978 267.67 274.078 272.339 273.95C276.992 273.822 281.09 270.875 283.039 266.726C284.995 262.56 284.581 258.249 283.153 254.014C283.085 253.81 282.818 253.712 282.657 253.883C280.97 255.677 279.734 257.571 278.456 259.581L277.146 261.64C276.144 263.191 274.689 265.172 272.82 265.047L272.539 265.02C272.02 264.975 272.099 265.078 271.699 264.37C271.513 264.042 271.547 263.433 271.457 263.046L271.426 262.915V262.915L271.443 262.845C271.483 262.657 271.522 262.304 271.554 261.691L271.561 261.556C271.696 258.691 272.506 255.008 270.776 252.411ZM208.878 254.852C209.315 250.164 202.728 249.123 200.537 252.592C199.395 254.401 199.063 256.673 198.81 258.826L198.692 259.847C198.433 262.059 198.33 264.359 199.289 266.421C200.8 269.669 204.086 271.387 207.631 271.115C211.016 270.854 214.105 268.891 215.733 265.91C217.184 263.251 218.627 258.058 216.864 255.284C216.758 255.116 216.545 255.094 216.399 255.224C214.733 256.703 214.462 259.402 213.471 261.33C212.45 263.318 210.9 265.255 208.552 265.557C206.305 265.846 205.447 264.619 206.02 262.476C206.76 259.71 208.599 257.828 208.878 254.852ZM268.998 224.542L267.92 224.129C264.229 222.734 259.161 221.121 256.16 224.124C254.309 225.976 253.956 228.703 255.278 230.963C256.879 233.7 259.751 233.767 262.524 234.171C265.678 234.629 268.887 235.501 271.823 236.744C275.131 238.144 278.201 239.89 281.209 241.839C284.068 243.692 286.917 246.72 290.339 247.291C290.479 247.314 290.637 247.254 290.673 247.101C291.451 243.754 289.291 240.46 287.364 237.849C285.032 234.688 282.206 232.093 279.048 229.766C276 227.521 272.518 225.898 268.998 224.542ZM201.949 236.441L201.62 236.383C199.381 236.01 197.353 236.096 195.666 237.869C194.378 239.222 193.882 240.976 194.496 242.765C195.062 244.415 196.329 246.092 198.167 246.437C204.373 247.605 211.247 247.413 217.484 246.528C220.338 246.123 223.217 245.628 225.996 244.847L227.275 244.476C229.595 243.813 232.252 243.12 233.937 241.413C234.543 240.799 234.194 239.921 233.469 239.637C230.528 238.485 226.497 239.098 223.361 239.008C219.713 238.904 216.059 238.63 212.429 238.253C208.881 237.884 205.448 237.082 201.949 236.441Z" fill="black"/>
<path fill-rule="evenodd" clip-rule="evenodd" d="M275.697 323.197C271.432 313.2 262.122 305.853 251.403 303.167C243.531 301.199 235.27 301.262 227.246 302.043C223.042 302.449 218.533 302.782 214.571 304.344C211.188 305.678 208.431 308.2 206.358 311.161C203.89 314.669 202.211 318.684 201.033 322.8C200.865 323.385 200.708 323.974 200.561 324.567C201.074 327.672 202.162 330.315 205.037 332.267C207.842 334.174 211.19 334.954 214.527 335.231C214.854 335.073 215.17 334.912 215.46 334.746C220.66 331.768 224.32 324.731 230.884 325.683C236.741 326.534 240.597 333.906 244.08 338.23C255.261 339.533 266.434 336.172 275.531 329.776C275.993 327.587 276.02 325.379 275.697 323.197M192.962 315.613C193.857 313.102 194.983 310.67 196.319 308.379C200.733 300.803 207.51 294.766 215.555 291.316C234.587 283.164 259.211 288.91 274.581 302.28C279.831 306.85 285.139 313.567 286.744 320.791C287.224 320.886 287.676 321.135 288.049 321.487C299.153 314.493 310.588 307.764 319.536 298.069C326.034 291.025 330.554 282.689 333.322 273.529C333.548 272.775 334.763 272.885 334.727 273.72C334.716 273.915 334.706 274.109 334.695 274.305C334.811 273.946 335.358 274.131 335.4 274.479C336.889 285.607 338.752 297.405 337.036 308.59C336.01 315.265 332.98 320.151 328.928 325.428C324.587 331.083 319.673 336.344 314.648 341.389C311.46 344.591 308.129 348.284 304.225 350.632C299.684 353.36 294.533 355.434 289.687 357.539C284.757 359.687 279.753 361.67 274.654 363.391C264.462 366.841 253.929 369.226 243.211 370.271C234.629 371.105 224.821 372.013 216.597 368.783C210.294 366.308 205.206 361.835 201.17 356.452C196.776 350.59 193.303 343.913 191.383 336.872C189.388 329.558 192.542 316.792 192.962 315.613" fill="black"/>
</svg>
