<svg width="450" height="582" viewBox="0 0 450 582" fill="none" xmlns="http://www.w3.org/2000/svg">
<path fill-rule="evenodd" clip-rule="evenodd" d="M263.688 297.502C249.251 298.215 226.772 304.406 225.649 308.363C223.894 314.542 227.665 337.708 221.357 350.186C218.669 355.505 208.459 355.028 204.503 356.76C191.267 362.556 152.082 373.549 144.002 387.39C140.765 392.936 120.874 461.742 110.304 496.845C109.112 500.802 107.766 504.463 106.303 507.853L105.765 505.218C101.456 484.002 99.3011 471.158 99.3011 466.687C99.3011 459.7 104.872 430.223 99.3011 422.726C93.7858 415.305 80.4943 409.237 74.5143 409.116L74.3353 409.115C70.4089 409.115 67.0019 407.887 64.1145 405.431L59.881 403.301C38.3443 392.49 25.7617 386.56 22.133 385.51C16.3426 383.836 6.48798 387.404 11.4153 392.76C14.7002 396.331 22.9547 402.647 36.1788 411.71L41.1651 415.674L40.5627 415.988C34.1185 419.382 30.3294 422.239 29.1954 424.558C28.0265 426.949 28.5874 429.777 30.878 433.042L30.5305 433.381C27.6339 436.224 26.1855 438.132 26.1855 439.103V443.848C23.3037 448.07 22.5833 451.591 24.0242 454.411C25.4651 457.231 27.7497 459.675 30.878 461.742C33.1832 467.808 35.9283 472.125 39.1135 474.694C42.2986 477.263 47.8034 479.401 55.6279 481.109L62.7084 498.045L68.4456 521.839L71.3366 548.388L70.4972 548.996C66.6066 551.831 64.1145 553.932 64.1145 556.104C64.1145 559.487 79.8124 639.046 104.236 642.607C109.518 643.377 136.911 639.6 145.905 632.28L145.772 633.071C143.656 645.858 144.104 652.498 147.116 652.992C184.128 659.062 289.246 660.938 462.469 658.619C463.5 566.645 458.84 505.391 448.489 474.859C422.016 396.77 392.828 370.099 382.617 367.814C373.672 365.813 342.655 353.464 333.985 350.186C328.325 348.046 327.112 341.631 320.663 341.631L320.141 341.634C313.904 341.697 308.373 342.812 305.265 339.603C297.11 331.182 299.39 319.525 296.007 308.363C294.143 302.213 281.404 296.627 263.688 297.502Z" fill="#F1F0E0"/>
<path fill-rule="evenodd" clip-rule="evenodd" d="M303.352 319.551C302.504 317.871 300.255 318.089 298.771 318.851C294.319 322.107 298.977 328.417 300.208 332.39C303.376 340.096 308.878 347.627 316.473 351.229C315.843 358.89 315.13 366.533 314.867 374.218C305.157 386.267 288.785 390.665 274.251 394.047C251.425 400.362 225.663 387.424 217.959 364.852C226.727 359.868 229.565 346.819 226.949 337.715C226.721 337.075 225.73 336.793 225.378 337.507C222.977 342.447 223.297 348.474 220.567 353.354C194.368 355.864 160.555 365.753 143.391 386.949C135.785 397.553 132.772 411.345 129.026 423.635C121.032 448.972 114.663 474.822 106.824 500.185L105.899 495.386C103.367 482.166 101.065 468.767 102.776 455.323L102.806 454.68C103.365 443.983 106.712 424.104 98.4189 416.882C90.9175 411.147 80.0507 406.539 70.6374 409.182C53.8858 401.725 39.4272 389.168 21.5863 384.277C16.0955 383.146 8.19614 384.485 9.49402 391.936C13.0908 404.97 28.1536 410.028 38.4504 416.749C31.85 418.538 23.8035 426.568 28.9604 433.57C29.0049 433.694 29.0446 433.788 29.0842 433.862C24.9022 435.717 24.3164 440.377 25.3427 444.373C25.4468 445.428 25.7243 444.521 25.1043 445.478C20.3856 449.93 22.4714 462.34 29.5798 462.76C29.1145 468.64 32.8902 474.351 37.6724 477.559C42.8268 481.014 50.2796 481.163 54.5469 485.892C64.5658 503.565 68.0219 524.429 69.1141 544.667C62.5097 547.14 56.5842 554.535 62.5845 560.809C62.7029 560.823 62.8214 560.836 62.9413 560.846C66.4197 570.132 67.7627 580.031 69.6022 589.729C72.4324 606.277 79.8079 621.471 89.2261 635.256C100.118 653.503 129.405 650.611 144.16 638.834C144.101 641.924 143.592 644.995 144.581 647.981C146.041 651.203 149.6 649.81 149.953 646.638C157.753 651.026 159.59 636.541 150.919 638.839C151.586 628.368 151.973 617.882 152.286 607.393C162.103 610.572 162.526 594.28 152.485 597.538L152.497 593.034C152.571 558.498 152.189 523.844 147.634 489.581C147.212 487.018 146.499 484.539 146.082 481.991C146.038 481.728 145.626 481.802 145.625 482.055C144.92 530.024 148.054 578.097 144.784 626.083C142.062 626.913 140.977 630.038 138.961 631.858C134.487 635.991 128.393 638.003 122.434 638.704C105.749 641.045 98.5447 635.947 91.1142 621.438C94.4656 623.679 98.9943 619.722 96.9515 616.176L96.8876 616.069C94.7661 612.312 88.7752 614.563 89.5339 618.771C82.0632 606.803 78.1532 593.308 75.2655 579.616L74.8749 577.98C73.4712 572.167 71.6494 565.506 68.2785 560.246C88.8356 555.005 108.945 539.036 112.161 517.127C117.381 533.531 124.451 549.567 131.191 565.521C133.272 571.069 134.139 577.032 137.123 582.179C137.816 583.369 139.576 583.061 139.968 581.807C142.651 569.806 134.521 558.392 130.3 547.589C126.852 541.484 116.958 513.604 110.823 513.536C117.717 483.311 126.911 453.312 135.667 423.462C144.134 383.158 161.388 375.386 197.94 362.696C191.347 396.307 161.246 428.841 177.263 464.094L177.653 465.008C179.291 468.895 180.652 472.812 179.508 477.078C178.398 481.217 175.871 484.812 173.848 488.535C162.546 509.565 170.326 534.126 174.696 556.028C180.217 581.711 185.671 607.419 191.377 633.064C192.502 638.179 193.231 643.45 194.93 648.407C195.807 650.966 200.183 650.723 199.9 647.738C199.361 641.948 197.735 636.301 196.545 630.615C189.439 593.799 179.825 557.418 173.712 520.442C169.779 493.07 185.26 488.864 184.683 471.178C182.578 462.133 177.009 454.061 177.328 444.422C176.09 414.916 197.574 390.574 200.226 361.878L204.91 360.206C207.25 359.368 209.588 358.523 211.919 357.658C199.651 443.487 203.376 531.19 209.509 617.442C210.762 621.422 209.57 649.224 214.822 646.757C215.087 648.31 215.913 649.838 217.707 649.83C233.996 649.979 250.29 650.237 266.579 650.431C274.415 649.709 285.184 652.701 291.849 648.179C299.543 645.982 300.428 625.135 302.485 617.705L303.287 612.301C316.362 524.002 328.063 433.881 318.664 344.707C331.74 345.21 334.439 359.327 335.409 369.606C337.834 392.294 352.487 411.832 353.189 434.78C353.249 440.347 352.198 445.74 349.974 450.852C344.071 463.376 333.864 477.855 341.493 491.842C350.516 502.731 349.735 505.597 346.424 519.053C337.109 563.539 321.639 606.306 306.923 649.197C310.121 665.868 329.353 603.979 331.162 599.312C339.675 603.595 344.326 589.383 334.561 588.371C340.833 567.37 346.605 546.211 351.41 524.819L351.538 524.217C353.66 514.333 357.836 502.76 350.785 493.993C332.605 475.6 362.796 455.043 358.987 432.762C362.276 435.201 367.254 432.635 367.179 428.538C367.328 423.925 361.135 421.563 358.154 425.082C355.09 407.005 344.429 391.224 341.203 373.2L341.057 372.353C339.964 365.983 339.656 359.281 336.528 353.475C340.786 356.241 345.32 358.477 349.983 360.45C341.645 367.417 357.791 373.776 356.455 363.013C402.18 376.247 412.515 394.702 429.303 437.085C426.167 434.037 420.795 437.981 422.673 441.868C424.17 445.963 430.703 444.766 430.701 440.401L431.466 442.227C441.646 466.578 450.912 491.521 455.568 517.581C446.434 516.291 448.76 530.895 457.036 526.778C460.357 549.954 460.41 573.459 460.004 596.823C452.299 592.782 452.067 606.515 459.929 602.599C459.642 621.745 459.221 640.892 458.904 660.038C458.839 664.113 465.123 664.093 465.222 660.038C465.956 630.619 467.293 601.147 466.658 571.719C467.256 520.643 452.578 471.414 430.709 425.66C411.358 372.978 384.63 366.987 335.453 351.67C330.914 344.929 321.215 338.554 313.303 342.786C308.876 335.638 306.627 327.168 303.352 319.551ZM387.607 503.161C387.424 502.511 386.497 502.674 386.468 503.314C386.056 511.579 386.423 519.897 386.988 528.196C387.33 533.263 387.751 538.324 388.108 543.357C389.055 556.633 389.818 569.925 390.398 583.226C390.194 583.141 389.986 583.067 389.768 583.008C388.767 582.734 387.766 582.734 386.765 583.008C385.872 583.257 385.092 583.693 384.42 584.322L384.277 584.46C383.727 584.97 383.336 585.576 383.108 586.275C382.783 586.897 382.619 587.562 382.619 588.272L382.623 588.451C382.627 589.472 382.88 590.419 383.395 591.302C383.896 592.149 384.57 592.824 385.417 593.329C386.299 593.84 387.246 594.093 388.267 594.097C388.376 594.108 388.485 594.118 388.594 594.123C389.352 594.152 390.061 593.994 390.715 593.652L390.814 593.622C391.062 600.369 391.265 607.121 391.413 613.874C391.547 619.758 391.726 625.643 391.845 631.527L391.9 634.471L392.008 640.977C392.043 643.652 392.026 646.214 392.935 648.737L393.044 649.028C393.698 650.713 394.208 653.059 395.958 653.995C397.355 654.744 399.238 654.466 400.041 653.008C400.715 651.789 400.131 650.034 399.134 649.211C399.154 649.157 399.184 649.107 399.209 649.053C399.362 648.606 399.596 648.185 399.734 647.734C400.171 646.306 400.051 644.784 400.056 643.301C400.056 640.684 399.967 638.067 399.898 635.454C399.744 629.891 399.565 624.334 399.348 618.777C398.611 600.134 397.224 581.491 395.636 562.9L395.097 556.625C394.379 548.281 393.635 539.928 392.583 531.627C392.534 531.23 392.484 530.834 392.429 530.437C392.994 530.155 393.52 529.763 393.936 529.327C395.606 527.573 396.619 524.951 397.568 522.692L397.786 522.178C398.817 519.769 399.769 517.329 400.259 514.742L400.306 514.503C400.53 513.401 400.972 511.448 399.803 510.914C399.194 510.637 398.808 510.835 398.609 511.445C398.584 511.524 398.605 511.613 398.649 511.683C398.168 512.421 397.415 513.11 396.939 513.795L395.311 516.124L394.506 517.294C393.485 518.797 392.395 520.235 391.27 521.652C390.383 515.426 389.297 509.224 387.607 503.161ZM320.834 641.918C318.797 640.321 315.482 641.188 315.482 644.134C315.482 647.093 318.802 647.946 320.834 646.349L320.935 646.274L321.032 646.196C322.139 645.331 322.176 643.08 321.116 642.141L321.032 642.071C320.968 642.016 320.903 641.967 320.834 641.918ZM409.563 636.164L409.388 636.168C408.466 636.168 407.609 636.401 406.811 636.867C406.464 637.13 406.122 637.397 405.775 637.665C405.141 638.299 404.705 639.053 404.462 639.921L404.278 641.279C404.254 641.983 404.397 642.637 404.72 643.248C404.928 643.882 405.28 644.432 405.775 644.893C406.241 645.394 406.786 645.746 407.42 645.949C407.979 646.244 408.575 646.394 409.213 646.394L409.388 646.391C410.314 646.391 411.172 646.158 411.97 645.691C412.317 645.429 412.659 645.161 413.005 644.893C413.635 644.259 414.076 643.505 414.318 642.637C414.378 642.186 414.437 641.73 414.502 641.279C414.526 640.575 414.378 639.921 414.061 639.311C413.853 638.676 413.501 638.126 413.005 637.665C412.539 637.165 411.994 636.812 411.36 636.609C410.801 636.314 410.201 636.164 409.563 636.164ZM177.579 626.738L176.28 626.912C175.036 627.194 174.035 628.111 173.366 629.158C173.009 629.718 172.816 630.323 172.787 630.972C172.642 631.616 172.673 632.266 172.876 632.915C173.025 633.549 173.316 634.105 173.748 634.576C173.896 634.809 174.07 635.022 174.268 635.211C174.675 635.89 175.289 636.336 175.924 636.792C176.458 637.134 177.039 637.318 177.663 637.347C178.074 637.457 178.491 637.457 178.907 637.347C179.526 637.318 180.106 637.134 180.641 636.792C180.958 636.549 181.275 636.301 181.588 636.059C181.865 635.736 182.123 635.404 182.366 635.057C182.529 634.675 182.688 634.298 182.846 633.921C183.139 633.014 182.995 632.211 182.836 631.304C182.812 631.15 182.772 631.012 182.717 630.862L182.61 630.574C182.325 629.821 182.173 629.566 181.667 628.91L181.474 628.652C181.378 628.523 181.279 628.398 181.166 628.285C180.85 627.958 180.398 627.685 180.042 627.403C179.279 626.961 178.456 626.743 177.579 626.738ZM345.832 623.563L345.666 623.565C344.948 623.57 344.273 623.748 343.649 624.11L342.837 624.74C342.341 625.24 341.999 625.825 341.806 626.505C341.761 626.861 341.711 627.219 341.662 627.571C341.642 628.121 341.756 628.636 342.009 629.117C342.167 629.613 342.445 630.039 342.837 630.406C343.198 630.793 343.63 631.071 344.125 631.234C344.558 631.46 345.023 631.578 345.517 631.579L345.666 631.576C346.39 631.576 347.064 631.393 347.688 631.03L348.501 630.406C348.997 629.906 349.339 629.316 349.532 628.636C349.576 628.279 349.626 627.927 349.676 627.571C349.695 627.02 349.581 626.505 349.329 626.029C349.165 625.533 348.893 625.102 348.501 624.74C348.139 624.348 347.708 624.07 347.213 623.912C346.78 623.684 346.323 623.569 345.832 623.563ZM378.534 621.923C377.498 621.913 376.447 622.206 375.6 622.805C374.777 623.39 374.153 624.02 373.751 624.967C373.642 625.225 373.534 625.478 373.439 625.735C373.013 626.871 372.934 628.011 373.523 629.121C374.093 630.197 375.322 630.668 376.423 630.99C377.354 631.268 378.41 631.313 379.336 630.98C379.797 630.817 380.248 630.643 380.665 630.39C381.443 629.91 381.864 629.339 382.384 628.635C382.79 627.941 382.994 627.187 382.994 626.385C382.994 625.576 382.79 624.828 382.384 624.129C381.587 622.766 380.109 621.933 378.534 621.923ZM431.066 622.88C429.757 622.88 428.608 623.485 427.82 624.506C427.022 625.542 426.73 626.831 427.082 628.116C427.453 629.474 428.578 630.664 429.971 631.006C431.001 631.259 431.844 631.249 432.87 631.075C433.737 630.926 434.401 630.41 435.065 629.875C435.823 629.255 436.056 628.125 435.932 627.213C435.814 626.301 435.392 625.706 434.753 625.165L434.748 625.151L434.986 625.334C434.896 625.255 434.808 625.171 434.718 625.086C434.689 625.037 434.664 624.982 434.639 624.928C434.272 624.303 433.777 623.812 433.157 623.445C432.508 623.069 431.814 622.88 431.066 622.88ZM126.003 607.865C125.284 607.672 124.561 607.672 123.842 607.865C123.311 607.989 122.851 608.232 122.459 608.594C122.062 608.852 121.738 609.183 121.493 609.594L121.414 609.734C120.848 610.696 120.76 611.796 121.003 612.867C121.304 614.191 122.523 615.396 123.842 615.708L123.886 615.716L123.931 615.728C124.466 615.897 125.007 615.921 125.541 615.798C126.082 615.773 126.583 615.614 127.043 615.317C127.628 614.94 128.118 614.454 128.495 613.869C128.793 613.403 128.951 612.902 128.976 612.361C129.07 612.005 129.07 611.648 128.976 611.291C128.951 610.75 128.793 610.249 128.495 609.784L127.861 608.965L127.796 608.911C127.291 608.405 126.692 608.058 126.003 607.865ZM175.893 581.629C169.396 581.629 169.406 591.713 175.893 591.713C182.389 591.713 182.38 581.629 175.893 581.629ZM413.759 580.354C413.075 580.2 412.391 580.23 411.712 580.443C411.3 580.616 410.894 580.79 410.488 580.958L409.447 581.762C409.254 581.925 409.16 582.104 408.981 582.337L408.758 582.629C408.436 583.06 408.428 583.152 408.074 584.072C407.836 584.954 407.836 585.836 408.074 586.72C408.189 587.146 408.362 587.547 408.585 587.919C408.789 588.276 409.033 588.589 409.307 588.877L409.447 589.02C409.913 589.52 410.463 589.872 411.097 590.081C411.499 590.314 411.93 590.428 412.391 590.428C413.075 590.581 413.759 590.551 414.437 590.338C414.849 590.165 415.255 589.991 415.662 589.823L416.702 589.02L417.505 587.978L417.761 587.368L418.02 586.754L418.204 585.391C418.228 584.682 418.085 584.027 417.763 583.413C417.639 582.981 417.421 582.599 417.104 582.282C416.876 581.896 416.569 581.588 416.182 581.36C415.865 581.042 415.483 580.825 415.052 580.701C414.65 580.468 414.219 580.354 413.759 580.354ZM92.427 573.151C91.8863 573.132 91.3809 573.245 90.915 573.493C90.7515 573.548 90.5924 573.617 90.4393 573.697C89.8396 574.048 89.3639 574.524 89.0121 575.12C88.7246 575.576 88.566 576.067 88.5413 576.597C88.4336 577.075 88.4435 577.556 88.5731 578.035L88.6156 578.179C88.7246 578.57 88.8882 578.932 89.1057 579.264C89.1265 579.304 89.1508 579.343 89.1805 579.378C89.5126 579.904 89.9536 580.335 90.4987 580.657C91.1033 581.004 91.7525 581.182 92.4562 581.188C93.8587 581.188 95.0679 580.429 95.8063 579.264C95.9103 579.1 95.9698 578.892 96.0436 578.723C96.1086 578.565 96.2126 578.362 96.2676 578.179C96.4554 577.475 96.4554 576.771 96.2676 576.067C96.1437 575.551 95.9103 575.1 95.5585 574.718C95.2765 574.287 94.9048 573.945 94.4435 573.697C93.8716 573.363 93.2572 573.185 92.6052 573.156L92.427 573.151ZM366.731 568.218C366.044 568.031 365.362 568.016 364.68 568.175L364.51 568.218C363.965 568.347 363.494 568.595 363.088 568.962C362.637 569.26 362.275 569.651 362.013 570.137C361.636 570.786 361.447 571.49 361.443 572.244C361.447 572.998 361.636 573.702 362.013 574.35C362.384 574.981 362.885 575.476 363.514 575.848L364.059 576.111C364.515 576.398 365.001 576.552 365.526 576.576C365.878 576.671 366.23 576.671 366.576 576.576C366.934 576.576 367.266 576.488 367.573 576.309C367.91 576.215 368.197 576.046 368.445 575.798C368.876 575.52 369.213 575.154 369.461 574.693L369.863 573.746L370.001 572.695L369.863 571.649L369.644 571.133C369.446 570.424 369.089 569.81 368.569 569.289C368.049 568.773 367.434 568.416 366.731 568.218ZM120.965 559.856C120.242 559.628 119.523 559.597 118.804 559.757C118.319 559.757 117.863 559.88 117.441 560.128C116.981 560.257 116.585 560.485 116.247 560.822C115.658 561.204 115.197 561.709 114.855 562.339L114.31 563.633C113.983 564.471 114.102 565.706 114.3 566.548C114.463 567.242 114.78 567.847 115.251 568.362C115.489 568.764 115.806 569.082 116.208 569.32C116.667 569.737 117.196 570.035 117.796 570.211L117.962 570.256L118.021 570.271C118.032 570.276 118.041 570.276 118.051 570.276C118.056 570.281 118.066 570.281 118.071 570.281C118.309 570.34 118.552 570.375 118.804 570.385C119.523 570.544 120.242 570.514 120.965 570.286C121.391 570.107 121.822 569.924 122.253 569.741C122.62 569.463 122.982 569.18 123.349 568.898C123.631 568.531 123.914 568.164 124.196 567.803C124.593 567.183 124.806 566.509 124.835 565.789C124.965 565.309 124.965 564.833 124.835 564.352C124.835 563.861 124.711 563.41 124.469 562.988C124.251 562.315 123.879 561.735 123.349 561.244C122.982 560.961 122.62 560.678 122.253 560.4C121.822 560.217 121.391 560.034 120.965 559.856ZM437.038 542.107C436.29 541.903 435.541 541.903 434.793 542.107L433.787 542.528C433.292 542.796 432.9 543.157 432.602 543.619C432.226 544.025 431.973 544.506 431.845 545.056C431.552 545.81 431.586 547.005 431.819 547.773C432.082 548.646 432.488 549.34 433.118 549.994C434.163 551.075 435.769 551.387 437.191 551.06C437.583 550.971 437.955 550.797 438.292 550.584C439.367 549.92 440.09 548.76 440.085 547.476C440.085 547.337 440.075 547.198 440.056 547.06C440.125 546.777 440.15 546.484 440.14 546.176L439.991 545.056L439.982 545.027C439.783 544.317 439.426 543.703 438.906 543.183C438.426 542.707 437.865 542.362 437.224 542.155L437.062 542.107H437.038ZM63.0906 430.784C64.4445 419.68 69.5345 407.735 85.0591 414.255L86.2122 414.687C90.0536 416.142 94.53 418.053 96.8679 421.414C98.4785 423.729 97.9339 428.215 98.1564 430.917C99.1688 439.702 98.6257 448.475 97.5711 457.222C96.2098 477.726 100.519 498.971 109.099 517.606C100.512 531.504 89.0206 544.468 73.3444 550.261C72.6813 534.459 69.5885 518.946 66.297 503.526L66.1674 502.854C64.8511 495.901 64.1922 488.764 59.6271 482.981C50.3412 472.896 37.5695 478.604 31.4587 462.403C32.7422 461.754 32.0335 459.533 30.4869 459.959C25.1273 460.911 24.2566 450.971 27.9248 448.576C31.7471 446.245 27.899 441.943 29.526 438.839C30.4328 437.501 32.3904 437.456 33.2779 435.914C35.6299 430.238 23.8592 426.601 37.7013 420.202C40.5345 419.194 43.7011 419.819 46.5586 419.808C50.762 420.2 54.1026 423.163 57.9467 424.095C53.7611 434.937 64.3221 445.377 73.8543 436.718C79.0414 441.622 84.842 452.802 72.2333 447.59C66.0621 443.47 60.7491 438.144 53.5852 435.607L53.4338 435.559C50.7745 434.688 39.1374 429.032 39.7143 433.927C44.0733 438.136 51.2625 438.086 56.3108 441.502C63.3097 444.74 67.7852 452.586 76.1637 452.477C78.0954 464.21 64.786 457.072 59.8298 453.836L58.4557 453.09C51.4648 449.312 44.3688 445.812 36.2161 445.765C33.9662 445.75 33.9761 449.221 36.2161 449.25C46.841 449.317 55.4887 455.961 64.389 460.9C65.2652 467.749 55.2394 464.751 51.4349 463.741C47.4461 463.18 41.0399 458.864 37.5487 461.144C36.1834 464.653 42.1921 464.392 44.2839 465.457C34.7334 470.046 43.101 472.935 45.6616 465.883L46.4116 466.139C52.8069 468.289 68.3144 472.714 66.4699 461.877C68.8105 462.914 71.6644 463.533 74.2508 462.958C80.7006 472.502 90.989 468.809 76.0348 462.304C79.4047 460.736 80.5301 454.681 77.2931 452.428C89.0642 451.709 80.325 439.355 75.453 435.237C75.9129 434.772 76.3584 434.298 76.7737 433.817C79.5831 435.156 82.5362 435.969 85.6939 436.257C88.7164 436.529 89.3898 431.383 86.407 430.962C83.2106 430.511 80.2665 429.658 77.4521 428.051C73.1863 426.209 71.7303 434.127 67.461 434.407C65.1324 434.868 63.557 432.826 63.0906 430.784ZM162.196 532.954C161.165 532.954 160.248 533.386 159.5 534.07C158.752 534.754 158.43 535.78 158.385 536.762C158.365 537.287 158.474 537.778 158.712 538.234C158.866 538.705 159.128 539.111 159.5 539.459C160.194 540.148 161.22 540.574 162.196 540.574C163.226 540.574 164.143 540.143 164.892 539.459C165.64 538.769 165.962 537.748 166.007 536.762C166.027 536.241 165.917 535.75 165.68 535.294C165.542 534.87 165.315 534.495 165 534.174L164.892 534.07C164.198 533.376 163.172 532.954 162.196 532.954ZM130.958 509.442L130.793 509.445C129.921 509.451 129.113 509.668 128.36 510.104C128.033 510.357 127.706 510.605 127.383 510.859C126.784 511.463 126.373 512.172 126.144 512.99C125.911 513.843 125.911 514.701 126.144 515.553C126.223 516.044 126.407 516.52 126.694 516.932C127.121 517.64 127.685 518.211 128.4 518.632C129.138 519.063 129.936 519.276 130.793 519.281C131.65 519.276 132.448 519.063 133.187 518.632C133.9 518.211 134.465 517.64 134.886 516.932C135.179 516.52 135.362 516.044 135.441 515.553C135.674 514.701 135.674 513.843 135.441 512.99C135.23 512.23 134.86 511.565 134.328 510.99L134.203 510.859C133.766 510.388 133.251 510.055 132.651 509.862C132.124 509.585 131.56 509.445 130.958 509.442ZM369.329 509.709C368.962 509.61 368.6 509.61 368.233 509.709C367.688 509.734 367.178 509.898 366.707 510.195C366.43 510.413 366.152 510.627 365.875 510.84L365.633 511.13C365.115 511.761 365.102 511.868 364.705 512.828C364.541 513.363 364.517 513.899 364.636 514.434C364.636 514.796 364.73 515.133 364.909 515.446C365.007 515.788 365.176 516.085 365.429 516.333C365.607 516.635 365.845 516.878 366.148 517.057C366.534 517.409 366.99 517.652 367.515 517.776L368.581 517.919C368.719 517.9 368.863 517.88 369.002 517.865C369.169 517.86 369.331 517.841 369.49 517.81L369.651 517.775L369.798 517.736C369.992 517.679 370.181 517.604 370.364 517.508C370.711 517.409 371.014 517.235 371.272 516.977C371.717 516.69 372.074 516.303 372.332 515.822L372.401 515.664C372.495 515.495 372.575 515.322 372.635 515.133C372.803 514.836 372.887 514.518 372.892 514.176C372.99 513.721 372.984 513.27 372.866 512.819L372.822 512.669L372.441 511.762C372.243 511.455 372.034 511.142 371.767 510.889C371.606 510.746 371.213 510.439 370.991 510.285L370.855 510.195C370.384 509.898 369.874 509.734 369.329 509.709ZM429.069 502.619C428.355 499.808 424.668 498.921 422.661 500.929C420.655 502.937 421.541 506.625 424.351 507.339L424.673 507.418C427.389 508.107 429.837 505.653 429.148 502.937L429.069 502.619ZM88.9309 479.689C88.9507 479.412 88.5939 479.313 88.4155 479.477C86.0269 481.618 84.5055 484.186 81.6064 485.847C78.692 487.513 75.6894 487.379 72.6516 488.454C71.6208 488.821 71.6158 490.2 72.6516 490.561C78.4001 492.57 88.4948 485.762 88.9309 479.689ZM359.041 479.255C358.401 479.057 357.757 479.027 357.117 479.171C356.681 479.171 356.275 479.28 355.904 479.498C355.492 479.612 355.14 479.821 354.838 480.117C354.476 480.331 354.189 480.624 353.971 480.985C353.544 481.452 353.257 481.997 353.109 482.622L352.94 483.906L353.109 485.19C353.272 485.571 353.436 485.958 353.594 486.34L354.037 486.94C354.396 487.419 354.453 487.424 355.324 488.07C355.878 488.421 356.478 488.615 357.117 488.64C357.544 488.759 357.97 488.759 358.401 488.64C358.832 488.64 359.239 488.531 359.615 488.313C360.022 488.199 360.378 487.991 360.681 487.693C361.206 487.351 361.617 486.9 361.92 486.34C362.083 485.958 362.246 485.571 362.405 485.19L362.579 483.906L362.405 482.622L362.396 482.582C362.168 481.779 361.761 481.08 361.176 480.489L360.215 479.746C359.838 479.503 359.447 479.379 359.041 479.255ZM127.703 480.216C126.33 479.839 124.823 480.235 123.818 481.242C122.811 482.249 122.415 483.75 122.792 485.124C123.163 486.463 124.239 487.548 125.582 487.91C125.983 488.019 126.389 488.079 126.801 488.059C127.49 488.054 128.134 487.88 128.733 487.533L129.506 486.933C129.884 486.586 130.146 486.175 130.3 485.699C130.543 485.243 130.652 484.752 130.632 484.222L130.636 484.127C130.652 483.939 130.627 483.75 130.567 483.567C130.567 483.373 130.537 483.185 130.488 483.002C130.126 481.664 129.036 480.582 127.703 480.216ZM423.637 466.791C423.196 466.776 422.785 466.865 422.403 467.068C422.002 467.197 421.66 467.415 421.373 467.733C421.055 468.02 420.837 468.367 420.709 468.764C420.505 469.146 420.416 469.557 420.431 469.998C420.431 470.578 420.58 471.119 420.867 471.614C421.036 471.833 421.204 472.051 421.373 472.264C421.769 472.665 422.24 472.938 422.785 473.092L423.102 473.201C423.568 473.369 424.024 473.379 424.51 473.315C425.02 473.245 425.491 473.107 425.907 472.789C426.314 472.551 426.636 472.229 426.873 471.823L427.146 471.178C427.205 470.96 427.23 470.633 427.245 470.405C427.245 470.37 427.245 470.341 427.25 470.306C427.25 470.112 427.191 469.642 427.142 469.448C427.032 469.041 426.809 468.655 426.556 468.328C426.338 467.986 426.041 467.718 425.674 467.519L425.642 467.495L425.605 467.47C425.491 467.391 425.372 467.311 425.253 467.226C424.757 466.939 424.217 466.791 423.637 466.791ZM167.725 463.271C166.932 463.271 166.194 463.474 165.51 463.871C165.486 463.88 165.461 463.891 165.441 463.901C164.787 464.287 164.267 464.808 163.88 465.462C163.483 466.141 163.286 466.876 163.286 467.659C163.286 468.447 163.483 469.175 163.88 469.855C164.267 470.51 164.787 471.03 165.441 471.417C165.461 471.431 165.486 471.441 165.51 471.451C166.194 471.848 166.932 472.046 167.725 472.051C168.513 472.046 169.252 471.848 169.936 471.451C171.274 470.668 172.112 469.205 172.112 467.659C172.112 466.111 171.274 464.649 169.936 463.871C169.252 463.474 168.513 463.271 167.725 463.271ZM373.524 457.538L373.389 457.535C372.864 457.515 372.374 457.624 371.923 457.867C371.452 458.02 371.041 458.284 370.693 458.656L369.97 459.26L369.76 459.43C369.725 459.459 369.691 459.488 369.658 459.518C369.172 460.008 368.84 460.584 368.651 461.248C368.592 461.63 368.543 462.006 368.503 462.388C368.394 463.38 368.979 464.396 369.623 465.1C369.97 465.472 370.381 465.735 370.857 465.893C371.313 466.132 371.808 466.24 372.334 466.22C373.409 466.127 374.43 465.898 375.203 465.065C375.293 464.966 375.377 464.862 375.465 464.758L376.085 464.044C376.556 463.569 376.883 463.008 377.061 462.363C377.111 462.021 377.155 461.684 377.2 461.347C377.245 460.331 376.749 459.379 376.085 458.656C375.471 457.985 374.431 457.575 373.524 457.538ZM398.542 447.099C393.389 447.099 393.399 455.096 398.542 455.096C403.692 455.096 403.682 447.099 398.542 447.099ZM139.418 435.888L139.255 435.891C138.402 435.896 137.605 436.109 136.866 436.54L135.905 437.279C135.32 437.874 134.914 438.568 134.686 439.371C134.632 439.792 134.577 440.214 134.517 440.63C134.492 441.285 134.632 441.894 134.928 442.46C135.117 443.045 135.444 443.555 135.905 443.987C136.336 444.448 136.842 444.775 137.431 444.963C137.996 445.261 138.606 445.399 139.255 445.375C140.112 445.369 140.91 445.157 141.649 444.725C141.97 444.477 142.288 444.229 142.61 443.987C143.15 443.437 143.537 442.804 143.769 442.078L143.824 441.894L143.997 440.63C144.022 439.981 143.884 439.371 143.586 438.806C143.398 438.216 143.071 437.71 142.61 437.279C142.179 436.817 141.668 436.49 141.083 436.302C140.566 436.03 140.01 435.89 139.418 435.888ZM162.633 420.917C162.172 420.902 161.746 420.996 161.344 421.205C160.933 421.338 160.576 421.571 160.274 421.894C159.634 422.405 159.243 423.426 159.243 424.253C159.243 425.081 159.634 426.103 160.274 426.613C160.69 427.025 161.181 427.312 161.746 427.471L162.633 427.59C163.495 427.63 164.372 427.179 164.987 426.613C165.11 426.5 165.229 426.386 165.353 426.276C165.913 425.761 166.156 424.992 166.191 424.253C166.206 423.862 166.121 423.495 165.943 423.153C165.829 422.796 165.631 422.493 165.353 422.231C165.229 422.122 165.11 422.008 164.987 421.894C164.317 421.274 163.535 420.962 162.633 420.917ZM15.5608 394.25C12.3044 390.282 14.2004 387.458 19.0941 388.44C27.5237 389.58 35.4572 394.91 42.8813 398.732C50.9843 403.013 59.3351 406.544 67.6006 410.567C64.1902 412.661 61.6538 415.941 59.7162 419.683C55.8483 416.745 50.904 415.34 46.0777 415.157C37.3216 406.767 22.8208 404.846 15.5608 394.25ZM400.28 407.424C399.397 407.428 398.57 407.635 397.795 408.05L397.629 408.142L396.569 408.965C396.053 409.441 395.692 410.006 395.479 410.655C395.152 411.28 395.003 411.959 395.028 412.683C395.003 413.407 395.152 414.081 395.479 414.706C395.692 415.36 396.053 415.92 396.569 416.396C396.861 416.778 397.238 417.076 397.689 417.294C398.111 417.467 398.526 417.646 398.948 417.824C399.418 417.973 399.963 417.993 400.474 418.018C401.401 418.013 402.262 417.78 403.066 417.314L404.106 416.511C404.607 416.044 404.964 415.494 405.172 414.855C405.467 414.292 405.617 413.69 405.617 413.048L405.613 412.872C405.613 412.832 405.613 412.787 405.607 412.743C405.549 412.277 405.484 411.811 405.42 411.345C405.256 410.66 404.944 410.061 404.478 409.555C404.359 409.317 404.201 409.124 403.997 408.965C403.343 408.311 402.571 407.864 401.678 407.611C401.212 407.552 400.746 407.487 400.28 407.424ZM170.337 394.289L170.186 394.291C169.517 394.291 168.898 394.46 168.322 394.792C168.07 394.986 167.822 395.178 167.575 395.372C167.113 395.833 166.796 396.378 166.623 397.003L166.489 397.984C166.474 398.495 166.578 398.966 166.811 399.408C166.96 399.863 167.213 400.26 167.575 400.597C167.907 400.958 168.303 401.212 168.763 401.36C169.2 401.594 169.676 401.698 170.186 401.678C170.85 401.678 171.475 401.509 172.05 401.172C172.297 400.984 172.55 400.79 172.798 400.597C173.216 400.174 173.517 399.681 173.698 399.12L173.744 398.966L173.878 397.984C173.897 397.474 173.793 397.003 173.561 396.562C173.412 396.101 173.154 395.704 172.798 395.372C172.461 395.009 172.064 394.757 171.608 394.608C171.211 394.399 170.786 394.293 170.337 394.289ZM371.311 388.919L371.138 388.922C370.152 388.927 369.235 389.175 368.383 389.67C368.016 389.954 367.649 390.236 367.283 390.524C366.604 391.202 366.138 392.006 365.875 392.933L365.682 394.38C365.652 395.134 365.811 395.833 366.153 396.482C366.37 397.162 366.748 397.746 367.283 398.242C367.773 398.773 368.358 399.149 369.037 399.368C369.686 399.71 370.385 399.869 371.138 399.839C372.125 399.839 373.041 399.591 373.894 399.095C374.26 398.812 374.627 398.525 374.998 398.242C375.673 397.558 376.139 396.755 376.401 395.833L376.595 394.38C376.624 393.632 376.466 392.928 376.124 392.278C375.906 391.604 375.529 391.014 374.998 390.524C374.503 389.988 373.918 389.611 373.24 389.393C372.64 389.077 371.999 388.922 371.311 388.919ZM187.811 375.288C187.36 375.168 186.91 375.168 186.459 375.288C185.785 375.317 185.155 375.52 184.57 375.892L183.544 376.686C183.53 376.7 183.515 376.715 183.5 376.735C182.88 377.359 182.45 378.099 182.212 378.946L182.033 380.28C182.008 380.969 182.152 381.613 182.464 382.208C182.65 382.781 182.958 383.278 183.381 383.708L183.544 383.869C184.006 384.365 184.546 384.716 185.175 384.92C185.571 385.153 186.003 385.267 186.459 385.267C187.132 385.42 187.811 385.391 188.486 385.178C188.887 385.004 189.293 384.835 189.699 384.667L189.829 384.593C191.36 383.755 192.306 382 192.306 380.28C192.306 378.559 191.36 376.799 189.829 375.961C189.784 375.942 189.744 375.917 189.699 375.892C189.115 375.52 188.486 375.317 187.811 375.288Z" fill="black"/>
<path fill-rule="evenodd" clip-rule="evenodd" d="M192.569 114.533C219.066 106.753 310.193 114.728 312.446 116.413C316.134 119.478 334.071 129.204 336.862 131.425C362.098 158.183 338.04 197.919 339.891 230.199C339.773 241.649 344.651 252.104 346.893 263.119C347.839 268.892 347.631 274.863 344.623 280.046C339.335 289.306 328.169 291.184 319.087 294.918C314.568 296.864 310.346 299.624 306.475 302.644C280.416 325.705 265.911 341.497 227.888 336.294C227.694 338.11 226.086 339.895 224.092 339.083C219.424 337.181 214.789 335.164 210.08 333.361C209.073 335.788 206.182 336.48 204.224 334.338L204.212 334.353C195.496 327.28 189.952 317.608 185.835 307.254C182.954 301.28 180.595 295.048 178.792 288.63C178.588 287.903 178.615 287.254 178.799 286.696C170.481 258.019 167.402 227.796 169.592 198.022C170.036 191.879 171.195 185.655 170.91 179.486C170.652 173.913 168.252 168.641 166.423 163.45C156.988 141.384 171.41 121.481 192.569 114.533Z" fill="#F1F0E0"/>
<path fill-rule="evenodd" clip-rule="evenodd" d="M189.241 78.7047L188.958 78.4856C185.903 76.0879 183.023 72.9455 178.715 74.1239C175.182 75.0906 173.398 78.0156 172.639 81.5504C171.564 80.425 170.518 79.2599 169.497 78.0552C166.722 74.7832 160.523 76.4787 159.695 80.6481C158.02 89.0462 157.936 97.5931 159.566 106.006C159.814 107.28 160.106 108.549 160.448 109.804C158.59 107.489 156.861 105.074 155.309 102.531C153.629 99.7695 149.833 101.138 149.571 104.088C149.501 104.851 149.462 105.624 149.452 106.403C148.267 106.819 147.45 108.039 147.762 109.536C149.487 117.776 151.672 125.901 154.298 133.888C150.076 131.647 145.344 130.318 140.888 131.9C133.812 134.418 132.127 142.142 133.509 148.79C135.249 157.149 140.72 164.144 147.777 168.73C148.614 169.989 149.442 171.258 150.23 172.552C150.245 176.206 150.909 179.85 152.247 183.236C153.753 187.038 156.41 190.325 159.68 192.824C160.83 195.328 163.874 197.157 166.547 196.65L166.688 196.621L166.693 196.626C166.009 199.075 165.419 201.549 164.909 204.028C160.956 223.233 162.957 243.224 166.562 262.32L166.678 262.929C169.914 279.924 173.68 297.523 181 313.303C187.62 327.571 198.845 340.119 214.886 343.232C233.758 346.896 254.646 341.091 270.875 331.408C276.758 327.898 271.366 318.648 265.508 322.217C257.054 327.363 247.871 330.957 238.158 332.851C229.079 334.616 218.925 335.216 210.218 331.557C198.092 326.461 190.886 314.012 186.327 302.292C183.641 295.377 181.629 288.238 179.756 281.069C177.342 271.853 175.092 262.577 173.403 253.197C170.256 235.702 169.235 217.532 172.565 199.987C173.626 194.39 175.127 188.758 177.085 183.345C177.392 182.963 177.684 182.537 177.947 182.071C179.994 178.481 181.406 174.401 182.927 170.519C184.26 168.204 185.717 165.978 187.264 163.802C189.575 162.025 191.777 160.124 193.794 158.051C187.936 154.257 182.767 149.506 179.048 143.455C178.434 142.457 178.824 141.503 179.551 140.965C182.52 144.682 186.365 147.829 190.409 150.618C192.48 152.393 194.711 153.987 197.049 155.428C198.72 155.759 200.409 155.986 202.046 156.172C206.71 156.703 211.398 156.504 216.036 155.885C226.066 154.546 268.486 142.859 286.367 147.402C290.091 148.349 291.848 151.69 293.82 154.829C295.531 157.558 297.707 159.818 300.318 161.678L300.609 161.883C305.714 165.418 315.976 176.6 320.29 186.581C325.86 199.467 331.211 238.082 328.748 238.414C322.305 239.286 318.737 242.677 313.489 246.316C313.142 246.554 313.345 247.199 313.791 247.035C317.255 245.786 321.002 245.047 324.634 244.442C327.92 243.892 331.379 243.793 334.551 244.968C339.417 246.772 341.791 250.852 342.767 255.453C343.149 257.253 343.317 259.132 343.337 260.991L343.34 261.53C343.337 267.391 342.245 273.89 337.99 278.213C336.181 280.053 333.728 281.292 331.161 281.634C328.351 282.011 326.617 280.742 324.035 280.082C321.061 279.324 318.742 281.282 319.02 283.835C318.39 284.386 317.781 284.966 317.176 285.556L317.176 285.558L317.171 285.561C316.775 285.739 316.398 285.977 316.056 286.264C315.496 286.74 315.025 287.261 314.649 287.821C313.811 287.985 313.008 288.451 312.349 289.303C310.991 291.054 309.738 292.823 308.573 294.628C306.487 296.844 304.41 299.065 302.364 301.321C299.9 304.032 297.502 306.805 295.088 309.562L293.88 310.938C292.576 312.421 291.278 313.903 289.979 315.39L289.592 315.827C288.286 317.29 287.285 318.37 287.145 320.477C287.046 322.039 288.726 323.099 290.118 322.743C292.265 322.189 293.262 320.503 294.548 318.83L296.491 316.337L298.32 313.987C299.227 312.817 300.144 311.652 301.055 310.487C301.328 312.634 303.598 314.364 305.669 314.458L306.152 314.477C311.016 314.639 316.928 313.952 320.63 310.522C322.295 312.203 324.367 313.526 326.919 314.32C332.717 316.124 338.644 312.926 340.988 308.063C345.532 310.011 350.666 310.403 355.578 308.97C358.41 308.14 359.39 304.608 357.416 302.446L357.327 302.352L357.304 302.326C357.711 301.796 357.935 301.148 357.972 300.441C358.016 299.584 357.391 298.674 357.52 297.874C358.011 294.82 362.989 297.082 364.571 297.744C364.873 297.87 365.156 297.93 365.421 297.939C367.867 298.652 370.526 295.437 369.245 292.784C366.376 286.854 363.576 280.881 360.672 274.961C361.039 275.085 361.415 275.199 361.787 275.293C367.005 276.632 373.334 274.064 372.129 267.773C371.852 266.295 370.514 265.284 369.186 264.828C366.599 263.935 364.656 264.58 362.664 263.747C360.419 262.815 358.075 261.105 356.103 259.493C353.997 257.778 352.178 255.85 350.567 253.758C349.923 250.719 348.808 247.813 347.024 245.315C346.915 245.166 346.806 245.017 346.692 244.874C358.133 242.145 356.635 230.888 361.682 220.913L362.108 220.086C365.536 213.413 368.526 205.89 366.797 198.292C366.49 196.948 366.044 195.664 365.469 194.465C366.386 194.579 367.308 194.683 368.224 194.787C370.331 195.025 372.471 192.308 371.634 190.31C371.193 189.264 370.707 188.253 370.182 187.271C368.725 184.564 366.936 182.105 364.83 179.884C368.368 179.79 371.911 179.79 375.41 179.384C378.716 179.002 382.189 177.192 382.088 173.38C381.985 169.745 378.797 166.994 375.841 165.22C372.932 161.349 369.241 158.131 365.067 155.74C365.893 155.555 366.73 155.417 367.58 155.332L368.006 155.295C370.39 155.106 372.531 154.452 374.692 153.455C376.624 152.563 376.595 149.856 375.331 148.493C371.245 144.075 365.124 145.513 360.361 148.045C360.693 147.624 361.056 147.219 361.452 146.831L361.693 146.6C364.033 144.42 360.521 140.922 358.189 143.094C357.452 143.781 356.792 144.527 356.203 145.318L356.147 145.201C353.066 138.949 348.559 133.352 343.228 128.868L341.974 127.826C332.36 119.791 329.393 115.983 316.606 117.166C317.151 114.842 317.098 112.228 316.975 110.079L316.958 109.789C316.467 101.708 313.489 92.0357 305.61 88.4067C303.563 87.4697 301.244 89.0016 301.789 91.3466C302.17 93.0074 302.636 94.6235 303.216 96.1951C301.496 94.3856 299.653 92.695 297.7 91.1384C289.742 84.7926 279.107 79.3343 268.645 81.119C262.897 82.1056 258.387 85.7147 253.575 88.729C248.738 91.763 243.337 93.5626 237.672 94.2121C229.758 95.1243 221.814 94.2071 213.989 92.7595C208.612 90.4145 203.394 87.668 198.3 84.7083C195.168 82.8889 192.12 80.9009 189.241 78.7047ZM329.757 254.219C328.082 253.788 326.204 253.793 324.524 254.214C320.188 255.305 316.154 258.934 315.901 263.51C315.787 265.577 317.452 267.555 319.385 268.085C321.575 268.69 323.458 267.619 324.737 265.904C326.11 264.07 326.452 262.082 328.132 260.416L328.519 260.039C329.947 258.673 332.106 256.906 334.088 257.223C334.381 257.268 334.599 256.871 334.301 256.713C332.686 255.83 331.625 254.695 329.757 254.219ZM307.227 232.668C306.462 232.043 305.452 232.776 305.812 233.674L305.84 233.739C306.746 235.653 305.681 237.898 304.581 239.5C303.634 240.883 305.423 242.197 306.682 241.602C310.22 239.921 310.037 234.949 307.227 232.668ZM294.298 175.174C294.362 174.708 293.743 174.514 293.584 174.975C290.943 182.645 290.185 189.437 290.616 197.547L290.656 198.267C291.123 206.079 292.491 214.348 297.217 220.764C298.312 222.246 300.552 221.374 300.19 219.509C298.738 212.048 295.948 204.964 294.863 197.413C293.728 189.521 293.218 183.071 294.298 175.174ZM318.962 203.05C318.575 201.003 315.428 198.896 313.837 200.953C313.302 201.652 313.932 202.51 314.576 202.768C315.18 203.006 315.721 202.679 316.315 202.798C316.796 202.895 317.148 203.195 317.382 203.605L317.43 203.695C317.896 204.587 319.125 203.923 318.962 203.05ZM320.25 186.74C319.12 184.647 316.518 183.314 314.293 184.618C313.559 185.049 313.847 186.303 314.739 186.264L315.267 186.242C316.854 186.184 318.44 186.217 319.774 187.22C320.071 187.444 320.398 187.022 320.25 186.74ZM316.285 129.605C322.623 126.754 328.926 129.328 334.101 133.342C334.529 133.674 334.737 134.061 334.782 134.451C331.327 133.105 327.649 132.223 324.132 131.494C321.257 130.898 318.354 130.496 315.448 130.338C315.611 130.046 315.878 129.788 316.285 129.605Z" fill="black"/>
<path fill-rule="evenodd" clip-rule="evenodd" d="M227.176 300.891C230.507 299.532 233.479 297.264 235.652 294.367C236.408 293.36 236.604 292.296 236.445 291.324C236.267 290.23 235.62 289.239 234.738 288.574C233.853 287.907 232.747 287.578 231.676 287.746C230.747 287.891 229.821 288.401 229.088 289.457L228.935 289.668C227.643 291.417 225.96 292.851 224.042 293.776C222.193 294.667 220.125 295.083 217.985 294.841C213.91 294.381 211.101 292.176 208.115 289.182C207.745 288.804 207.375 288.414 207.003 288.018C206.768 287.658 206.441 287.428 206.079 287.307C205.677 287.172 205.223 287.18 204.806 287.325C204.404 287.465 204.045 287.731 203.804 288.085C203.575 288.421 203.446 288.836 203.488 289.314C203.761 292.417 205.383 295.187 207.686 297.361C210.244 299.776 213.636 301.447 216.828 302.033C220.346 302.678 223.93 302.216 227.176 300.891ZM215.166 253.021C211.424 255.296 205.722 260.602 209.748 266.244C214.487 271.218 221.309 265.515 224.671 262.935C227.789 260.936 231.292 266.078 228.399 268.412C204.105 286.405 194.246 253.616 213.274 250.345C215.369 249.985 216.147 252.317 215.166 253.021ZM258.704 232.09C258.291 226.955 250.474 225.789 249.697 230.87C249.001 235.421 249.82 239.602 251.869 243.699C253.827 247.614 258.749 245.787 259.121 242.223C259.62 237.445 258.961 235.283 258.704 232.09ZM199.204 229.816C198.114 228.388 196.541 227.414 194.656 227.964C188.766 229.686 190.502 238.051 192.57 242.123C193.694 244.334 197.327 244.895 198.969 242.948C201.645 239.773 202.927 233.433 199.525 230.305C199.432 230.144 199.33 229.981 199.204 229.816ZM251.95 209.624L251.02 209.461C248.142 208.963 244.563 208.485 242.527 210.8C241.447 212.027 241.075 214.309 242.527 215.484C245.08 217.551 247.903 216.75 250.962 216.925C253.484 217.07 255.907 217.487 258.336 218.182C263.664 219.705 268.006 222.486 272.557 225.54C273.154 225.941 273.763 225.177 273.479 224.618C270.852 219.47 265.761 215.242 260.661 212.665C257.94 211.289 254.961 210.148 251.95 209.624ZM204.576 207.317L203.864 207.463C196.114 209.084 186.046 212.321 182.377 219.935C182.237 221.012 182.384 221.243 182.505 221.393L182.545 221.444C182.644 221.572 182.723 221.75 183.189 221.896C183.319 221.865 183.449 221.833 183.581 221.798C185.264 221.357 186.594 220.75 187.883 220.119L189.28 219.431C190.901 218.636 192.536 217.87 194.268 217.304C197.966 216.097 201.77 215.247 205.633 214.794C206.47 214.695 207.276 214.413 207.912 213.928C208.516 213.468 208.977 212.832 209.187 211.985C209.46 210.89 209.381 210.061 208.794 209.073C208.352 208.331 207.72 207.817 206.995 207.522C206.255 207.221 205.413 207.15 204.576 207.317Z" fill="black"/>
</svg>
