<svg width="375" height="473" viewBox="0 0 375 473" fill="none" xmlns="http://www.w3.org/2000/svg">
<path fill-rule="evenodd" clip-rule="evenodd" d="M-54.2463 620.346C-63.0927 619.919 -59.5346 604.439 -58.8998 598.754C-51.8958 577.99 -53.5423 555.335 -50.7876 533.571C-49.0715 513.254 -46.8665 493 -45.0117 472.698C-41.369 431.487 -15.2101 347.594 14.6419 334.101C18.4023 317.595 33.9341 302.187 53.5851 302.187C66.9879 286.315 83.1202 275.146 103.812 277.401C112.362 277.79 120.655 286.863 128.848 288.615C133.436 289.247 174.148 287.619 182.303 292.464C187.984 295.382 193.112 300.774 191.441 307.639C188.776 315.955 197.058 306.956 214.335 315.833C249.565 337 228.513 365.316 227.58 366.194C249.565 396.794 268.78 421.619 277.671 459.021C283.433 486.789 282.785 515.455 287.613 543.365C289.317 553.043 291.932 562.39 294.762 571.788C297.829 584.087 299.32 614.743 301.011 615.016C304.09 615.782 299.231 622.107 295.968 622.112C205.507 637.123 113.619 622.734 22.6716 620.383C-2.95902 619.491 -28.6171 619.285 -54.2463 620.346Z" fill="#F1F0E0"/>
<path fill-rule="evenodd" clip-rule="evenodd" d="M82.8606 368.893C82.8185 368.479 82.26 368.479 82.217 368.893L81.5783 375.061C80.8013 382.594 80.0532 390.112 79.5108 397.68C78.8347 407.117 78.3825 416.553 78.1646 426.011C77.4047 458.953 77.2537 491.912 77.1896 524.862C72.7352 524.553 68.2805 524.256 63.8234 523.969C60.7995 523.773 57.7754 523.586 54.751 523.401L47.0392 522.934V522.934L43.8643 522.739C41.7188 522.606 39.2813 522.065 37.7813 523.967C37.1807 524.728 36.8795 525.717 37.4393 526.62C38.7306 528.704 40.714 528.632 42.9575 528.722C45.0741 528.807 47.1907 528.891 49.3073 528.973C53.8431 529.149 58.3785 529.315 62.9157 529.443C67.6771 529.576 72.4363 529.685 77.196 529.766C77.2441 543.676 77.8195 557.569 78.4415 571.464L78.723 577.717C79.4843 594.626 80.3032 611.55 81.4663 628.437C81.562 629.819 83.517 629.817 83.6118 628.437C84.9218 609.42 85.7861 590.362 86.643 571.319C87.2646 557.512 87.6262 543.702 87.7983 529.889C88.4277 529.893 89.0567 529.902 89.6856 529.904C107.55 529.982 125.41 530.06 143.274 529.892C143.245 529.928 143.215 529.963 143.196 530.01C141.903 533.063 141.78 536.959 141.811 540.235C141.848 543.993 142.353 547.705 143.219 551.359C146.318 564.45 154.313 576.176 163.419 585.87L163.716 586.185C165.864 588.456 168.328 590.736 169.647 593.628C170.994 596.581 171.461 600.035 172.126 603.207L172.204 603.572L174.803 615.582C175.628 619.396 175.863 624.959 178.881 627.712C181.697 630.28 185.428 628.938 186.753 625.632C187.788 623.052 186.757 620.218 186.144 617.639L181.342 597.444C180.553 594.151 179.691 590.836 177.988 587.878C176.243 584.848 173.686 582.651 171.076 580.403C166.135 576.147 161.598 571.275 157.762 566C153.927 560.726 150.65 554.913 148.351 548.801C147.201 545.741 146.258 542.562 145.607 539.358C144.989 536.317 144.994 533.167 144.333 530.158C144.287 529.95 144.112 529.808 143.911 529.745C143.959 529.611 143.886 529.429 143.698 529.417L129.088 528.478C116.101 527.64 103.115 526.781 90.1392 525.798L87.8464 525.633V525.633C88.0244 507.203 87.8734 488.771 87.5406 470.335C87.2357 453.428 87.2293 436.518 86.7267 419.614C86.4768 411.224 85.938 402.854 85.3384 394.482C84.725 385.92 83.7431 377.43 82.8606 368.893ZM220.042 466.918C220.198 465.979 219.017 465.397 218.473 466.256C212.252 476.066 209.252 486.721 207.988 498.201C206.871 508.332 207.2 518.61 207.756 528.768C208.349 539.603 209.041 550.435 209.741 561.263L210.817 577.869V577.869L213.515 619.499C213.708 622.476 214.384 625.184 216.947 626.568C217.271 626.84 217.609 627.083 218.004 627.293C219.388 628.034 221.225 627.66 222.025 626.238L221.704 626.45C221.425 626.626 221.739 626.38 222.646 625.713L223.417 624.715V624.715C223.977 623.874 224.334 623.046 224.478 622.046C224.701 620.491 224.412 618.786 224.31 617.223L222.542 589.925V589.925C221.166 568.704 219.56 547.488 218.349 526.255C217.785 516.359 217.39 506.454 217.658 496.541C217.924 486.683 218.426 476.657 220.042 466.918ZM166.226 284.181L165.881 284.123C153.524 282.07 140.088 282.454 128.795 288.413C128.701 288.462 128.744 288.617 128.849 288.613L132.483 288.467C143.991 288.017 155.462 287.75 166.777 290.454L167.935 290.733C172.01 291.728 176.265 292.945 179.538 295.637C182.666 298.211 184.224 302.18 185.722 305.835L185.922 306.317C187.442 309.927 189.365 313.35 192.696 315.607C197.01 318.53 202.199 318.172 207.146 318.569C215.856 319.269 222.977 325.584 226.52 333.312C228.665 337.991 229.58 343.237 229.762 348.354C229.854 350.959 229.868 353.665 229.521 356.253C229.41 357.081 228.387 360.095 227.866 360.023C226.707 359.862 225.648 360.467 225.287 361.393C222.425 358.627 219.481 355.941 216.442 353.351C208.867 346.898 200.707 341.049 192.115 336.023C185.556 332.186 178.639 328.385 171.476 325.512C172.043 325.5 172.603 325.612 173.145 325.894C173.382 326.018 173.618 325.721 173.43 325.524C171.174 323.149 168.472 322.811 165.747 323.444C165.166 323.259 164.584 323.08 164 322.91C163.709 322.826 163.565 323.226 163.802 323.381L164.471 323.809V323.809C161.499 324.805 158.581 326.762 156.27 328.307C149.634 332.744 143.793 338.168 137.871 343.491L136.795 344.456C131.582 349.111 126.237 353.635 120.316 357.371C117.216 359.325 113.96 361.134 110.545 362.479C107.616 363.633 102.846 364.36 101.474 367.457C100.255 368.939 100.764 370.83 102.193 371.827C104.601 374.479 109.42 372.766 112.29 371.661C115.75 370.33 119.102 368.729 122.299 366.852C128.505 363.207 134.228 358.675 139.559 353.854C145.126 348.819 150.378 343.47 155.793 338.276C158.14 336.026 160.432 333.723 162.782 331.476L163.962 330.358C165.161 329.233 166.87 327.479 168.697 326.418C172.139 328.471 175.633 330.44 179.044 332.547C183.805 335.488 188.426 338.641 192.976 341.898C201.734 348.167 210.034 355.189 217.739 362.715C231.871 376.518 243.91 392.28 254.428 408.97L255.227 410.241C261.204 419.794 266.856 429.655 270.863 440.21C275.273 451.825 277.417 464.04 278.582 476.369C279.738 488.611 280.128 500.914 281.421 513.144C282.746 525.687 285.357 537.953 288.327 550.196L289.035 553.098C291.722 564.063 294.496 575.028 295.877 586.251C296.615 592.247 297.058 598.324 296.958 604.367C296.857 610.446 295.902 616.391 295.132 622.406C294.837 624.71 297.103 626.633 299.132 626.939C301.464 627.289 303.468 625.8 304.193 623.632C306.454 616.875 306.864 609.405 306.793 602.312C306.722 595.111 305.803 587.957 304.511 580.88C301.968 566.96 298.045 553.328 294.763 539.575C291.87 527.453 289.929 515.31 288.883 502.891C287.796 490.007 287.146 477.08 285.164 464.288C283.208 451.661 279.528 439.599 273.978 428.084C268.925 417.601 262.625 407.733 256.021 398.168C248 386.554 239.192 375.502 229.346 365.432C230.23 365.393 231.138 365.108 231.972 364.587C234.524 362.995 235.712 359.881 236.078 357.037C236.933 350.385 236.726 343.44 235.016 336.936C232.257 326.444 225.097 317.122 214.72 313.34C212.049 312.366 209.21 312.011 206.379 311.941C203.693 311.874 200.759 312.224 198.167 311.372C194.042 310.016 192.274 305.155 190.725 301.471L190.654 301.302C188.667 296.607 186.283 292.582 181.981 289.651C177.392 286.522 171.641 285.1 166.226 284.181V284.181ZM48.8168 302.748C45.1036 301.46 40.4611 302.629 36.8298 303.755C32.7843 305.009 29.0458 307.32 25.8407 310.064C22.4593 312.959 19.6648 316.532 17.6905 320.524L17.5018 320.909C15.6985 324.612 13.6448 329.696 14.5541 333.764C14.5801 333.88 14.6099 333.991 14.6438 334.099C7.27634 337.727 0.472394 342.271 -5.45268 348.031C-12.3518 354.737 -18.1936 362.369 -23.1373 370.613C-42.7717 403.358 -46.2275 442.685 -48.5464 480.028L-49.1248 489.497C-50.3839 509.943 -51.8576 530.34 -55.6853 550.504L-55.9646 551.96C-60.0562 573.071 -65.9133 594.344 -65.32 616.001C-65.1419 622.49 -55.5558 622.446 -55.2779 616.001C-54.2315 591.743 -48.5729 568.322 -44.7411 544.444C-37.9989 502.433 -41.3771 459.122 -31.8239 417.533C-28.075 401.211 -22.2675 385.379 -13.9745 370.811C-9.87817 363.613 -5.19131 356.659 0.298906 350.45C5.02239 345.107 9.93173 339.966 15.4517 335.474C17.2158 337.242 20.74 336.341 21.661 333.764C22.2936 331.994 22.1092 329.923 22.5152 328.068C22.8919 326.347 23.4114 324.64 24.1036 323.019C25.4832 319.789 27.5083 316.686 29.846 314.071C32.3714 311.245 35.2739 308.897 38.5217 306.958C41.7918 305.006 45.3682 304.423 48.8168 302.996C48.9331 302.948 48.9441 302.793 48.8168 302.748ZM34.3897 527.267C34.3842 527.097 34.1832 527.016 34.0597 527.13C32.7578 528.329 31.971 530.049 31.0129 531.523C29.9079 533.223 28.7475 534.888 27.5308 536.509C25.0929 539.759 22.3789 542.822 19.6434 545.822C17.0992 548.613 14.3875 551.286 11.5747 553.805C8.52702 556.536 5.11177 558.972 2.34287 561.995C-3.43471 568.303 -4.36833 576.961 -5.58726 585.091L-5.72079 585.97C-6.46417 590.795 -7.13019 595.633 -7.73076 600.477C-8.0228 602.834 -8.31393 605.192 -8.55196 607.555L-8.62466 608.303C-8.83686 610.616 -8.8941 612.963 -7.56643 614.983C-6.14513 617.145 -2.9139 617.903 -0.992734 615.83C2.30808 612.269 1.6892 605.943 2.11857 601.361C2.47326 597.573 2.8757 593.789 3.32619 590.011L3.55544 588.122C4.08642 583.824 4.51762 579.44 5.5004 575.217C6.36691 571.498 8.01801 568.691 10.7269 565.996C13.456 563.282 16.2918 560.748 18.8108 557.825C21.4826 554.725 23.8926 551.401 26.0642 547.932C27.9215 544.965 29.4104 541.735 30.7743 538.51L31.0005 537.973C32.3188 534.827 34.4927 530.732 34.3897 527.267ZM-13.2705 392.159C-13.2994 391.721 -13.9475 391.714 -13.9571 392.159C-14.0391 395.933 -14.1178 399.706 -14.1961 403.48C-14.8259 433.887 -14.4378 464.366 -17.4873 494.669C-18.9255 508.956 -21.574 523.034 -24.6387 537.053C-26.2069 544.226 -27.852 551.383 -29.4152 558.557C-30.9386 565.549 -32.5723 572.575 -33.7808 579.632C-34.9683 586.568 -36.0317 593.557 -36.5091 600.583L-36.568 601.499C-36.7735 604.902 -37.7545 609.907 -35.8814 612.923C-33.8517 616.191 -29.9659 616.25 -27.7912 613.13C-25.7491 610.202 -26.2568 604.993 -25.8961 601.499C-25.5294 597.94 -25.1417 594.377 -24.7014 590.826C-23.8422 583.899 -22.7102 576.988 -21.5328 570.108C-19.0807 555.78 -15.524 541.633 -12.8988 527.328C-10.2082 512.671 -8.29572 497.908 -8.21516 482.984C-8.13505 467.934 -9.72755 452.912 -10.5314 437.895C-11.348 422.642 -12.2763 407.401 -13.2705 392.159ZM130.316 297.582C129.499 294.833 126.619 293.115 123.81 293.887C121.235 294.595 119.109 297.721 120.116 300.396C121.214 303.314 123.134 305.803 124.753 308.456C126.248 310.907 128.428 312.837 129.951 315.245L128.273 317.055C127.433 317.958 126.591 318.856 125.74 319.737L122.813 322.771C120.533 325.128 118.239 327.473 115.88 329.748C108.945 336.441 101.899 342.914 94.1316 348.645C92.3633 349.949 90.5813 351.246 88.7494 352.46L88.0663 352.913C86.8095 353.736 85.4073 354.546 83.889 354.406C80.1998 354.067 76.8664 350.148 74.3312 347.708L74.1985 347.581C67.916 341.601 62.0985 335.063 57.0124 328.033C55.8832 326.471 54.7896 324.882 53.7249 323.275C56.1839 320.401 55.5966 314.792 55.7321 311.308C55.8278 308.857 55.8351 306.406 55.8484 303.954L55.8551 303.46C55.885 301.873 55.9566 300.35 54.927 299.044C54.867 298.969 54.7429 298.971 54.6665 299.011C53.2563 299.75 52.8217 300.988 52.22 302.376L52.1571 302.52C51.4247 304.187 50.7235 305.869 50.014 307.545C49.271 309.3 48.5899 311.08 47.8996 312.856C47.5783 313.682 47.2716 314.511 46.9718 315.345C46.7891 315.878 46.6001 316.407 46.406 316.936L46.3602 316.977C46.1039 317.195 45.8865 317.425 45.6992 317.662C44.9124 318.056 44.2871 318.773 43.9937 319.827C43.3551 322.122 44.6766 323.993 45.8553 325.814C50.6434 333.214 56.1015 340.266 62.1685 346.663C65.1823 349.841 68.3522 352.876 71.6526 355.755L72.2295 356.255C75.1943 358.803 78.4131 361.218 82.3725 361.814C87.0061 362.512 90.7771 360.206 94.3241 357.551L94.6781 357.284C98.0407 354.738 101.336 352.102 104.528 349.345C111.037 343.723 117.229 337.687 122.724 331.065C128.069 324.624 133.353 317.422 136.648 309.671C136.849 309.199 136.321 308.705 135.907 309.099C134.297 310.632 132.749 312.248 131.219 313.885C131.176 311.476 131.621 309.046 131.373 306.622C131.072 303.675 131.159 300.419 130.316 297.582Z" fill="black"/>
<path fill-rule="evenodd" clip-rule="evenodd" d="M22.7667 194.05C23.8543 179.972 22.1689 165.215 27.595 151.834C37.0558 129.631 63.5849 122.228 84.1519 113.776C92.3914 111.34 120.116 111 129.764 107.776C151.599 100.481 156.815 91.788 174.165 105.679C177.094 108.052 178.926 110.631 180.263 114.155L180.208 114.17C180.59 115.639 180.18 117.105 179.32 118.224C186.843 125.917 189.991 137.449 186.131 147.689C173.535 174.335 174.127 188.743 178.186 217.389C183.486 244.132 171.375 253.9 151.318 268.451C152.135 270.035 152.304 272.141 151.24 273.538C128.047 306.142 84.3172 321.709 46.8493 305.16C31.6406 298.389 24.8509 282.186 20.976 267.565C16.4622 251.195 15.0752 233.945 18.75 217.269C20.2322 209.557 22.163 201.9 22.7667 194.05Z" fill="#F1F0E0"/>
<path fill-rule="evenodd" clip-rule="evenodd" d="M156.542 38.071C153.727 37.6481 151.601 39.3955 150.59 41.8583L150.537 41.9909C150.212 42.8289 149.85 43.644 149.461 44.4454C142.416 40.988 132.364 41.8764 127.906 48.8781C124.724 53.8786 126.665 59.8133 127.865 65.1161L128.652 68.6101C127.13 69.579 125.982 71.314 126.036 73.1106L126.043 73.2489L126.363 78.1212C125.347 77.0909 124.418 75.969 123.589 74.7738C123.017 73.7251 122.399 72.6948 121.735 71.6965C117.831 65.8213 109.065 70.9272 112.287 77.2191C112.905 78.4326 113.601 79.582 114.347 80.6902C115.19 82.325 115.881 84.0056 116.412 85.7319C114.887 86.3959 113.716 87.8704 113.592 90.096C113.304 95.2934 116.032 99.63 120.371 102.355C121.648 103.156 122.967 103.312 124.161 103.014C124.372 103.298 124.583 103.582 124.784 103.87C123.054 105.276 121.493 106.879 120.152 108.656C116.114 108.051 112.054 107.767 107.994 107.758C103.032 105.327 97.0903 105.377 91.7575 106.288C88.3244 106.874 85.0287 108.015 81.6505 108.834C78.0892 109.695 74.473 109.727 70.8706 110.313C66.3297 111.051 62.3473 113.148 59.8435 116.495C57.0924 116.578 54.1994 117.704 51.8008 119.234C46.2163 122.796 40.6639 126.409 35.0931 129.995C32.9551 131.372 32.1557 133.569 32.5488 136.02L32.5755 136.177L32.7632 137.194L32.3224 137.819C30.6176 140.228 28.7626 142.75 27.6593 145.409C25.6177 148.353 23.773 151.44 22.1389 154.622C19.9371 158.899 18.1199 163.433 16.8885 168.085C16.5818 169.262 16.2751 170.448 16.0737 171.648C15.7854 173.342 16.2294 174.657 16.472 176.282C16.7741 178.343 16.8839 180.431 17.2044 182.496C17.4195 183.865 18.5822 184.539 19.7998 184.575C19.342 188.06 19.0125 191.568 18.6966 195.048C18.2526 200.021 17.9505 205.008 17.6896 209.995C16.3438 211.95 13.5927 213.498 11.6061 214.034C8.85506 214.771 5.97127 213.969 3.37127 213.031C1.73711 212.44 0.395909 214.496 1.19239 215.87C3.69626 220.183 9.05188 220.165 13.1075 218.256C14.8241 217.45 16.3301 216.282 17.447 214.762C17.3783 216.209 17.3051 217.656 17.2318 219.107L17.1636 220.422C16.339 235.777 14.5586 251.661 17.4424 266.864C22.4364 293.2 44.2217 313.252 70.8339 314.809C84.7989 315.626 96.4281 311.5 102.211 309.198C107.994 306.896 105.746 302.203 101.732 303.545C94.8161 305.856 82.1118 309.299 70.7424 307.812C43.9459 304.308 21.2234 290.909 23.5579 233.202C23.8889 225.019 24.9082 216.831 25.128 208.648C25.3385 200.648 25.2607 192.644 25.6132 184.648L25.7307 181.921C25.8683 178.733 26.0155 175.531 26.254 172.339C26.5424 171.103 26.7804 169.848 27.1329 168.635C28.0896 165.333 29.3392 162.123 30.891 159.06C31.2343 159.321 31.6188 159.508 32.0353 159.582C35.1984 160.149 38.1646 159.989 41.1262 158.67C42.5086 158.061 43.7262 157.251 44.8614 156.248C45.4015 155.776 45.7632 155.318 46.047 154.842C47.4797 154.865 48.9125 154.435 49.8096 153.404C50.8329 152.23 51.0031 151.017 50.6023 149.894L50.5604 149.782L50.6611 149.745C51.8695 152.873 54.2772 155.625 56.9184 157.484C61.0931 160.433 66.316 161.285 71.3237 161.363C76.8533 161.445 82.685 160.594 88.1413 159.724C89.5832 159.495 91.016 159.234 92.4213 158.881C92.4762 158.936 92.5311 159 92.5906 159.055C97.2734 163.538 103.86 164.692 109.802 162.132C113.235 160.653 116.114 158.272 118.659 155.543C118.696 156.971 118.769 158.4 118.893 159.815L118.944 160.377C119.197 163.012 119.685 165.808 121.676 167.71C124.894 170.792 129.563 169.555 133.275 167.55C133.271 167.646 133.271 167.746 133.271 167.847C132.268 171.254 131.261 174.666 130.254 178.077L130.037 178.804C129.305 181.226 128.502 183.652 128.281 186.187C127.86 191.032 131.083 195.817 136.466 194.192C139.289 193.342 141.551 190.967 143.722 189.065L145.09 187.881C141.551 199.453 139.098 211.437 138.869 223.513C138.855 224.167 139.418 224.662 140.041 224.685C141.496 224.744 143.062 224.456 144.527 223.874C144.609 223.87 144.691 223.865 144.778 223.851C147.278 223.49 149.598 222.588 151.645 221.255C151.173 222.752 150.962 224.36 151.086 226.04C151.118 226.448 151.754 226.59 151.846 226.141C153.027 220.33 159.824 215.939 165.684 217.051C171.973 218.246 176.605 223.659 177.741 229.818C178.958 236.435 176.628 244.087 172.312 249.193C170.325 251.547 167.711 253.511 164.608 254.006C163.189 254.23 161.715 254.152 160.337 253.749C159.751 253.575 159.202 253.333 158.643 253.104C157.829 252.774 156.877 252.724 156.108 252.376C154.364 251.593 152.61 253.2 153.494 254.99C154.263 256.552 154.954 257.605 156.231 258.411C155.197 259.675 154.258 261.433 153.91 261.905C152.134 264.305 150.331 266.571 148.308 268.765C146.248 270.99 144 273.024 141.624 274.906L140.626 275.695C138.338 277.511 136.345 279.193 134.731 281.797C133.458 283.853 135.106 286.642 137.491 286.61C144.952 286.505 150.377 279.947 154.24 274.219C154.789 273.399 155.306 272.534 155.787 271.645C155.961 271.925 156.153 272.186 156.368 272.424L155.943 273.568C154.679 276.939 160.122 279.141 161.701 275.995C162.85 273.715 164.182 271.544 165.665 269.493C166.54 269.369 167.396 268.838 167.872 268.151C169.075 266.407 170.426 264.643 171.566 262.784C172.197 262.184 172.847 261.607 173.511 261.044C173.703 261.214 173.9 261.383 174.088 261.562C174.921 263.462 175.951 265.198 177.228 266.832L177.502 267.181C179.948 270.266 183.135 273.423 187.079 274.177C188.283 274.406 189.441 272.909 188.374 271.952C185.614 269.47 182.35 267.78 179.805 265.01C178.551 263.645 177.4 262.142 176.41 260.566L176.184 260.202C176.02 259.931 175.85 259.661 175.676 259.386C176.825 258.603 177.974 257.816 179.123 257.028C182.286 259.731 186.405 260.968 189.903 263.207L190.251 263.435C193.414 265.55 196.746 260.87 194.21 258.301C191.415 255.48 189.081 252.116 186.605 248.98C187.769 246.834 188.321 244.296 188.527 241.732C188.608 241.006 188.672 240.28 188.736 239.554C190.512 239.581 192.297 238.972 193.808 237.924L194.38 237.516C196.215 238.102 198.142 238.386 199.987 238.336C204.327 238.207 206.103 233.248 203.388 230.111C200.619 226.906 195.771 226.205 191.931 227.762C191.807 227.698 191.679 227.629 191.555 227.561C191.739 226.718 191.698 225.954 191.49 225.282L191.55 224.873C192.394 223.577 192.95 222.097 193.16 220.533C193.327 219.294 193.293 218.066 193.006 216.843C192.911 216.436 192.713 216.015 192.562 215.59C192.874 214.801 193.057 213.986 193.114 213.167C193.201 213.063 193.288 212.956 193.371 212.841C195.276 210.164 194.891 206.939 193.078 204.773C193.07 204.635 193.057 204.497 193.038 204.36C193.144 204.121 193.242 203.88 193.331 203.636C195.103 201.848 196.403 199.696 196.161 197.029C196.018 195.461 195.374 194.048 194.398 192.993C194.572 192.481 194.588 191.888 194.378 191.393C195.935 187.25 195.738 182.261 194.618 177.628C194.865 176.923 194.993 176.159 194.966 175.348C194.837 171.909 191.862 168.749 188.337 168.79C187.913 168.794 187.516 168.85 187.134 168.931L187.129 168.849C186.994 167.816 186.71 166.863 186.296 166.007C186.5 165.933 186.688 165.827 186.853 165.687C189.112 166.892 191.502 167.813 194.008 168.441C195.85 168.903 197.737 166.808 196.592 165.078C196.061 164.275 195.474 163.554 194.843 162.896C195.741 162.901 196.652 162.962 197.575 163.08C199.232 163.295 201.081 162.164 202.157 160.635C203.493 161.935 204.835 163.231 206.176 164.527C209.572 167.82 214.704 165.397 215.239 161.056C216.251 160.786 217.194 160.328 218.022 159.673C223.378 161.999 229.141 163.277 235.032 163.52C239.262 163.694 241.734 158.766 239.756 155.286C238.429 152.951 236.781 150.854 234.881 149.031C237.829 149.933 240.873 150.583 243.981 151C245.661 151.224 248.037 149.832 248.71 148.289C251.282 142.354 251.062 136.168 248.101 130.393C247.986 130.164 247.858 129.945 247.735 129.725C247.428 128.96 247.094 128.205 246.732 127.463C250.376 123.662 250.692 118.011 248.728 113.281C249.515 112.003 249.817 110.465 249.282 109.072C247.758 105.066 245.56 101.366 242.786 98.1875C243.052 97.6746 243.285 97.1297 243.482 96.5436C245.043 91.804 243.235 86.0845 239.587 82.7829C237.293 80.7039 234.657 79.4584 231.842 78.6616C230.656 76.5643 229.132 74.673 227.356 73.0794C227.287 72.9283 227.218 72.7772 227.141 72.6261C224.376 67.4149 219.341 64.6216 213.944 63.9759C213.733 61.9381 212.36 59.9919 210.364 59.36C209.815 57.597 208.996 55.9118 207.87 54.3823C206.098 51.9737 203.155 50.838 200.381 52.4178C198.861 53.2833 197.405 54.277 196.041 55.376C195.429 55.0886 194.734 54.9026 193.95 54.8433L193.753 54.8311L189.239 54.6021C187.349 53.7641 185.463 52.8849 183.572 52.0286C182.437 51.0899 181.169 50.3068 179.787 49.7252C178.221 49.0704 176.619 48.6995 175.012 48.5758C173.708 48.15 172.394 47.7745 171.058 47.4814C167.917 46.7945 164.631 46.4099 161.372 46.4419C161.305 45.598 161.272 44.744 161.278 43.88L161.285 43.4471C161.358 40.6766 159.147 38.4649 156.542 38.071ZM159.703 259.729C160.152 259.825 160.605 259.903 161.058 259.958C160.921 260.297 160.783 260.636 160.651 260.975C160.284 261.181 159.914 261.378 159.543 261.561C159.653 260.938 159.717 260.311 159.703 259.729ZM183.223 252.738L183.527 253.299C183.576 253.391 183.625 253.481 183.673 253.571C183.027 253.52 182.377 253.534 181.736 253.607L181.738 253.539C181.82 253.511 181.903 253.485 181.982 253.447C182.424 253.234 182.835 252.996 183.223 252.738ZM170.51 227.162C166.46 227.398 163.029 228.019 159.346 229.791L159.029 229.946C155.775 231.563 150.392 234.548 150.845 238.83C150.973 240.048 151.857 241.33 153.248 241.234C157.061 240.973 159.24 237.126 161.822 234.727C164.426 232.309 167.626 229.823 170.78 228.16C171.226 227.926 171.05 227.185 170.565 227.162L170.51 227.162ZM188.878 170.75C189.848 170.782 189.523 171.725 189.024 170.938C188.983 170.874 188.933 170.81 188.878 170.75ZM136.496 107.775C145.687 108.017 154.937 113.445 161.822 118.933C167.811 123.707 172.983 129.385 177.563 135.505C178.741 138.553 179.753 141.665 180.608 144.799C181.171 146.869 181.523 148.962 181.995 151.05L182.141 151.69C182.511 152.382 182.786 153.127 182.987 153.897C182.153 154.734 181.07 155.334 179.878 155.618C179.494 155.71 179.175 155.908 178.923 156.171C177.963 154.569 177.125 152.878 176.637 151.086L176.619 151.003C174.775 147.981 172.771 145.053 170.624 142.226C164.701 134.418 158.178 127.302 150.337 121.381C144.391 116.893 137.744 113.376 130.677 111.091C132.406 109.695 134.371 108.59 136.496 107.775Z" fill="black"/>
<path fill-rule="evenodd" clip-rule="evenodd" d="M64.8436 277.928C67.9207 276.672 70.6663 274.577 72.6736 271.902C73.3714 270.971 73.5523 269.989 73.406 269.091C73.2413 268.08 72.6439 267.165 71.8291 266.55C71.0118 265.934 69.9894 265.631 69.001 265.785C68.1421 265.92 67.2872 266.39 66.6105 267.366L66.4692 267.561C65.2758 269.176 63.7208 270.501 61.9489 271.356C60.2411 272.179 58.3311 272.563 56.3546 272.34C52.5902 271.914 49.9955 269.878 47.2377 267.112C46.8959 266.763 46.5538 266.403 46.2101 266.037C45.993 265.705 45.6918 265.492 45.3574 265.38C44.986 265.256 44.5659 265.263 44.1812 265.397C43.8101 265.527 43.4783 265.772 43.2559 266.099C43.0445 266.409 42.9246 266.793 42.9635 267.234C43.2159 270.101 44.7138 272.659 46.8415 274.667C49.2046 276.898 52.3371 278.441 55.2862 278.982C58.5352 279.579 61.8459 279.151 64.8436 277.928V277.928ZM53.751 233.71C50.2944 235.812 45.0276 240.714 48.7461 245.924C53.1232 250.519 59.4252 245.251 62.5307 242.869C65.4102 241.022 68.6456 245.771 65.9739 247.927C43.5335 264.548 34.4267 234.26 52.0027 231.239C53.9379 230.906 54.6567 233.06 53.751 233.71ZM93.9662 214.377C93.5842 209.634 86.3644 208.558 85.6462 213.25C85.003 217.454 85.7601 221.316 87.6529 225.101C89.4615 228.716 94.0071 227.029 94.3509 223.737C94.8117 219.323 94.2037 217.327 93.9662 214.377ZM39.0068 212.277C38.0002 210.958 36.5469 210.058 34.8056 210.566C29.3653 212.157 30.9688 219.883 32.8794 223.644C33.9176 225.687 37.2733 226.205 38.7898 224.406C41.2616 221.474 42.4454 215.617 39.3029 212.729C39.2178 212.579 39.123 212.429 39.0068 212.277ZM87.7275 193.626L86.8681 193.475C84.2096 193.015 80.9041 192.574 79.0235 194.712C78.026 195.845 77.6827 197.953 79.0235 199.038C81.3818 200.948 83.9891 200.208 86.8152 200.369C89.1442 200.503 91.3826 200.889 93.626 201.53C98.5477 202.937 102.558 205.506 106.762 208.327C107.313 208.697 107.876 207.992 107.613 207.475C105.186 202.721 100.484 198.815 95.7738 196.434C93.2598 195.164 90.5088 194.109 87.7275 193.626ZM43.9685 191.495L43.3107 191.63C36.1528 193.127 26.8531 196.116 23.4634 203.15C23.3343 204.145 23.4708 204.358 23.5817 204.497L23.6187 204.543C23.7101 204.662 23.7831 204.826 24.214 204.962C24.3336 204.933 24.4544 204.903 24.5764 204.871C26.1301 204.463 27.3594 203.902 28.5495 203.32L29.8399 202.684C31.337 201.95 32.8473 201.242 34.4479 200.72C37.8636 199.605 41.377 198.82 44.9449 198.401C45.7182 198.31 46.4628 198.049 47.0503 197.601C47.6079 197.177 48.0339 196.589 48.2281 195.807C48.4799 194.795 48.4075 194.03 47.865 193.117C47.457 192.432 46.8733 191.957 46.203 191.684C45.5197 191.406 44.7418 191.34 43.9685 191.495Z" fill="black"/>
<path fill-rule="evenodd" clip-rule="evenodd" d="M94.5256 280.797C90.8196 272.111 82.731 265.728 73.4181 263.394C66.5793 261.684 59.4023 261.739 52.4309 262.417C48.7784 262.77 44.8607 263.06 41.4184 264.417C38.479 265.576 36.0836 267.767 34.2825 270.339C32.1385 273.387 30.6802 276.876 29.6562 280.452C29.5109 280.96 29.3742 281.472 29.2466 281.987C29.6919 284.685 30.6372 286.981 33.1351 288.677C35.5725 290.333 38.4808 291.011 41.38 291.251C41.6644 291.115 41.9391 290.974 42.191 290.83C46.7089 288.243 49.8887 282.129 55.5911 282.956C60.68 283.695 64.0299 290.101 67.0561 293.857C76.7703 294.989 86.4772 292.069 94.3812 286.512C94.7825 284.61 94.8059 282.692 94.5256 280.797M22.6445 274.208C23.4217 272.026 24.4004 269.913 25.5606 267.923C29.396 261.34 35.284 256.096 42.2736 253.098C58.8083 246.015 80.2024 251.008 93.5555 262.623C98.1168 266.594 102.729 272.429 104.124 278.706C104.54 278.789 104.933 279.005 105.257 279.311C114.904 273.234 124.839 267.388 132.613 258.965C138.259 252.845 142.186 245.603 144.59 237.644C144.787 236.989 145.843 237.085 145.811 237.81C145.802 237.979 145.793 238.149 145.784 238.318C145.884 238.007 146.36 238.167 146.396 238.47C147.69 248.138 149.308 258.388 147.818 268.106C146.926 273.905 144.293 278.15 140.773 282.735C137.002 287.648 132.732 292.219 128.367 296.602C125.596 299.384 122.703 302.593 119.311 304.633C115.366 307.003 110.89 308.805 106.68 310.633C102.397 312.499 98.0492 314.223 93.6195 315.717C84.7647 318.715 75.6128 320.787 66.3008 321.695C58.8449 322.419 50.3238 323.208 43.1788 320.402C37.7022 318.252 33.2817 314.365 29.7754 309.689C25.9583 304.596 22.9407 298.795 21.2726 292.677C19.5392 286.323 22.2793 275.232 22.6445 274.208" fill="black"/>
</svg>
