<svg width="590" height="641" viewBox="0 0 590 641" fill="none" xmlns="http://www.w3.org/2000/svg">
<path fill-rule="evenodd" clip-rule="evenodd" d="M129.752 744.387C147.985 744.443 165.702 745.067 183.986 745.128C258.311 745.376 333.319 745.015 407.913 742.001C428.996 741.149 434.259 741.17 455.251 739.848C467.645 739.804 504.877 738.779 503.013 721.89C502.19 690.435 494.405 659.113 491.953 627.743C487.247 568.77 483.24 507.953 459.61 452.795C454.14 439.623 442.393 431.009 430.764 423.263C419.102 414.906 416.24 405.629 405.477 396.189C403.202 394.192 390.278 393.38 383.325 388.317C373.204 380.947 368.185 368.882 364.409 366.828C361.63 365.317 361.681 354.891 356.112 351.2C348.639 346.248 324.824 342.566 316.16 341.877C307.844 341.216 293.379 342.605 285.577 345.651C272.565 350.731 267.375 360.422 261.645 372.907C185.939 396.314 116.743 435.95 95.2527 515.898C76.7207 582.95 76.0415 654.834 83.2008 723.603C84.6329 728.632 83.6292 736.515 87.9732 739.848C72.8766 740.715 127.704 743.829 129.752 744.387Z" fill="#F1F0E0"/>
<path fill-rule="evenodd" clip-rule="evenodd" d="M474.099 678.179C472.666 677.463 471.173 676.645 469.537 676.588C466.727 676.49 466.723 672.117 469.537 672.215C471.991 672.301 474.146 673.324 476.305 674.403C478.825 675.661 476.609 679.432 474.099 678.179M469.533 555.084C471.45 555.086 473.383 555.328 474.856 556.67C475.731 557.468 475.662 558.955 474.856 559.762C473.993 560.624 472.637 560.557 471.764 559.762C472.049 560.021 471.767 559.764 471.663 559.707C471.639 559.694 471.625 559.684 471.619 559.678C471.597 559.673 471.575 559.669 471.539 559.659C471.311 559.602 471.085 559.546 470.854 559.504C470.85 559.515 470.366 559.472 470.253 559.467C470.012 559.459 469.773 559.458 469.533 559.458C468.347 559.457 467.347 558.458 467.347 557.271C467.347 556.09 468.352 555.084 469.533 555.084M448.984 604.138C448.358 606.884 444.144 605.715 444.769 602.975C445.677 598.991 445.512 594.91 444.769 590.913C444.257 588.158 448.471 586.987 448.984 589.751C449.875 594.546 450.074 599.358 448.984 604.138M443.459 446.974C440.203 446.2 436.983 446.108 433.653 446.107C430.836 446.106 430.84 441.733 433.653 441.734C437.367 441.735 440.993 441.895 444.621 442.757C447.361 443.408 446.193 447.623 443.459 446.974M432.548 553.493C430.66 552.548 428.771 551.603 426.883 550.659C424.363 549.399 426.58 545.628 429.089 546.883L434.754 549.717C437.273 550.977 435.057 554.748 432.548 553.493M431.762 639.61C429.367 643.065 426 645.211 421.958 646.283C419.232 647.006 418.079 642.786 420.796 642.066C423.686 641.299 426.254 639.904 427.988 637.403C429.581 635.104 433.369 637.293 431.762 639.61M416.653 485.642C416.005 484.43 415.03 483.919 413.819 483.891C411.006 483.827 411.005 479.454 413.819 479.518C416.578 479.581 419.109 480.967 420.427 483.435C421.755 485.918 417.979 488.125 416.653 485.642M388.931 515.368C388.148 516.222 386.628 516.2 385.84 515.368C385.357 514.858 384.952 514.289 384.633 513.666C384.512 513.429 384.397 513.188 384.264 512.958C384.204 512.855 384.138 512.754 384.071 512.655C384.048 512.635 384 512.586 383.951 512.534C383.111 511.646 383.132 510.334 383.951 509.442C384.735 508.588 386.255 508.609 387.043 509.442C387.525 509.951 387.931 510.52 388.249 511.144C388.37 511.381 388.485 511.622 388.619 511.852C388.678 511.955 388.744 512.056 388.812 512.154C388.835 512.174 388.882 512.224 388.931 512.275C389.771 513.164 389.75 514.475 388.931 515.368M386.602 579.942C383.755 581.245 380.633 581.245 377.786 579.942C376.708 579.448 376.452 577.891 377.003 576.95C377.64 575.86 378.92 575.675 379.993 576.166C381.284 576.757 383.107 576.756 384.396 576.166C385.474 575.673 386.742 575.848 387.386 576.95C387.94 577.897 387.676 579.451 386.602 579.942M378.83 625.648C378.341 626.806 377.285 627.422 376.05 627.469C374.826 627.515 373.916 626.43 373.864 625.282C373.831 624.541 374.232 623.908 374.807 623.515C374.808 623.475 374.809 623.434 374.809 623.393C374.81 622.168 375.81 621.26 376.995 621.207C378.174 621.154 379.181 622.25 379.18 623.393C379.18 624.165 379.132 624.931 378.83 625.648M367.557 698.314C364.069 698.37 360.66 699.202 357.171 699.258C354.352 699.304 354.361 694.931 357.171 694.885C360.66 694.828 364.068 693.997 367.557 693.941C370.376 693.895 370.367 698.268 367.557 698.314M353.048 418.074C351.006 420.02 348.483 420.978 345.996 422.194C343.476 423.426 341.262 419.653 343.789 418.418C345.896 417.388 348.229 416.627 349.957 414.982C351.995 413.04 355.09 416.129 353.048 418.074M347.566 468.479C346.134 467.764 344.64 466.945 343.005 466.889C340.194 466.79 340.191 462.417 343.005 462.515C345.458 462.601 347.613 463.625 349.773 464.703C352.293 465.961 350.077 469.732 347.566 468.479M321.289 670.781C320.642 669.569 319.666 669.057 318.455 669.03C315.642 668.966 315.641 664.593 318.455 664.657C321.215 664.72 323.745 666.106 325.064 668.574C326.391 671.057 322.616 673.264 321.289 670.781M312.186 575.82C311.316 575.021 311.377 573.538 312.186 572.728C313.13 571.783 314.074 570.839 315.019 569.894C315.882 569.03 317.237 569.093 318.11 569.894C318.979 570.693 318.919 572.176 318.11 572.986C317.165 573.931 316.221 574.875 315.277 575.82C314.412 576.685 313.058 576.621 312.186 575.82M301.464 723.818C298.311 723.744 295.355 722.839 292.385 721.851C289.725 720.965 290.872 716.743 293.548 717.634C296.128 718.493 298.721 719.381 301.464 719.445C304.278 719.51 304.279 723.883 301.464 723.818M287.296 630.304C284.447 630.225 282.084 628.773 280.086 626.829C278.065 624.864 281.159 621.774 283.177 623.738C284.321 624.849 285.64 625.885 287.296 625.931C290.109 626.009 290.111 630.382 287.296 630.304M296.096 510.043C296.13 511.207 296.622 512.455 297.344 513.22C299.276 515.267 296.189 518.363 294.253 516.312C292.657 514.621 291.792 512.357 291.724 510.043C291.644 507.223 296.016 507.235 296.096 510.043M262.747 414.796C261.832 413.004 260.633 410.903 258.81 409.913C256.334 408.569 258.543 404.794 261.016 406.137C263.495 407.483 265.269 410.135 266.522 412.589C267.8 415.093 264.027 417.303 262.747 414.796M257.086 460.277C256.072 460.248 255.065 460.074 254.087 459.809C253.669 459.695 253.256 459.565 252.837 459.451C252.658 459.402 251.897 459.307 252.365 459.332C251.181 459.269 250.179 458.382 250.179 457.146C250.179 456.009 251.184 454.896 252.365 454.959C253.987 455.046 255.462 455.858 257.086 455.904C259.897 455.983 259.899 460.356 257.086 460.277M242.917 530.176H238.196C235.379 530.176 235.384 525.803 238.196 525.803H242.917C245.735 525.803 245.73 530.176 242.917 530.176M237.409 723.518C235.977 724.235 234.29 724.914 233.13 726.01C231.085 727.944 227.99 724.856 230.039 722.918C231.516 721.521 233.404 720.642 235.203 719.742C236.262 719.212 237.565 719.452 238.193 720.527C238.761 721.499 238.464 722.99 237.409 723.518M226.86 668.265C226.677 668.214 226.484 668.178 226.299 668.153C225.556 668.053 224.778 668.088 224.032 668.087C221.214 668.086 221.219 663.712 224.032 663.714C226.249 663.715 228.556 663.746 230.299 665.299C231.183 666.088 231.097 667.592 230.299 668.391C229.43 669.26 228.088 669.177 227.207 668.391C227.3 668.475 226.982 668.299 226.86 668.265M224.033 593.952C224.668 592.642 224.678 591.788 224.679 590.333C224.681 587.514 229.053 587.519 229.05 590.333C229.049 592.446 228.735 594.245 227.808 596.159C227.29 597.226 225.776 597.505 224.818 596.944C223.743 596.316 223.519 595.014 224.033 593.952M211.396 491.369C208.86 492.232 206.597 493.453 204.364 494.927C202.008 496.483 199.82 492.694 202.158 491.151C204.706 489.469 207.341 488.136 210.234 487.152C212.908 486.242 214.045 490.468 211.396 491.369M196.652 417.769C194.769 417.821 192.824 418.544 191.146 419.359C188.623 420.585 186.409 416.813 188.94 415.583C191.337 414.418 193.961 413.471 196.652 413.396C199.471 413.316 199.459 417.69 196.652 417.769M190.039 614.245C189.298 614.278 188.665 613.877 188.272 613.301C188.231 613.301 188.191 613.3 188.151 613.3C186.925 613.299 186.018 612.299 185.965 611.113C185.912 609.933 187.007 608.926 188.151 608.927C188.922 608.927 189.688 608.974 190.405 609.277C191.562 609.766 192.178 610.823 192.225 612.058C192.271 613.283 191.186 614.193 190.039 614.245M179.294 463.031C176.609 463.909 175.47 459.685 178.132 458.814C181.257 457.793 184.45 457.002 187.575 455.98C190.259 455.103 191.399 459.327 188.736 460.197C185.612 461.219 182.418 462.01 179.294 463.031M169.485 545.573C168.652 548.257 164.434 547.105 165.269 544.41C166.076 541.809 166.134 539.192 166.135 536.49C166.137 533.671 170.508 533.676 170.507 536.49C170.505 539.565 170.402 542.613 169.485 545.573M140.261 644.437C140.102 645.526 139.239 646.311 138.109 646.361C136.958 646.413 135.881 645.319 135.923 644.175C136.003 641.974 137.797 640.18 139.997 640.099C141.221 640.054 142.131 641.137 142.183 642.286C142.233 643.403 141.301 644.274 140.261 644.437M125.473 518.762C123.163 519.534 120.695 520.268 118.884 521.978C116.838 523.91 113.743 520.822 115.793 518.886C118.181 516.631 121.252 515.567 124.311 514.545C126.99 513.651 128.128 517.876 125.473 518.762M115.448 603.715C114.813 604.801 113.527 604.997 112.458 604.5C111.024 603.833 109.441 603.855 107.895 603.854C105.078 603.851 105.082 599.478 107.895 599.48C110.28 599.483 112.479 599.707 114.664 600.723C115.739 601.224 116.001 602.77 115.448 603.715M109.78 706.814C108.556 706.859 107.646 705.776 107.594 704.628C107.544 703.511 108.476 702.639 109.517 702.476C109.675 701.387 110.539 700.602 111.669 700.552C112.819 700.5 113.896 701.594 113.854 702.739C113.774 704.94 111.981 706.734 109.78 706.814M508.034 723.35C507.291 720.677 505.592 718.517 504.308 716.112C503.877 715.302 503.727 714.798 503.494 714.204C503.177 714.839 502.562 715.316 501.637 715.316C499.862 715.317 497.786 715.203 496.13 715.962C495.053 716.456 493.784 716.281 493.14 715.178C492.586 714.231 492.851 712.678 493.924 712.186C496.365 711.067 498.989 710.944 501.637 710.943C502.291 710.943 502.786 711.184 503.135 711.546C504.147 697.683 504.122 683.81 503.165 669.938C502.144 655.113 499.793 640.583 497.335 625.949C496.144 618.854 494.598 611.688 494.898 604.461C495.199 597.284 498.275 590.593 496.095 583.393C495.22 580.507 493.723 577.861 492.751 575.008C491.707 571.936 491.8 568.902 492.275 565.721C493.253 559.243 494.876 552.842 492.28 546.517C491.133 543.713 489.275 541.209 488.379 538.312C487.264 534.71 487.417 530.725 487.232 526.991C486.855 519.458 486.756 511.876 486.133 504.36C485.855 500.993 485.248 497.8 483.866 494.712C482.537 491.738 480.565 489.032 479.686 485.878C478.811 482.773 478.735 479.499 478.265 476.323C477.773 472.967 477.003 469.659 475.964 466.434C471.954 453.949 464.604 442.732 455.921 433.007C446.692 422.67 435.66 414.886 423.95 407.632C417.792 403.818 411.635 400.003 405.482 396.189C405.351 396.904 404.894 397.562 404.019 397.855C401.708 398.627 399.241 399.36 397.429 401.071C395.383 403.003 392.288 399.915 394.338 397.979C396.477 395.959 399.165 394.895 401.9 393.961C399.096 392.193 396.263 390.363 393.099 389.341C390.328 388.445 386.241 389.227 383.995 387.193C382.23 385.592 381.672 382.623 380.995 380.448C380.148 377.747 379.416 374.899 378.34 372.275C377.608 370.482 376.542 368.76 375.198 367.372C374.608 365.098 373.525 363.021 371.613 361.758C366.608 358.445 360.461 361.736 358.259 366.459C356.439 366.454 354.521 366.853 352.751 366.962C349.111 367.192 345.467 367.295 341.822 367.285C334.691 367.263 327.555 366.798 320.484 365.852C307.84 364.158 295.572 360.741 283.141 358.079C283.07 357.915 282.988 357.751 282.89 357.587C280.212 353.094 273.541 353.854 269.338 355.554C267.535 356.281 265.699 357.199 264.667 358.905C263.574 359.642 262.628 360.539 262 361.485C260.7 363.436 259.694 367.372 257.055 367.7C255.317 367.913 253.552 367.58 251.787 367.831C249.58 368.137 247.602 368.914 245.564 369.799C230.045 376.539 214.002 384.034 197.16 386.647C193.21 387.259 189.189 387.893 185.757 390.107C182.97 391.905 180.817 394.376 178.517 396.721C176.277 399.006 174.43 400.017 171.233 400.427C167.353 400.925 163.993 401.996 161.157 404.817C158.802 407.162 157.266 410.158 155.419 412.88C153.539 415.657 150.78 417.22 147.917 418.833C141.147 422.648 134.841 427.256 129.349 432.783C117.782 444.437 110.776 459.415 103.717 474.011C96.083 489.798 88.9467 505.776 83.996 522.634C79.1438 539.187 76.2586 556.214 74.9253 573.401C73.521 591.434 73.3243 609.539 72.155 627.584C71.5703 636.598 71.1277 645.623 70.6796 654.643C70.2425 663.553 69.6032 672.479 69.7064 681.401C69.9037 698.647 73.3511 715.948 79.3787 732.096C80.8814 736.114 82.5475 740.077 84.3233 743.98C85.8812 747.407 91.2089 747.025 92.8809 743.98C93.2634 743.28 93.564 742.559 93.8153 741.826C98.1867 741.864 102.602 741.526 106.946 741.93C114.618 742.646 122.305 743.045 129.999 743.521C145.223 744.466 160.474 745.095 175.703 745.964C177.18 746.048 178.658 746.133 180.135 746.221C169.282 712.618 170.69 676.288 168.973 641.341C168.834 638.523 173.207 638.54 173.344 641.341C175.068 676.438 173.6 712.86 184.836 746.519C189.196 746.814 193.549 747.175 197.888 747.703C201.395 748.124 204.92 748.621 208.461 748.446C212.477 748.255 216.401 747.336 220.319 746.538C227.439 745.09 234.296 745.746 241.443 746.637C249.088 747.593 256.76 748.124 264.453 748.457C295.261 749.807 326.276 751.037 357.073 748.976C364.526 748.479 371.963 747.779 379.367 746.828C386.995 745.849 394.541 744.204 402.163 743.269C409.677 742.351 416.584 744.871 424.01 745.336C431.583 745.811 439.359 744.231 446.862 743.324C449.309 743.027 451.759 742.739 454.21 742.452C451.055 720.819 449.261 699.023 447.518 677.235C447.294 674.425 451.667 674.449 451.89 677.235C453.618 698.853 455.372 720.486 458.522 741.949C471.514 740.437 484.518 738.907 497.373 736.551C501.034 735.884 504.674 734.796 506.865 731.527C508.487 729.106 508.816 726.138 508.034 723.35" fill="black"/>
<path fill-rule="evenodd" clip-rule="evenodd" d="M441.741 238.089C436.741 210.813 424.412 184.859 405.476 164.551C403.291 162.14 401.328 158.337 397.993 157.729C394.647 150.906 388.267 146.083 383.167 140.574C372.036 129.471 361.386 117.064 347.029 110.052C280.436 82.6537 216.353 160.777 202.754 219.531C189.247 266.781 203.999 331.961 262.534 333.873C270.815 344.83 282.242 352.414 293.979 359.188C310.009 369.455 327.495 373.622 346.039 367.909C364.508 372.737 383.653 357.244 394.752 343.657C403.525 333.132 409.538 320.288 417.562 309.394C427.035 309.157 435.222 301.132 436.49 291.726C445.339 275.46 444.936 255.968 441.741 238.089V238.089Z" fill="#F1F0E0"/>
<path fill-rule="evenodd" clip-rule="evenodd" d="M296.687 100.772C308.804 97.9399 321.511 98.527 333.513 101.64C357.302 107.809 376.875 123.854 393.105 141.743C408.935 159.192 421.99 179.194 431.525 200.742L432.008 201.838C438.752 217.199 444.613 233.164 444.864 250.078C445.08 264.634 443.61 279.799 438.91 293.644C434.722 305.978 427.019 318.407 413.766 321.363C406.124 340.795 391.174 357.623 372.342 366.627C360.661 372.212 347.834 374.706 334.92 373.466C321.744 372.202 309.436 365.869 299.139 357.792C298.857 357.571 299.22 357.142 299.511 357.309C311.909 364.456 326.572 367.011 340.772 366.541C364.109 365.769 385.503 353.169 397.797 333.362C400.856 328.433 403.581 323.233 405.756 317.824C405.628 317.379 405.555 316.928 405.555 316.488C405.555 314.625 406.439 313.201 407.758 312.281C408.369 310.369 408.91 308.436 409.362 306.481C410.387 302.052 410.958 297.559 411.303 293.03C411.583 289.35 411.428 285.447 411.797 281.673C411.663 278.65 411.476 275.629 411.202 272.615C410.32 262.902 408.538 253.214 405.105 244.06C401.627 234.788 396.134 226.611 389.204 219.573C374.341 204.478 355.834 193.457 341.381 177.95L340.624 177.13L340.572 177.113C338.779 178.953 336.987 180.792 335.19 182.628L326.979 191.006C310.22 208.125 293.597 225.41 279.018 244.459C270.623 255.428 263.081 266.927 256.582 279.12C253.505 284.895 250.714 290.814 248.192 296.852L247.2 299.256C246.019 302.133 244.742 305.352 244.034 308.601C246.143 310.694 247.685 313.77 249.391 316.146C251.326 318.84 253.558 321.405 255.854 323.799C258.178 326.222 260.727 328.545 263.433 330.535L263.758 330.77C266.863 332.974 270.426 334.496 270.892 338.692C271.094 340.514 269.466 341.979 267.958 342.547C263.831 344.098 259.556 339.642 256.805 337.08C255.09 335.481 253.513 333.759 252.051 331.94C250.627 332.144 249.195 332.246 247.777 332.078C245.579 331.817 243.404 331.432 241.263 330.869C223.511 326.207 210.371 311.464 203.282 295.044C193.764 273 193.985 247.59 197.942 224.279C205.172 181.679 228.571 141.896 263.903 116.709C273.798 109.655 284.771 103.557 296.687 100.772ZM315.813 106.472C292.987 105.268 272.177 117.043 255.481 131.7C225.081 158.387 206.356 197.461 202.589 237.586C200.588 258.905 202.085 281.884 213.198 300.72C217.509 308.028 223.062 314.396 229.616 319.765C235.792 324.825 242.832 327.741 250.359 329.726C250.016 329.253 249.678 328.778 249.349 328.295C247.598 325.731 246.208 323.005 245.043 320.15C244.94 320.252 244.747 320.273 244.632 320.116C239.882 313.595 241.369 305.814 243.633 298.644C246.007 291.122 249.016 283.804 252.451 276.705C264.969 250.833 283.588 228.295 302.915 207.263C312.785 196.522 322.983 186.092 333.144 175.627C338.218 170.401 343.278 165.159 348.275 159.858C350.762 157.219 353.233 154.566 355.682 151.892C358.104 149.248 360.283 146.447 363.298 144.467C365.702 142.889 368.101 145.905 366.978 148.149C365.25 151.599 362.278 154.335 359.649 157.141L359.378 157.431C356.815 160.199 354.228 162.945 351.625 165.676C348.632 168.817 345.615 171.937 342.589 175.048C345.169 174.749 347.781 174.577 350.346 174.187C353.83 173.658 357.267 172.879 360.687 172.031C364.291 171.138 367.848 169.998 371.281 168.581C374.507 167.251 377.555 165.119 381.104 164.91C384.108 164.733 385.047 168.454 383.382 170.412C381.088 173.11 376.964 174.172 373.61 175.174L373.137 175.317C369.427 176.45 365.631 177.3 361.794 177.868C356.745 178.616 350.911 178.958 345.509 178.192C356.296 184.519 366.221 192.36 376.119 200.007L377.865 201.354C387.536 208.797 396.973 216.821 403.868 227.004C410.304 236.511 414.19 247.579 416.371 258.793C417.447 264.326 418.157 269.917 418.633 275.531C420.409 280.509 420.124 286.427 419.676 291.902L419.517 293.792L419.529 294.346C419.595 297.77 420.971 305.394 417.732 307.98C417.676 308.255 417.625 308.532 417.567 308.808C417.97 308.559 418.369 308.302 418.764 308.039C418.926 307.93 419.083 307.81 419.242 307.693L419.69 307.325C419.707 307.311 419.722 307.298 419.734 307.288C420.739 306.405 421.698 305.483 422.592 304.487C424.244 302.645 425.814 300.305 427.302 297.609C430.57 291.683 432.658 285.242 434.272 278.581C437.224 266.405 438.442 253.327 437.096 240.839C436.908 239.096 436.522 236.91 435.924 234.668C434.503 229.344 432.869 224.076 431.039 218.879C427.378 208.482 422.891 198.396 417.659 188.697C407.033 168.996 393.362 150.782 376.981 135.497C360.392 120.018 338.878 107.687 315.813 106.472ZM283.624 169.417C284.447 168.914 285.294 169.891 284.886 170.679C282.91 174.494 279.586 177.715 276.826 180.984C273.967 184.369 271.13 187.772 268.299 191.181C262.536 198.12 256.91 205.187 251.507 212.412L250.08 214.323C245.329 220.702 240.636 227.183 236.484 233.961C234.311 237.507 232.396 241.175 230.658 244.951C229.002 248.547 228.239 252.886 226.25 256.264C226.125 256.477 225.737 256.459 225.689 256.19C225.04 252.554 226.644 248.174 227.789 244.769C229.152 240.719 231.09 236.862 233.166 233.137C237.494 225.366 242.681 218.082 247.892 210.886C253.184 203.579 258.678 196.421 264.443 189.48C267.15 186.22 269.918 183.024 272.769 179.892L273.842 178.72C276.828 175.48 279.838 171.729 283.624 169.417ZM269.789 158.119C271.143 157.116 272.298 159.166 271.434 160.252C266.277 166.743 260.408 172.575 254.764 178.629C249.343 184.442 244.162 190.473 239.273 196.742C229.304 209.524 221.325 223.549 214.567 238.249C214.439 238.526 214.038 238.32 214.098 238.052C217.678 222.152 226.047 207.711 235.576 194.663L235.939 194.168C245.577 181.047 256.656 167.857 269.789 158.119Z" fill="black"/>
<path fill-rule="evenodd" clip-rule="evenodd" d="M326.155 302.005C335.522 300.868 344.601 303.737 353.758 305.183C358.593 305.946 363.434 306.516 368.326 306.727C369.311 306.771 370.295 306.796 371.28 306.816C371.372 305.949 371.857 305.152 372.908 304.675C375.063 303.698 376.788 303.257 379.154 303.352C381.319 303.437 383.493 303.66 385.625 304.05C389.498 304.761 393.387 306.372 396.22 309.173C402.776 315.652 401.778 326.06 396.712 333.117C386.247 347.7 367.147 348.377 350.788 348.186L349.278 348.167C334.383 347.954 313.072 350.175 306.305 333.222C303.817 326.988 304.162 319.761 307.209 313.782C310.843 306.65 318.493 302.935 326.155 302.005ZM372.687 326.288L372.553 326.293C365.686 326.558 358.819 326.744 351.948 326.866C352.154 328.631 352.364 330.397 352.603 332.158C352.792 333.545 352.993 334.929 353.203 336.312C353.292 336.898 353.618 337.807 353.526 338.387L353.493 338.616V338.616C353.846 338.776 354.166 339.033 354.404 339.406C354.487 339.535 354.547 339.665 354.607 339.795C359.941 339.837 365.682 339.733 371.121 338.763L371.132 338.645V338.645C371.23 337.95 371.519 337.482 371.903 337.161C372.285 334.945 372.251 332.583 372.398 330.384C372.49 329.018 372.59 327.653 372.687 326.288ZM346.699 326.957C341.749 327.041 336.797 327.106 331.848 327.046L329.601 327.011V327.011C330.076 329.558 330.592 332.095 331.021 334.658C331.469 337.33 329.118 339.028 327.084 338.96C327.313 338.997 327.54 339.036 327.769 339.068C334.125 339.967 340.725 339.729 347.175 339.722C346.828 337.695 346.969 335.409 346.917 333.718L346.907 333.456C346.808 331.288 346.739 329.123 346.699 326.957ZM313.081 326.49C313.253 327.814 313.587 329.11 314.087 330.316C316.2 335.413 321.044 337.792 326.169 338.794C325.28 338.486 324.574 337.748 324.396 336.484C323.951 333.341 323.791 330.145 323.779 326.953C320.207 326.92 316.612 326.844 313.081 326.49ZM391.314 325.404C388.771 326.004 385.816 325.729 383.32 325.842C380.983 325.949 378.644 326.041 376.307 326.136C376.417 327.732 376.524 329.328 376.641 330.924C376.792 332.986 376.806 335.165 377.201 337.218C381.905 335.612 386.12 333.036 389.283 328.918C390.071 327.891 390.776 326.687 391.314 325.404ZM325.088 310.368C320.855 311.371 316.848 313.489 314.695 317.364C313.417 319.664 312.855 322.389 312.963 325.075C316.541 324.658 320.18 324.5 323.802 324.37C323.814 323.717 323.83 323.065 323.849 322.415L323.905 320.748C324.004 317.568 324.053 313.576 325.088 310.368ZM346.998 310.758L345.135 310.548C339.959 309.958 334.785 309.339 329.609 309.694C328.86 309.746 328.099 309.827 327.337 309.939C328.252 313.242 328.175 317.121 328.557 320.391C328.705 321.655 328.891 322.909 329.098 324.158L329.996 324.116V324.116C335.55 323.815 341.11 323.629 346.669 323.409C346.669 322.365 346.674 321.32 346.691 320.275L346.712 319.23C346.775 316.56 346.603 313.553 346.998 310.758ZM372.989 310.332C367.567 311.208 361.964 311.394 356.639 311.401C354.512 311.403 352.386 311.273 350.261 311.084C350.399 312.216 350.471 313.361 350.575 314.477C350.785 316.732 351.025 318.984 351.286 321.234L351.518 323.202V323.202C358.351 322.893 365.183 322.558 372.014 322.211L372.978 322.159V322.159L373.248 318.376C373.432 315.853 373.634 313.331 373.92 310.819L373.706 310.742V310.742C373.454 310.639 373.215 310.496 372.989 310.332ZM375.347 311.272C375.646 314.839 375.811 318.421 376.031 321.994L380.534 321.753C381.284 321.712 382.035 321.671 382.785 321.627C385.704 321.459 389.453 320.575 392.338 321.4C392.558 318.776 391.809 316.22 389.442 314.457C385.286 311.361 379.995 312.464 375.347 311.272ZM359.961 279.384C366.667 275.542 383.492 271.616 384.558 283.688C385.048 289.244 380.919 293.847 376.098 295.901L375.917 295.977C371.395 297.836 363.381 299.936 359.468 295.904C356.211 292.548 360.531 286.53 364.578 289.279C366.657 290.692 371.035 289.651 373.356 288.979L373.501 288.936C376.005 288.2 379.344 285.844 378.308 282.759C377.392 280.03 373.493 279.531 371.051 279.443C367.405 279.312 363.858 280.159 360.246 280.435C359.674 280.478 359.498 279.65 359.961 279.384ZM387.738 259.971C396.839 259.545 402.501 269.486 400.408 277.631C400.046 279.037 398.475 280.417 396.958 280.259L396.576 280.223C396.382 280.205 396.187 280.18 396.007 280.131C394.567 279.732 393.276 278.233 393.381 276.679L393.408 276.227C393.621 272.379 393.204 267.945 388.633 267.013C384.756 266.223 382.591 269.956 382.545 273.392C382.537 274.002 381.851 274.428 381.312 274.1C378.51 272.394 378.024 269 379.095 266.077C380.452 262.374 383.847 260.153 387.738 259.971ZM320.194 262.103C326.817 259.892 333.963 263.424 337.17 269.282C338.295 269.608 339.418 270.475 339.262 271.804C339.036 273.715 338.696 274.919 337.372 276.369C335.3 278.636 331.42 277.477 330.559 274.686L330.522 274.56C329.544 270.953 325.575 268.572 321.959 269.835C317.735 271.31 317.858 275.773 314.895 278.373C314.547 278.678 314.129 278.727 313.712 278.525C310.565 277.004 311.131 272.425 312.253 269.805C313.724 266.366 316.584 263.307 320.194 262.103ZM311.175 241.983C316.542 236.505 330.537 231.204 334.208 241.32C334.908 243.247 333.419 245.845 331.413 246.245C328.129 246.899 325.216 245.473 321.953 245.728C319.313 245.937 316.558 246.82 314.447 248.456C308.599 252.989 307.312 260.656 303.238 266.425C303.039 266.706 302.654 266.588 302.618 266.256C301.69 257.857 305.296 247.983 311.175 241.983ZM381.172 236.59C384.734 235.332 388.767 235.44 392.347 236.556C395.954 237.681 399.265 239.817 401.815 242.608C402.973 243.875 404.044 245.274 404.903 246.762C405.359 247.551 405.839 249.181 406.357 250.151C409.163 251.771 410.362 255.464 407.85 258.091L407.737 258.206L407.401 258.54C406.051 259.877 404.015 260.456 402.172 259.922C398.047 258.728 397.546 255.478 396.118 252.029C395.175 249.751 393.559 247.735 391.6 246.254C386.97 242.755 379.379 241.641 373.805 243.289C373.508 243.377 373.16 242.999 373.371 242.725C374.427 241.356 375.036 240.233 376.45 239.128C377.886 238.008 379.452 237.198 381.172 236.59Z" fill="black"/>
</svg>
